<svg xmlns="http://www.w3.org/2000/svg" width="300" height="90" viewBox="0 0 300 90" role="img" aria-label="Waveform 0 Twang">
  <rect x="0" y="0" width="300" height="90" fill="#ffffff"/>
  <line x1="10" y1="45" x2="290" y2="45" stroke="#d3d6dd" stroke-width="1"/>
  <polyline points="10,30.93 12.205,64.3 14.409,24.645 16.614,12.8 18.819,46.586 21.024,37.104 23.228,12.8 25.433,12.8 27.638,24.959 29.843,61.518 32.047,64.525 34.252,56.219 36.457,12.8 38.661,50.842 40.866,12.8 43.071,21.739 45.276,46.512 47.48,66.655 49.685,21.43 51.89,49.528 54.094,55.357 56.299,77.2 58.504,77.2 60.709,71.174 62.913,77.2 65.118,77.2 67.323,40.895 69.528,75.622 71.732,67.596 73.937,24.824 76.142,75.074 78.346,40.244 80.551,50.849 82.756,66.589 84.961,18.3 87.165,41.934 89.37,36.7 91.575,66.428 93.78,39.654 95.984,34.698 98.189,40.048 100.394,12.8 102.598,48.091 104.803,12.8 107.008,12.8 109.213,44.158 111.417,31.69 113.622,30.928 115.827,53.485 118.031,48.299 120.236,45.009 122.441,52.65 124.646,38.969 126.85,20.189 129.055,54.494 131.26,69.967 133.465,23.957 135.669,51.936 137.874,45.683 140.079,40.156 142.283,49.523 144.488,74.778 146.693,34.605 148.898,37.051 151.102,21.469 153.307,70.528 155.512,48.443 157.717,15.282 159.921,34.497 162.126,35.087 164.331,28.008 166.535,61.2 168.74,54.59 170.945,21.549 173.15,34.556 175.354,34.361 177.559,34.111 179.764,56.396 181.969,15.894 184.173,51.866 186.378,20.919 188.583,19.753 190.787,15.654 192.992,73.139 195.197,43.176 197.402,63.989 199.606,29.155 201.811,19.395 204.016,58.981 206.22,32.009 208.425,38.744 210.63,31.045 212.835,36.308 215.039,52.648 217.244,60.527 219.449,56.307 221.654,62.777 223.858,68.572 226.063,38.52 228.268,23.731 230.472,12.8 232.677,42.89 234.882,16.707 237.087,22.729 239.291,61.623 241.496,12.8 243.701,25.785 245.906,21.999 248.11,16.449 250.315,13.883 252.52,13.281 254.724,17.644 256.929,16.328 259.134,52.807 261.339,35.924 263.543,61.443 265.748,52.898 267.953,21.435 270.157,19.913 272.362,65.906 274.567,34.44 276.772,66.18 278.976,53.04 281.181,37.7 283.386,43.22 285.591,35.404 287.795,39.511 290,21.196" fill="none" stroke="#1b1f27" stroke-width="2" stroke-linecap="round" stroke-linejoin="round"/>
</svg>
