<svg xmlns="http://www.w3.org/2000/svg" width="300" height="90" viewBox="0 0 300 90" role="img" aria-label="Waveform 1 Clav">
  <rect x="0" y="0" width="300" height="90" fill="#ffffff"/>
  <line x1="10" y1="45" x2="290" y2="45" stroke="#d3d6dd" stroke-width="1"/>
  <polyline points="10,55.667 12.205,62.398 14.409,55.618 16.614,35.629 18.819,45.976 21.024,40.316 23.228,12.8 25.433,55.448 27.638,35.423 29.843,12.8 32.047,50.077 34.252,12.8 36.457,15.613 38.661,15.033 40.866,34.104 43.071,17.372 45.276,32.695 47.48,35.013 49.685,56.29 51.89,69.252 54.094,73.77 56.299,27.209 58.504,77.2 60.709,74.754 62.913,27.01 65.118,37.402 67.323,74.856 69.528,26.291 71.732,69.084 73.937,24.7 76.142,47.35 78.346,64.578 80.551,29.793 82.756,25.33 84.961,12.8 87.165,39.363 89.37,36.588 91.575,12.8 93.78,29.206 95.984,12.8 98.189,20.432 100.394,21.542 102.598,76.666 104.803,26.459 107.008,77.2 109.213,19.783 111.417,36.684 113.622,59.848 115.827,27.955 118.031,64.276 120.236,77.2 122.441,50.644 124.646,17.452 126.85,70.582 129.055,63.237 131.26,58.932 133.465,43.243 135.669,68.197 137.874,71.435 140.079,15.433 142.283,70.351 144.488,46.479 146.693,27.042 148.898,49.811 151.102,46.004 153.307,28.103 155.512,74.308 157.717,18.59 159.921,35.807 162.126,36.362 164.331,17.048 166.535,71.978 168.74,61.899 170.945,17.818 173.15,37.073 175.354,17.496 177.559,18.904 179.764,39.018 181.969,60.609 184.173,58.702 186.378,22.947 188.583,65.495 190.787,18.23 192.992,56.795 195.197,17.647 197.402,27.199 199.606,74.043 201.811,71.292 204.016,17.885 206.22,43.393 208.425,21.066 210.63,40.942 212.835,34.655 215.039,33.442 217.244,62.896 219.449,12.8 221.654,16.858 223.858,34.919 226.063,70.498 228.268,60.089 230.472,55.686 232.677,24.851 234.882,57.248 237.087,14.531 239.291,26.536 241.496,27.01 243.701,72.365 245.906,72.662 248.11,47.527 250.315,57.317 252.52,46.9 254.724,43.056 256.929,29.453 259.134,69.474 261.339,14.702 263.543,15.771 265.748,69.077 267.953,52.561 270.157,49.423 272.362,39.635 274.567,52.911 276.772,33.438 278.976,29.033 281.181,51.71 283.386,22.955 285.591,40.992 287.795,66.005 290,32.788" fill="none" stroke="#1b1f27" stroke-width="2" stroke-linecap="round" stroke-linejoin="round"/>
</svg>
