<svg xmlns="http://www.w3.org/2000/svg" width="300" height="90" viewBox="0 0 300 90" role="img" aria-label="Waveform 2 Xylophone">
  <rect x="0" y="0" width="300" height="90" fill="#ffffff"/>
  <line x1="10" y1="45" x2="290" y2="45" stroke="#d3d6dd" stroke-width="1"/>
  <polyline points="10,45.049 12.205,12.8 14.409,41.854 16.614,12.8 18.819,24.509 21.024,41.007 23.228,12.8 25.433,14.801 27.638,35.884 29.843,45.069 32.047,49.371 34.252,55.941 36.457,26.67 38.661,60.314 40.866,36.566 43.071,64.061 45.276,33.186 47.48,53.178 49.685,58.298 51.89,77.2 54.094,48.051 56.299,56.283 58.504,70.061 60.709,23.167 62.913,74.121 65.118,16.229 67.323,28.07 69.528,39.076 71.732,20.958 73.937,51.884 76.142,53.039 78.346,39.37 80.551,14.958 82.756,66.49 84.961,27.357 87.165,37.902 89.37,43.119 91.575,36.259 93.78,69.672 95.984,29.069 98.189,58.002 100.394,60.044 102.598,77.2 104.803,20.252 107.008,47.915 109.213,50.275 111.417,65.129 113.622,77.2 115.827,44.053 118.031,44.235 120.236,36.997 122.441,28.604 124.646,14.671 126.85,69.019 129.055,45.348 131.26,25.978 133.465,44.111 135.669,70.896 137.874,56.248 140.079,32.39 142.283,52.615 144.488,24.902 146.693,42.807 148.898,49.475 151.102,51.136 153.307,27.32 155.512,22.599 157.717,77.2 159.921,45.168 162.126,20.082 164.331,37.07 166.535,51.626 168.74,68.847 170.945,74.856 173.15,42.192 175.354,75.882 177.559,60.158 179.764,39.984 181.969,41.615 184.173,48.744 186.378,21.544 188.583,45.303 190.787,45.696 192.992,33.408 195.197,61.237 197.402,46.816 199.606,34.826 201.811,40.291 204.016,50.299 206.22,40.317 208.425,57.348 210.63,56.331 212.835,66.51 215.039,52.393 217.244,54.28 219.449,56.443 221.654,27.161 223.858,77.2 226.063,65.647 228.268,16.328 230.472,15.706 232.677,31.232 234.882,59.723 237.087,34.587 239.291,27.483 241.496,27.298 243.701,65.737 245.906,49.595 248.11,33.949 250.315,18.821 252.52,70.906 254.724,54.003 256.929,14.126 259.134,52.211 261.339,77.114 263.543,56.323 265.748,41.488 267.953,45.204 270.157,55.763 272.362,58.846 274.567,22.868 276.772,75.071 278.976,71.976 281.181,64.177 283.386,18.902 285.591,75.935 287.795,67.407 290,18.171" fill="none" stroke="#1b1f27" stroke-width="2" stroke-linecap="round" stroke-linejoin="round"/>
</svg>
