<svg xmlns="http://www.w3.org/2000/svg" width="300" height="90" viewBox="0 0 300 90" role="img" aria-label="Waveform 3 Slippery Slope">
  <rect x="0" y="0" width="300" height="90" fill="#ffffff"/>
  <line x1="10" y1="45" x2="290" y2="45" stroke="#d3d6dd" stroke-width="1"/>
  <polyline points="10,68.929 12.205,46.669 14.409,51.927 16.614,71.977 18.819,22.032 21.024,38.572 23.228,14.527 25.433,54.376 27.638,25.297 29.843,64.971 32.047,52.945 34.252,44.092 36.457,47.514 38.661,60.565 40.866,58.83 43.071,37.821 45.276,37.197 47.48,27.664 49.685,54.631 51.89,36.955 54.094,64.339 56.299,54.139 58.504,25.826 60.709,12.8 62.913,49.38 65.118,27.63 67.323,16.774 69.528,50.398 71.732,26.049 73.937,58.468 76.142,50.052 78.346,37.804 80.551,28.367 82.756,14.496 84.961,24.586 87.165,32.537 89.37,34.534 91.575,57.432 93.78,48.316 95.984,14.042 98.189,16.216 100.394,19.61 102.598,62.095 104.803,33.973 107.008,57.189 109.213,53.596 111.417,12.8 113.622,54.663 115.827,59.394 118.031,59.368 120.236,58.83 122.441,14.893 124.646,13.191 126.85,35.817 129.055,64.826 131.26,59.796 133.465,12.8 135.669,59.232 137.874,70.85 140.079,72.79 142.283,21.315 144.488,61.852 146.693,21.667 148.898,25.531 151.102,53.807 153.307,32.369 155.512,77.2 157.717,76.672 159.921,39.196 162.126,46.172 164.331,49.415 166.535,20.747 168.74,19.401 170.945,40.188 173.15,55.741 175.354,62.273 177.559,74.353 179.764,36.165 181.969,77.2 184.173,48.419 186.378,54.817 188.583,42.851 190.787,34.229 192.992,77.2 195.197,43.161 197.402,33.525 199.606,56.322 201.811,55.716 204.016,48.541 206.22,29.034 208.425,42.978 210.63,31.404 212.835,77.2 215.039,46.702 217.244,29.531 219.449,26.069 221.654,73.105 223.858,77.2 226.063,30.422 228.268,36.044 230.472,77.2 232.677,72.954 234.882,39.854 237.087,40.053 239.291,27.297 241.496,59.678 243.701,77.2 245.906,48.574 248.11,50.259 250.315,30.652 252.52,30.713 254.724,36.568 256.929,68.549 259.134,55.124 261.339,59.266 263.543,33.807 265.748,50.883 267.953,57.409 270.157,62.299 272.362,56.57 274.567,76.861 276.772,70.761 278.976,27.147 281.181,58.486 283.386,77.2 285.591,70.336 287.795,22.675 290,68.925" fill="none" stroke="#1b1f27" stroke-width="2" stroke-linecap="round" stroke-linejoin="round"/>
</svg>
