<svg xmlns="http://www.w3.org/2000/svg" width="300" height="90" viewBox="0 0 300 90" role="img" aria-label="Waveform 5 Xylophone 2">
  <rect x="0" y="0" width="300" height="90" fill="#ffffff"/>
  <line x1="10" y1="45" x2="290" y2="45" stroke="#d3d6dd" stroke-width="1"/>
  <polyline points="10,50.616 12.205,57.924 14.409,49.965 16.614,24.942 18.819,25.62 21.024,18.165 23.228,60.415 25.433,36.302 27.638,12.8 29.843,46.213 32.047,19.614 34.252,47.097 36.457,59.642 38.661,39.964 40.866,65.219 43.071,34.727 45.276,34.435 47.48,20.679 49.685,50.729 51.89,27.897 54.094,33.642 56.299,44.379 58.504,77.2 60.709,77.2 62.913,49.154 65.118,59.919 67.323,61.86 69.528,53.024 71.732,32.831 73.937,13.285 76.142,38.373 78.346,50.146 80.551,19.693 82.756,14.529 84.961,55.589 87.165,48.943 89.37,49.128 91.575,25.993 93.78,47.085 95.984,51.418 98.189,28.606 100.394,49.004 102.598,33.811 104.803,25.501 107.008,69.877 109.213,77.2 111.417,77.2 113.622,73.513 115.827,49.518 118.031,28.632 120.236,42.73 122.441,32.298 124.646,54.801 126.85,23.533 129.055,77.2 131.26,32.179 133.465,33.735 135.669,16.355 137.874,69.01 140.079,74.509 142.283,49.921 144.488,12.8 146.693,13.447 148.898,21.064 151.102,66.805 153.307,47.404 155.512,48.132 157.717,72.482 159.921,38.472 162.126,43.501 164.331,51.935 166.535,26.097 168.74,37.551 170.945,53.587 173.15,71.224 175.354,54.159 177.559,37.839 179.764,64.198 181.969,54.874 184.173,50.203 186.378,77.2 188.583,70.088 190.787,67.288 192.992,64.971 195.197,13.991 197.402,56.562 199.606,64.873 201.811,28.467 204.016,53.249 206.22,72.719 208.425,36.417 210.63,66.551 212.835,20.595 215.039,36.247 217.244,38.755 219.449,33.958 221.654,68.737 223.858,33.919 226.063,37.27 228.268,57.992 230.472,44.174 232.677,56.647 234.882,43.599 237.087,67.815 239.291,53.591 241.496,18.494 243.701,57.897 245.906,28.153 248.11,42.184 250.315,17.517 252.52,74.859 254.724,41.175 256.929,73.15 259.134,63.861 261.339,22.833 263.543,65.277 265.748,23.239 267.953,26.91 270.157,73.473 272.362,71.486 274.567,71.285 276.772,71.57 278.976,62.387 281.181,16.856 283.386,73.103 285.591,52.52 287.795,21.39 290,23.529" fill="none" stroke="#1b1f27" stroke-width="2" stroke-linecap="round" stroke-linejoin="round"/>
</svg>
