<svg xmlns="http://www.w3.org/2000/svg" width="300" height="90" viewBox="0 0 300 90" role="img" aria-label="Waveform 7 Chaos 1">
  <rect x="0" y="0" width="300" height="90" fill="#ffffff"/>
  <line x1="10" y1="45" x2="290" y2="45" stroke="#d3d6dd" stroke-width="1"/>
  <polyline points="10,38.299 12.205,53.959 14.409,33.991 16.614,69.518 18.819,65.565 21.024,39.636 23.228,12.8 25.433,12.8 27.638,12.8 29.843,36.32 32.047,62.51 34.252,65.515 36.457,36.233 38.661,12.8 40.866,19.812 43.071,17.278 45.276,51.967 47.48,74.05 49.685,12.8 51.89,12.8 54.094,77.2 56.299,22.905 58.504,12.8 60.709,70.504 62.913,41.33 65.118,44.148 67.323,29.465 69.528,57.2 71.732,12.8 73.937,30.164 76.142,70.61 78.346,42.847 80.551,77.2 82.756,77.2 84.961,49.862 87.165,12.8 89.37,26.556 91.575,12.8 93.78,12.8 95.984,73.485 98.189,32.048 100.394,54.549 102.598,41.945 104.803,45.996 107.008,49.954 109.213,57.571 111.417,70.896 113.622,63.885 115.827,37.784 118.031,53.991 120.236,77.2 122.441,37.97 124.646,17.652 126.85,67.348 129.055,26.242 131.26,21.43 133.465,52.093 135.669,61.368 137.874,19.997 140.079,47.219 142.283,14.917 144.488,40.671 146.693,77.2 148.898,12.8 151.102,44.831 153.307,12.8 155.512,77.2 157.717,16.458 159.921,26.654 162.126,77.2 164.331,23.225 166.535,29.411 168.74,45.78 170.945,61.827 173.15,34.812 175.354,49.196 177.559,12.8 179.764,33.797 181.969,66.969 184.173,55.704 186.378,47.652 188.583,70.3 190.787,51.489 192.992,49.329 195.197,68.803 197.402,77.2 199.606,21.696 201.811,36.118 204.016,77.2 206.22,27.264 208.425,46.231 210.63,50.371 212.835,31.247 215.039,73.345 217.244,13.689 219.449,77.2 221.654,27.729 223.858,77.2 226.063,77.2 228.268,12.8 230.472,52.65 232.677,31.598 234.882,54.882 237.087,77.2 239.291,77.2 241.496,38.825 243.701,58.978 245.906,66.773 248.11,12.8 250.315,12.8 252.52,16.509 254.724,35.844 256.929,50.043 259.134,12.8 261.339,12.8 263.543,32.363 265.748,12.8 267.953,68.399 270.157,37.094 272.362,31.009 274.567,33.707 276.772,31.811 278.976,45.018 281.181,12.8 283.386,16.028 285.591,74.913 287.795,13.21 290,12.8" fill="none" stroke="#1b1f27" stroke-width="2" stroke-linecap="round" stroke-linejoin="round"/>
</svg>
