<svg xmlns="http://www.w3.org/2000/svg" width="300" height="90" viewBox="0 0 300 90" role="img" aria-label="Waveform 8 Chaos 2">
  <rect x="0" y="0" width="300" height="90" fill="#ffffff"/>
  <line x1="10" y1="45" x2="290" y2="45" stroke="#d3d6dd" stroke-width="1"/>
  <polyline points="10,57.747 12.205,62.235 14.409,47.972 16.614,14.913 18.819,39.865 21.024,42.873 23.228,70 25.433,33.207 27.638,48.927 29.843,56.401 32.047,39.333 34.252,54.284 36.457,54.17 38.661,64.618 40.866,32.881 43.071,45.148 45.276,60.163 47.48,49.781 49.685,65.177 51.89,77.2 54.094,68.635 56.299,14.461 58.504,12.8 60.709,77.2 62.913,25.271 65.118,12.8 67.323,30 69.528,75.623 71.732,32.328 73.937,74.993 76.142,24.702 78.346,12.8 80.551,42.582 82.756,67.962 84.961,36.609 87.165,19.432 89.37,68.281 91.575,77.2 93.78,33.217 95.984,12.8 98.189,12.8 100.394,46.547 102.598,12.8 104.803,12.8 107.008,12.8 109.213,39.997 111.417,12.8 113.622,34.07 115.827,44.589 118.031,61.679 120.236,49.832 122.441,66.422 124.646,77.2 126.85,31.459 129.055,70.326 131.26,77.2 133.465,23.735 135.669,48.92 137.874,12.8 140.079,77.2 142.283,77.2 144.488,77.2 146.693,61.257 148.898,57.493 151.102,54.272 153.307,77.2 155.512,12.8 157.717,12.8 159.921,30.491 162.126,77.2 164.331,66.572 166.535,37.891 168.74,77.2 170.945,57.214 173.15,48.592 175.354,54.034 177.559,58.851 179.764,77.2 181.969,37.309 184.173,55.547 186.378,73.301 188.583,60.603 190.787,21.933 192.992,64.34 195.197,41.387 197.402,56.084 199.606,47.944 201.811,37.95 204.016,65.273 206.22,77.2 208.425,60.413 210.63,77.2 212.835,28.246 215.039,65.919 217.244,49.766 219.449,51.016 221.654,44.909 223.858,71.933 226.063,63.404 228.268,72.555 230.472,58.257 232.677,36.321 234.882,77.2 237.087,12.8 239.291,77.2 241.496,77.2 243.701,12.8 245.906,77.2 248.11,77.2 250.315,65.116 252.52,61.676 254.724,77.2 256.929,12.8 259.134,77.2 261.339,62.064 263.543,56.435 265.748,77.2 267.953,16.687 270.157,24.234 272.362,12.8 274.567,59.666 276.772,14.29 278.976,53.352 281.181,73.931 283.386,66.575 285.591,58.287 287.795,74.211 290,77.2" fill="none" stroke="#1b1f27" stroke-width="2" stroke-linecap="round" stroke-linejoin="round"/>
</svg>
