<svg xmlns="http://www.w3.org/2000/svg" width="300" height="90" viewBox="0 0 300 90" role="img" aria-label="Waveform 9 Chaos 3">
  <rect x="0" y="0" width="300" height="90" fill="#ffffff"/>
  <line x1="10" y1="45" x2="290" y2="45" stroke="#d3d6dd" stroke-width="1"/>
  <polyline points="10,34.003 12.205,46.872 14.409,12.8 16.614,12.8 18.819,45.773 21.024,68.756 23.228,42.396 25.433,17.448 27.638,21.875 29.843,12.8 32.047,75.566 34.252,26.514 36.457,68.207 38.661,67.552 40.866,12.8 43.071,68.685 45.276,12.8 47.48,26.809 49.685,67.159 51.89,12.8 54.094,47.697 56.299,66.203 58.504,55.601 60.709,74.021 62.913,67.393 65.118,19.08 67.323,41.987 69.528,60.337 71.732,63.955 73.937,51.919 76.142,56.971 78.346,47.048 80.551,44.391 82.756,13.164 84.961,60.259 87.165,55.321 89.37,42.912 91.575,12.8 93.78,38.69 95.984,62.835 98.189,42.249 100.394,57.517 102.598,12.8 104.803,71.674 107.008,77.2 109.213,15.36 111.417,59.874 113.622,44.633 115.827,68.84 118.031,45.553 120.236,53.806 122.441,77.2 124.646,54.361 126.85,77.2 129.055,57.263 131.26,77.2 133.465,69.893 135.669,63.362 137.874,19.959 140.079,33.466 142.283,12.8 144.488,77.2 146.693,70.845 148.898,14.287 151.102,25.406 153.307,42.595 155.512,58.092 157.717,77.2 159.921,26.596 162.126,58.155 164.331,73.142 166.535,33.76 168.74,32.744 170.945,40.076 173.15,77.2 175.354,48.779 177.559,77.2 179.764,65.569 181.969,77.2 184.173,50.799 186.378,77.2 188.583,48.958 190.787,55.317 192.992,12.8 195.197,47.414 197.402,39.57 199.606,58.116 201.811,54.295 204.016,63.215 206.22,36.234 208.425,57.46 210.63,60.559 212.835,12.8 215.039,68.473 217.244,29.083 219.449,50.632 221.654,58.128 223.858,12.8 226.063,12.8 228.268,77.2 230.472,64.12 232.677,22.236 234.882,12.8 237.087,77.2 239.291,77.2 241.496,43.627 243.701,77.2 245.906,15.154 248.11,42.378 250.315,54.676 252.52,31.988 254.724,27.556 256.929,12.8 259.134,16.432 261.339,70.702 263.543,24.347 265.748,47.148 267.953,17.643 270.157,59.716 272.362,28.01 274.567,49.135 276.772,73.481 278.976,77.2 281.181,33.015 283.386,62.201 285.591,12.8 287.795,20.682 290,45.986" fill="none" stroke="#1b1f27" stroke-width="2" stroke-linecap="round" stroke-linejoin="round"/>
</svg>
