<svg xmlns="http://www.w3.org/2000/svg" width="300" height="90" viewBox="0 0 300 90" role="img" aria-label="Waveform 10 Chaos 4">
  <rect x="0" y="0" width="300" height="90" fill="#ffffff"/>
  <line x1="10" y1="45" x2="290" y2="45" stroke="#d3d6dd" stroke-width="1"/>
  <polyline points="10,69.529 12.205,28.697 14.409,41.532 16.614,45.153 18.819,51.246 21.024,77.2 23.228,59.687 25.433,40.352 27.638,59.863 29.843,12.8 32.047,20.63 34.252,38.442 36.457,12.8 38.661,40.556 40.866,34.129 43.071,67.071 45.276,12.8 47.48,12.8 49.685,39.749 51.89,18.118 54.094,61.603 56.299,36.887 58.504,77.2 60.709,39.636 62.913,59.165 65.118,50.065 67.323,49.082 69.528,77.2 71.732,56.506 73.937,40.495 76.142,77.2 78.346,69.487 80.551,46.42 82.756,38.167 84.961,31.194 87.165,74.647 89.37,49.148 91.575,30.629 93.78,22.903 95.984,43.516 98.189,47.8 100.394,51.625 102.598,41.245 104.803,56.647 107.008,70.695 109.213,76.682 111.417,71.301 113.622,77.2 115.827,77.2 118.031,25.203 120.236,43.19 122.441,41.56 124.646,53.008 126.85,68.226 129.055,35.974 131.26,12.8 133.465,75.171 135.669,28.364 137.874,27.614 140.079,77.2 142.283,41.394 144.488,13.393 146.693,66.783 148.898,45.359 151.102,12.8 153.307,38.414 155.512,63.416 157.717,38.354 159.921,23.086 162.126,14.097 164.331,36.806 166.535,76.977 168.74,73.391 170.945,66.084 173.15,15.262 175.354,17.016 177.559,47.345 179.764,77.2 181.969,31.383 184.173,75.364 186.378,27.17 188.583,23.016 190.787,12.8 192.992,67.437 195.197,45.902 197.402,51.471 199.606,12.8 201.811,76.859 204.016,26.696 206.22,23.094 208.425,67.293 210.63,16.767 212.835,34.575 215.039,31.562 217.244,53.68 219.449,49.91 221.654,71.564 223.858,51.912 226.063,39.776 228.268,53.708 230.472,26.129 232.677,49.85 234.882,35.744 237.087,65.683 239.291,43.073 241.496,40.435 243.701,29.825 245.906,32.981 248.11,77.2 250.315,68.242 252.52,41.851 254.724,54.488 256.929,36.937 259.134,45.19 261.339,70.363 263.543,41.42 265.748,36.654 267.953,12.8 270.157,12.8 272.362,77.2 274.567,63.807 276.772,61.886 278.976,77.2 281.181,51.097 283.386,77.2 285.591,77.2 287.795,15.421 290,19.802" fill="none" stroke="#1b1f27" stroke-width="2" stroke-linecap="round" stroke-linejoin="round"/>
</svg>
