<svg xmlns="http://www.w3.org/2000/svg" width="300" height="90" viewBox="0 0 300 90" role="img" aria-label="Waveform 12 Hollow">
  <rect x="0" y="0" width="300" height="90" fill="#ffffff"/>
  <line x1="10" y1="45" x2="290" y2="45" stroke="#d3d6dd" stroke-width="1"/>
  <polyline points="10,20.771 12.205,34.259 14.409,73.744 16.614,42.828 18.819,46.122 21.024,60.537 23.228,16.475 25.433,36.876 27.638,52.333 29.843,49.37 32.047,72.568 34.252,56.341 36.457,42.864 38.661,13.915 40.866,56.66 43.071,62.429 45.276,69.927 47.48,69.523 49.685,15.785 51.89,38.234 54.094,68.28 56.299,37.307 58.504,33.163 60.709,19.831 62.913,50.591 65.118,12.8 67.323,59.32 69.528,58.332 71.732,65.302 73.937,43.409 76.142,64.451 78.346,41.116 80.551,29.845 82.756,14.386 84.961,34.992 87.165,12.8 89.37,49.824 91.575,56.196 93.78,70.724 95.984,41.604 98.189,57.786 100.394,47.641 102.598,52.849 104.803,68.914 107.008,42.614 109.213,50.404 111.417,49.794 113.622,53.741 115.827,12.961 118.031,12.8 120.236,27.844 122.441,47.265 124.646,64.083 126.85,69.146 129.055,36.458 131.26,52.037 133.465,49.437 135.669,30.889 137.874,73.799 140.079,48.469 142.283,53.494 144.488,73.586 146.693,29.421 148.898,22.185 151.102,60.521 153.307,26.571 155.512,47.641 157.717,37.322 159.921,51.785 162.126,19.818 164.331,28.582 166.535,56.709 168.74,53.239 170.945,49.144 173.15,51.98 175.354,44.817 177.559,40.503 179.764,32.137 181.969,52.524 184.173,43.768 186.378,51.335 188.583,46.899 190.787,77.2 192.992,58.061 195.197,53.918 197.402,63.876 199.606,77.2 201.811,59.842 204.016,42.372 206.22,69.05 208.425,51.299 210.63,30.63 212.835,62.478 215.039,69.346 217.244,60.284 219.449,34.745 221.654,62.672 223.858,64.82 226.063,77.2 228.268,48.904 230.472,64.284 232.677,75.724 234.882,27.336 237.087,28.827 239.291,73.936 241.496,65.621 243.701,60.786 245.906,62.854 248.11,49.353 250.315,17.489 252.52,66.642 254.724,39.615 256.929,77.2 259.134,68.652 261.339,45.255 263.543,68.62 265.748,44.934 267.953,71.548 270.157,33.525 272.362,66.949 274.567,51.666 276.772,77.2 278.976,18.812 281.181,28.63 283.386,67.847 285.591,40.953 287.795,62.36 290,38.396" fill="none" stroke="#1b1f27" stroke-width="2" stroke-linecap="round" stroke-linejoin="round"/>
</svg>
