<svg xmlns="http://www.w3.org/2000/svg" width="300" height="90" viewBox="0 0 300 90" role="img" aria-label="Waveform 14 Ski Slope 1">
  <rect x="0" y="0" width="300" height="90" fill="#ffffff"/>
  <line x1="10" y1="45" x2="290" y2="45" stroke="#d3d6dd" stroke-width="1"/>
  <polyline points="10,35.309 12.205,30.103 14.409,42.323 16.614,60.426 18.819,13.589 21.024,12.964 23.228,71.59 25.433,21.305 27.638,12.8 29.843,54.411 32.047,53.342 34.252,20.069 36.457,37.998 38.661,22.919 40.866,48.492 43.071,67.619 45.276,25.065 47.48,13.325 49.685,15.148 51.89,12.8 54.094,13.693 56.299,42.473 58.504,12.8 60.709,12.8 62.913,57.981 65.118,31.961 67.323,63.767 69.528,12.8 71.732,13.669 73.937,26.596 76.142,63.195 78.346,42.878 80.551,60.19 82.756,12.8 84.961,26.486 87.165,28.777 89.37,18.592 91.575,32.071 93.78,51.363 95.984,12.8 98.189,51.926 100.394,36.59 102.598,42.611 104.803,39.617 107.008,12.8 109.213,14.354 111.417,12.8 113.622,24.306 115.827,12.8 118.031,57.682 120.236,29.284 122.441,65.611 124.646,12.8 126.85,29.08 129.055,65.71 131.26,53.807 133.465,27.148 135.669,25.484 137.874,17.033 140.079,26.875 142.283,62.858 144.488,58.421 146.693,15 148.898,75.097 151.102,64.897 153.307,63.154 155.512,41.095 157.717,41.126 159.921,25.411 162.126,19.352 164.331,21.253 166.535,54.286 168.74,50.477 170.945,38.636 173.15,56.152 175.354,44.56 177.559,66.115 179.764,57.174 181.969,77.2 184.173,34.032 186.378,77.2 188.583,77.2 190.787,77.2 192.992,35.858 195.197,77.2 197.402,77.2 199.606,57.96 201.811,56.157 204.016,62.821 206.22,77.2 208.425,25.816 210.63,77.2 212.835,50.694 215.039,77.2 217.244,44.153 219.449,33.303 221.654,65.692 223.858,34.529 226.063,52.402 228.268,31.505 230.472,30.372 232.677,50.543 234.882,26.204 237.087,49.167 239.291,49.004 241.496,77.2 243.701,32.013 245.906,59.177 248.11,51.65 250.315,64.464 252.52,50.604 254.724,77.2 256.929,59.192 259.134,77.2 261.339,23.727 263.543,34.415 265.748,20.673 267.953,60.783 270.157,73.724 272.362,28.479 274.567,51.844 276.772,33.713 278.976,24.387 281.181,35.575 283.386,30.939 285.591,28.059 287.795,17.42 290,70.479" fill="none" stroke="#1b1f27" stroke-width="2" stroke-linecap="round" stroke-linejoin="round"/>
</svg>
