<svg xmlns="http://www.w3.org/2000/svg" width="300" height="90" viewBox="0 0 300 90" role="img" aria-label="Waveform 15 Rasp">
  <rect x="0" y="0" width="300" height="90" fill="#ffffff"/>
  <line x1="10" y1="45" x2="290" y2="45" stroke="#d3d6dd" stroke-width="1"/>
  <polyline points="10,14.78 12.205,14.123 14.409,68.009 16.614,43.292 18.819,13.329 21.024,12.8 23.228,19.263 25.433,40.045 27.638,43.497 29.843,58.822 32.047,55.806 34.252,21.864 36.457,55.781 38.661,64.261 40.866,40.797 43.071,45.88 45.276,62.887 47.48,23.085 49.685,40.234 51.89,31.591 54.094,68.207 56.299,31.643 58.504,52.204 60.709,36.01 62.913,32.971 65.118,34.791 67.323,21.366 69.528,51.307 71.732,15.607 73.937,53.736 76.142,18.788 78.346,32.514 80.551,50.01 82.756,63.472 84.961,48.338 87.165,35.93 89.37,54.539 91.575,67.72 93.78,30.824 95.984,58.679 98.189,77.2 100.394,77.2 102.598,36.916 104.803,46.826 107.008,29.693 109.213,41.428 111.417,29.957 113.622,52.074 115.827,62.994 118.031,17.231 120.236,14.528 122.441,22.198 124.646,33.31 126.85,64.7 129.055,36.963 131.26,13.958 133.465,51.427 135.669,27.138 137.874,24.696 140.079,25.277 142.283,12.8 144.488,47.409 146.693,36.495 148.898,44.723 151.102,29.123 153.307,67.063 155.512,55.618 157.717,22.676 159.921,12.8 162.126,51.697 164.331,61.475 166.535,33.506 168.74,35.626 170.945,31.871 173.15,48.804 175.354,24.773 177.559,48.136 179.764,73.112 181.969,51.845 184.173,61.669 186.378,29.247 188.583,37.758 190.787,75.775 192.992,20.165 195.197,75.724 197.402,58.037 199.606,43.496 201.811,34.463 204.016,77.2 206.22,65.466 208.425,77.2 210.63,40.442 212.835,66.6 215.039,67.521 217.244,69.456 219.449,65.532 221.654,39.481 223.858,22.061 226.063,66.161 228.268,77.2 230.472,68.245 232.677,75.943 234.882,38.666 237.087,56.548 239.291,13.43 241.496,34.953 243.701,44.719 245.906,33.57 248.11,50.556 250.315,12.8 252.52,15.465 254.724,12.8 256.929,13.722 259.134,25.37 261.339,52.585 263.543,48.731 265.748,38.046 267.953,12.8 270.157,54.05 272.362,60.968 274.567,34.385 276.772,21.948 278.976,72.49 281.181,42.86 283.386,73.835 285.591,21.359 287.795,21.37 290,55.838" fill="none" stroke="#1b1f27" stroke-width="2" stroke-linecap="round" stroke-linejoin="round"/>
</svg>
