<svg xmlns="http://www.w3.org/2000/svg" width="300" height="90" viewBox="0 0 300 90" role="img" aria-label="Waveform 16 Peal">
  <rect x="0" y="0" width="300" height="90" fill="#ffffff"/>
  <line x1="10" y1="45" x2="290" y2="45" stroke="#d3d6dd" stroke-width="1"/>
  <polyline points="10,47.464 12.205,15.257 14.409,60.536 16.614,42.546 18.819,25.982 21.024,60.827 23.228,12.8 25.433,46.575 27.638,12.8 29.843,12.8 32.047,48.977 34.252,24.312 36.457,33.876 38.661,40.769 40.866,23.93 43.071,55.146 45.276,72.846 47.48,56.593 49.685,67.305 51.89,22.246 54.094,61.123 56.299,77.2 58.504,60.939 60.709,72.954 62.913,66.67 65.118,59.681 67.323,36.441 69.528,52.805 71.732,56.682 73.937,60.091 76.142,27.81 78.346,29.934 80.551,55.341 82.756,66.832 84.961,63.384 87.165,56.423 89.37,45.992 91.575,13.38 93.78,38.709 95.984,46.275 98.189,59.874 100.394,38.608 102.598,55.627 104.803,24.929 107.008,20.211 109.213,43.892 111.417,67.26 113.622,26.573 115.827,53.816 118.031,52.053 120.236,32.922 122.441,47.223 124.646,42.273 126.85,71.476 129.055,40.484 131.26,54.682 133.465,50.098 135.669,63.326 137.874,18.746 140.079,71.366 142.283,51.687 144.488,38.848 146.693,37.194 148.898,14.878 151.102,35.556 153.307,64.521 155.512,45.155 157.717,12.901 159.921,53.965 162.126,29.469 164.331,38.996 166.535,23.979 168.74,56.69 170.945,50.554 173.15,12.8 175.354,39.105 177.559,34.733 179.764,28.219 181.969,72.515 184.173,21.734 186.378,15.78 188.583,45.35 190.787,35.768 192.992,75.033 195.197,77.2 197.402,45.124 199.606,62.087 201.811,16.182 204.016,42.202 206.22,26.864 208.425,35.626 210.63,58.687 212.835,55.064 215.039,28.432 217.244,38.021 219.449,48.632 221.654,14.994 223.858,15.867 226.063,76.122 228.268,52.474 230.472,36.62 232.677,74.522 234.882,73.842 237.087,20.333 239.291,65.999 241.496,41.702 243.701,49.572 245.906,19.885 248.11,67.573 250.315,27.906 252.52,40.796 254.724,66.878 256.929,34.401 259.134,39.269 261.339,50.113 263.543,34.168 265.748,16.753 267.953,26.727 270.157,26.511 272.362,43.794 274.567,17.149 276.772,35.636 278.976,69.923 281.181,72.52 283.386,67.026 285.591,39.085 287.795,38.984 290,71.106" fill="none" stroke="#1b1f27" stroke-width="2" stroke-linecap="round" stroke-linejoin="round"/>
</svg>
