<svg xmlns="http://www.w3.org/2000/svg" width="300" height="90" viewBox="0 0 300 90" role="img" aria-label="Waveform 17 Fuzz">
  <rect x="0" y="0" width="300" height="90" fill="#ffffff"/>
  <line x1="10" y1="45" x2="290" y2="45" stroke="#d3d6dd" stroke-width="1"/>
  <polyline points="10,73.725 12.205,52.026 14.409,31.497 16.614,77.2 18.819,48.244 21.024,30.308 23.228,12.8 25.433,37.376 27.638,70.09 29.843,63.331 32.047,31.522 34.252,28.94 36.457,69.992 38.661,12.8 40.866,19.748 43.071,58.381 45.276,12.8 47.48,55.135 49.685,37.768 51.89,33.597 54.094,59.941 56.299,40.032 58.504,56.936 60.709,12.8 62.913,24.203 65.118,42.671 67.323,24.414 69.528,53.159 71.732,44.583 73.937,73.141 76.142,23.565 78.346,20.134 80.551,56.804 82.756,77.2 84.961,12.8 87.165,12.8 89.37,12.8 91.575,58.699 93.78,12.8 95.984,66.731 98.189,12.8 100.394,12.8 102.598,44.51 104.803,41.205 107.008,62.445 109.213,37.152 111.417,54.298 113.622,77.2 115.827,73.239 118.031,60.802 120.236,15.158 122.441,26.809 124.646,77.2 126.85,12.8 129.055,42.316 131.26,40.705 133.465,12.8 135.669,59.223 137.874,51.352 140.079,32.08 142.283,73.53 144.488,73.014 146.693,12.888 148.898,77.2 151.102,77.2 153.307,48.151 155.512,64.909 157.717,42.811 159.921,77.2 162.126,12.8 164.331,52.09 166.535,12.8 168.74,59.541 170.945,77.2 173.15,55.711 175.354,35.979 177.559,49.395 179.764,65.317 181.969,50.189 184.173,46.821 186.378,49.809 188.583,28.236 190.787,74.75 192.992,74.349 195.197,20.556 197.402,71.496 199.606,47.292 201.811,53.586 204.016,65.956 206.22,77.2 208.425,42.965 210.63,48.459 212.835,48.392 215.039,12.8 217.244,30.467 219.449,47.582 221.654,33.271 223.858,12.8 226.063,65.36 228.268,53.463 230.472,16.234 232.677,77.2 234.882,33.953 237.087,45.095 239.291,42.329 241.496,54.607 243.701,26.947 245.906,18.992 248.11,14.19 250.315,53.911 252.52,23.814 254.724,61.722 256.929,44.674 259.134,56.666 261.339,54.866 263.543,12.8 265.748,26.302 267.953,16.32 270.157,20.071 272.362,76.526 274.567,41.353 276.772,45.021 278.976,65.443 281.181,12.8 283.386,55.993 285.591,44.215 287.795,77.2 290,12.8" fill="none" stroke="#1b1f27" stroke-width="2" stroke-linecap="round" stroke-linejoin="round"/>
</svg>
