<svg xmlns="http://www.w3.org/2000/svg" width="300" height="90" viewBox="0 0 300 90" role="img" aria-label="Waveform 18 Floss">
  <rect x="0" y="0" width="300" height="90" fill="#ffffff"/>
  <line x1="10" y1="45" x2="290" y2="45" stroke="#d3d6dd" stroke-width="1"/>
  <polyline points="10,16.96 12.205,27.405 14.409,31.654 16.614,26.979 18.819,12.8 21.024,27.132 23.228,32.732 25.433,16.762 27.638,59.798 29.843,50.343 32.047,32.238 34.252,58.298 36.457,14.287 38.661,26.528 40.866,37.925 43.071,39.116 45.276,59.718 47.48,22.752 49.685,38.39 51.89,52.749 54.094,19.489 56.299,34.601 58.504,50.78 60.709,59.151 62.913,44.546 65.118,60.685 67.323,12.8 69.528,19.677 71.732,42.578 73.937,33.227 76.142,18.581 78.346,43.546 80.551,74.664 82.756,74.767 84.961,50.07 87.165,39.951 89.37,77.2 91.575,45.635 93.78,54.536 95.984,72.318 98.189,76.853 100.394,46.69 102.598,32.36 104.803,53.478 107.008,25.031 109.213,36.538 111.417,37.469 113.622,70.477 115.827,23.836 118.031,74.239 120.236,40.942 122.441,36.155 124.646,65.647 126.85,75.351 129.055,77.2 131.26,67.981 133.465,68.677 135.669,48.597 137.874,47.203 140.079,50.526 142.283,55.985 144.488,50.996 146.693,20.019 148.898,49.051 151.102,38.462 153.307,19.824 155.512,25.429 157.717,17.555 159.921,19.435 162.126,63.353 164.331,53.781 166.535,24.029 168.74,61.043 170.945,37.888 173.15,29.133 175.354,18.209 177.559,19.305 179.764,20.688 181.969,33.717 184.173,30.257 186.378,13.338 188.583,63.953 190.787,43.316 192.992,54.364 195.197,47.2 197.402,36.2 199.606,31.506 201.811,39.142 204.016,50.623 206.22,20.884 208.425,44.057 210.63,44.16 212.835,17.166 215.039,68.616 217.244,48.139 219.449,38.888 221.654,55.366 223.858,70.359 226.063,41.909 228.268,35.026 230.472,51.694 232.677,68.318 234.882,23.04 237.087,63.156 239.291,38.376 241.496,33.863 243.701,77.2 245.906,47.485 248.11,65.108 250.315,77.2 252.52,54.77 254.724,69.21 256.929,55.134 259.134,77.2 261.339,47.201 263.543,21.966 265.748,73.461 267.953,74.337 270.157,40.614 272.362,34.372 274.567,18.71 276.772,24.352 278.976,49.508 281.181,61.597 283.386,46.707 285.591,12.8 287.795,60.627 290,73.184" fill="none" stroke="#1b1f27" stroke-width="2" stroke-linecap="round" stroke-linejoin="round"/>
</svg>
