<svg xmlns="http://www.w3.org/2000/svg" width="300" height="90" viewBox="0 0 300 90" role="img" aria-label="Waveform 19 Excite">
  <rect x="0" y="0" width="300" height="90" fill="#ffffff"/>
  <line x1="10" y1="45" x2="290" y2="45" stroke="#d3d6dd" stroke-width="1"/>
  <polyline points="10,39.903 12.205,26.425 14.409,68.116 16.614,46.44 18.819,46.577 21.024,17.325 23.228,49.357 25.433,18.45 27.638,18.036 29.843,18.074 32.047,58.142 34.252,12.8 36.457,70.926 38.661,67.039 40.866,66.134 43.071,66.647 45.276,17.091 47.48,53.566 49.685,45.787 51.89,68.719 54.094,12.8 56.299,52.249 58.504,56.233 60.709,63.759 62.913,32.809 65.118,42.047 67.323,31.147 69.528,25.262 71.732,63.436 73.937,18.222 76.142,49.095 78.346,38.365 80.551,32.364 82.756,36.578 84.961,56.638 87.165,77.2 89.37,74.981 91.575,20.433 93.78,77.2 95.984,47.814 98.189,29.602 100.394,24.908 102.598,36.857 104.803,68.591 107.008,52.767 109.213,73.056 111.417,46.444 113.622,63.53 115.827,46.234 118.031,66.585 120.236,57.401 122.441,77.035 124.646,32.658 126.85,53.879 129.055,74.286 131.26,31.228 133.465,68.181 135.669,48.905 137.874,53.59 140.079,27.802 142.283,14.369 144.488,40.073 146.693,50.452 148.898,13.467 151.102,12.8 153.307,50.464 155.512,41.043 157.717,58.383 159.921,70.749 162.126,57.881 164.331,41.386 166.535,18.233 168.74,58.564 170.945,52.095 173.15,72.793 175.354,14.025 177.559,71.907 179.764,73.619 181.969,59.827 184.173,46.368 186.378,18.892 188.583,33.487 190.787,38.476 192.992,68.74 195.197,70.73 197.402,37.085 199.606,49 201.811,35.894 204.016,77.2 206.22,77.2 208.425,70.285 210.63,70.39 212.835,77.2 215.039,28.287 217.244,74.339 219.449,60.425 221.654,21.198 223.858,38.36 226.063,21.693 228.268,73.435 230.472,22.027 232.677,36.119 234.882,42.577 237.087,56.453 239.291,33.582 241.496,64.102 243.701,20.243 245.906,63.72 248.11,70.312 250.315,41.287 252.52,31.345 254.724,34.961 256.929,31.52 259.134,54.014 261.339,47.254 263.543,34.048 265.748,63.081 267.953,22.874 270.157,70.502 272.362,18.129 274.567,26.426 276.772,67.864 278.976,31.806 281.181,30.734 283.386,40.298 285.591,40.224 287.795,71.423 290,52.955" fill="none" stroke="#1b1f27" stroke-width="2" stroke-linecap="round" stroke-linejoin="round"/>
</svg>
