<svg xmlns="http://www.w3.org/2000/svg" width="300" height="90" viewBox="0 0 300 90" role="img" aria-label="Waveform 20 Awaken">
  <rect x="0" y="0" width="300" height="90" fill="#ffffff"/>
  <line x1="10" y1="45" x2="290" y2="45" stroke="#d3d6dd" stroke-width="1"/>
  <polyline points="10,71.183 12.205,54.385 14.409,61.426 16.614,60.907 18.819,48.69 21.024,28.703 23.228,43.159 25.433,41.629 27.638,32.526 29.843,66.717 32.047,13.854 34.252,66.642 36.457,71.279 38.661,21.204 40.866,32.393 43.071,32.268 45.276,62.275 47.48,32.288 49.685,50.211 51.89,18.1 54.094,48.186 56.299,28.441 58.504,13.89 60.709,42.335 62.913,42.791 65.118,12.8 67.323,66.214 69.528,56.041 71.732,42.757 73.937,41.398 76.142,23.54 78.346,36.94 80.551,49.927 82.756,52.278 84.961,58.13 87.165,52 89.37,12.8 91.575,41.558 93.78,26.677 95.984,55.701 98.189,45.241 100.394,71.159 102.598,66.966 104.803,66.01 107.008,65.764 109.213,70.047 111.417,63.685 113.622,29.163 115.827,26.556 118.031,61.116 120.236,43.976 122.441,47.574 124.646,56.933 126.85,58.522 129.055,26.311 131.26,17.51 133.465,44.443 135.669,44.413 137.874,12.8 140.079,68.404 142.283,21.46 144.488,45.703 146.693,41.052 148.898,66.407 151.102,22.214 153.307,71.793 155.512,71.544 157.717,33.93 159.921,38.639 162.126,63.141 164.331,55.891 166.535,48.711 168.74,44.621 170.945,64.072 173.15,77.2 175.354,67.111 177.559,53.22 179.764,31.819 181.969,33.211 184.173,62.09 186.378,49.213 188.583,58.44 190.787,45.706 192.992,19.06 195.197,48.169 197.402,38.9 199.606,45.348 201.811,43.55 204.016,38.964 206.22,40.54 208.425,39.432 210.63,47.362 212.835,38.867 215.039,42.845 217.244,23.399 219.449,76.878 221.654,77.2 223.858,65.397 226.063,28.021 228.268,61.221 230.472,77.2 232.677,32.384 234.882,70.016 237.087,70.312 239.291,20.069 241.496,23.447 243.701,58.908 245.906,47.127 248.11,77.2 250.315,20.845 252.52,69.687 254.724,41.052 256.929,30.528 259.134,68.304 261.339,62.262 263.543,68.84 265.748,23.095 267.953,43.505 270.157,50.75 272.362,70.07 274.567,21.448 276.772,32.101 278.976,54.055 281.181,67.151 283.386,43.649 285.591,25.159 287.795,44.383 290,37.117" fill="none" stroke="#1b1f27" stroke-width="2" stroke-linecap="round" stroke-linejoin="round"/>
</svg>
