<svg xmlns="http://www.w3.org/2000/svg" width="300" height="90" viewBox="0 0 300 90" role="img" aria-label="Waveform 21 Energize">
  <rect x="0" y="0" width="300" height="90" fill="#ffffff"/>
  <line x1="10" y1="45" x2="290" y2="45" stroke="#d3d6dd" stroke-width="1"/>
  <polyline points="10,53.241 12.205,36.123 14.409,45.848 16.614,38.562 18.819,63.171 21.024,67.825 23.228,29.525 25.433,23.974 27.638,13.637 29.843,40.548 32.047,30.653 34.252,47.226 36.457,12.8 38.661,45.488 40.866,44.407 43.071,46.746 45.276,44.847 47.48,33.11 49.685,30.918 51.89,12.8 54.094,53.287 56.299,44.612 58.504,66.739 60.709,12.8 62.913,30.84 65.118,35.628 67.323,63.548 69.528,12.8 71.732,12.8 73.937,28.077 76.142,48.435 78.346,49.666 80.551,51.867 82.756,27.542 84.961,52.944 87.165,12.8 89.37,69.874 91.575,34 93.78,21.971 95.984,41.196 98.189,62.228 100.394,24.921 102.598,63.291 104.803,57.245 107.008,74.466 109.213,25.255 111.417,20.263 113.622,48.308 115.827,47.713 118.031,38.848 120.236,71.826 122.441,16.071 124.646,30.758 126.85,49.366 129.055,73.439 131.26,20.049 133.465,24.26 135.669,57.381 137.874,28.617 140.079,35.488 142.283,48.182 144.488,77.143 146.693,52.771 148.898,73.949 151.102,72.2 153.307,77.2 155.512,33.151 157.717,77.2 159.921,34.154 162.126,76.667 164.331,42.115 166.535,73.685 168.74,28.469 170.945,48.209 173.15,27.82 175.354,65.549 177.559,66.614 179.764,17.96 181.969,59.852 184.173,66.986 186.378,59.528 188.583,34.221 190.787,42.046 192.992,57.693 195.197,17.179 197.402,18.587 199.606,61.835 201.811,21.974 204.016,19.584 206.22,41.225 208.425,37.002 210.63,71.867 212.835,31.851 215.039,32.693 217.244,61.585 219.449,46.431 221.654,67.982 223.858,37.132 226.063,16.463 228.268,12.8 230.472,34.716 232.677,14.703 234.882,45.713 237.087,68.171 239.291,52.416 241.496,12.8 243.701,49.531 245.906,30.222 248.11,55.655 250.315,25.651 252.52,33.983 254.724,40.587 256.929,55.376 259.134,34.024 261.339,66.518 263.543,64.437 265.748,40.455 267.953,49.673 270.157,59.453 272.362,12.8 274.567,42.907 276.772,68.742 278.976,24.181 281.181,48.997 283.386,34.494 285.591,39.299 287.795,47.951 290,49.763" fill="none" stroke="#1b1f27" stroke-width="2" stroke-linecap="round" stroke-linejoin="round"/>
</svg>
