<svg xmlns="http://www.w3.org/2000/svg" width="300" height="90" viewBox="0 0 300 90" role="img" aria-label="Waveform 22 BP Twang">
  <rect x="0" y="0" width="300" height="90" fill="#ffffff"/>
  <line x1="10" y1="45" x2="290" y2="45" stroke="#d3d6dd" stroke-width="1"/>
  <polyline points="10,16.741 12.205,70.936 14.409,38.654 16.614,25.008 18.819,20.838 21.024,43.309 23.228,22.626 25.433,12.8 27.638,12.8 29.843,60.109 32.047,52.699 34.252,30.724 36.457,33.756 38.661,30.335 40.866,58.826 43.071,28.837 45.276,54.35 47.48,62.211 49.685,75.459 51.89,39.658 54.094,71.206 56.299,23.759 58.504,35.923 60.709,66.814 62.913,26.405 65.118,41.423 67.323,48.319 69.528,29.176 71.732,32.559 73.937,12.8 76.142,38.531 78.346,44.924 80.551,36.751 82.756,18.798 84.961,61.579 87.165,24.264 89.37,56.148 91.575,32.219 93.78,38.029 95.984,62.63 98.189,58.395 100.394,63.707 102.598,58.261 104.803,51.885 107.008,22.664 109.213,23.888 111.417,72.574 113.622,23.173 115.827,62.042 118.031,75.016 120.236,29.654 122.441,20.205 124.646,19.415 126.85,25.035 129.055,62.926 131.26,32.192 133.465,54.754 135.669,18.905 137.874,32.626 140.079,17.195 142.283,41.283 144.488,36.475 146.693,52.583 148.898,44.783 151.102,32.016 153.307,39.344 155.512,38.86 157.717,62.234 159.921,41.585 162.126,77.2 164.331,25.761 166.535,42.421 168.74,49.626 170.945,33.215 173.15,20.771 175.354,75.634 177.559,24.624 179.764,73.279 181.969,58.934 184.173,66.352 186.378,12.83 188.583,39.901 190.787,17.42 192.992,36.063 195.197,23.467 197.402,67.825 199.606,31.661 201.811,43.529 204.016,59.163 206.22,37.199 208.425,49.18 210.63,28.689 212.835,44.429 215.039,48.19 217.244,66.121 219.449,29.438 221.654,36.965 223.858,77.2 226.063,37.87 228.268,40.727 230.472,55.11 232.677,14.015 234.882,73.704 237.087,61.428 239.291,62.476 241.496,74.892 243.701,63.05 245.906,63.793 248.11,27.609 250.315,47.386 252.52,54.731 254.724,47.945 256.929,22.24 259.134,17.482 261.339,26.945 263.543,66.787 265.748,77.116 267.953,67.482 270.157,54.125 272.362,18.428 274.567,30.451 276.772,17.412 278.976,75.739 281.181,40.704 283.386,14.051 285.591,29.531 287.795,70.582 290,37.01" fill="none" stroke="#1b1f27" stroke-width="2" stroke-linecap="round" stroke-linejoin="round"/>
</svg>
