<svg xmlns="http://www.w3.org/2000/svg" width="300" height="90" viewBox="0 0 300 90" role="img" aria-label="Waveform 25 Harmonic Square">
  <rect x="0" y="0" width="300" height="90" fill="#ffffff"/>
  <line x1="10" y1="45" x2="290" y2="45" stroke="#d3d6dd" stroke-width="1"/>
  <polyline points="10,20.528 12.205,19.135 14.409,17.797 16.614,16.565 18.819,15.488 21.024,14.608 23.228,13.958 25.433,13.566 27.638,13.445 29.843,13.6 32.047,14.026 34.252,14.706 36.457,15.613 38.661,16.712 40.866,17.959 43.071,19.307 45.276,20.703 47.48,22.092 49.685,23.42 51.89,24.635 54.094,25.69 56.299,26.543 58.504,27.161 60.709,27.521 62.913,27.607 65.118,27.417 67.323,26.959 69.528,26.249 71.732,25.316 73.937,24.196 76.142,22.933 78.346,21.576 80.551,20.178 82.756,18.793 84.961,17.477 87.165,16.28 89.37,15.248 91.575,14.422 93.78,13.835 95.984,13.509 98.189,13.458 100.394,13.682 102.598,14.173 104.803,14.912 107.008,15.871 109.213,17.011 111.417,18.289 113.622,19.654 115.827,21.053 118.031,22.432 120.236,23.736 122.441,24.915 124.646,25.923 126.85,26.72 129.055,27.276 131.26,27.568 133.465,27.585 135.669,27.327 137.874,26.804 140.079,26.035 142.283,25.052 144.488,23.891 146.693,22.6 148.898,21.228 151.102,68.772 153.307,67.4 155.512,66.109 157.717,64.948 159.921,63.965 162.126,63.196 164.331,62.673 166.535,62.415 168.74,62.432 170.945,62.724 173.15,63.28 175.354,64.077 177.559,65.085 179.764,66.264 181.969,67.568 184.173,68.947 186.378,70.346 188.583,71.711 190.787,72.989 192.992,74.129 195.197,75.088 197.402,75.827 199.606,76.318 201.811,76.542 204.016,76.491 206.22,76.165 208.425,75.578 210.63,74.752 212.835,73.72 215.039,72.523 217.244,71.207 219.449,69.822 221.654,68.424 223.858,67.067 226.063,65.804 228.268,64.684 230.472,63.751 232.677,63.041 234.882,62.583 237.087,62.393 239.291,62.479 241.496,62.839 243.701,63.457 245.906,64.31 248.11,65.365 250.315,66.58 252.52,67.908 254.724,69.297 256.929,70.693 259.134,72.041 261.339,73.288 263.543,74.387 265.748,75.294 267.953,75.974 270.157,76.4 272.362,76.555 274.567,76.434 276.772,76.042 278.976,75.392 281.181,74.512 283.386,73.435 285.591,72.203 287.795,70.865 290,20.528" fill="none" stroke="#1b1f27" stroke-width="2" stroke-linecap="round" stroke-linejoin="round"/>
</svg>
