<svg xmlns="http://www.w3.org/2000/svg" width="300" height="90" viewBox="0 0 300 90" role="img" aria-label="Waveform 26 Thin Ramp">
  <rect x="0" y="0" width="300" height="90" fill="#ffffff"/>
  <line x1="10" y1="45" x2="290" y2="45" stroke="#d3d6dd" stroke-width="1"/>
  <polyline points="10,72.692 12.205,71.907 14.409,71.122 16.614,70.337 18.819,69.552 21.024,68.767 23.228,67.982 25.433,67.197 27.638,66.412 29.843,65.627 32.047,64.842 34.252,64.057 36.457,63.272 38.661,62.487 40.866,61.702 43.071,60.917 45.276,60.132 47.48,59.348 49.685,58.563 51.89,57.778 54.094,56.993 56.299,56.208 58.504,55.423 60.709,54.638 62.913,53.853 65.118,53.068 67.323,52.283 69.528,51.498 71.732,50.713 73.937,49.928 76.142,49.143 78.346,48.358 80.551,47.573 82.756,46.788 84.961,46.003 87.165,45.218 89.37,44.433 91.575,43.648 93.78,42.863 95.984,42.078 98.189,41.293 100.394,40.508 102.598,39.723 104.803,38.938 107.008,38.153 109.213,37.368 111.417,36.583 113.622,35.798 115.827,35.013 118.031,34.228 120.236,33.443 122.441,32.659 124.646,31.874 126.85,31.089 129.055,30.304 131.26,29.519 133.465,28.734 135.669,27.949 137.874,27.164 140.079,26.379 142.283,25.594 144.488,24.809 146.693,24.024 148.898,23.239 151.102,22.454 153.307,21.669 155.512,20.884 157.717,20.099 159.921,19.314 162.126,18.529 164.331,17.744 166.535,72.343 168.74,71.558 170.945,70.773 173.15,69.988 175.354,69.203 177.559,68.418 179.764,67.633 181.969,66.848 184.173,66.063 186.378,65.278 188.583,64.493 190.787,63.708 192.992,62.923 195.197,62.139 197.402,61.354 199.606,60.569 201.811,59.784 204.016,58.999 206.22,58.214 208.425,57.429 210.63,56.644 212.835,55.859 215.039,55.074 217.244,54.289 219.449,53.504 221.654,52.719 223.858,51.934 226.063,51.149 228.268,50.364 230.472,49.579 232.677,48.794 234.882,48.009 237.087,47.224 239.291,46.439 241.496,45.654 243.701,44.869 245.906,44.084 248.11,43.299 250.315,42.514 252.52,41.729 254.724,40.944 256.929,40.159 259.134,39.374 261.339,38.589 263.543,37.804 265.748,37.019 267.953,36.235 270.157,35.45 272.362,34.665 274.567,33.88 276.772,33.095 278.976,32.31 281.181,31.525 283.386,30.74 285.591,29.955 287.795,29.17 290,28.385" fill="none" stroke="#1b1f27" stroke-width="2" stroke-linecap="round" stroke-linejoin="round"/>
</svg>
