<svg xmlns="http://www.w3.org/2000/svg" width="300" height="90" viewBox="0 0 300 90" role="img" aria-label="Waveform 27 Xylophone 3">
  <rect x="0" y="0" width="300" height="90" fill="#ffffff"/>
  <line x1="10" y1="45" x2="290" y2="45" stroke="#d3d6dd" stroke-width="1"/>
  <polyline points="10,65.278 12.205,15.252 14.409,60.692 16.614,44.602 18.819,12.8 21.024,12.8 23.228,52.979 25.433,59.36 27.638,49.249 29.843,54.807 32.047,70.102 34.252,68.994 36.457,71.722 38.661,61.357 40.866,42.947 43.071,77.2 45.276,60.093 47.48,45.399 49.685,76.495 51.89,36.287 54.094,42.961 56.299,77.2 58.504,42.356 60.709,34.065 62.913,31.2 65.118,58.43 67.323,63.937 69.528,22.651 71.732,58.156 73.937,36.657 76.142,62.842 78.346,31.233 80.551,12.8 82.756,12.8 84.961,12.8 87.165,46.513 89.37,20.693 91.575,59.14 93.78,19.332 95.984,72.445 98.189,77.2 100.394,39.844 102.598,20.069 104.803,26.869 107.008,29.128 109.213,50.83 111.417,40.044 113.622,25.296 115.827,15.394 118.031,12.8 120.236,12.8 122.441,28.801 124.646,12.8 126.85,61.017 129.055,52.784 131.26,56.153 133.465,41.842 135.669,16.217 137.874,25.697 140.079,62.377 142.283,28.542 144.488,61.649 146.693,75.489 148.898,28.498 151.102,37.759 153.307,76.979 155.512,48.169 157.717,34.119 159.921,18.821 162.126,73.184 164.331,71.284 166.535,75.716 168.74,71.063 170.945,73.024 173.15,20.357 175.354,12.8 177.559,22.348 179.764,20.067 181.969,70.794 184.173,75.392 186.378,75.085 188.583,60.614 190.787,25.906 192.992,41.63 195.197,75.67 197.402,72.519 199.606,75.407 201.811,72.177 204.016,29.889 206.22,29.447 208.425,58.621 210.63,25.053 212.835,26.934 215.039,71.898 217.244,64.26 219.449,41.067 221.654,47.509 223.858,42.911 226.063,57.212 228.268,66.025 230.472,40.496 232.677,70.138 234.882,69.034 237.087,58.5 239.291,39.912 241.496,14.198 243.701,67.325 245.906,53.793 248.11,27.007 250.315,17.955 252.52,33.897 254.724,45.33 256.929,76.745 259.134,63.387 261.339,29.429 263.543,24.827 265.748,40.309 267.953,76.459 270.157,61.882 272.362,75.34 274.567,23.003 276.772,15.832 278.976,19.449 281.181,59.097 283.386,39.726 285.591,71.669 287.795,72.819 290,34.57" fill="none" stroke="#1b1f27" stroke-width="2" stroke-linecap="round" stroke-linejoin="round"/>
</svg>
