<svg xmlns="http://www.w3.org/2000/svg" width="300" height="90" viewBox="0 0 300 90" role="img" aria-label="Waveform 29 Harmonic Ramp">
  <rect x="0" y="0" width="300" height="90" fill="#ffffff"/>
  <line x1="10" y1="45" x2="290" y2="45" stroke="#d3d6dd" stroke-width="1"/>
  <polyline points="10,72.692 12.205,70.863 14.409,69.089 16.614,67.421 18.819,65.908 21.024,64.591 23.228,63.506 25.433,62.677 27.638,62.12 29.843,61.839 32.047,61.829 34.252,62.073 36.457,62.544 38.661,63.206 40.866,64.018 43.071,64.93 45.276,65.89 47.48,66.843 49.685,67.734 51.89,68.513 54.094,69.132 56.299,69.549 58.504,69.731 60.709,69.654 62.913,69.305 65.118,68.679 67.323,67.784 69.528,66.638 71.732,65.269 73.937,63.713 76.142,62.014 78.346,60.221 80.551,58.387 82.756,56.566 84.961,54.814 87.165,53.18 89.37,51.713 91.575,50.451 93.78,49.428 95.984,48.666 98.189,48.178 100.394,47.966 102.598,48.021 104.803,48.324 107.008,48.847 109.213,49.551 111.417,50.393 113.622,51.322 115.827,52.285 118.031,53.227 120.236,54.096 122.441,54.839 124.646,55.41 126.85,55.771 129.055,55.891 131.26,55.747 133.465,55.328 135.669,54.634 137.874,53.674 140.079,52.47 142.283,51.05 144.488,49.454 146.693,47.726 148.898,45.918 151.102,44.082 153.307,42.274 155.512,40.546 157.717,38.95 159.921,37.53 162.126,36.326 164.331,35.366 166.535,34.672 168.74,34.253 170.945,34.109 173.15,34.229 175.354,34.59 177.559,35.161 179.764,35.904 181.969,36.773 184.173,37.715 186.378,38.678 188.583,39.607 190.787,40.449 192.992,41.153 195.197,41.676 197.402,41.979 199.606,42.034 201.811,41.822 204.016,41.334 206.22,40.572 208.425,39.549 210.63,38.287 212.835,36.82 215.039,35.186 217.244,33.434 219.449,31.613 221.654,29.779 223.858,27.986 226.063,26.287 228.268,24.731 230.472,23.362 232.677,22.216 234.882,21.321 237.087,20.695 239.291,20.346 241.496,20.269 243.701,20.451 245.906,20.868 248.11,21.487 250.315,22.266 252.52,23.157 254.724,24.11 256.929,25.07 259.134,25.982 261.339,26.794 263.543,27.456 265.748,27.927 267.953,28.171 270.157,28.161 272.362,27.88 274.567,27.323 276.772,26.494 278.976,25.409 281.181,24.092 283.386,22.579 285.591,20.911 287.795,19.137 290,72.692" fill="none" stroke="#1b1f27" stroke-width="2" stroke-linecap="round" stroke-linejoin="round"/>
</svg>
