<svg xmlns="http://www.w3.org/2000/svg" width="300" height="90" viewBox="0 0 300 90" role="img" aria-label="Waveform 30 Rouse">
  <rect x="0" y="0" width="300" height="90" fill="#ffffff"/>
  <line x1="10" y1="45" x2="290" y2="45" stroke="#d3d6dd" stroke-width="1"/>
  <polyline points="10,59.149 12.205,50.019 14.409,33.784 16.614,49.495 18.819,68.521 21.024,62.349 23.228,38.585 25.433,29.518 27.638,13.784 29.843,52.077 32.047,42.318 34.252,29.766 36.457,31.245 38.661,52.252 40.866,29.132 43.071,60.06 45.276,34.083 47.48,38.45 49.685,53.296 51.89,69.517 54.094,40.058 56.299,23.184 58.504,63.889 60.709,48.021 62.913,12.8 65.118,25.904 67.323,69.442 69.528,34.194 71.732,71.838 73.937,12.8 76.142,46.664 78.346,48.198 80.551,39.259 82.756,55.409 84.961,71.716 87.165,76.444 89.37,39.842 91.575,28.337 93.78,19.563 95.984,41.257 98.189,44.721 100.394,34.361 102.598,40.187 104.803,76.494 107.008,25.471 109.213,35.622 111.417,53.218 113.622,22.436 115.827,35.222 118.031,24.844 120.236,74.003 122.441,29.236 124.646,30.27 126.85,54.377 129.055,50.205 131.26,50.721 133.465,51.857 135.669,37.856 137.874,13.745 140.079,40.139 142.283,74.445 144.488,53.676 146.693,70.999 148.898,13.826 151.102,21.799 153.307,25.628 155.512,32.207 157.717,50.81 159.921,73.656 162.126,45.45 164.331,50.814 166.535,63.202 168.74,50.202 170.945,48.382 173.15,66.28 175.354,29.866 177.559,69.111 179.764,69.724 181.969,58.895 184.173,61.745 186.378,29.526 188.583,31.611 190.787,12.8 192.992,13.169 195.197,47.162 197.402,53.929 199.606,44.535 201.811,12.821 204.016,22.843 206.22,33.654 208.425,64.159 210.63,27.088 212.835,45.643 215.039,27.891 217.244,50.489 219.449,62.585 221.654,65.916 223.858,67.377 226.063,52.183 228.268,70.383 230.472,77.081 232.677,77.2 234.882,36.951 237.087,59.347 239.291,30.466 241.496,54.318 243.701,31.363 245.906,59.003 248.11,65.574 250.315,75.169 252.52,77.2 254.724,47.102 256.929,34.249 259.134,72.827 261.339,77.2 263.543,26.733 265.748,72.263 267.953,38.369 270.157,27.137 272.362,47.284 274.567,65.968 276.772,56.314 278.976,67.67 281.181,60.986 283.386,17.031 285.591,21.222 287.795,73.383 290,50.201" fill="none" stroke="#1b1f27" stroke-width="2" stroke-linecap="round" stroke-linejoin="round"/>
</svg>
