<svg xmlns="http://www.w3.org/2000/svg" width="300" height="90" viewBox="0 0 300 90" role="img" aria-label="Waveform 31 Waken">
  <rect x="0" y="0" width="300" height="90" fill="#ffffff"/>
  <line x1="10" y1="45" x2="290" y2="45" stroke="#d3d6dd" stroke-width="1"/>
  <polyline points="10,20.449 12.205,35.164 14.409,69.303 16.614,42.29 18.819,12.8 21.024,13.312 23.228,49.101 25.433,58.268 27.638,59.827 29.843,59.489 32.047,40.982 34.252,47.303 36.457,64.827 38.661,13.001 40.866,30.101 43.071,48.107 45.276,69.207 47.48,32.423 49.685,12.8 51.89,41.898 54.094,34.161 56.299,49.544 58.504,47.975 60.709,42.731 62.913,24.74 65.118,58.682 67.323,16.01 69.528,35.674 71.732,46.161 73.937,71.461 76.142,77.2 78.346,39.685 80.551,24.359 82.756,77.2 84.961,77.2 87.165,71.702 89.37,46.144 91.575,50.195 93.78,48.98 95.984,28.079 98.189,62.993 100.394,44.62 102.598,40.292 104.803,32.274 107.008,58.949 109.213,48.848 111.417,64.107 113.622,63.981 115.827,74.62 118.031,16.279 120.236,40.966 122.441,53.373 124.646,13.555 126.85,39.881 129.055,27.048 131.26,68.549 133.465,23.889 135.669,39.582 137.874,61.685 140.079,42.312 142.283,12.8 144.488,55.067 146.693,45.994 148.898,49.648 151.102,22.321 153.307,16.031 155.512,17.889 157.717,22.789 159.921,47.425 162.126,54.349 164.331,60.349 166.535,40.865 168.74,28.579 170.945,55.644 173.15,58.387 175.354,33.673 177.559,27.406 179.764,59.036 181.969,37.679 184.173,22.475 186.378,77.2 188.583,38.77 190.787,27.543 192.992,31.409 195.197,77.2 197.402,37.084 199.606,55.365 201.811,68.495 204.016,47.68 206.22,36.304 208.425,22.715 210.63,77.2 212.835,58.14 215.039,53.474 217.244,54.071 219.449,50.359 221.654,26.701 223.858,43.47 226.063,61.176 228.268,52.258 230.472,38.107 232.677,22.515 234.882,24.869 237.087,36.776 239.291,15.278 241.496,48.703 243.701,24.489 245.906,38.822 248.11,45.797 250.315,17.079 252.52,12.8 254.724,29.031 256.929,32.961 259.134,26.467 261.339,12.8 263.543,22.806 265.748,34.814 267.953,13.852 270.157,19.203 272.362,50.412 274.567,52.819 276.772,42.53 278.976,59.12 281.181,39.614 283.386,16.756 285.591,70.565 287.795,68.421 290,77.013" fill="none" stroke="#1b1f27" stroke-width="2" stroke-linecap="round" stroke-linejoin="round"/>
</svg>
