<svg xmlns="http://www.w3.org/2000/svg" width="300" height="90" viewBox="0 0 300 90" role="img" aria-label="Waveform 32 Sine">
  <rect x="0" y="0" width="300" height="90" fill="#ffffff"/>
  <line x1="10" y1="45" x2="290" y2="45" stroke="#d3d6dd" stroke-width="1"/>
  <polyline points="10,45 12.205,43.599 14.409,42.201 16.614,40.81 18.819,39.429 21.024,38.062 23.228,36.712 25.433,35.382 27.638,34.075 29.843,32.796 32.047,31.546 34.252,30.329 36.457,29.148 38.661,28.006 40.866,26.906 43.071,25.849 45.276,24.84 47.48,23.88 49.685,22.971 51.89,22.117 54.094,21.318 56.299,20.578 58.504,19.897 60.709,19.278 62.913,18.721 65.118,18.229 67.323,17.803 69.528,17.443 71.732,17.15 73.937,16.926 76.142,16.77 78.346,16.684 80.551,16.666 82.756,16.718 84.961,16.839 87.165,17.03 89.37,17.288 91.575,17.614 93.78,18.008 95.984,18.467 98.189,18.992 100.394,19.58 102.598,20.23 104.803,20.941 107.008,21.711 109.213,22.537 111.417,23.419 113.622,24.354 115.827,25.339 118.031,26.372 120.236,27.45 122.441,28.572 124.646,29.734 126.85,30.933 129.055,32.167 131.26,33.432 133.465,34.725 135.669,36.044 137.874,37.384 140.079,38.743 142.283,40.118 144.488,41.504 146.693,42.899 148.898,44.299 151.102,45.701 153.307,47.101 155.512,48.496 157.717,49.882 159.921,51.257 162.126,52.616 164.331,53.956 166.535,55.275 168.74,56.568 170.945,57.833 173.15,59.067 175.354,60.266 177.559,61.428 179.764,62.55 181.969,63.628 184.173,64.661 186.378,65.646 188.583,66.581 190.787,67.463 192.992,68.289 195.197,69.059 197.402,69.77 199.606,70.42 201.811,71.008 204.016,71.533 206.22,71.992 208.425,72.386 210.63,72.712 212.835,72.97 215.039,73.161 217.244,73.282 219.449,73.334 221.654,73.316 223.858,73.23 226.063,73.074 228.268,72.85 230.472,72.557 232.677,72.197 234.882,71.771 237.087,71.279 239.291,70.722 241.496,70.103 243.701,69.422 245.906,68.682 248.11,67.883 250.315,67.029 252.52,66.12 254.724,65.16 256.929,64.151 259.134,63.094 261.339,61.994 263.543,60.852 265.748,59.671 267.953,58.454 270.157,57.204 272.362,55.925 274.567,54.618 276.772,53.288 278.976,51.938 281.181,50.571 283.386,49.19 285.591,47.799 287.795,46.401 290,45" fill="none" stroke="#1b1f27" stroke-width="2" stroke-linecap="round" stroke-linejoin="round"/>
</svg>
