<svg xmlns="http://www.w3.org/2000/svg" width="300" height="90" viewBox="0 0 300 90" role="img" aria-label="Waveform 34 Square">
  <rect x="0" y="0" width="300" height="90" fill="#ffffff"/>
  <line x1="10" y1="45" x2="290" y2="45" stroke="#d3d6dd" stroke-width="1"/>
  <polyline points="10,20.528 12.205,20.528 14.409,20.528 16.614,20.528 18.819,20.528 21.024,20.528 23.228,20.528 25.433,20.528 27.638,20.528 29.843,20.528 32.047,20.528 34.252,20.528 36.457,20.528 38.661,20.528 40.866,20.528 43.071,20.528 45.276,20.528 47.48,20.528 49.685,20.528 51.89,20.528 54.094,20.528 56.299,20.528 58.504,20.528 60.709,20.528 62.913,20.528 65.118,20.528 67.323,20.528 69.528,20.528 71.732,20.528 73.937,20.528 76.142,20.528 78.346,20.528 80.551,20.528 82.756,20.528 84.961,20.528 87.165,20.528 89.37,20.528 91.575,20.528 93.78,20.528 95.984,20.528 98.189,20.528 100.394,20.528 102.598,20.528 104.803,20.528 107.008,20.528 109.213,20.528 111.417,20.528 113.622,20.528 115.827,20.528 118.031,20.528 120.236,20.528 122.441,20.528 124.646,20.528 126.85,20.528 129.055,20.528 131.26,20.528 133.465,20.528 135.669,20.528 137.874,20.528 140.079,20.528 142.283,20.528 144.488,20.528 146.693,20.528 148.898,20.528 151.102,69.472 153.307,69.472 155.512,69.472 157.717,69.472 159.921,69.472 162.126,69.472 164.331,69.472 166.535,69.472 168.74,69.472 170.945,69.472 173.15,69.472 175.354,69.472 177.559,69.472 179.764,69.472 181.969,69.472 184.173,69.472 186.378,69.472 188.583,69.472 190.787,69.472 192.992,69.472 195.197,69.472 197.402,69.472 199.606,69.472 201.811,69.472 204.016,69.472 206.22,69.472 208.425,69.472 210.63,69.472 212.835,69.472 215.039,69.472 217.244,69.472 219.449,69.472 221.654,69.472 223.858,69.472 226.063,69.472 228.268,69.472 230.472,69.472 232.677,69.472 234.882,69.472 237.087,69.472 239.291,69.472 241.496,69.472 243.701,69.472 245.906,69.472 248.11,69.472 250.315,69.472 252.52,69.472 254.724,69.472 256.929,69.472 259.134,69.472 261.339,69.472 263.543,69.472 265.748,69.472 267.953,69.472 270.157,69.472 272.362,69.472 274.567,69.472 276.772,69.472 278.976,69.472 281.181,69.472 283.386,69.472 285.591,69.472 287.795,69.472 290,20.528" fill="none" stroke="#1b1f27" stroke-width="2" stroke-linecap="round" stroke-linejoin="round"/>
</svg>
