<svg xmlns="http://www.w3.org/2000/svg" width="300" height="90" viewBox="0 0 300 90" role="img" aria-label="Waveform 35 Dome 1">
  <rect x="0" y="0" width="300" height="90" fill="#ffffff"/>
  <line x1="10" y1="45" x2="290" y2="45" stroke="#d3d6dd" stroke-width="1"/>
  <polyline points="10,45 12.205,44.03 14.409,43.067 16.614,42.119 18.819,41.194 21.024,40.299 23.228,39.438 25.433,38.619 27.638,37.845 29.843,37.12 32.047,36.447 34.252,35.827 36.457,35.261 38.661,34.748 40.866,34.286 43.071,33.873 45.276,33.505 47.48,33.177 49.685,32.884 51.89,32.621 54.094,32.381 56.299,32.156 58.504,31.941 60.709,31.728 62.913,31.51 65.118,31.28 67.323,31.033 69.528,30.763 71.732,30.464 73.937,30.134 76.142,29.769 78.346,29.366 80.551,28.925 82.756,28.446 84.961,27.929 87.165,27.378 89.37,26.794 91.575,26.183 93.78,25.549 95.984,24.898 98.189,24.236 100.394,23.571 102.598,22.91 104.803,22.259 107.008,21.627 109.213,21.022 111.417,20.449 113.622,19.917 115.827,19.43 118.031,18.996 120.236,18.617 122.441,18.298 124.646,18.042 126.85,17.85 129.055,17.723 131.26,17.66 133.465,17.66 135.669,17.72 137.874,17.836 140.079,18.003 142.283,18.218 144.488,18.472 146.693,18.76 148.898,19.075 151.102,19.409 153.307,19.755 155.512,20.107 157.717,20.455 159.921,20.795 162.126,21.12 164.331,21.425 166.535,21.704 168.74,21.954 170.945,22.173 173.15,22.358 175.354,22.508 177.559,22.625 179.764,22.709 181.969,22.763 184.173,22.79 186.378,22.795 188.583,22.783 190.787,22.76 192.992,22.731 195.197,22.704 197.402,22.687 199.606,22.685 201.811,22.706 204.016,22.758 206.22,22.845 208.425,22.976 210.63,23.154 212.835,23.384 215.039,23.67 217.244,24.015 219.449,24.42 221.654,24.886 223.858,25.412 226.063,25.996 228.268,26.637 230.472,27.329 232.677,28.069 234.882,28.851 237.087,29.669 239.291,30.516 241.496,31.385 243.701,32.268 245.906,33.157 248.11,34.046 250.315,34.926 252.52,35.79 254.724,36.633 256.929,37.446 259.134,38.226 261.339,38.969 263.543,39.669 265.748,40.326 267.953,40.938 270.157,41.504 272.362,42.026 274.567,42.504 276.772,42.943 278.976,43.345 281.181,43.716 283.386,44.061 285.591,44.385 287.795,44.696 290,45" fill="none" stroke="#1b1f27" stroke-width="2" stroke-linecap="round" stroke-linejoin="round"/>
</svg>
