<svg xmlns="http://www.w3.org/2000/svg" width="300" height="90" viewBox="0 0 300 90" role="img" aria-label="Waveform 37 Mellow Dome">
  <rect x="0" y="0" width="300" height="90" fill="#ffffff"/>
  <line x1="10" y1="45" x2="290" y2="45" stroke="#d3d6dd" stroke-width="1"/>
  <polyline points="10,45 12.205,44.085 14.409,43.174 16.614,42.273 18.819,41.385 21.024,40.515 23.228,39.667 25.433,38.845 27.638,38.052 29.843,37.29 32.047,36.563 34.252,35.872 36.457,35.22 38.661,34.606 40.866,34.031 43.071,33.496 45.276,33 47.48,32.541 49.685,32.118 51.89,31.73 54.094,31.373 56.299,31.045 58.504,30.743 60.709,30.463 62.913,30.201 65.118,29.954 67.323,29.718 69.528,29.489 71.732,29.263 73.937,29.036 76.142,28.805 78.346,28.565 80.551,28.315 82.756,28.051 84.961,27.77 87.165,27.471 89.37,27.152 91.575,26.813 93.78,26.451 95.984,26.068 98.189,25.663 100.394,25.239 102.598,24.795 104.803,24.334 107.008,23.859 109.213,23.372 111.417,22.877 113.622,22.377 115.827,21.876 118.031,21.377 120.236,20.886 122.441,20.406 124.646,19.942 126.85,19.498 129.055,19.079 131.26,18.688 133.465,18.33 135.669,18.008 137.874,17.726 140.079,17.486 142.283,17.29 144.488,17.142 146.693,17.042 148.898,16.992 151.102,16.992 153.307,17.042 155.512,17.142 157.717,17.29 159.921,17.486 162.126,17.726 164.331,18.008 166.535,18.33 168.74,18.688 170.945,19.079 173.15,19.498 175.354,19.942 177.559,20.406 179.764,20.886 181.969,21.377 184.173,21.876 186.378,22.377 188.583,22.877 190.787,23.372 192.992,23.859 195.197,24.334 197.402,24.795 199.606,25.239 201.811,25.663 204.016,26.068 206.22,26.451 208.425,26.813 210.63,27.152 212.835,27.471 215.039,27.77 217.244,28.051 219.449,28.315 221.654,28.565 223.858,28.805 226.063,29.036 228.268,29.263 230.472,29.489 232.677,29.718 234.882,29.954 237.087,30.201 239.291,30.463 241.496,30.743 243.701,31.045 245.906,31.373 248.11,31.73 250.315,32.118 252.52,32.541 254.724,33 256.929,33.496 259.134,34.031 261.339,34.606 263.543,35.22 265.748,35.872 267.953,36.563 270.157,37.29 272.362,38.052 274.567,38.845 276.772,39.667 278.976,40.515 281.181,41.385 283.386,42.273 285.591,43.174 287.795,44.085 290,45" fill="none" stroke="#1b1f27" stroke-width="2" stroke-linecap="round" stroke-linejoin="round"/>
</svg>
