<svg xmlns="http://www.w3.org/2000/svg" width="300" height="90" viewBox="0 0 300 90" role="img" aria-label="Waveform 40 Rasp 1">
  <rect x="0" y="0" width="300" height="90" fill="#ffffff"/>
  <line x1="10" y1="45" x2="290" y2="45" stroke="#d3d6dd" stroke-width="1"/>
  <polyline points="10,50.879 12.205,58.786 14.409,33.38 16.614,68.033 18.819,24.477 21.024,18.135 23.228,50.913 25.433,33.138 27.638,30.563 29.843,42.749 32.047,28.101 34.252,64.865 36.457,57.74 38.661,44.178 40.866,24.974 43.071,72.839 45.276,16.385 47.48,26.545 49.685,45.876 51.89,69.108 54.094,67.163 56.299,16.736 58.504,44.751 60.709,35.469 62.913,43.83 65.118,59.567 67.323,56.564 69.528,28.343 71.732,29.359 73.937,59.502 76.142,56.725 78.346,24.535 80.551,60.687 82.756,18.78 84.961,31.689 87.165,24.734 89.37,60.919 91.575,55.452 93.78,43.5 95.984,64.417 98.189,15.465 100.394,32.977 102.598,44.338 104.803,61.681 107.008,62.104 109.213,56.406 111.417,38.883 113.622,44.235 115.827,43.991 118.031,12.8 120.236,65.957 122.441,41.002 124.646,33.22 126.85,50.369 129.055,27.416 131.26,64.333 133.465,63.598 135.669,20.533 137.874,39.066 140.079,17.218 142.283,30.373 144.488,57.98 146.693,17.95 148.898,35.592 151.102,72.966 153.307,76.275 155.512,39.486 157.717,66.586 159.921,75.595 162.126,23.683 164.331,29.462 166.535,64.37 168.74,77.2 170.945,76.739 173.15,38.068 175.354,67.175 177.559,63.28 179.764,49.994 181.969,17.67 184.173,62.997 186.378,55.49 188.583,56.094 190.787,64.868 192.992,68.597 195.197,59.131 197.402,61.448 199.606,73.952 201.811,26.288 204.016,65.087 206.22,29.68 208.425,36.464 210.63,49.255 212.835,25.25 215.039,31.389 217.244,74.907 219.449,30.709 221.654,75.009 223.858,77.2 226.063,30.796 228.268,37.219 230.472,40.937 232.677,23.629 234.882,68.371 237.087,44.902 239.291,34.759 241.496,77.112 243.701,33.816 245.906,24.385 248.11,72.329 250.315,35.472 252.52,46.897 254.724,67.051 256.929,19.63 259.134,48.509 261.339,34.844 263.543,42.584 265.748,62.2 267.953,31.799 270.157,19.219 272.362,61.813 274.567,64.261 276.772,28.102 278.976,72.339 281.181,72.819 283.386,32.463 285.591,22.411 287.795,56.225 290,70.324" fill="none" stroke="#1b1f27" stroke-width="2" stroke-linecap="round" stroke-linejoin="round"/>
</svg>
