<svg xmlns="http://www.w3.org/2000/svg" width="300" height="90" viewBox="0 0 300 90" role="img" aria-label="Waveform 41 Rasp 2">
  <rect x="0" y="0" width="300" height="90" fill="#ffffff"/>
  <line x1="10" y1="45" x2="290" y2="45" stroke="#d3d6dd" stroke-width="1"/>
  <polyline points="10,56.948 12.205,41.261 14.409,55.775 16.614,17.092 18.819,49.471 21.024,66.799 23.228,41.093 25.433,57.289 27.638,61.951 29.843,29.608 32.047,41.39 34.252,48.68 36.457,14.327 38.661,50.406 40.866,46.717 43.071,14.45 45.276,64.459 47.48,64.577 49.685,18.394 51.89,15.21 54.094,12.8 56.299,54.357 58.504,52.843 60.709,39.582 62.913,20.525 65.118,57.18 67.323,59.22 69.528,12.8 71.732,44.205 73.937,20.63 76.142,59.492 78.346,34.478 80.551,20.53 82.756,12.8 84.961,38.204 87.165,12.8 89.37,14.841 91.575,22.376 93.78,63.156 95.984,67.961 98.189,58.3 100.394,76.893 102.598,22.701 104.803,75.742 107.008,39.362 109.213,43.068 111.417,57.213 113.622,56.902 115.827,39.099 118.031,49.173 120.236,41.628 122.441,59.849 124.646,57.522 126.85,48.347 129.055,40.544 131.26,30.957 133.465,55.858 135.669,77.2 137.874,43.226 140.079,44.707 142.283,77.2 144.488,77.2 146.693,63.461 148.898,50.421 151.102,77.2 153.307,30.84 155.512,68.282 157.717,50.702 159.921,35.43 162.126,75.861 164.331,20.162 166.535,67.45 168.74,20.716 170.945,64.179 173.15,68.85 175.354,76.929 177.559,54.119 179.764,43.589 181.969,62.527 184.173,75.816 186.378,30.469 188.583,51.461 190.787,74.212 192.992,77.2 195.197,73.502 197.402,37.922 199.606,46.287 201.811,67.669 204.016,50.312 206.22,22.446 208.425,46.735 210.63,62.012 212.835,66.275 215.039,65.224 217.244,65.82 219.449,57.462 221.654,35.772 223.858,19.114 226.063,12.8 228.268,38.742 230.472,41.803 232.677,19.679 234.882,67.867 237.087,42.623 239.291,60.429 241.496,60.36 243.701,36.833 245.906,52.439 248.11,12.8 250.315,39.636 252.52,15.84 254.724,33.031 256.929,12.8 259.134,34.643 261.339,30.95 263.543,35.441 265.748,18.65 267.953,27.846 270.157,46.065 272.362,12.8 274.567,63.775 276.772,12.8 278.976,36.706 281.181,47.341 283.386,32.394 285.591,53.731 287.795,62.823 290,45.442" fill="none" stroke="#1b1f27" stroke-width="2" stroke-linecap="round" stroke-linejoin="round"/>
</svg>
