<svg xmlns="http://www.w3.org/2000/svg" width="300" height="90" viewBox="0 0 300 90" role="img" aria-label="Waveform 42 Rasp 3">
  <rect x="0" y="0" width="300" height="90" fill="#ffffff"/>
  <line x1="10" y1="45" x2="290" y2="45" stroke="#d3d6dd" stroke-width="1"/>
  <polyline points="10,65.554 12.205,26.386 14.409,45.971 16.614,34.105 18.819,17.115 21.024,57.423 23.228,52.734 25.433,13.9 27.638,19.802 29.843,29.113 32.047,12.8 34.252,42.848 36.457,26.204 38.661,15.652 40.866,55.98 43.071,38.025 45.276,12.8 47.48,36.77 49.685,19.333 51.89,53.624 54.094,20.291 56.299,45.139 58.504,43.158 60.709,42.417 62.913,66.529 65.118,54.012 67.323,17.576 69.528,33.254 71.732,40.039 73.937,45.345 76.142,70.618 78.346,62.308 80.551,46.3 82.756,72.585 84.961,77.2 87.165,51.431 89.37,18.569 91.575,23.36 93.78,67.658 95.984,72.924 98.189,32.621 100.394,63.216 102.598,62.718 104.803,53.274 107.008,59.847 109.213,77.2 111.417,49.59 113.622,33.3 115.827,77.2 118.031,38.808 120.236,45.196 122.441,68.906 124.646,60.941 126.85,66.265 129.055,76.71 131.26,53.921 133.465,63.981 135.669,66.318 137.874,48.555 140.079,51.533 142.283,43.304 144.488,69.193 146.693,59.488 148.898,73.14 151.102,25.711 153.307,32.684 155.512,53.698 157.717,49.161 159.921,57.18 162.126,23.659 164.331,58.88 166.535,51.223 168.74,69.38 170.945,48.706 173.15,57.051 175.354,23.285 177.559,32.651 179.764,32.883 181.969,34.671 184.173,42.897 186.378,51.166 188.583,19.286 190.787,54.528 192.992,36.18 195.197,68.705 197.402,49.295 199.606,61.853 201.811,12.8 204.016,12.8 206.22,69.208 208.425,15.781 210.63,25.235 212.835,47.594 215.039,59.429 217.244,15.827 219.449,26.845 221.654,68.482 223.858,67.913 226.063,64.319 228.268,31.853 230.472,77.2 232.677,77.2 234.882,69.999 237.087,61.632 239.291,41.073 241.496,44.18 243.701,29.934 245.906,67.682 248.11,71.405 250.315,72.218 252.52,51.43 254.724,44.103 256.929,24.174 259.134,41.456 261.339,68.58 263.543,61.634 265.748,37.16 267.953,35.186 270.157,48.042 272.362,76.798 274.567,77.2 276.772,25.411 278.976,77.2 281.181,77.2 283.386,46.632 285.591,71.736 287.795,62.987 290,33.654" fill="none" stroke="#1b1f27" stroke-width="2" stroke-linecap="round" stroke-linejoin="round"/>
</svg>
