<svg xmlns="http://www.w3.org/2000/svg" width="300" height="90" viewBox="0 0 300 90" role="img" aria-label="Waveform 43 Rasp 4">
  <rect x="0" y="0" width="300" height="90" fill="#ffffff"/>
  <line x1="10" y1="45" x2="290" y2="45" stroke="#d3d6dd" stroke-width="1"/>
  <polyline points="10,21.784 12.205,23.879 14.409,46.433 16.614,22.56 18.819,24.455 21.024,12.8 23.228,35.698 25.433,13.842 27.638,52.322 29.843,39.849 32.047,46.908 34.252,54.656 36.457,59.397 38.661,68.124 40.866,45.044 43.071,62.08 45.276,17.917 47.48,18.198 49.685,27.308 51.89,59.216 54.094,43.444 56.299,23.366 58.504,63.959 60.709,65.949 62.913,61.225 65.118,64.668 67.323,50.287 69.528,29.737 71.732,39.557 73.937,17.516 76.142,56.26 78.346,37.309 80.551,26.732 82.756,26.132 84.961,38.211 87.165,30.723 89.37,57.964 91.575,48.264 93.78,72.093 95.984,38.082 98.189,73.193 100.394,77.2 102.598,65.887 104.803,39.03 107.008,32.538 109.213,54.02 111.417,16.947 113.622,40.179 115.827,64.64 118.031,15.772 120.236,75.966 122.441,75.503 124.646,67.531 126.85,54.536 129.055,63.488 131.26,74.217 133.465,64.655 135.669,32.946 137.874,65.405 140.079,28.926 142.283,25.682 144.488,49.872 146.693,12.8 148.898,67.258 151.102,20.567 153.307,38.493 155.512,51.681 157.717,32.606 159.921,43.477 162.126,22.646 164.331,66.518 166.535,45.413 168.74,33.266 170.945,66.271 173.15,73.92 175.354,17.867 177.559,17.533 179.764,75.376 181.969,74.449 184.173,65.261 186.378,76.162 188.583,51.538 190.787,42.846 192.992,54.532 195.197,28.174 197.402,36.906 199.606,38.97 201.811,72.438 204.016,23.186 206.22,73.116 208.425,58.269 210.63,77.2 212.835,77.2 215.039,32.8 217.244,66.182 219.449,21.967 221.654,29.455 223.858,77.2 226.063,38.022 228.268,18.007 230.472,16.975 232.677,74.225 234.882,56.759 237.087,15.546 239.291,17.099 241.496,32.8 243.701,69.35 245.906,54.01 248.11,57.286 250.315,14.578 252.52,50.668 254.724,14.228 256.929,38.507 259.134,43.573 261.339,34.906 263.543,64.828 265.748,20.954 267.953,19.111 270.157,62.197 272.362,49.259 274.567,41.878 276.772,42.268 278.976,12.8 281.181,47.7 283.386,52.861 285.591,55.793 287.795,17.212 290,65.288" fill="none" stroke="#1b1f27" stroke-width="2" stroke-linecap="round" stroke-linejoin="round"/>
</svg>
