<svg xmlns="http://www.w3.org/2000/svg" width="300" height="90" viewBox="0 0 300 90" role="img" aria-label="Waveform 45 HP Saw">
  <rect x="0" y="0" width="300" height="90" fill="#ffffff"/>
  <line x1="10" y1="45" x2="290" y2="45" stroke="#d3d6dd" stroke-width="1"/>
  <polyline points="10,72.692 12.205,72.256 14.409,71.82 16.614,71.384 18.819,70.948 21.024,70.512 23.228,70.075 25.433,69.639 27.638,69.203 29.843,68.767 32.047,68.331 34.252,67.895 36.457,67.459 38.661,67.023 40.866,66.587 43.071,66.151 45.276,65.714 47.48,65.278 49.685,64.842 51.89,64.406 54.094,63.97 56.299,63.534 58.504,63.098 60.709,62.662 62.913,62.226 65.118,61.79 67.323,61.354 69.528,60.917 71.732,60.481 73.937,60.045 76.142,59.609 78.346,59.173 80.551,58.737 82.756,58.301 84.961,57.865 87.165,57.429 89.37,56.993 91.575,56.557 93.78,56.12 95.984,55.684 98.189,55.248 100.394,54.812 102.598,54.376 104.803,53.94 107.008,53.504 109.213,53.068 111.417,52.632 113.622,52.196 115.827,51.759 118.031,51.323 120.236,50.887 122.441,50.451 124.646,50.015 126.85,49.579 129.055,49.143 131.26,48.707 133.465,48.271 135.669,47.835 137.874,47.399 140.079,46.962 142.283,46.526 144.488,46.09 146.693,45.654 148.898,45.218 151.102,44.782 153.307,44.346 155.512,43.91 157.717,43.474 159.921,43.038 162.126,42.601 164.331,42.165 166.535,41.729 168.74,41.293 170.945,40.857 173.15,40.421 175.354,39.985 177.559,39.549 179.764,39.113 181.969,38.677 184.173,38.241 186.378,37.804 188.583,37.368 190.787,36.932 192.992,36.496 195.197,36.06 197.402,35.624 199.606,35.188 201.811,34.752 204.016,34.316 206.22,33.88 208.425,33.443 210.63,33.007 212.835,32.571 215.039,32.135 217.244,31.699 219.449,31.263 221.654,30.827 223.858,30.391 226.063,29.955 228.268,29.519 230.472,29.083 232.677,28.646 234.882,28.21 237.087,27.774 239.291,27.338 241.496,26.902 243.701,26.466 245.906,26.03 248.11,25.594 250.315,25.158 252.52,24.722 254.724,24.286 256.929,23.849 259.134,23.413 261.339,22.977 263.543,22.541 265.748,22.105 267.953,21.669 270.157,21.233 272.362,20.797 274.567,20.361 276.772,19.925 278.976,19.488 281.181,19.052 283.386,18.616 285.591,18.18 287.795,17.744 290,72.692" fill="none" stroke="#1b1f27" stroke-width="2" stroke-linecap="round" stroke-linejoin="round"/>
</svg>
