<svg xmlns="http://www.w3.org/2000/svg" width="300" height="90" viewBox="0 0 300 90" role="img" aria-label="Waveform 48 Vocal">
  <rect x="0" y="0" width="300" height="90" fill="#ffffff"/>
  <line x1="10" y1="45" x2="290" y2="45" stroke="#d3d6dd" stroke-width="1"/>
  <polyline points="10,45.122 12.205,58.611 14.409,12.8 16.614,65.582 18.819,13.216 21.024,46.912 23.228,36.368 25.433,19.512 27.638,53.523 29.843,19.801 32.047,56.593 34.252,20.323 36.457,12.8 38.661,12.8 40.866,49.39 43.071,57.722 45.276,15.626 47.48,49.156 49.685,59.2 51.89,34.482 54.094,59.825 56.299,12.8 58.504,26.122 60.709,63.048 62.913,67.303 65.118,12.8 67.323,17.2 69.528,36.424 71.732,66.938 73.937,24.896 76.142,12.8 78.346,28.732 80.551,55.89 82.756,52.979 84.961,25.958 87.165,65.51 89.37,27.256 91.575,28.915 93.78,59.229 95.984,28.698 98.189,58.448 100.394,12.8 102.598,61.914 104.803,56.451 107.008,26.428 109.213,46.906 111.417,28.757 113.622,53.161 115.827,17.486 118.031,42.057 120.236,32.174 122.441,58.467 124.646,23.118 126.85,43.3 129.055,34.557 131.26,35.918 133.465,77.2 135.669,46.004 137.874,56.575 140.079,47.776 142.283,45.185 144.488,65.512 146.693,77.2 148.898,30.476 151.102,68.124 153.307,77.2 155.512,45.03 157.717,46.925 159.921,77.2 162.126,60.365 164.331,71.698 166.535,77.2 168.74,53.455 170.945,77.2 173.15,65.173 175.354,59.725 177.559,41.057 179.764,63.31 181.969,77.2 184.173,28.419 186.378,52.478 188.583,76.741 190.787,49.991 192.992,64.304 195.197,71.076 197.402,77.2 199.606,53.482 201.811,52.544 204.016,30.32 206.22,35.692 208.425,56.645 210.63,36.128 212.835,26.726 215.039,42.298 217.244,67.781 219.449,29.367 221.654,77.2 223.858,60.828 226.063,43.328 228.268,51.057 230.472,69.815 232.677,48.368 234.882,60.036 237.087,74.561 239.291,29.253 241.496,41.468 243.701,32.711 245.906,44.365 248.11,28.891 250.315,16.084 252.52,55.217 254.724,58.362 256.929,24.555 259.134,39.864 261.339,14.939 263.543,62.022 265.748,50.793 267.953,56.831 270.157,53.592 272.362,24.264 274.567,12.8 276.772,12.8 278.976,27.813 281.181,50.456 283.386,12.8 285.591,12.8 287.795,12.8 290,17.535" fill="none" stroke="#1b1f27" stroke-width="2" stroke-linecap="round" stroke-linejoin="round"/>
</svg>
