<svg xmlns="http://www.w3.org/2000/svg" width="300" height="90" viewBox="0 0 300 90" role="img" aria-label="Waveform 49 Squeeze box">
  <rect x="0" y="0" width="300" height="90" fill="#ffffff"/>
  <line x1="10" y1="45" x2="290" y2="45" stroke="#d3d6dd" stroke-width="1"/>
  <polyline points="10,38.245 12.205,69.997 14.409,46.454 16.614,19.412 18.819,48.424 21.024,68.526 23.228,12.8 25.433,38.46 27.638,56.354 29.843,13.136 32.047,62.481 34.252,18.153 36.457,36.817 38.661,63.82 40.866,57.046 43.071,12.8 45.276,47.157 47.48,52.259 49.685,64.373 51.89,36.766 54.094,27.105 56.299,12.8 58.504,12.8 60.709,47.574 62.913,44.041 65.118,12.8 67.323,16.131 69.528,18.11 71.732,14.96 73.937,36.964 76.142,13.338 78.346,62.578 80.551,12.8 82.756,26.398 84.961,12.8 87.165,30.487 89.37,44.021 91.575,12.8 93.78,55.487 95.984,27.388 98.189,15.668 100.394,57.474 102.598,22.964 104.803,43.554 107.008,12.8 109.213,24.219 111.417,38.778 113.622,41.43 115.827,37.951 118.031,63.501 120.236,14.616 122.441,28.176 124.646,34.578 126.85,59.717 129.055,39.831 131.26,14.119 133.465,39.495 135.669,63.822 137.874,69.484 140.079,61.4 142.283,15.366 144.488,22.062 146.693,13.926 148.898,56.465 151.102,18.292 153.307,45.625 155.512,40.027 157.717,39.352 159.921,44.777 162.126,32.335 164.331,42.743 166.535,77.2 168.74,67.783 170.945,27.063 173.15,72.616 175.354,65.874 177.559,74.735 179.764,43.044 181.969,56.55 184.173,77.2 186.378,46.039 188.583,60.187 190.787,69.975 192.992,56.978 195.197,68.22 197.402,37.21 199.606,59.942 201.811,77.2 204.016,77.2 206.22,64.477 208.425,51.978 210.63,32.482 212.835,71.057 215.039,59.746 217.244,74.74 219.449,32.836 221.654,71.677 223.858,62.522 226.063,77.2 228.268,77.2 230.472,67.643 232.677,74.003 234.882,77.2 237.087,58.404 239.291,34.274 241.496,61.066 243.701,27.766 245.906,25.292 248.11,37.043 250.315,68.193 252.52,74.311 254.724,39.767 256.929,42.987 259.134,58.621 261.339,46.901 263.543,77.2 265.748,39.424 267.953,38.401 270.157,77.2 272.362,55.041 274.567,77.2 276.772,20.339 278.976,22.316 281.181,64.681 283.386,53.17 285.591,37.511 287.795,25.701 290,54.261" fill="none" stroke="#1b1f27" stroke-width="2" stroke-linecap="round" stroke-linejoin="round"/>
</svg>
