<svg xmlns="http://www.w3.org/2000/svg" width="300" height="90" viewBox="0 0 300 90" role="img" aria-label="Waveform 51 Limp Saw">
  <rect x="0" y="0" width="300" height="90" fill="#ffffff"/>
  <line x1="10" y1="45" x2="290" y2="45" stroke="#d3d6dd" stroke-width="1"/>
  <polyline points="10,60.231 12.205,59.991 14.409,59.751 16.614,59.511 18.819,59.271 21.024,59.031 23.228,58.791 25.433,58.552 27.638,58.312 29.843,58.072 32.047,57.832 34.252,57.592 36.457,57.352 38.661,57.113 40.866,56.873 43.071,56.633 45.276,56.393 47.48,56.153 49.685,55.913 51.89,55.673 54.094,55.434 56.299,55.194 58.504,54.954 60.709,54.714 62.913,54.474 65.118,54.234 67.323,53.994 69.528,53.755 71.732,53.515 73.937,53.275 76.142,53.035 78.346,52.795 80.551,52.555 82.756,52.315 84.961,52.076 87.165,51.836 89.37,51.596 91.575,51.356 93.78,51.116 95.984,50.876 98.189,50.637 100.394,50.397 102.598,50.157 104.803,49.917 107.008,49.677 109.213,49.437 111.417,49.197 113.622,48.958 115.827,48.718 118.031,48.478 120.236,48.238 122.441,47.998 124.646,47.758 126.85,47.518 129.055,47.279 131.26,47.039 133.465,46.799 135.669,46.559 137.874,46.319 140.079,46.079 142.283,45.839 144.488,45.6 146.693,45.36 148.898,45.12 151.102,44.88 153.307,44.64 155.512,44.4 157.717,44.161 159.921,43.921 162.126,43.681 164.331,43.441 166.535,43.201 168.74,42.961 170.945,42.721 173.15,42.482 175.354,42.242 177.559,42.002 179.764,41.762 181.969,41.522 184.173,41.282 186.378,41.042 188.583,40.803 190.787,40.563 192.992,40.323 195.197,40.083 197.402,39.843 199.606,39.603 201.811,39.363 204.016,39.124 206.22,38.884 208.425,38.644 210.63,38.404 212.835,38.164 215.039,37.924 217.244,37.685 219.449,37.445 221.654,37.205 223.858,36.965 226.063,36.725 228.268,36.485 230.472,36.245 232.677,36.006 234.882,35.766 237.087,35.526 239.291,35.286 241.496,35.046 243.701,34.806 245.906,34.566 248.11,34.327 250.315,34.087 252.52,33.847 254.724,33.607 256.929,33.367 259.134,33.127 261.339,32.887 263.543,32.648 265.748,32.408 267.953,32.168 270.157,31.928 272.362,31.688 274.567,31.448 276.772,31.209 278.976,30.969 281.181,30.729 283.386,30.489 285.591,30.249 287.795,30.009 290,60.231" fill="none" stroke="#1b1f27" stroke-width="2" stroke-linecap="round" stroke-linejoin="round"/>
</svg>
