<svg xmlns="http://www.w3.org/2000/svg" width="300" height="90" viewBox="0 0 300 90" role="img" aria-label="Waveform 52 Spark Wave 1">
  <rect x="0" y="0" width="300" height="90" fill="#ffffff"/>
  <line x1="10" y1="45" x2="290" y2="45" stroke="#d3d6dd" stroke-width="1"/>
  <polyline points="10,75.775 12.205,20.977 14.409,46.02 16.614,70.35 18.819,46.792 21.024,29.175 23.228,35.423 25.433,12.8 27.638,55.724 29.843,14.897 32.047,73.094 34.252,36.001 36.457,45.787 38.661,21.477 40.866,47.906 43.071,29.074 45.276,66.047 47.48,65.706 49.685,36.721 51.89,71.148 54.094,66.702 56.299,69.826 58.504,50.102 60.709,36.205 62.913,28.967 65.118,37.991 67.323,55.288 69.528,64.884 71.732,12.8 73.937,12.8 76.142,49.099 78.346,19.126 80.551,29.495 82.756,51.162 84.961,53.469 87.165,51.685 89.37,35.951 91.575,12.8 93.78,24.325 95.984,35.178 98.189,12.8 100.394,40.079 102.598,34.316 104.803,68.394 107.008,51.746 109.213,47.809 111.417,56.655 113.622,14.4 115.827,48.664 118.031,60.012 120.236,60.72 122.441,30.736 124.646,70.972 126.85,49.165 129.055,72.954 131.26,61.683 133.465,75.629 135.669,19.606 137.874,76.5 140.079,32.455 142.283,31.819 144.488,50.808 146.693,29.863 148.898,61.233 151.102,33.713 153.307,64.241 155.512,65.525 157.717,30.459 159.921,56.169 162.126,72.277 164.331,52.943 166.535,39.934 168.74,24.672 170.945,47.771 173.15,51.968 175.354,55.479 177.559,25.523 179.764,77.2 181.969,68.964 184.173,71.566 186.378,77.2 188.583,65.938 190.787,49.052 192.992,36.692 195.197,77.2 197.402,32.067 199.606,69.169 201.811,61.532 204.016,69.897 206.22,32.428 208.425,58.966 210.63,37.96 212.835,32.498 215.039,25.916 217.244,75.743 219.449,43.562 221.654,77.2 223.858,53.933 226.063,77.2 228.268,29.567 230.472,46.347 232.677,77.2 234.882,57.8 237.087,42.566 239.291,77.2 241.496,42.2 243.701,26.8 245.906,63.09 248.11,21.893 250.315,29.249 252.52,25.886 254.724,65.997 256.929,34.29 259.134,34.826 261.339,54.785 263.543,60.371 265.748,68.903 267.953,48.873 270.157,67.715 272.362,45.268 274.567,45.864 276.772,21.131 278.976,36.08 281.181,23.888 283.386,70.324 285.591,60.761 287.795,31.193 290,18.152" fill="none" stroke="#1b1f27" stroke-width="2" stroke-linecap="round" stroke-linejoin="round"/>
</svg>
