<svg xmlns="http://www.w3.org/2000/svg" width="300" height="90" viewBox="0 0 300 90" role="img" aria-label="Waveform 53 Spark Wave 2">
  <rect x="0" y="0" width="300" height="90" fill="#ffffff"/>
  <line x1="10" y1="45" x2="290" y2="45" stroke="#d3d6dd" stroke-width="1"/>
  <polyline points="10,15.133 12.205,42.425 14.409,47.73 16.614,71.849 18.819,31.064 21.024,66.79 23.228,12.8 25.433,18.907 27.638,12.8 29.843,56.765 32.047,43.914 34.252,66.385 36.457,30.436 38.661,12.965 40.866,47.975 43.071,54.405 45.276,35.867 47.48,71 49.685,59.364 51.89,12.8 54.094,21.943 56.299,36.134 58.504,22.012 60.709,36.053 62.913,12.8 65.118,60.519 67.323,53.942 69.528,56.508 71.732,45.841 73.937,69.225 76.142,23.867 78.346,58.468 80.551,52.584 82.756,60.687 84.961,19.846 87.165,23.001 89.37,46.447 91.575,33.831 93.78,67.042 95.984,38.578 98.189,69.822 100.394,46.196 102.598,61.888 104.803,62.686 107.008,24.563 109.213,43.212 111.417,31.631 113.622,50.806 115.827,74.773 118.031,66.479 120.236,46.026 122.441,66.721 124.646,35.848 126.85,77.2 129.055,75.755 131.26,51.485 133.465,34.71 135.669,51.532 137.874,48.247 140.079,26.884 142.283,42.807 144.488,57.047 146.693,47.384 148.898,77.2 151.102,51.542 153.307,72.054 155.512,33.291 157.717,46.722 159.921,74.466 162.126,54.982 164.331,77.2 166.535,67.599 168.74,54.515 170.945,62.538 173.15,77.2 175.354,43.059 177.559,34.977 179.764,58.628 181.969,25.395 184.173,20.649 186.378,40.533 188.583,26.4 190.787,54.878 192.992,18.741 195.197,17.077 197.402,32.661 199.606,20.515 201.811,37.951 204.016,57.318 206.22,54.278 208.425,51.59 210.63,37.448 212.835,54.259 215.039,73.712 217.244,66.208 219.449,31.36 221.654,70.661 223.858,14.241 226.063,28.789 228.268,61.867 230.472,17.211 232.677,50.421 234.882,22.112 237.087,46.688 239.291,30.664 241.496,38.259 243.701,50.888 245.906,22.721 248.11,64.122 250.315,28.183 252.52,42.879 254.724,15.825 256.929,13.833 259.134,48.765 261.339,59.69 263.543,68.221 265.748,57.954 267.953,58.181 270.157,32.444 272.362,66.008 274.567,20.91 276.772,28.998 278.976,28.85 281.181,19.763 283.386,61.533 285.591,49.553 287.795,34.694 290,57.63" fill="none" stroke="#1b1f27" stroke-width="2" stroke-linecap="round" stroke-linejoin="round"/>
</svg>
