<svg xmlns="http://www.w3.org/2000/svg" width="300" height="90" viewBox="0 0 300 90" role="img" aria-label="Waveform 54 Spark Wave 3">
  <rect x="0" y="0" width="300" height="90" fill="#ffffff"/>
  <line x1="10" y1="45" x2="290" y2="45" stroke="#d3d6dd" stroke-width="1"/>
  <polyline points="10,41.237 12.205,19.46 14.409,29.947 16.614,17.813 18.819,12.8 21.024,19.414 23.228,59.057 25.433,42.419 27.638,32.546 29.843,56.288 32.047,43.536 34.252,54.029 36.457,66.386 38.661,12.8 40.866,29.676 43.071,35.292 45.276,67.236 47.48,49.95 49.685,36.811 51.89,43.375 54.094,12.8 56.299,52.063 58.504,46.321 60.709,22.698 62.913,55.456 65.118,18.981 67.323,51.4 69.528,72.018 71.732,58.881 73.937,74.5 76.142,55.655 78.346,39.561 80.551,54.806 82.756,35.641 84.961,19.241 87.165,51.677 89.37,48.021 91.575,48.054 93.78,46.729 95.984,41.521 98.189,36.478 100.394,27.61 102.598,31.602 104.803,56.077 107.008,65.863 109.213,77.2 111.417,30.826 113.622,27.509 115.827,40.8 118.031,32.416 120.236,51.641 122.441,37.616 124.646,42.255 126.85,73.692 129.055,42.691 131.26,38.662 133.465,16.552 135.669,68.103 137.874,46.086 140.079,59.258 142.283,73.018 144.488,51.117 146.693,67.41 148.898,29.031 151.102,22.094 153.307,47.186 155.512,17.659 157.717,37.052 159.921,42.776 162.126,40.784 164.331,13.82 166.535,20.022 168.74,28.845 170.945,49.81 173.15,13.722 175.354,21.198 177.559,54.823 179.764,29.417 181.969,41.979 184.173,65.146 186.378,45.284 188.583,27.901 190.787,64.037 192.992,33.105 195.197,44.447 197.402,46.195 199.606,72.445 201.811,74.203 204.016,29.779 206.22,37.16 208.425,27.632 210.63,27.962 212.835,60.963 215.039,15.524 217.244,62.901 219.449,51.413 221.654,28.135 223.858,75.565 226.063,13.359 228.268,16.945 230.472,61.586 232.677,22.541 234.882,38.673 237.087,61.301 239.291,77.2 241.496,46.972 243.701,63.209 245.906,43.182 248.11,24.311 250.315,29.391 252.52,25.672 254.724,77.2 256.929,77.2 259.134,38.659 261.339,45.357 263.543,20.389 265.748,32.749 267.953,20.24 270.157,29.615 272.362,45.767 274.567,51.873 276.772,70.139 278.976,52.297 281.181,31.773 283.386,20.704 285.591,23.187 287.795,77.2 290,17.194" fill="none" stroke="#1b1f27" stroke-width="2" stroke-linecap="round" stroke-linejoin="round"/>
</svg>
