<svg xmlns="http://www.w3.org/2000/svg" width="300" height="90" viewBox="0 0 300 90" role="img" aria-label="Waveform 55 Mid Wave 1">
  <rect x="0" y="0" width="300" height="90" fill="#ffffff"/>
  <line x1="10" y1="45" x2="290" y2="45" stroke="#d3d6dd" stroke-width="1"/>
  <polyline points="10,43.279 12.205,37.487 14.409,61.156 16.614,28.347 18.819,26.098 21.024,52.593 23.228,52.275 25.433,33.282 27.638,64.578 29.843,29.155 32.047,44.405 34.252,59.514 36.457,38.169 38.661,53.863 40.866,51.202 43.071,56.427 45.276,39.056 47.48,52.422 49.685,40.006 51.89,54.006 54.094,55.835 56.299,33.719 58.504,25.889 60.709,22.073 62.913,28.885 65.118,21.917 67.323,44.596 69.528,53.522 71.732,40.499 73.937,15.08 76.142,45.313 78.346,15.979 80.551,52.036 82.756,57.194 84.961,12.875 87.165,41.227 89.37,28.263 91.575,13.356 93.78,34.159 95.984,14.199 98.189,16.023 100.394,47.302 102.598,15 104.803,35.867 107.008,27.428 109.213,28.768 111.417,55.559 113.622,56.733 115.827,45.674 118.031,50.172 120.236,31.232 122.441,30.969 124.646,44.328 126.85,55.221 129.055,30.68 131.26,26.978 133.465,27.08 135.669,29.513 137.874,39.246 140.079,21.365 142.283,46.937 144.488,40.009 146.693,37.807 148.898,63.016 151.102,28.428 153.307,23.851 155.512,66.367 157.717,50.721 159.921,33.261 162.126,25.355 164.331,65.694 166.535,53.906 168.74,51.279 170.945,49.83 173.15,43.27 175.354,49.482 177.559,44.057 179.764,64.908 181.969,41.087 184.173,72.893 186.378,52.157 188.583,72.775 190.787,58.236 192.992,32.47 195.197,51.204 197.402,41.981 199.606,37.454 201.811,45.661 204.016,54.413 206.22,70.819 208.425,40.476 210.63,56.026 212.835,68.862 215.039,74.611 217.244,34.243 219.449,38.528 221.654,53.03 223.858,45.334 226.063,66.961 228.268,72.856 230.472,67.761 232.677,43.955 234.882,60.176 237.087,44.94 239.291,45.113 241.496,51.285 243.701,51.858 245.906,75.027 248.11,59.476 250.315,31.017 252.52,69.287 254.724,33.835 256.929,42.521 259.134,66.366 261.339,37.132 263.543,70.543 265.748,56.082 267.953,27.811 270.157,37.305 272.362,36.269 274.567,30.789 276.772,63.082 278.976,30.153 281.181,49.041 283.386,36.157 285.591,42.188 287.795,26.844 290,47.388" fill="none" stroke="#1b1f27" stroke-width="2" stroke-linecap="round" stroke-linejoin="round"/>
</svg>
