<svg xmlns="http://www.w3.org/2000/svg" width="300" height="90" viewBox="0 0 300 90" role="img" aria-label="Waveform 56 Cacophonous Buzz 1">
  <rect x="0" y="0" width="300" height="90" fill="#ffffff"/>
  <line x1="10" y1="45" x2="290" y2="45" stroke="#d3d6dd" stroke-width="1"/>
  <polyline points="10,68.412 12.205,74.981 14.409,59.958 16.614,54.45 18.819,71.442 21.024,33.971 23.228,49.137 25.433,18.802 27.638,12.8 29.843,20.526 32.047,20.031 34.252,37.186 36.457,17.119 38.661,35.818 40.866,70.958 43.071,33.343 45.276,55.267 47.48,30.303 49.685,62.818 51.89,32.149 54.094,12.8 56.299,47.651 58.504,30.732 60.709,41.545 62.913,55.855 65.118,12.8 67.323,12.8 69.528,35.871 71.732,21.515 73.937,61.086 76.142,51.122 78.346,43.841 80.551,52.659 82.756,17.643 84.961,53.341 87.165,19.586 89.37,43.465 91.575,17.186 93.78,62.07 95.984,20.705 98.189,32.824 100.394,22.443 102.598,13.254 104.803,36.95 107.008,30.484 109.213,23.632 111.417,51.827 113.622,13.98 115.827,33.071 118.031,38.808 120.236,45.981 122.441,34.205 124.646,12.8 126.85,51.639 129.055,21.772 131.26,36.794 133.465,42.151 135.669,27.087 137.874,50.687 140.079,53.097 142.283,43.828 144.488,72.393 146.693,71.643 148.898,72.708 151.102,31.219 153.307,31.11 155.512,58.049 157.717,30.615 159.921,30.293 162.126,17.999 164.331,75.012 166.535,36.018 168.74,54.576 170.945,60.557 173.15,47.469 175.354,69.2 177.559,56.721 179.764,73.825 181.969,20.606 184.173,49.773 186.378,67.088 188.583,28.57 190.787,77.2 192.992,77.2 195.197,43.71 197.402,44.73 199.606,26.217 201.811,66.42 204.016,39.819 206.22,76.402 208.425,53.096 210.63,46.461 212.835,25.373 215.039,77.2 217.244,19.489 219.449,72.963 221.654,28.07 223.858,62.056 226.063,77.2 228.268,44.67 230.472,44.525 232.677,18.116 234.882,64.629 237.087,57.741 239.291,71.508 241.496,72.26 243.701,33.748 245.906,77.2 248.11,75.951 250.315,39.617 252.52,23.762 254.724,72.192 256.929,37.971 259.134,65.713 261.339,39.197 263.543,40.397 265.748,55.784 267.953,52.884 270.157,49.926 272.362,24.53 274.567,64.156 276.772,60.389 278.976,35.927 281.181,57.341 283.386,71.289 285.591,62.19 287.795,32.114 290,13.846" fill="none" stroke="#1b1f27" stroke-width="2" stroke-linecap="round" stroke-linejoin="round"/>
</svg>
