<svg xmlns="http://www.w3.org/2000/svg" width="300" height="90" viewBox="0 0 300 90" role="img" aria-label="Waveform 57 Mid Buzz 1">
  <rect x="0" y="0" width="300" height="90" fill="#ffffff"/>
  <line x1="10" y1="45" x2="290" y2="45" stroke="#d3d6dd" stroke-width="1"/>
  <polyline points="10,52.49 12.205,41.263 14.409,24.359 16.614,22.583 18.819,61.274 21.024,62.83 23.228,23.299 25.433,37.184 27.638,31.776 29.843,38.507 32.047,55.77 34.252,58.008 36.457,53.177 38.661,33.96 40.866,27.371 43.071,63.759 45.276,34.716 47.48,63.187 49.685,54.735 51.89,59.403 54.094,41.109 56.299,51.504 58.504,31.477 60.709,17.639 62.913,31.412 65.118,34.441 67.323,57.257 69.528,35.8 71.732,52.905 73.937,55.236 76.142,52.173 78.346,30.686 80.551,42.604 82.756,53.173 84.961,41.216 87.165,52.084 89.37,22.379 91.575,36.388 93.78,66.224 95.984,31.741 98.189,32.75 100.394,38.414 102.598,60.307 104.803,58.621 107.008,57.04 109.213,24.665 111.417,45.691 113.622,50.854 115.827,62.206 118.031,37.097 120.236,40.78 122.441,35.226 124.646,46.906 126.85,56.963 129.055,37.6 131.26,29.532 133.465,35.97 135.669,34.573 137.874,66.485 140.079,30.417 142.283,66.112 144.488,64.997 146.693,63.132 148.898,60.873 151.102,60.979 153.307,32.953 155.512,65.828 157.717,53.304 159.921,68.873 162.126,44.638 164.331,48.705 166.535,66.382 168.74,29.936 170.945,70.928 173.15,48.124 175.354,40.835 177.559,50.56 179.764,41.6 181.969,59.745 184.173,46.104 186.378,49.991 188.583,26.238 190.787,42.102 192.992,33.982 195.197,45.751 197.402,32.161 199.606,35.452 201.811,33.55 204.016,38.382 206.22,29.585 208.425,59.333 210.63,32.69 212.835,20.504 215.039,44.383 217.244,23.223 219.449,57.501 221.654,59.147 223.858,57.111 226.063,22.184 228.268,47.738 230.472,44.651 232.677,58.928 234.882,39.475 237.087,45.101 239.291,46.574 241.496,31.265 243.701,46.925 245.906,27.51 248.11,47.465 250.315,54.656 252.52,44.458 254.724,54.808 256.929,58.384 259.134,35.855 261.339,37.165 263.543,63.29 265.748,23.585 267.953,32.999 270.157,20.014 272.362,48.029 274.567,29.567 276.772,60.035 278.976,32.119 281.181,27.19 283.386,42.962 285.591,65.375 287.795,23.084 290,58.66" fill="none" stroke="#1b1f27" stroke-width="2" stroke-linecap="round" stroke-linejoin="round"/>
</svg>
