<svg xmlns="http://www.w3.org/2000/svg" width="300" height="90" viewBox="0 0 300 90" role="img" aria-label="Waveform 61 Spark Wave 4">
  <rect x="0" y="0" width="300" height="90" fill="#ffffff"/>
  <line x1="10" y1="45" x2="290" y2="45" stroke="#d3d6dd" stroke-width="1"/>
  <polyline points="10,66.962 12.205,52.876 14.409,45.509 16.614,66.897 18.819,14.096 21.024,66.251 23.228,33.585 25.433,31.677 27.638,27.84 29.843,44.173 32.047,52.787 34.252,12.8 36.457,58.849 38.661,47.815 40.866,70.625 43.071,62.717 45.276,65.621 47.48,51.457 49.685,58.297 51.89,14.958 54.094,25.277 56.299,28.131 58.504,12.8 60.709,60.35 62.913,12.8 65.118,18.358 67.323,15.969 69.528,60.47 71.732,28.971 73.937,12.8 76.142,62.24 78.346,52.843 80.551,63.46 82.756,69.657 84.961,29.82 87.165,27.906 89.37,28.715 91.575,32.051 93.78,61.022 95.984,64.573 98.189,18.874 100.394,15.384 102.598,18.234 104.803,58.694 107.008,58.602 109.213,17.282 111.417,19.257 113.622,37.47 115.827,19.44 118.031,18.65 120.236,56.994 122.441,45.015 124.646,65.388 126.85,41.236 129.055,17.805 131.26,62.183 133.465,28.711 135.669,59.655 137.874,77.2 140.079,38.078 142.283,76.261 144.488,59.6 146.693,53.585 148.898,69.834 151.102,59.152 153.307,45.479 155.512,76.791 157.717,21.8 159.921,35.52 162.126,59.543 164.331,65.166 166.535,24.916 168.74,67.645 170.945,65.405 173.15,44.703 175.354,22.461 177.559,61.165 179.764,52.74 181.969,26.04 184.173,49.422 186.378,69.899 188.583,23.203 190.787,21.713 192.992,47.834 195.197,77.2 197.402,35.058 199.606,46.37 201.811,41.387 204.016,77.2 206.22,20.185 208.425,51.645 210.63,67.02 212.835,62.6 215.039,51.079 217.244,14.175 219.449,12.8 221.654,59.161 223.858,24.333 226.063,63.907 228.268,29.399 230.472,12.8 232.677,60.205 234.882,44.427 237.087,64.738 239.291,18.665 241.496,68.724 243.701,20.088 245.906,45.632 248.11,43.831 250.315,71.679 252.52,45.025 254.724,30.96 256.929,25.87 259.134,72.262 261.339,32.466 263.543,41.005 265.748,24.025 267.953,58.3 270.157,64.165 272.362,52.365 274.567,30.873 276.772,16.605 278.976,60.598 281.181,67.981 283.386,48.697 285.591,48.192 287.795,18.934 290,36.159" fill="none" stroke="#1b1f27" stroke-width="2" stroke-linecap="round" stroke-linejoin="round"/>
</svg>
