<svg xmlns="http://www.w3.org/2000/svg" width="300" height="90" viewBox="0 0 300 90" role="img" aria-label="Waveform 62 Spark Wave 5">
  <rect x="0" y="0" width="300" height="90" fill="#ffffff"/>
  <line x1="10" y1="45" x2="290" y2="45" stroke="#d3d6dd" stroke-width="1"/>
  <polyline points="10,35.166 12.205,30.742 14.409,40.315 16.614,60.616 18.819,18.321 21.024,34.61 23.228,41.978 25.433,12.8 27.638,25.067 29.843,18.956 32.047,53.036 34.252,34.92 36.457,12.8 38.661,58.595 40.866,23.349 43.071,22.227 45.276,14.034 47.48,19.64 49.685,66.987 51.89,33.197 54.094,46.477 56.299,58.477 58.504,49.599 60.709,61.325 62.913,15.139 65.118,49.735 67.323,46.575 69.528,37.484 71.732,34.568 73.937,66.896 76.142,58.852 78.346,24.999 80.551,40.481 82.756,36.007 84.961,72.757 87.165,37.783 89.37,77.2 91.575,26.852 93.78,61.399 95.984,64.422 98.189,54.046 100.394,50.468 102.598,72.214 104.803,77.2 107.008,43.791 109.213,32.245 111.417,71.39 113.622,62.214 115.827,23.387 118.031,24.034 120.236,69.33 122.441,77.154 124.646,37.713 126.85,44.182 129.055,50.459 131.26,41.052 133.465,31.967 135.669,62.719 137.874,77.2 140.079,45.26 142.283,33.668 144.488,26.951 146.693,48.345 148.898,77.2 151.102,61.567 153.307,32.114 155.512,12.8 157.717,65.766 159.921,60.614 162.126,69.974 164.331,12.8 166.535,22.406 168.74,36.877 170.945,54.805 173.15,63.083 175.354,34.106 177.559,24.307 179.764,56.037 181.969,54.285 184.173,43.654 186.378,46.654 188.583,31.629 190.787,59.285 192.992,21.643 195.197,16.563 197.402,61.47 199.606,25.193 201.811,12.8 204.016,39.86 206.22,69.254 208.425,24.946 210.63,59.779 212.835,60.285 215.039,31.759 217.244,15.627 219.449,28 221.654,68.26 223.858,46.344 226.063,20.783 228.268,57.185 230.472,67.429 232.677,23.317 234.882,32.877 237.087,35.008 239.291,77.2 241.496,27.8 243.701,71.363 245.906,77.2 248.11,28.301 250.315,35.67 252.52,71.888 254.724,41.76 256.929,23.307 259.134,36.748 261.339,74.671 263.543,74.924 265.748,34.917 267.953,66.295 270.157,76.222 272.362,77.2 274.567,35.2 276.772,40.009 278.976,73.593 281.181,77.2 283.386,47.265 285.591,32.096 287.795,37.022 290,32.986" fill="none" stroke="#1b1f27" stroke-width="2" stroke-linecap="round" stroke-linejoin="round"/>
</svg>
