<svg xmlns="http://www.w3.org/2000/svg" width="300" height="90" viewBox="0 0 300 90" role="img" aria-label="Waveform 63 Soft Dome 4">
  <rect x="0" y="0" width="300" height="90" fill="#ffffff"/>
  <line x1="10" y1="45" x2="290" y2="45" stroke="#d3d6dd" stroke-width="1"/>
  <polyline points="10,45 12.205,44.355 14.409,43.712 16.614,43.073 18.819,42.44 21.024,41.814 23.228,41.197 25.433,40.592 27.638,39.999 29.843,39.42 32.047,38.857 34.252,38.31 36.457,37.781 38.661,37.271 40.866,36.781 43.071,36.31 45.276,35.861 47.48,35.433 49.685,35.026 51.89,34.64 54.094,34.275 56.299,33.931 58.504,33.608 60.709,33.304 62.913,33.019 65.118,32.752 67.323,32.503 69.528,32.269 71.732,32.05 73.937,31.845 76.142,31.651 78.346,31.469 80.551,31.296 82.756,31.131 84.961,30.973 87.165,30.82 89.37,30.671 91.575,30.524 93.78,30.378 95.984,30.232 98.189,30.085 100.394,29.936 102.598,29.784 104.803,29.628 107.008,29.467 109.213,29.302 111.417,29.131 113.622,28.954 115.827,28.772 118.031,28.584 120.236,28.391 122.441,28.193 124.646,27.991 126.85,27.785 129.055,27.576 131.26,27.366 133.465,27.154 135.669,26.943 137.874,26.734 140.079,26.528 142.283,26.326 144.488,26.131 146.693,25.943 148.898,25.765 151.102,25.598 153.307,25.443 155.512,25.303 157.717,25.179 159.921,25.071 162.126,24.983 164.331,24.915 166.535,24.869 168.74,24.845 170.945,24.846 173.15,24.871 175.354,24.922 177.559,24.999 179.764,25.103 181.969,25.235 184.173,25.393 186.378,25.58 188.583,25.793 190.787,26.034 192.992,26.302 195.197,26.595 197.402,26.913 199.606,27.256 201.811,27.622 204.016,28.01 206.22,28.418 208.425,28.845 210.63,29.29 212.835,29.751 215.039,30.227 217.244,30.714 219.449,31.213 221.654,31.72 223.858,32.234 226.063,32.753 228.268,33.276 230.472,33.8 232.677,34.324 234.882,34.846 237.087,35.365 239.291,35.879 241.496,36.387 243.701,36.887 245.906,37.378 248.11,37.861 250.315,38.332 252.52,38.793 254.724,39.242 256.929,39.679 259.134,40.104 261.339,40.516 263.543,40.917 265.748,41.305 267.953,41.682 270.157,42.048 272.362,42.404 274.567,42.751 276.772,43.089 278.976,43.419 281.181,43.743 283.386,44.062 285.591,44.377 287.795,44.689 290,45" fill="none" stroke="#1b1f27" stroke-width="2" stroke-linecap="round" stroke-linejoin="round"/>
</svg>
