<svg xmlns="http://www.w3.org/2000/svg" width="300" height="90" viewBox="0 0 300 90" role="img" aria-label="Waveform 65 Organ">
  <rect x="0" y="0" width="300" height="90" fill="#ffffff"/>
  <line x1="10" y1="45" x2="290" y2="45" stroke="#d3d6dd" stroke-width="1"/>
  <polyline points="10,45 12.205,42.162 14.409,39.404 16.614,36.802 18.819,34.426 21.024,32.335 23.228,30.577 25.433,29.183 27.638,28.171 29.843,27.541 32.047,27.281 34.252,27.363 36.457,27.747 38.661,28.384 40.866,29.219 43.071,30.192 45.276,31.245 47.48,32.321 49.685,33.369 51.89,34.347 54.094,35.22 56.299,35.966 58.504,36.571 60.709,37.035 62.913,37.363 65.118,37.572 67.323,37.682 69.528,37.718 71.732,37.706 73.937,37.669 76.142,37.628 78.346,37.601 80.551,37.595 82.756,37.612 84.961,37.648 87.165,37.689 89.37,37.716 91.575,37.708 93.78,37.638 95.984,37.481 98.189,37.215 100.394,36.82 102.598,36.286 104.803,35.61 107.008,34.798 109.213,33.869 111.417,32.851 113.622,31.783 115.827,30.712 118.031,29.692 120.236,28.781 122.441,28.038 124.646,27.52 126.85,27.282 129.055,27.367 131.26,27.809 133.465,28.629 135.669,29.833 137.874,31.412 140.079,33.342 142.283,35.582 144.488,38.079 146.693,40.768 148.898,43.576 151.102,46.424 153.307,49.232 155.512,51.921 157.717,54.418 159.921,56.658 162.126,58.588 164.331,60.167 166.535,61.371 168.74,62.191 170.945,62.633 173.15,62.718 175.354,62.48 177.559,61.962 179.764,61.219 181.969,60.308 184.173,59.288 186.378,58.217 188.583,57.149 190.787,56.131 192.992,55.202 195.197,54.39 197.402,53.714 199.606,53.18 201.811,52.785 204.016,52.519 206.22,52.362 208.425,52.292 210.63,52.284 212.835,52.311 215.039,52.352 217.244,52.388 219.449,52.405 221.654,52.399 223.858,52.372 226.063,52.331 228.268,52.294 230.472,52.282 232.677,52.318 234.882,52.428 237.087,52.637 239.291,52.965 241.496,53.429 243.701,54.034 245.906,54.78 248.11,55.653 250.315,56.631 252.52,57.679 254.724,58.755 256.929,59.808 259.134,60.781 261.339,61.616 263.543,62.253 265.748,62.637 267.953,62.719 270.157,62.459 272.362,61.829 274.567,60.817 276.772,59.423 278.976,57.665 281.181,55.574 283.386,53.198 285.591,50.596 287.795,47.838 290,45" fill="none" stroke="#1b1f27" stroke-width="2" stroke-linecap="round" stroke-linejoin="round"/>
</svg>
