<svg xmlns="http://www.w3.org/2000/svg" width="300" height="90" viewBox="0 0 300 90" role="img" aria-label="Waveform 66 Spark Wave 5">
  <rect x="0" y="0" width="300" height="90" fill="#ffffff"/>
  <line x1="10" y1="45" x2="290" y2="45" stroke="#d3d6dd" stroke-width="1"/>
  <polyline points="10,47.178 12.205,29.885 14.409,59.275 16.614,38.412 18.819,24.357 21.024,54.967 23.228,59.727 25.433,12.8 27.638,48.444 29.843,41.4 32.047,45.508 34.252,46.221 36.457,12.8 38.661,58.671 40.866,18.671 43.071,14.269 45.276,59.59 47.48,54.794 49.685,32.946 51.89,55.96 54.094,68.076 56.299,55.099 58.504,20.829 60.709,25.128 62.913,41.746 65.118,58.148 67.323,59.736 69.528,20.826 71.732,62.994 73.937,31.893 76.142,46.8 78.346,62.725 80.551,71.424 82.756,70.373 84.961,46.003 87.165,27.028 89.37,54.768 91.575,50.026 93.78,43.104 95.984,71.563 98.189,21.339 100.394,72.244 102.598,64.811 104.803,39.647 107.008,74.622 109.213,26.461 111.417,41.385 113.622,73.695 115.827,54.551 118.031,39.787 120.236,25.47 122.441,27.603 124.646,20.439 126.85,38.48 129.055,42.993 131.26,46.547 133.465,49.124 135.669,77.2 137.874,42.418 140.079,35.525 142.283,29.374 144.488,63.69 146.693,48.025 148.898,33.96 151.102,60.164 153.307,72.756 155.512,28.371 157.717,73.559 159.921,69.372 162.126,50.778 164.331,54.962 166.535,68.296 168.74,23.659 170.945,37.315 173.15,12.8 175.354,12.8 177.559,49.04 179.764,12.8 181.969,18.422 184.173,12.8 186.378,41.662 188.583,32.762 190.787,57.013 192.992,65.368 195.197,12.8 197.402,30.899 199.606,53.57 201.811,33.688 204.016,42.888 206.22,20.247 208.425,24.087 210.63,42.148 212.835,35.596 215.039,52.28 217.244,60.989 219.449,20.778 221.654,34.98 223.858,49.622 226.063,54.69 228.268,61.527 230.472,77.2 232.677,77.2 234.882,15.996 237.087,17.768 239.291,65.669 241.496,40.322 243.701,54.072 245.906,57.343 248.11,46.123 250.315,31.5 252.52,49.63 254.724,63.45 256.929,49.121 259.134,69.426 261.339,55.466 263.543,34.536 265.748,30.408 267.953,19.148 270.157,51.618 272.362,42.908 274.567,46.307 276.772,17.499 278.976,71.239 281.181,59.183 283.386,13.953 285.591,35.852 287.795,76.626 290,45.535" fill="none" stroke="#1b1f27" stroke-width="2" stroke-linecap="round" stroke-linejoin="round"/>
</svg>
