<svg xmlns="http://www.w3.org/2000/svg" width="300" height="90" viewBox="0 0 300 90" role="img" aria-label="Waveform 67 Soft Wave 1">
  <rect x="0" y="0" width="300" height="90" fill="#ffffff"/>
  <line x1="10" y1="45" x2="290" y2="45" stroke="#d3d6dd" stroke-width="1"/>
  <polyline points="10,36.306 12.205,75.853 14.409,36.658 16.614,71.201 18.819,30.915 21.024,23.327 23.228,48.031 25.433,32.329 27.638,31.091 29.843,54.488 32.047,32.033 34.252,24.558 36.457,12.8 38.661,61.87 40.866,12.8 43.071,61.849 45.276,20.152 47.48,39.681 49.685,22.85 51.89,12.8 54.094,12.8 56.299,59.24 58.504,42.553 60.709,12.8 62.913,24.592 65.118,35.496 67.323,60.055 69.528,33.712 71.732,12.8 73.937,12.8 76.142,21.06 78.346,20.289 80.551,47.508 82.756,62.397 84.961,46.425 87.165,55.984 89.37,63.189 91.575,49.044 93.78,20.818 95.984,15.499 98.189,32.093 100.394,28.54 102.598,40.481 104.803,59.886 107.008,30.083 109.213,21.16 111.417,61.27 113.622,35.81 115.827,20.111 118.031,12.8 120.236,56.978 122.441,24.079 124.646,38.006 126.85,41.544 129.055,12.984 131.26,58.901 133.465,40.01 135.669,47.571 137.874,19.872 140.079,59.122 142.283,57.854 144.488,41.394 146.693,59.648 148.898,30.323 151.102,15.85 153.307,66.753 155.512,69.679 157.717,25.326 159.921,20.433 162.126,40.453 164.331,63.759 166.535,77.2 168.74,77.2 170.945,29.731 173.15,55.624 175.354,30.131 177.559,74.909 179.764,77.2 181.969,70.849 184.173,69.148 186.378,27.641 188.583,41.415 190.787,77.2 192.992,54.5 195.197,77.2 197.402,67.198 199.606,73.027 201.811,57.689 204.016,42.512 206.22,46.926 208.425,58.454 210.63,49.102 212.835,56.286 215.039,51.978 217.244,57.835 219.449,60.07 221.654,73.36 223.858,46.483 226.063,28.209 228.268,51.358 230.472,71.711 232.677,36.462 234.882,77.2 237.087,58.483 239.291,51.277 241.496,31.298 243.701,55.519 245.906,71.727 248.11,77.2 250.315,55.364 252.52,29.716 254.724,35.001 256.929,35.003 259.134,37.247 261.339,20.578 263.543,69.578 265.748,49.37 267.953,34.987 270.157,44.42 272.362,23.176 274.567,70.578 276.772,31.538 278.976,17.208 281.181,72.345 283.386,58.742 285.591,28.104 287.795,61.524 290,46.678" fill="none" stroke="#1b1f27" stroke-width="2" stroke-linecap="round" stroke-linejoin="round"/>
</svg>
