<svg xmlns="http://www.w3.org/2000/svg" width="300" height="90" viewBox="0 0 300 90" role="img" aria-label="Waveform 68 Soft Wave 2">
  <rect x="0" y="0" width="300" height="90" fill="#ffffff"/>
  <line x1="10" y1="45" x2="290" y2="45" stroke="#d3d6dd" stroke-width="1"/>
  <polyline points="10,63.165 12.205,31.444 14.409,66.34 16.614,69.915 18.819,34.858 21.024,72.425 23.228,14.594 25.433,59.651 27.638,60.221 29.843,50.779 32.047,61.518 34.252,29.724 36.457,12.8 38.661,42.549 40.866,17.469 43.071,12.8 45.276,47.905 47.48,18.309 49.685,12.8 51.89,20.065 54.094,50.243 56.299,30.351 58.504,19.22 60.709,24.669 62.913,12.8 65.118,48.051 67.323,12.8 69.528,58.382 71.732,12.8 73.937,12.8 76.142,12.8 78.346,48.017 80.551,58.475 82.756,42.309 84.961,12.8 87.165,12.8 89.37,24.691 91.575,18.531 93.78,12.861 95.984,59.464 98.189,56.402 100.394,16.315 102.598,12.8 104.803,62.603 107.008,23.746 109.213,24.38 111.417,37.73 113.622,44.395 115.827,47.248 118.031,12.8 120.236,18.759 122.441,49.893 124.646,14.247 126.85,16.716 129.055,48.282 131.26,56.368 133.465,33.487 135.669,12.8 137.874,15.432 140.079,60.497 142.283,47.709 144.488,26.297 146.693,25.931 148.898,66.905 151.102,25.106 153.307,26.531 155.512,70.849 157.717,65.308 159.921,65.708 162.126,64.498 164.331,27.524 166.535,36.653 168.74,43.639 170.945,19.675 173.15,77.2 175.354,41.124 177.559,40.999 179.764,77.2 181.969,47.706 184.173,67.797 186.378,70.242 188.583,49.995 190.787,74.002 192.992,60.042 195.197,36.03 197.402,77.2 199.606,63.428 201.811,51.9 204.016,71.196 206.22,62.193 208.425,77.2 210.63,74.704 212.835,36.71 215.039,71.888 217.244,40.54 219.449,77.2 221.654,56.619 223.858,67.182 226.063,46.808 228.268,58.653 230.472,72.325 232.677,36.107 234.882,77.2 237.087,40.824 239.291,77.2 241.496,33.914 243.701,57.262 245.906,24.026 248.11,30.215 250.315,77.2 252.52,62.739 254.724,49.422 256.929,60.601 259.134,76.456 261.339,71.898 263.543,77.2 265.748,24.152 267.953,65.276 270.157,24.603 272.362,34.033 274.567,59.385 276.772,28.025 278.976,49.946 281.181,30.658 283.386,44.528 285.591,66.805 287.795,30.579 290,64.532" fill="none" stroke="#1b1f27" stroke-width="2" stroke-linecap="round" stroke-linejoin="round"/>
</svg>
