<svg xmlns="http://www.w3.org/2000/svg" width="300" height="90" viewBox="0 0 300 90" role="img" aria-label="Waveform 69 Spark Wave 7">
  <rect x="0" y="0" width="300" height="90" fill="#ffffff"/>
  <line x1="10" y1="45" x2="290" y2="45" stroke="#d3d6dd" stroke-width="1"/>
  <polyline points="10,60.114 12.205,65.195 14.409,42.537 16.614,70.415 18.819,12.8 21.024,32.66 23.228,36.36 25.433,64.187 27.638,56.338 29.843,71.724 32.047,71.391 34.252,26.141 36.457,25.435 38.661,25.453 40.866,38.136 43.071,53.41 45.276,38.021 47.48,25.676 49.685,36.077 51.89,64.806 54.094,12.8 56.299,58.333 58.504,22.961 60.709,49.96 62.913,54.353 65.118,41.886 67.323,53.52 69.528,62.774 71.732,12.903 73.937,24.968 76.142,68.974 78.346,46.322 80.551,67.537 82.756,60.953 84.961,53.303 87.165,24.276 89.37,22.582 91.575,42.186 93.78,12.8 95.984,50.902 98.189,37.595 100.394,61.544 102.598,54.588 104.803,33.662 107.008,61.516 109.213,56.916 111.417,22.583 113.622,72.442 115.827,56.771 118.031,77.2 120.236,77.095 122.441,68.625 124.646,70.784 126.85,23.674 129.055,41.297 131.26,69.752 133.465,27.41 135.669,45.407 137.874,50.49 140.079,56.509 142.283,46.804 144.488,73.043 146.693,55.394 148.898,44.725 151.102,62.375 153.307,51.014 155.512,77.2 157.717,46.397 159.921,75.986 162.126,25.662 164.331,51.868 166.535,47.129 168.74,47.625 170.945,36.698 173.15,43.699 175.354,36.835 177.559,18.411 179.764,53.014 181.969,27.339 184.173,62.875 186.378,76.216 188.583,77.2 190.787,68.79 192.992,33.196 195.197,43.449 197.402,18.939 199.606,41.052 201.811,75.592 204.016,27.996 206.22,26.397 208.425,60.126 210.63,55.399 212.835,62.954 215.039,13.206 217.244,35.421 219.449,12.8 221.654,33.335 223.858,26.064 226.063,16.218 228.268,43.402 230.472,43.3 232.677,15.864 234.882,27.197 237.087,46.786 239.291,44.011 241.496,29.102 243.701,39.939 245.906,34.602 248.11,12.8 250.315,27.507 252.52,60.772 254.724,26.919 256.929,46.038 259.134,29.922 261.339,30.283 263.543,42.035 265.748,56.484 267.953,50.661 270.157,14.021 272.362,31.283 274.567,13.286 276.772,30.245 278.976,53.892 281.181,26.634 283.386,35.132 285.591,16.221 287.795,55.072 290,59.068" fill="none" stroke="#1b1f27" stroke-width="2" stroke-linecap="round" stroke-linejoin="round"/>
</svg>
