<svg xmlns="http://www.w3.org/2000/svg" width="300" height="90" viewBox="0 0 300 90" role="img" aria-label="Waveform 70 Reed">
  <rect x="0" y="0" width="300" height="90" fill="#ffffff"/>
  <line x1="10" y1="45" x2="290" y2="45" stroke="#d3d6dd" stroke-width="1"/>
  <polyline points="10,19.926 12.205,25.236 14.409,54.897 16.614,56.008 18.819,26.199 21.024,12.8 23.228,38.272 25.433,56.119 27.638,12.8 29.843,12.8 32.047,12.8 34.252,12.8 36.457,23.549 38.661,25.012 40.866,12.8 43.071,59.988 45.276,24.804 47.48,61.435 49.685,12.8 51.89,56.723 54.094,28.738 56.299,12.8 58.504,27.548 60.709,27.926 62.913,12.8 65.118,20.104 67.323,37.84 69.528,19.841 71.732,17.053 73.937,23.483 76.142,72.445 78.346,30.92 80.551,71.138 82.756,38.797 84.961,32.627 87.165,50.505 89.37,74.733 91.575,58.793 93.78,76.003 95.984,16.697 98.189,24.432 100.394,21.57 102.598,74.3 104.803,31.765 107.008,69.717 109.213,73.639 111.417,76.183 113.622,32.908 115.827,54.448 118.031,77.2 120.236,51.49 122.441,68.817 124.646,24.293 126.85,60.863 129.055,67.145 131.26,48.233 133.465,77.2 135.669,77.2 137.874,57.462 140.079,77.2 142.283,77.2 144.488,77.2 146.693,77.2 148.898,75.455 151.102,77.2 153.307,35.341 155.512,68.46 157.717,46.479 159.921,66.36 162.126,76.751 164.331,77.2 166.535,30.687 168.74,35.296 170.945,64.214 173.15,68.985 175.354,18.238 177.559,16.954 179.764,25.816 181.969,62.04 184.173,36.864 186.378,27.344 188.583,45.641 190.787,57.168 192.992,49.28 195.197,53.279 197.402,12.8 199.606,30.628 201.811,24.905 204.016,12.8 206.22,47.431 208.425,36.844 210.63,49.318 212.835,33.561 215.039,26.595 217.244,53.804 219.449,14.284 221.654,14.788 223.858,34.235 226.063,12.8 228.268,19.948 230.472,52.443 232.677,54.737 234.882,33.585 237.087,15.668 239.291,32.337 241.496,41.084 243.701,37.399 245.906,57.769 248.11,39.69 250.315,54.803 252.52,51.755 254.724,40.872 256.929,28.097 259.134,65.219 261.339,67.644 263.543,49.977 265.748,31.051 267.953,37.803 270.157,26.875 272.362,16.469 274.567,51.257 276.772,52.6 278.976,50.796 281.181,61.853 283.386,58.642 285.591,68.046 287.795,63.948 290,41.74" fill="none" stroke="#1b1f27" stroke-width="2" stroke-linecap="round" stroke-linejoin="round"/>
</svg>
