<svg xmlns="http://www.w3.org/2000/svg" width="300" height="90" viewBox="0 0 300 90" role="img" aria-label="Waveform 71 Soft Wave 3">
  <rect x="0" y="0" width="300" height="90" fill="#ffffff"/>
  <line x1="10" y1="45" x2="290" y2="45" stroke="#d3d6dd" stroke-width="1"/>
  <polyline points="10,27.323 12.205,12.8 14.409,47.814 16.614,27.441 18.819,42.919 21.024,13.044 23.228,44.596 25.433,13.413 27.638,27.602 29.843,35.085 32.047,25.71 34.252,33.442 36.457,13.811 38.661,14.893 40.866,65.633 43.071,35.297 45.276,19.491 47.48,59.483 49.685,55.824 51.89,30.267 54.094,25.517 56.299,16.386 58.504,20.207 60.709,55.923 62.913,63.565 65.118,55.147 67.323,30.125 69.528,41.493 71.732,12.8 73.937,23.419 76.142,38.075 78.346,63.6 80.551,26.636 82.756,12.8 84.961,27.492 87.165,41.757 89.37,51.735 91.575,25.028 93.78,27.207 95.984,31.537 98.189,53.317 100.394,12.8 102.598,47.003 104.803,27.742 107.008,12.8 109.213,12.8 111.417,12.8 113.622,12.8 115.827,16.088 118.031,35.413 120.236,49.374 122.441,33.479 124.646,23.148 126.85,14.749 129.055,43.213 131.26,23.497 133.465,68.992 135.669,56.545 137.874,30.973 140.079,46.314 142.283,33.985 144.488,72.696 146.693,63.14 148.898,61.596 151.102,42.526 153.307,24.496 155.512,24.233 157.717,42.295 159.921,68.111 162.126,38.247 164.331,69.845 166.535,30.225 168.74,77.2 170.945,71.462 173.15,52.606 175.354,20.651 177.559,77.2 179.764,72.342 181.969,55.508 184.173,24.313 186.378,65.895 188.583,77.2 190.787,56.122 192.992,24.518 195.197,50.802 197.402,77.2 199.606,73.052 201.811,57.929 204.016,51.486 206.22,77.2 208.425,55.45 210.63,69.449 212.835,76.404 215.039,77.2 217.244,48.87 219.449,77.2 221.654,67.065 223.858,43.369 226.063,68.251 228.268,52.923 230.472,34.712 232.677,46.692 234.882,77.2 237.087,77.2 239.291,77.2 241.496,58.288 243.701,34.035 245.906,66.596 248.11,71.916 250.315,49.446 252.52,41.63 254.724,51.832 256.929,64.379 259.134,60.373 261.339,74.104 263.543,29.716 265.748,53.7 267.953,33.005 270.157,21.84 272.362,33.593 274.567,28.097 276.772,65.943 278.976,68.358 281.181,24.239 283.386,63.721 285.591,17.644 287.795,48.241 290,23.915" fill="none" stroke="#1b1f27" stroke-width="2" stroke-linecap="round" stroke-linejoin="round"/>
</svg>
