<svg xmlns="http://www.w3.org/2000/svg" width="300" height="90" viewBox="0 0 300 90" role="img" aria-label="Waveform 72 Soft Wave 4">
  <rect x="0" y="0" width="300" height="90" fill="#ffffff"/>
  <line x1="10" y1="45" x2="290" y2="45" stroke="#d3d6dd" stroke-width="1"/>
  <polyline points="10,69.392 12.205,30.443 14.409,48.407 16.614,28.616 18.819,48.732 21.024,71.022 23.228,38.855 25.433,63.444 27.638,25.914 29.843,27.935 32.047,26.59 34.252,41.456 36.457,60.348 38.661,48.121 40.866,47.683 43.071,21.711 45.276,53.297 47.48,61.696 49.685,28.942 51.89,12.8 54.094,37.718 56.299,49.778 58.504,62.625 60.709,52.229 62.913,20.764 65.118,44.841 67.323,50.574 69.528,28.928 71.732,23.517 73.937,46.986 76.142,36.907 78.346,12.8 80.551,51.015 82.756,50.491 84.961,62.279 87.165,17.65 89.37,50.056 91.575,39.596 93.78,60.34 95.984,41.892 98.189,12.8 100.394,65.09 102.598,12.8 104.803,12.8 107.008,27.62 109.213,66.028 111.417,56.504 113.622,60.389 115.827,12.8 118.031,35.404 120.236,19.634 122.441,54.993 124.646,52.95 126.85,19.766 129.055,32.827 131.26,12.8 133.465,14.14 135.669,44.217 137.874,48.068 140.079,30.538 142.283,72.172 144.488,23.063 146.693,56.416 148.898,69.196 151.102,18.587 153.307,42.775 155.512,61.13 157.717,31.759 159.921,75.201 162.126,52.009 164.331,40.213 166.535,38.507 168.74,34.381 170.945,25.067 173.15,54.153 175.354,22.971 177.559,57.126 179.764,69.747 181.969,77.2 184.173,35.807 186.378,69.615 188.583,72.296 190.787,64.672 192.992,59.028 195.197,50.374 197.402,51.096 199.606,77.2 201.811,34.102 204.016,71.723 206.22,36.402 208.425,77.2 210.63,38.599 212.835,67.87 215.039,43.968 217.244,45.945 219.449,56.101 221.654,37.428 223.858,46.729 226.063,66.197 228.268,40.472 230.472,52.409 232.677,43.1 234.882,57.874 237.087,54.542 239.291,77.2 241.496,68.724 243.701,42.74 245.906,57.598 248.11,70.927 250.315,77.2 252.52,51.599 254.724,25.467 256.929,49.705 259.134,77.2 261.339,26.081 263.543,74.556 265.748,77.2 267.953,48.19 270.157,25.862 272.362,71.297 274.567,35.723 276.772,59.84 278.976,57.457 281.181,28.696 283.386,14.737 285.591,17.176 287.795,26.502 290,61.914" fill="none" stroke="#1b1f27" stroke-width="2" stroke-linecap="round" stroke-linejoin="round"/>
</svg>
