<svg xmlns="http://www.w3.org/2000/svg" width="300" height="90" viewBox="0 0 300 90" role="img" aria-label="Waveform 73 Saxophone">
  <rect x="0" y="0" width="300" height="90" fill="#ffffff"/>
  <line x1="10" y1="45" x2="290" y2="45" stroke="#d3d6dd" stroke-width="1"/>
  <polyline points="10,69.699 12.205,44.966 14.409,19.33 16.614,48.698 18.819,43.732 21.024,27.357 23.228,33.56 25.433,59.561 27.638,25.637 29.843,48.751 32.047,49.453 34.252,19.705 36.457,60.256 38.661,40.891 40.866,24.15 43.071,13.361 45.276,48.925 47.48,53.419 49.685,38.609 51.89,38.73 54.094,12.8 56.299,13.213 58.504,12.8 60.709,66.224 62.913,36.175 65.118,61.757 67.323,32.756 69.528,45.8 71.732,70.77 73.937,59.99 76.142,31.454 78.346,24.367 80.551,24.967 82.756,28.933 84.961,50.334 87.165,24.21 89.37,57.653 91.575,40.842 93.78,58.69 95.984,64.806 98.189,45.855 100.394,65.69 102.598,27.506 104.803,30.839 107.008,32.623 109.213,50.423 111.417,40.618 113.622,74.623 115.827,77.2 118.031,28.355 120.236,46.101 122.441,37.057 124.646,70.388 126.85,74.115 129.055,59.971 131.26,71.353 133.465,77.2 135.669,73.299 137.874,49.586 140.079,49.085 142.283,75.009 144.488,37.123 146.693,35.722 148.898,41.015 151.102,73.866 153.307,65.504 155.512,49.948 157.717,55.369 159.921,45.319 162.126,67.813 164.331,25.157 166.535,23.062 168.74,36.826 170.945,12.8 173.15,37.379 175.354,41.477 177.559,46.741 179.764,46.683 181.969,19.111 184.173,54.566 186.378,12.8 188.583,22.794 190.787,12.8 192.992,24.98 195.197,59.99 197.402,62.019 199.606,38.285 201.811,18.681 204.016,52.338 206.22,15.068 208.425,62.335 210.63,16.758 212.835,12.8 215.039,20.776 217.244,13.852 219.449,16.759 221.654,38.153 223.858,12.8 226.063,37.7 228.268,12.8 230.472,12.8 232.677,12.8 234.882,55.522 237.087,29.647 239.291,56.943 241.496,52.236 243.701,42.46 245.906,19.749 248.11,20.217 250.315,34.718 252.52,51.212 254.724,29.015 256.929,50.834 259.134,28.644 261.339,20.236 263.543,40.07 265.748,24.465 267.953,25.944 270.157,66.986 272.362,65.109 274.567,77.2 276.772,77.2 278.976,30.427 281.181,58.732 283.386,77.2 285.591,67.462 287.795,31.634 290,50.399" fill="none" stroke="#1b1f27" stroke-width="2" stroke-linecap="round" stroke-linejoin="round"/>
</svg>
