<svg xmlns="http://www.w3.org/2000/svg" width="300" height="90" viewBox="0 0 300 90" role="img" aria-label="Waveform 74 Soft Wave 5">
  <rect x="0" y="0" width="300" height="90" fill="#ffffff"/>
  <line x1="10" y1="45" x2="290" y2="45" stroke="#d3d6dd" stroke-width="1"/>
  <polyline points="10,38.796 12.205,37.422 14.409,21.563 16.614,52.537 18.819,63.961 21.024,53.559 23.228,70.414 25.433,17.511 27.638,34.875 29.843,55.072 32.047,70.351 34.252,12.8 36.457,19.761 38.661,58.044 40.866,18.09 43.071,41.653 45.276,48.888 47.48,16.805 49.685,61.733 51.89,19.608 54.094,61.234 56.299,52.727 58.504,43.529 60.709,57.91 62.913,12.8 65.118,18.366 67.323,59.022 69.528,16.449 71.732,17.478 73.937,54.869 76.142,12.8 78.346,32.756 80.551,12.8 82.756,30.057 84.961,43.798 87.165,12.8 89.37,58.935 91.575,32.358 93.78,50.156 95.984,50.749 98.189,12.8 100.394,41.031 102.598,12.8 104.803,12.8 107.008,42.763 109.213,12.8 111.417,21.083 113.622,12.8 115.827,12.8 118.031,51.699 120.236,19.655 122.441,27.476 124.646,48.763 126.85,65.458 129.055,68.492 131.26,18.501 133.465,71.191 135.669,12.8 137.874,31.227 140.079,66.126 142.283,17.345 144.488,71.312 146.693,14.556 148.898,64.72 151.102,31.809 153.307,18.064 155.512,69.869 157.717,21.398 159.921,49.558 162.126,21.889 164.331,46.037 166.535,46.341 168.74,27.669 170.945,76.675 173.15,30.739 175.354,74.46 177.559,63.953 179.764,22.892 181.969,35.384 184.173,64.155 186.378,39.774 188.583,42.765 190.787,46.335 192.992,77.2 195.197,76.702 197.402,63.264 199.606,77.2 201.811,77.2 204.016,26.388 206.22,73.361 208.425,76.417 210.63,48.741 212.835,73.596 215.039,76.179 217.244,75.667 219.449,75.602 221.654,45.236 223.858,62.63 226.063,72.981 228.268,64.177 230.472,32 232.677,56.182 234.882,47.017 237.087,43.67 239.291,70.211 241.496,27.205 243.701,26.414 245.906,61.073 248.11,76.987 250.315,67.28 252.52,44.464 254.724,70.151 256.929,43.448 259.134,63.432 261.339,36.64 263.543,59.107 265.748,33.261 267.953,35.675 270.157,62.011 272.362,54.246 274.567,54.511 276.772,62.645 278.976,49.54 281.181,52.908 283.386,54.769 285.591,68.928 287.795,53.993 290,30.067" fill="none" stroke="#1b1f27" stroke-width="2" stroke-linecap="round" stroke-linejoin="round"/>
</svg>
