<svg xmlns="http://www.w3.org/2000/svg" width="300" height="90" viewBox="0 0 300 90" role="img" aria-label="Waveform 75 Trashy Wave 1">
  <rect x="0" y="0" width="300" height="90" fill="#ffffff"/>
  <line x1="10" y1="45" x2="290" y2="45" stroke="#d3d6dd" stroke-width="1"/>
  <polyline points="10,77.2 12.205,34.302 14.409,17.086 16.614,77.2 18.819,77.2 21.024,19.312 23.228,48.796 25.433,12.8 27.638,12.8 29.843,77.2 32.047,12.8 34.252,12.8 36.457,67.566 38.661,14.892 40.866,63.496 43.071,12.8 45.276,56.978 47.48,77.2 49.685,42.762 51.89,57.114 54.094,56.938 56.299,44.856 58.504,12.8 60.709,64.446 62.913,64.668 65.118,74.627 67.323,42.195 69.528,42.161 71.732,12.8 73.937,37.41 76.142,71.309 78.346,61.708 80.551,30.526 82.756,29.552 84.961,73.419 87.165,77.2 89.37,12.8 91.575,33.91 93.78,39.285 95.984,43.815 98.189,45.77 100.394,77.2 102.598,73.478 104.803,77.2 107.008,77.2 109.213,44.153 111.417,46.08 113.622,23.628 115.827,61.395 118.031,59.695 120.236,13.625 122.441,36.167 124.646,19.764 126.85,36.661 129.055,59.815 131.26,75.324 133.465,12.8 135.669,72.701 137.874,43.607 140.079,53.325 142.283,71.44 144.488,21.695 146.693,24.26 148.898,22.572 151.102,54.852 153.307,52.513 155.512,60.145 157.717,22.2 159.921,55.933 162.126,77.2 164.331,49.287 166.535,41.222 168.74,42.068 170.945,12.8 173.15,49.969 175.354,77.2 177.559,13.13 179.764,12.8 181.969,71.277 184.173,12.8 186.378,53.476 188.583,77.2 190.787,77.2 192.992,12.8 195.197,77.2 197.402,36.828 199.606,61.047 201.811,59.321 204.016,38.542 206.22,60.838 208.425,77.2 210.63,77.2 212.835,71.476 215.039,77.2 217.244,12.8 219.449,77.2 221.654,34.752 223.858,60.787 226.063,32.962 228.268,72.406 230.472,31.251 232.677,36.497 234.882,54.578 237.087,44.882 239.291,54.034 241.496,77.2 243.701,31.82 245.906,39.331 248.11,47.371 250.315,17.681 252.52,12.8 254.724,65.794 256.929,12.8 259.134,34.428 261.339,12.8 263.543,71.268 265.748,13.891 267.953,70.877 270.157,77.2 272.362,47.04 274.567,15.671 276.772,35.542 278.976,47.287 281.181,12.8 283.386,20.161 285.591,56.467 287.795,60.215 290,77.2" fill="none" stroke="#1b1f27" stroke-width="2" stroke-linecap="round" stroke-linejoin="round"/>
</svg>
