<svg xmlns="http://www.w3.org/2000/svg" width="300" height="90" viewBox="0 0 300 90" role="img" aria-label="Waveform 76 Trashy Wave 2">
  <rect x="0" y="0" width="300" height="90" fill="#ffffff"/>
  <line x1="10" y1="45" x2="290" y2="45" stroke="#d3d6dd" stroke-width="1"/>
  <polyline points="10,35.318 12.205,51.796 14.409,53.664 16.614,67.523 18.819,12.8 21.024,65.818 23.228,37.373 25.433,20.19 27.638,58.22 29.843,68.185 32.047,56.852 34.252,77.2 36.457,58.544 38.661,15.222 40.866,50.249 43.071,27.952 45.276,32.614 47.48,12.8 49.685,24.741 51.89,23.826 54.094,48.418 56.299,12.8 58.504,56.909 60.709,12.8 62.913,12.8 65.118,77.2 67.323,12.8 69.528,24.722 71.732,17.464 73.937,77.2 76.142,48.655 78.346,20.945 80.551,37.199 82.756,21.652 84.961,26.072 87.165,17.178 89.37,41.505 91.575,66.649 93.78,12.8 95.984,12.8 98.189,14.314 100.394,45.661 102.598,48.104 104.803,77.2 107.008,57.809 109.213,64.518 111.417,77.2 113.622,20.406 115.827,61.423 118.031,12.8 120.236,31.755 122.441,31.826 124.646,16.34 126.85,75.99 129.055,55.112 131.26,54.969 133.465,36.535 135.669,56.656 137.874,25.461 140.079,12.8 142.283,12.8 144.488,15.082 146.693,37.558 148.898,38.388 151.102,37.325 153.307,27.062 155.512,38.927 157.717,27.326 159.921,76.339 162.126,34.976 164.331,12.8 166.535,33.448 168.74,57.681 170.945,35.043 173.15,48.791 175.354,36.508 177.559,12.8 179.764,54.521 181.969,53.279 184.173,52.479 186.378,59.748 188.583,26.175 190.787,77.2 192.992,77.2 195.197,69.09 197.402,41.512 199.606,77.2 201.811,77.2 204.016,35.613 206.22,34.493 208.425,50.877 210.63,64.364 212.835,77.2 215.039,53.193 217.244,76.438 219.449,50.441 221.654,25.325 223.858,65.925 226.063,77.2 228.268,50.494 230.472,61.505 232.677,77.2 234.882,77.2 237.087,33.093 239.291,52.244 241.496,77.2 243.701,34.685 245.906,16.178 248.11,41.453 250.315,12.8 252.52,62.639 254.724,30.224 256.929,75.257 259.134,61.836 261.339,50.158 263.543,12.8 265.748,67.317 267.953,35.825 270.157,15.676 272.362,49.292 274.567,14.885 276.772,62.348 278.976,49.856 281.181,53.834 283.386,50.473 285.591,18.877 287.795,59.065 290,77.2" fill="none" stroke="#1b1f27" stroke-width="2" stroke-linecap="round" stroke-linejoin="round"/>
</svg>
