<svg xmlns="http://www.w3.org/2000/svg" width="300" height="90" viewBox="0 0 300 90" role="img" aria-label="Waveform 77 Trashy Wave 3">
  <rect x="0" y="0" width="300" height="90" fill="#ffffff"/>
  <line x1="10" y1="45" x2="290" y2="45" stroke="#d3d6dd" stroke-width="1"/>
  <polyline points="10,48.298 12.205,54.425 14.409,65.529 16.614,12.8 18.819,70.507 21.024,77.2 23.228,12.8 25.433,77.2 27.638,24.616 29.843,71.956 32.047,21.853 34.252,12.8 36.457,27.276 38.661,12.8 40.866,73.853 43.071,72.189 45.276,32.734 47.48,77.2 49.685,61.832 51.89,40.118 54.094,28.24 56.299,12.8 58.504,52.762 60.709,47.252 62.913,37.012 65.118,12.8 67.323,77.2 69.528,46.259 71.732,55.967 73.937,66.987 76.142,12.8 78.346,12.8 80.551,31.826 82.756,12.8 84.961,51.069 87.165,12.8 89.37,32.401 91.575,40.09 93.78,67.002 95.984,62.714 98.189,69.262 100.394,39.798 102.598,66.079 104.803,67.037 107.008,34.649 109.213,12.8 111.417,27.665 113.622,12.8 115.827,53.601 118.031,51.086 120.236,61.087 122.441,59.722 124.646,77.2 126.85,55.621 129.055,36.513 131.26,65.615 133.465,67.295 135.669,76.768 137.874,52.827 140.079,60.468 142.283,12.8 144.488,12.8 146.693,68.264 148.898,67.155 151.102,77.2 153.307,36.67 155.512,77.2 157.717,12.8 159.921,39.482 162.126,77.2 164.331,77.2 166.535,62.171 168.74,63.669 170.945,27.631 173.15,55.46 175.354,12.8 177.559,57.78 179.764,77.2 181.969,77.2 184.173,15.171 186.378,47.796 188.583,77.2 190.787,44.063 192.992,25.771 195.197,26.816 197.402,23.107 199.606,66.979 201.811,47.85 204.016,12.8 206.22,32.582 208.425,59.355 210.63,77.2 212.835,20.45 215.039,43.817 217.244,33.969 219.449,77.2 221.654,12.8 223.858,44.165 226.063,12.8 228.268,12.8 230.472,51.341 232.677,18.105 234.882,39.607 237.087,23.564 239.291,77.2 241.496,13.255 243.701,28.51 245.906,62.96 248.11,42.864 250.315,77.2 252.52,74.372 254.724,77.2 256.929,68.267 259.134,36.089 261.339,47.205 263.543,25.715 265.748,72.446 267.953,12.8 270.157,77.2 272.362,60.656 274.567,77.2 276.772,29.731 278.976,57.13 281.181,64.245 283.386,31.784 285.591,58.212 287.795,77.2 290,44.42" fill="none" stroke="#1b1f27" stroke-width="2" stroke-linecap="round" stroke-linejoin="round"/>
</svg>
