<svg xmlns="http://www.w3.org/2000/svg" width="300" height="90" viewBox="0 0 300 90" role="img" aria-label="Waveform 78 Trashy Wave 4">
  <rect x="0" y="0" width="300" height="90" fill="#ffffff"/>
  <line x1="10" y1="45" x2="290" y2="45" stroke="#d3d6dd" stroke-width="1"/>
  <polyline points="10,43.131 12.205,12.8 14.409,23.097 16.614,62.926 18.819,63.437 21.024,62.146 23.228,27.154 25.433,25.597 27.638,73.729 29.843,54.818 32.047,43.801 34.252,30.958 36.457,12.8 38.661,21.376 40.866,32.635 43.071,12.8 45.276,54.973 47.48,51.255 49.685,26.901 51.89,59.389 54.094,37.119 56.299,32.909 58.504,22.777 60.709,57.675 62.913,29.025 65.118,30.684 67.323,72.711 69.528,47.67 71.732,63.484 73.937,12.8 76.142,36.982 78.346,63.965 80.551,77.2 82.756,29.427 84.961,12.8 87.165,23.044 89.37,50.302 91.575,46.272 93.78,56.37 95.984,12.8 98.189,77.2 100.394,47.88 102.598,20.402 104.803,68.403 107.008,46.215 109.213,40.751 111.417,43.882 113.622,77.2 115.827,58.541 118.031,74.407 120.236,12.8 122.441,77.2 124.646,23.642 126.85,45.902 129.055,46.566 131.26,60.483 133.465,41.968 135.669,38.394 137.874,77.2 140.079,43.174 142.283,65.471 144.488,68.713 146.693,77.2 148.898,77.2 151.102,67.61 153.307,63.234 155.512,53.199 157.717,16.608 159.921,25.241 162.126,38.997 164.331,67.985 166.535,12.8 168.74,42.613 170.945,77.2 173.15,23.593 175.354,67.479 177.559,12.8 179.764,77.2 181.969,12.8 184.173,12.8 186.378,58.587 188.583,27.459 190.787,77.2 192.992,77.171 195.197,32.871 197.402,12.8 199.606,40.909 201.811,44.936 204.016,59.539 206.22,56.397 208.425,77.2 210.63,15.479 212.835,77.2 215.039,77.2 217.244,49.478 219.449,41.124 221.654,34.955 223.858,12.8 226.063,51.835 228.268,19.711 230.472,47.513 232.677,45.031 234.882,25.57 237.087,77.2 239.291,31.145 241.496,77.2 243.701,28.016 245.906,20.12 248.11,77.2 250.315,31.965 252.52,13.532 254.724,29.429 256.929,51.457 259.134,34.413 261.339,36.957 263.543,62.411 265.748,15.925 267.953,77.2 270.157,62.2 272.362,64.236 274.567,50.178 276.772,41.246 278.976,69.963 281.181,15.359 283.386,28.24 285.591,56.763 287.795,49.506 290,36.304" fill="none" stroke="#1b1f27" stroke-width="2" stroke-linecap="round" stroke-linejoin="round"/>
</svg>
