<svg xmlns="http://www.w3.org/2000/svg" width="300" height="90" viewBox="0 0 300 90" role="img" aria-label="Waveform 79 Trashy Wave 5">
  <rect x="0" y="0" width="300" height="90" fill="#ffffff"/>
  <line x1="10" y1="45" x2="290" y2="45" stroke="#d3d6dd" stroke-width="1"/>
  <polyline points="10,33.886 12.205,28.293 14.409,12.8 16.614,41.328 18.819,12.8 21.024,77.2 23.228,26.065 25.433,74.52 27.638,37.884 29.843,38.879 32.047,59.7 34.252,42.916 36.457,52.576 38.661,12.8 40.866,31.145 43.071,12.8 45.276,56.982 47.48,19.587 49.685,56.241 51.89,76.925 54.094,12.8 56.299,77.2 58.504,23.247 60.709,12.8 62.913,26.217 65.118,48.545 67.323,12.8 69.528,47.167 71.732,49.206 73.937,28.33 76.142,77.2 78.346,54.404 80.551,25.113 82.756,56.866 84.961,64.053 87.165,77.2 89.37,12.8 91.575,55.983 93.78,18.921 95.984,29.016 98.189,21.306 100.394,13.996 102.598,12.8 104.803,43.786 107.008,69.162 109.213,77.2 111.417,68.707 113.622,37.966 115.827,41.126 118.031,24.134 120.236,77.2 122.441,43.63 124.646,40.783 126.85,57.512 129.055,12.8 131.26,58.67 133.465,72.01 135.669,40.506 137.874,48.619 140.079,69.271 142.283,25.834 144.488,64.585 146.693,12.8 148.898,30.233 151.102,20.097 153.307,71.474 155.512,43.957 157.717,25.217 159.921,42.704 162.126,43.867 164.331,41.842 166.535,77.047 168.74,56.869 170.945,22.46 173.15,31.884 175.354,19.516 177.559,42.087 179.764,42.137 181.969,64.703 184.173,48.767 186.378,74.147 188.583,77.2 190.787,25.158 192.992,49.25 195.197,66.203 197.402,19.033 199.606,24.799 201.811,55.363 204.016,36.382 206.22,65.617 208.425,28.997 210.63,65.916 212.835,12.8 215.039,35.212 217.244,42.964 219.449,38.01 221.654,40.232 223.858,77.2 226.063,12.8 228.268,57.327 230.472,12.8 232.677,30.994 234.882,52.71 237.087,77.2 239.291,12.8 241.496,25.777 243.701,75.607 245.906,16.661 248.11,12.8 250.315,22.289 252.52,75.032 254.724,12.8 256.929,12.8 259.134,59.947 261.339,25.282 263.543,12.8 265.748,12.8 267.953,31.862 270.157,12.8 272.362,12.8 274.567,12.8 276.772,77.2 278.976,64.772 281.181,77.2 283.386,43.719 285.591,62.822 287.795,45.352 290,30.276" fill="none" stroke="#1b1f27" stroke-width="2" stroke-linecap="round" stroke-linejoin="round"/>
</svg>
