<svg xmlns="http://www.w3.org/2000/svg" width="300" height="90" viewBox="0 0 300 90" role="img" aria-label="Waveform 80 Trashy Wave 6">
  <rect x="0" y="0" width="300" height="90" fill="#ffffff"/>
  <line x1="10" y1="45" x2="290" y2="45" stroke="#d3d6dd" stroke-width="1"/>
  <polyline points="10,44.931 12.205,12.8 14.409,25.773 16.614,36.364 18.819,20.573 21.024,12.8 23.228,12.8 25.433,29.417 27.638,33.647 29.843,34.077 32.047,25.582 34.252,41.576 36.457,25.497 38.661,14.928 40.866,12.8 43.071,36.277 45.276,47.196 47.48,12.8 49.685,41.911 51.89,76.486 54.094,37.993 56.299,56.735 58.504,12.8 60.709,56.608 62.913,46.711 65.118,32.993 67.323,35.015 69.528,14.752 71.732,69.31 73.937,55.743 76.142,35.658 78.346,17.117 80.551,27.991 82.756,54.287 84.961,12.8 87.165,61.097 89.37,12.8 91.575,31.356 93.78,43.49 95.984,19.013 98.189,63.49 100.394,72.516 102.598,77.2 104.803,25.702 107.008,44.39 109.213,41.279 111.417,67.779 113.622,43.808 115.827,57.815 118.031,65.037 120.236,43.025 122.441,32.972 124.646,42.216 126.85,77.2 129.055,31.076 131.26,67.141 133.465,63.409 135.669,41.132 137.874,18.87 140.079,20.117 142.283,46.438 144.488,30.203 146.693,55.226 148.898,21.103 151.102,36.28 153.307,19.127 155.512,12.8 157.717,32.159 159.921,77.2 162.126,48.763 164.331,19.639 166.535,33.808 168.74,49.303 170.945,45.427 173.15,24.665 175.354,42.263 177.559,45.298 179.764,56.413 181.969,68.741 184.173,23.654 186.378,77.2 188.583,41.23 190.787,36.926 192.992,72.517 195.197,74.192 197.402,45.818 199.606,33.041 201.811,30.759 204.016,49.216 206.22,34.136 208.425,77.2 210.63,65.834 212.835,77.2 215.039,65.91 217.244,77.2 219.449,77.2 221.654,53.258 223.858,77.2 226.063,28.114 228.268,70.241 230.472,47.555 232.677,77.2 234.882,25.965 237.087,20.306 239.291,41.085 241.496,49.735 243.701,33.451 245.906,48.091 248.11,51.788 250.315,53.736 252.52,48.171 254.724,18.503 256.929,12.8 259.134,29.18 261.339,40.07 263.543,43.469 265.748,26.348 267.953,64.308 270.157,77.2 272.362,55.92 274.567,39.604 276.772,21.562 278.976,67.046 281.181,12.8 283.386,32.849 285.591,53.766 287.795,73.259 290,54.562" fill="none" stroke="#1b1f27" stroke-width="2" stroke-linecap="round" stroke-linejoin="round"/>
</svg>
