<svg xmlns="http://www.w3.org/2000/svg" width="300" height="90" viewBox="0 0 300 90" role="img" aria-label="Waveform 81 Jaw Harp 1">
  <rect x="0" y="0" width="300" height="90" fill="#ffffff"/>
  <line x1="10" y1="45" x2="290" y2="45" stroke="#d3d6dd" stroke-width="1"/>
  <polyline points="10,58.356 12.205,49.663 14.409,33.067 16.614,55.3 18.819,55.852 21.024,61.493 23.228,65.674 25.433,44.427 27.638,12.8 29.843,12.8 32.047,35.958 34.252,12.8 36.457,12.8 38.661,43.972 40.866,12.8 43.071,12.8 45.276,45.149 47.48,12.939 49.685,12.8 51.89,50.064 54.094,22.47 56.299,35.463 58.504,12.8 60.709,12.8 62.913,51.831 65.118,12.8 67.323,65.493 69.528,67.31 71.732,46.391 73.937,57.582 76.142,37.128 78.346,30.398 80.551,19.947 82.756,40.743 84.961,41.939 87.165,18.077 89.37,21.897 91.575,12.8 93.78,22.834 95.984,47.429 98.189,14.909 100.394,12.8 102.598,12.8 104.803,22.406 107.008,34.488 109.213,51.12 111.417,13.083 113.622,59.025 115.827,61.322 118.031,28.305 120.236,38.09 122.441,66.881 124.646,25.728 126.85,28.367 129.055,20.14 131.26,39.761 133.465,51.081 135.669,55.91 137.874,62.681 140.079,31.173 142.283,62.678 144.488,72.025 146.693,77.2 148.898,68.557 151.102,27.556 153.307,22.82 155.512,77.2 157.717,43.055 159.921,77.2 162.126,65.188 164.331,77.2 166.535,49.706 168.74,62.324 170.945,75.355 173.15,25.812 175.354,59.502 177.559,71.196 179.764,47.94 181.969,26.382 184.173,58.977 186.378,40.634 188.583,77.2 190.787,51.184 192.992,58.753 195.197,50.188 197.402,77.2 199.606,68.689 201.811,47.9 204.016,46.012 206.22,31.08 208.425,77.2 210.63,77.2 212.835,28.758 215.039,77.2 217.244,40.505 219.449,73.236 221.654,38.262 223.858,77.2 226.063,77.2 228.268,67.063 230.472,58.179 232.677,58.266 234.882,44.157 237.087,57.972 239.291,46.324 241.496,18.644 243.701,34.434 245.906,58.117 248.11,12.8 250.315,24.753 252.52,33.369 254.724,71.028 256.929,46.765 259.134,63.747 261.339,14.344 263.543,51.561 265.748,59.965 267.953,56.328 270.157,55.322 272.362,17.803 274.567,41.614 276.772,44.307 278.976,23.657 281.181,68.868 283.386,42.318 285.591,46.419 287.795,27.857 290,19.526" fill="none" stroke="#1b1f27" stroke-width="2" stroke-linecap="round" stroke-linejoin="round"/>
</svg>
