<svg xmlns="http://www.w3.org/2000/svg" width="300" height="90" viewBox="0 0 300 90" role="img" aria-label="Waveform 82 Jaw Harp 2">
  <rect x="0" y="0" width="300" height="90" fill="#ffffff"/>
  <line x1="10" y1="45" x2="290" y2="45" stroke="#d3d6dd" stroke-width="1"/>
  <polyline points="10,50.04 12.205,19.167 14.409,67.012 16.614,47.125 18.819,64.093 21.024,57.2 23.228,51.878 25.433,49.453 27.638,27.833 29.843,45.934 32.047,23.82 34.252,22.797 36.457,39.455 38.661,28.665 40.866,12.8 43.071,18.702 45.276,41.031 47.48,12.8 49.685,12.8 51.89,12.8 54.094,14.31 56.299,15.406 58.504,58.899 60.709,42.647 62.913,40.103 65.118,21.103 67.323,57.321 69.528,36.065 71.732,61.896 73.937,51.557 76.142,33.429 78.346,72.469 80.551,14.094 82.756,59.666 84.961,70.093 87.165,44.784 89.37,53.291 91.575,20.876 93.78,22.908 95.984,70.315 98.189,57.195 100.394,52.085 102.598,76.61 104.803,64.191 107.008,14.515 109.213,48.116 111.417,17.249 113.622,66.764 115.827,63.576 118.031,40.95 120.236,76.838 122.441,77.2 124.646,50.294 126.85,45.593 129.055,48.707 131.26,46.436 133.465,55.202 135.669,48.492 137.874,56.928 140.079,39.877 142.283,71.993 144.488,77.2 146.693,69.357 148.898,59.378 151.102,42.926 153.307,76.79 155.512,71.729 157.717,43.38 159.921,77.2 162.126,64.235 164.331,27.016 166.535,35.263 168.74,73.664 170.945,45.034 173.15,39.183 175.354,41.94 177.559,31.925 179.764,65.642 181.969,63.53 184.173,60.972 186.378,55.968 188.583,63.252 190.787,43.9 192.992,19.686 195.197,38.299 197.402,12.8 199.606,31.573 201.811,57.29 204.016,48.414 206.22,13.747 208.425,24.081 210.63,12.8 212.835,40.052 215.039,54.689 217.244,58.287 219.449,51.638 221.654,49.54 223.858,13.452 226.063,24.087 228.268,14.142 230.472,41.927 232.677,35.39 234.882,50.667 237.087,12.8 239.291,53.018 241.496,26.203 243.701,35.733 245.906,12.8 248.11,35.855 250.315,37.307 252.52,37.892 254.724,59.836 256.929,23.43 259.134,34.923 261.339,71.922 263.543,67.955 265.748,60.6 267.953,25.668 270.157,48.463 272.362,62.333 274.567,77.2 276.772,35.412 278.976,61.943 281.181,42.609 283.386,77.2 285.591,70.526 287.795,75.652 290,77.2" fill="none" stroke="#1b1f27" stroke-width="2" stroke-linecap="round" stroke-linejoin="round"/>
</svg>
