<svg xmlns="http://www.w3.org/2000/svg" width="300" height="90" viewBox="0 0 300 90" role="img" aria-label="Waveform 83 Soft Wave 6">
  <rect x="0" y="0" width="300" height="90" fill="#ffffff"/>
  <line x1="10" y1="45" x2="290" y2="45" stroke="#d3d6dd" stroke-width="1"/>
  <polyline points="10,33.8 12.205,13.903 14.409,16.534 16.614,36.883 18.819,48.955 21.024,47.765 23.228,32.353 25.433,39.407 27.638,51.743 29.843,35.916 32.047,68.033 34.252,25.258 36.457,61.962 38.661,66.227 40.866,33.224 43.071,18.585 45.276,62.174 47.48,19.035 49.685,49.574 51.89,13.707 54.094,12.8 56.299,37.096 58.504,39.416 60.709,32.854 62.913,43.757 65.118,20.974 67.323,60.343 69.528,12.8 71.732,28.84 73.937,37.173 76.142,16.13 78.346,15.162 80.551,49.245 82.756,38.929 84.961,13.614 87.165,33.471 89.37,43.424 91.575,12.8 93.78,30.312 95.984,43.386 98.189,12.8 100.394,19.303 102.598,29.812 104.803,33.404 107.008,61.788 109.213,20.63 111.417,66.683 113.622,49.488 115.827,54.676 118.031,14.412 120.236,52.734 122.441,13.858 124.646,61.901 126.85,29.006 129.055,59.584 131.26,41.256 133.465,16.008 135.669,33.087 137.874,47.745 140.079,47.775 142.283,53.18 144.488,25.155 146.693,56.069 148.898,73.715 151.102,59.834 153.307,53.391 155.512,29.366 157.717,57.143 159.921,54.735 162.126,63.945 164.331,42.948 166.535,77.2 168.74,27.264 170.945,34.364 173.15,37.461 175.354,77.2 177.559,48.549 179.764,47.514 181.969,40.617 184.173,24.711 186.378,72.99 188.583,31.961 190.787,65.846 192.992,73.99 195.197,40.513 197.402,77.2 199.606,64.985 201.811,77.2 204.016,31.506 206.22,77.2 208.425,63.732 210.63,53.271 212.835,69.276 215.039,76.694 217.244,68.28 219.449,58.107 221.654,60.609 223.858,27.653 226.063,64.051 228.268,39.142 230.472,77.2 232.677,65.038 234.882,33.016 237.087,70.661 239.291,71.822 241.496,63.73 243.701,41.937 245.906,66.71 248.11,47.57 250.315,44.793 252.52,75.456 254.724,77.2 256.929,61.447 259.134,45.725 261.339,22.59 263.543,62.209 265.748,49.442 267.953,34.401 270.157,77.2 272.362,47.718 274.567,21.973 276.772,74.154 278.976,34.758 281.181,75.574 283.386,28.042 285.591,62.24 287.795,66.165 290,57.434" fill="none" stroke="#1b1f27" stroke-width="2" stroke-linecap="round" stroke-linejoin="round"/>
</svg>
