<svg xmlns="http://www.w3.org/2000/svg" width="300" height="90" viewBox="0 0 300 90" role="img" aria-label="Waveform 84 Thin 1">
  <rect x="0" y="0" width="300" height="90" fill="#ffffff"/>
  <line x1="10" y1="45" x2="290" y2="45" stroke="#d3d6dd" stroke-width="1"/>
  <polyline points="10,52.939 12.205,47.972 14.409,37.811 16.614,41.391 18.819,37.015 21.024,34.867 23.228,44.747 25.433,37.901 27.638,33.254 29.843,44.862 32.047,42.469 34.252,60.187 36.457,39.711 38.661,60.194 40.866,40.897 43.071,39.935 45.276,54.773 47.48,55.218 49.685,37.987 51.89,51.524 54.094,38.447 56.299,48.56 58.504,33.409 60.709,29.152 62.913,52.198 65.118,39.804 67.323,44.597 69.528,49.863 71.732,45.096 73.937,51.45 76.142,29.143 78.346,25.31 80.551,27.004 82.756,26.159 84.961,33.52 87.165,37.886 89.37,45.194 91.575,44.345 93.78,31.51 95.984,32.41 98.189,47.829 100.394,25.354 102.598,47.399 104.803,26.891 107.008,56.808 109.213,54.072 111.417,51.676 113.622,45.639 115.827,45.641 118.031,41.07 120.236,49.415 122.441,55.556 124.646,42.893 126.85,59.964 129.055,55.532 131.26,53.069 133.465,35.109 135.669,25.339 137.874,46.7 140.079,55.838 142.283,50.618 144.488,32.332 146.693,33.087 148.898,51.101 151.102,36.593 153.307,58.214 155.512,29.005 157.717,51.409 159.921,43.999 162.126,31.692 164.331,49.018 166.535,38.903 168.74,51.25 170.945,49.505 173.15,53.613 175.354,31.793 177.559,58.388 179.764,37.575 181.969,42.098 184.173,48.529 186.378,62.528 188.583,30.937 190.787,58.66 192.992,66.488 195.197,53.877 197.402,52.13 199.606,49.534 201.811,62.458 204.016,59.219 206.22,53.381 208.425,53.931 210.63,38.153 212.835,56.567 215.039,49.512 217.244,30.827 219.449,31.169 221.654,57.797 223.858,38.595 226.063,52.901 228.268,31.154 230.472,60.312 232.677,38.346 234.882,60.861 237.087,67.381 239.291,49.505 241.496,34.62 243.701,45.348 245.906,48.456 248.11,53.795 250.315,36.703 252.52,52.596 254.724,39.616 256.929,36.834 259.134,31.133 261.339,33.247 263.543,39.078 265.748,63.445 267.953,54.117 270.157,43.421 272.362,29.673 274.567,29.783 276.772,33.126 278.976,59.138 281.181,48.515 283.386,43.038 285.591,41.321 287.795,31.375 290,48.949" fill="none" stroke="#1b1f27" stroke-width="2" stroke-linecap="round" stroke-linejoin="round"/>
</svg>
