<svg xmlns="http://www.w3.org/2000/svg" width="300" height="90" viewBox="0 0 300 90" role="img" aria-label="Waveform 85 Thin 2">
  <rect x="0" y="0" width="300" height="90" fill="#ffffff"/>
  <line x1="10" y1="45" x2="290" y2="45" stroke="#d3d6dd" stroke-width="1"/>
  <polyline points="10,62.59 12.205,27.364 14.409,58.791 16.614,36.365 18.819,31.764 21.024,52.241 23.228,57.324 25.433,51.655 27.638,28.362 29.843,48.587 32.047,46.616 34.252,34.608 36.457,42.702 38.661,44.987 40.866,42.984 43.071,52.647 45.276,57.965 47.48,31.855 49.685,36.464 51.89,42.576 54.094,44.937 56.299,37.973 58.504,34.489 60.709,39.292 62.913,42.922 65.118,43.024 67.323,25.056 69.528,35.826 71.732,37.027 73.937,23.168 76.142,35.797 78.346,26.413 80.551,53.534 82.756,47.713 84.961,51.186 87.165,34.886 89.37,48.283 91.575,27.599 93.78,58.136 95.984,48.152 98.189,42.528 100.394,48.06 102.598,29.098 104.803,37.934 107.008,58.621 109.213,45.906 111.417,38.929 113.622,39.957 115.827,40.554 118.031,64.575 120.236,37.931 122.441,63.736 124.646,59.095 126.85,45.525 129.055,59.831 131.26,48.671 133.465,62.222 135.669,51.38 137.874,54.486 140.079,54.781 142.283,46.157 144.488,38.689 146.693,37 148.898,48.034 151.102,50.217 153.307,32.495 155.512,66.853 157.717,45.649 159.921,34.375 162.126,34.141 164.331,54.502 166.535,55.795 168.74,62.276 170.945,55.758 173.15,62.851 175.354,58.03 177.559,55.355 179.764,41.618 181.969,52.079 184.173,54.712 186.378,44.274 188.583,48.051 190.787,49.146 192.992,29.79 195.197,50.201 197.402,49.194 199.606,36.607 201.811,49.025 204.016,47.239 206.22,29.801 208.425,30.083 210.63,47.614 212.835,29.693 215.039,38.39 217.244,61.266 219.449,44.912 221.654,40.406 223.858,27.074 226.063,57.077 228.268,55.26 230.472,56.678 232.677,27.54 234.882,54.062 237.087,38.939 239.291,49.97 241.496,29.405 243.701,54.077 245.906,27.534 248.11,52.864 250.315,26.481 252.52,55.53 254.724,56.6 256.929,50.463 259.134,41.219 261.339,34.201 263.543,34.107 265.748,48.959 267.953,31.862 270.157,33.903 272.362,58.216 274.567,29.929 276.772,42.486 278.976,46.199 281.181,38.063 283.386,52.926 285.591,33.325 287.795,39.046 290,42.738" fill="none" stroke="#1b1f27" stroke-width="2" stroke-linecap="round" stroke-linejoin="round"/>
</svg>
