<svg xmlns="http://www.w3.org/2000/svg" width="300" height="90" viewBox="0 0 300 90" role="img" aria-label="Waveform 86 Spark Wave 8">
  <rect x="0" y="0" width="300" height="90" fill="#ffffff"/>
  <line x1="10" y1="45" x2="290" y2="45" stroke="#d3d6dd" stroke-width="1"/>
  <polyline points="10,60.935 12.205,18.266 14.409,14.824 16.614,15.968 18.819,66.727 21.024,52.952 23.228,12.8 25.433,50.825 27.638,62.884 29.843,64.61 32.047,54.764 34.252,23.295 36.457,19.528 38.661,58.84 40.866,46.24 43.071,67.41 45.276,52.859 47.48,58.327 49.685,63.663 51.89,17.929 54.094,53.113 56.299,56.079 58.504,46.845 60.709,25.022 62.913,66.45 65.118,70.451 67.323,31.56 69.528,33.77 71.732,28.278 73.937,56.991 76.142,12.8 78.346,27.708 80.551,38.818 82.756,62.644 84.961,63.774 87.165,50.211 89.37,21.063 91.575,45.506 93.78,22.068 95.984,30.362 98.189,24.516 100.394,39.041 102.598,50.085 104.803,59.449 107.008,21.17 109.213,77.2 111.417,77.2 113.622,23.295 115.827,41.535 118.031,54.97 120.236,67.624 122.441,18.155 124.646,32.5 126.85,47.038 129.055,17.771 131.26,62.612 133.465,47.937 135.669,66.04 137.874,38.45 140.079,35.161 142.283,74.996 144.488,37.203 146.693,70.038 148.898,56.957 151.102,77.2 153.307,46.537 155.512,37.564 157.717,34.735 159.921,65.658 162.126,26.288 164.331,18.93 166.535,28.906 168.74,12.8 170.945,12.8 173.15,60.202 175.354,13.14 177.559,30.932 179.764,31.349 181.969,15.985 184.173,38.527 186.378,68.307 188.583,17.699 190.787,25.976 192.992,67.293 195.197,57.734 197.402,50.642 199.606,55.582 201.811,62.298 204.016,33.972 206.22,62.71 208.425,36.154 210.63,18.266 212.835,66.691 215.039,69.135 217.244,30.984 219.449,64.805 221.654,73.141 223.858,29.774 226.063,55.301 228.268,17.431 230.472,28.683 232.677,48.397 234.882,64.934 237.087,35.794 239.291,29.061 241.496,57.374 243.701,54.267 245.906,58.594 248.11,60.207 250.315,64.219 252.52,45.667 254.724,47.881 256.929,46.377 259.134,57.969 261.339,77.2 263.543,26.18 265.748,20.852 267.953,66.707 270.157,70.013 272.362,22.111 274.567,70.086 276.772,38.13 278.976,33.509 281.181,44.075 283.386,68.193 285.591,62.439 287.795,16.449 290,12.963" fill="none" stroke="#1b1f27" stroke-width="2" stroke-linecap="round" stroke-linejoin="round"/>
</svg>
