<svg xmlns="http://www.w3.org/2000/svg" width="300" height="90" viewBox="0 0 300 90" role="img" aria-label="Waveform 87 Spark Wave 9">
  <rect x="0" y="0" width="300" height="90" fill="#ffffff"/>
  <line x1="10" y1="45" x2="290" y2="45" stroke="#d3d6dd" stroke-width="1"/>
  <polyline points="10,71.688 12.205,13.609 14.409,33.186 16.614,56.214 18.819,13.629 21.024,12.8 23.228,12.8 25.433,21.232 27.638,59.242 29.843,56.842 32.047,18.67 34.252,63.58 36.457,53.81 38.661,22.246 40.866,56.073 43.071,65.618 45.276,12.8 47.48,38.197 49.685,12.8 51.89,47.098 54.094,12.8 56.299,12.8 58.504,63.804 60.709,16.009 62.913,58.175 65.118,45.589 67.323,57.916 69.528,47.157 71.732,21.344 73.937,63.473 76.142,43.342 78.346,76.495 80.551,76.745 82.756,48.429 84.961,66.609 87.165,41.588 89.37,46.538 91.575,38.839 93.78,59.566 95.984,70.185 98.189,61.917 100.394,38.673 102.598,23.067 104.803,25.464 107.008,16.969 109.213,63.083 111.417,57.525 113.622,30.978 115.827,71.993 118.031,38.424 120.236,29.936 122.441,45.742 124.646,16.243 126.85,15.901 129.055,36.082 131.26,28.265 133.465,29.965 135.669,19.902 137.874,20.167 140.079,14.745 142.283,44.487 144.488,17.798 146.693,71.211 148.898,16.872 151.102,34.272 153.307,31.657 155.512,31.584 157.717,48.598 159.921,40.621 162.126,37.784 164.331,61.544 166.535,30.472 168.74,20.268 170.945,71.357 173.15,37.791 175.354,64.159 177.559,44.16 179.764,54.044 181.969,33.918 184.173,19.385 186.378,57.392 188.583,75.863 190.787,24.259 192.992,62.114 195.197,74.16 197.402,18.994 199.606,69.209 201.811,76.474 204.016,37.929 206.22,19.689 208.425,60.873 210.63,39.509 212.835,31.053 215.039,76.22 217.244,18.931 219.449,67.11 221.654,74.362 223.858,59.379 226.063,37.933 228.268,60.315 230.472,65.725 232.677,43.147 234.882,25.459 237.087,25.515 239.291,50.29 241.496,53.5 243.701,55.684 245.906,12.8 248.11,52.693 250.315,26.952 252.52,37.983 254.724,39.791 256.929,21.592 259.134,25.118 261.339,47.476 263.543,44.797 265.748,61.53 267.953,56.764 270.157,15.667 272.362,54.517 274.567,13.602 276.772,58.329 278.976,25.391 281.181,12.8 283.386,66.758 285.591,55.11 287.795,33.035 290,25.983" fill="none" stroke="#1b1f27" stroke-width="2" stroke-linecap="round" stroke-linejoin="round"/>
</svg>
