<svg xmlns="http://www.w3.org/2000/svg" width="300" height="90" viewBox="0 0 300 90" role="img" aria-label="Waveform 88 Spark Wave 10">
  <rect x="0" y="0" width="300" height="90" fill="#ffffff"/>
  <line x1="10" y1="45" x2="290" y2="45" stroke="#d3d6dd" stroke-width="1"/>
  <polyline points="10,17.011 12.205,62.324 14.409,31.97 16.614,42.898 18.819,12.8 21.024,50.354 23.228,12.8 25.433,22.031 27.638,51.292 29.843,47.684 32.047,57.092 34.252,58.74 36.457,49.019 38.661,20.604 40.866,34.804 43.071,52.532 45.276,17.674 47.48,12.8 49.685,66.871 51.89,15.611 54.094,58.998 56.299,59.111 58.504,57.556 60.709,62.181 62.913,26.863 65.118,29.16 67.323,60.263 69.528,42.221 71.732,37.26 73.937,65.122 76.142,19.484 78.346,34.263 80.551,54.606 82.756,12.8 84.961,25.503 87.165,51.535 89.37,13.359 91.575,64.616 93.78,45.477 95.984,58.72 98.189,32.42 100.394,21.352 102.598,49.124 104.803,18.813 107.008,14.917 109.213,12.8 111.417,13.176 113.622,58.636 115.827,56.678 118.031,68.589 120.236,12.8 122.441,49.145 124.646,56.902 126.85,35.633 129.055,73.913 131.26,20.535 133.465,16.148 135.669,75.946 137.874,66.179 140.079,59.681 142.283,66.502 144.488,31.035 146.693,44.766 148.898,72.136 151.102,61.334 153.307,24.861 155.512,26.831 157.717,74.879 159.921,61.582 162.126,71.166 164.331,54.846 166.535,70.731 168.74,70.381 170.945,33.682 173.15,24.049 175.354,34.732 177.559,58.949 179.764,28.639 181.969,51.821 184.173,68.306 186.378,71.884 188.583,75.476 190.787,31.203 192.992,36.749 195.197,20.465 197.402,32.205 199.606,38.094 201.811,54.407 204.016,26.338 206.22,31.795 208.425,61.113 210.63,56.66 212.835,26.59 215.039,44.777 217.244,77.2 219.449,56.879 221.654,41.022 223.858,37.188 226.063,61.889 228.268,72.058 230.472,75.534 232.677,56.871 234.882,64.894 237.087,49.627 239.291,70.548 241.496,28.366 243.701,73.869 245.906,57.061 248.11,76.116 250.315,77.2 252.52,77.2 254.724,71.095 256.929,63.495 259.134,60.243 261.339,38.225 263.543,77.2 265.748,77.2 267.953,24.82 270.157,43.481 272.362,45.977 274.567,20.797 276.772,21.065 278.976,43.673 281.181,41.481 283.386,20.733 285.591,59.348 287.795,32.066 290,57.571" fill="none" stroke="#1b1f27" stroke-width="2" stroke-linecap="round" stroke-linejoin="round"/>
</svg>
