<svg xmlns="http://www.w3.org/2000/svg" width="300" height="90" viewBox="0 0 300 90" role="img" aria-label="Waveform 89 Soft Dome 5">
  <rect x="0" y="0" width="300" height="90" fill="#ffffff"/>
  <line x1="10" y1="45" x2="290" y2="45" stroke="#d3d6dd" stroke-width="1"/>
  <polyline points="10,45 12.205,44.272 14.409,43.55 16.614,42.839 18.819,42.146 21.024,41.474 23.228,40.829 25.433,40.214 27.638,39.634 29.843,39.09 32.047,38.585 34.252,38.12 36.457,37.696 38.661,37.311 40.866,36.964 43.071,36.655 45.276,36.378 47.48,36.133 49.685,35.913 51.89,35.716 54.094,35.536 56.299,35.367 58.504,35.206 60.709,35.046 62.913,34.882 65.118,34.71 67.323,34.525 69.528,34.322 71.732,34.098 73.937,33.851 76.142,33.577 78.346,33.275 80.551,32.944 82.756,32.584 84.961,32.197 87.165,31.783 89.37,31.346 91.575,30.887 93.78,30.412 95.984,29.924 98.189,29.427 100.394,28.928 102.598,28.432 104.803,27.944 107.008,27.471 109.213,27.016 111.417,26.587 113.622,26.188 115.827,25.823 118.031,25.497 120.236,25.213 122.441,24.974 124.646,24.782 126.85,24.638 129.055,24.542 131.26,24.495 133.465,24.495 135.669,24.54 137.874,24.627 140.079,24.753 142.283,24.913 144.488,25.104 146.693,25.32 148.898,25.556 151.102,25.807 153.307,26.067 155.512,26.33 157.717,26.592 159.921,26.847 162.126,27.09 164.331,27.319 166.535,27.528 168.74,27.716 170.945,27.88 173.15,28.018 175.354,28.131 177.559,28.219 179.764,28.282 181.969,28.322 184.173,28.343 186.378,28.347 188.583,28.337 190.787,28.32 192.992,28.298 195.197,28.278 197.402,28.265 199.606,28.264 201.811,28.28 204.016,28.318 206.22,28.384 208.425,28.482 210.63,28.615 212.835,28.788 215.039,29.003 217.244,29.261 219.449,29.565 221.654,29.914 223.858,30.309 226.063,30.747 228.268,31.228 230.472,31.747 232.677,32.302 234.882,32.888 237.087,33.502 239.291,34.137 241.496,34.789 243.701,35.451 245.906,36.118 248.11,36.785 250.315,37.445 252.52,38.093 254.724,38.724 256.929,39.335 259.134,39.92 261.339,40.477 263.543,41.002 265.748,41.495 267.953,41.954 270.157,42.378 272.362,42.769 274.567,43.128 276.772,43.457 278.976,43.759 281.181,44.037 283.386,44.296 285.591,44.539 287.795,44.772 290,45" fill="none" stroke="#1b1f27" stroke-width="2" stroke-linecap="round" stroke-linejoin="round"/>
</svg>
