<svg xmlns="http://www.w3.org/2000/svg" width="300" height="90" viewBox="0 0 300 90" role="img" aria-label="Waveform 91 Cacophonous Buzz 2">
  <rect x="0" y="0" width="300" height="90" fill="#ffffff"/>
  <line x1="10" y1="45" x2="290" y2="45" stroke="#d3d6dd" stroke-width="1"/>
  <polyline points="10,13.329 12.205,51.325 14.409,23.405 16.614,20.003 18.819,12.8 21.024,46.613 23.228,12.8 25.433,67.948 27.638,55.535 29.843,60.15 32.047,62.273 34.252,58.051 36.457,12.8 38.661,12.8 40.866,47.126 43.071,71.334 45.276,67.97 47.48,72.578 49.685,71.411 51.89,68.468 54.094,69.431 56.299,71.102 58.504,42.203 60.709,69.564 62.913,13.769 65.118,45.691 67.323,32.357 69.528,61.916 71.732,12.838 73.937,67.819 76.142,39.002 78.346,22.921 80.551,77.2 82.756,25.16 84.961,30.823 87.165,53.495 89.37,69.535 91.575,28.568 93.78,40.806 95.984,66.7 98.189,34.509 100.394,73.348 102.598,50.126 104.803,77.2 107.008,54.373 109.213,74.687 111.417,49.549 113.622,68.573 115.827,22.248 118.031,13.796 120.236,53.487 122.441,49.093 124.646,12.8 126.85,48.027 129.055,61.492 131.26,35.866 133.465,66.92 135.669,16.198 137.874,55.229 140.079,21.541 142.283,33.331 144.488,31.784 146.693,26.414 148.898,52.739 151.102,48.908 153.307,17.66 155.512,18.686 157.717,12.8 159.921,17.326 162.126,46.876 164.331,59.333 166.535,39.303 168.74,48.5 170.945,25.349 173.15,19.48 175.354,67.597 177.559,57.821 179.764,62.432 181.969,14.715 184.173,37.628 186.378,17.668 188.583,66.588 190.787,43.142 192.992,70.057 195.197,55.879 197.402,68.566 199.606,27.971 201.811,77.2 204.016,23.936 206.22,24.583 208.425,48.414 210.63,58.344 212.835,42.885 215.039,40.955 217.244,56.047 219.449,59.883 221.654,38.979 223.858,59.131 226.063,23.783 228.268,74.915 230.472,61.824 232.677,13.922 234.882,38.972 237.087,57.423 239.291,58.631 241.496,17.032 243.701,13.053 245.906,44.407 248.11,18.123 250.315,57.596 252.52,23.864 254.724,27.746 256.929,72.369 259.134,67.255 261.339,32.084 263.543,49.247 265.748,27.478 267.953,51.071 270.157,13.773 272.362,55.329 274.567,60.957 276.772,12.8 278.976,33.212 281.181,42.806 283.386,47.596 285.591,34.233 287.795,72.883 290,16.571" fill="none" stroke="#1b1f27" stroke-width="2" stroke-linecap="round" stroke-linejoin="round"/>
</svg>
