<svg xmlns="http://www.w3.org/2000/svg" width="300" height="90" viewBox="0 0 300 90" role="img" aria-label="Waveform 92 Thin 3">
  <rect x="0" y="0" width="300" height="90" fill="#ffffff"/>
  <line x1="10" y1="45" x2="290" y2="45" stroke="#d3d6dd" stroke-width="1"/>
  <polyline points="10,45.021 12.205,60.29 14.409,45.983 16.614,45.941 18.819,37.119 21.024,38.517 23.228,47.966 25.433,53.244 27.638,43.974 29.843,29.015 32.047,28.085 34.252,42.426 36.457,59.653 38.661,58.567 40.866,61.006 43.071,46.885 45.276,38.969 47.48,56.237 49.685,25.964 51.89,45.537 54.094,55.053 56.299,30.379 58.504,39.027 60.709,34.204 62.913,27.878 65.118,31.337 67.323,35.114 69.528,47.993 71.732,26.652 73.937,43.192 76.142,52.897 78.346,55.046 80.551,58.051 82.756,52.611 84.961,53.681 87.165,45.204 89.37,41.234 91.575,54.844 93.78,53.499 95.984,58.526 98.189,56.267 100.394,52.236 102.598,27.986 104.803,29.942 107.008,32.902 109.213,36.349 111.417,24.27 113.622,48.4 115.827,45.403 118.031,30.358 120.236,43.439 122.441,52.733 124.646,26.139 126.85,46.055 129.055,50.038 131.26,40.635 133.465,29.633 135.669,47.035 137.874,59.354 140.079,51.633 142.283,38.608 144.488,55.73 146.693,52.195 148.898,56.065 151.102,56.133 153.307,51.039 155.512,41.712 157.717,31.121 159.921,46.604 162.126,48.369 164.331,60.591 166.535,40.51 168.74,56.83 170.945,60.476 173.15,37.219 175.354,53.658 177.559,36.554 179.764,55.928 181.969,59.781 184.173,66.246 186.378,42.783 188.583,48.652 190.787,66.704 192.992,65.781 195.197,53.621 197.402,47.57 199.606,47.452 201.811,39.469 204.016,46.454 206.22,41.608 208.425,41.417 210.63,35.154 212.835,56.211 215.039,59.95 217.244,57.976 219.449,52.991 221.654,40.408 223.858,60.278 226.063,62.7 228.268,63.745 230.472,53.834 232.677,34.884 234.882,53.767 237.087,49.866 239.291,52.771 241.496,53.845 243.701,61.796 245.906,32.571 248.11,36.347 250.315,51.799 252.52,46.845 254.724,50.125 256.929,60.898 259.134,61.286 261.339,29.217 263.543,52.4 265.748,63.908 267.953,37.406 270.157,34.216 272.362,32.031 274.567,48.743 276.772,30.851 278.976,32.285 281.181,38.457 283.386,53.655 285.591,31.322 287.795,30.886 290,32.182" fill="none" stroke="#1b1f27" stroke-width="2" stroke-linecap="round" stroke-linejoin="round"/>
</svg>
