<svg xmlns="http://www.w3.org/2000/svg" width="300" height="90" viewBox="0 0 300 90" role="img" aria-label="Waveform 93 Spark Wave 11">
  <rect x="0" y="0" width="300" height="90" fill="#ffffff"/>
  <line x1="10" y1="45" x2="290" y2="45" stroke="#d3d6dd" stroke-width="1"/>
  <polyline points="10,50.976 12.205,52.62 14.409,27.631 16.614,50.932 18.819,45.016 21.024,63.125 23.228,26.49 25.433,39.06 27.638,71.344 29.843,15.012 32.047,64.965 34.252,48.465 36.457,68.237 38.661,12.864 40.866,66.644 43.071,12.8 45.276,64.411 47.48,42.023 49.685,26.794 51.89,24.628 54.094,54.588 56.299,29.628 58.504,27.973 60.709,59.231 62.913,47.232 65.118,65.017 67.323,50.259 69.528,49.206 71.732,58.454 73.937,20.891 76.142,49.164 78.346,12.8 80.551,48.846 82.756,67.126 84.961,74.193 87.165,64.179 89.37,65.014 91.575,39.279 93.78,23.291 95.984,45.425 98.189,52.751 100.394,31.594 102.598,68.519 104.803,44.643 107.008,20.355 109.213,38.573 111.417,48.188 113.622,37.183 115.827,39.712 118.031,18.742 120.236,63.806 122.441,55.682 124.646,77.2 126.85,77.2 129.055,69.255 131.26,30.888 133.465,33.999 135.669,71.202 137.874,53.446 140.079,67.087 142.283,65.155 144.488,35.186 146.693,48.315 148.898,24.128 151.102,58.045 153.307,29.474 155.512,59.651 157.717,30.453 159.921,36.98 162.126,31.021 164.331,68.226 166.535,31.168 168.74,27.335 170.945,68.341 173.15,45.944 175.354,34.709 177.559,44.894 179.764,59.601 181.969,70.586 184.173,42.388 186.378,74.008 188.583,24.79 190.787,34.683 192.992,56.416 195.197,34.665 197.402,50.392 199.606,60.279 201.811,62.416 204.016,53.598 206.22,74.325 208.425,39.36 210.63,45.225 212.835,12.88 215.039,66.947 217.244,12.8 219.449,37.685 221.654,15.537 223.858,23.144 226.063,42.2 228.268,28.227 230.472,50.274 232.677,12.8 234.882,65.889 237.087,60.933 239.291,13.956 241.496,24.76 243.701,15.706 245.906,45.206 248.11,23.071 250.315,47.517 252.52,31.658 254.724,51.077 256.929,39.969 259.134,71.366 261.339,52.003 263.543,36.167 265.748,59.437 267.953,71.477 270.157,16.546 272.362,23.649 274.567,29.623 276.772,16.201 278.976,57.45 281.181,34.006 283.386,36.907 285.591,16.187 287.795,71.509 290,72.657" fill="none" stroke="#1b1f27" stroke-width="2" stroke-linecap="round" stroke-linejoin="round"/>
</svg>
