<svg xmlns="http://www.w3.org/2000/svg" width="300" height="90" viewBox="0 0 300 90" role="img" aria-label="Waveform 94 Soft Dome 7">
  <rect x="0" y="0" width="300" height="90" fill="#ffffff"/>
  <line x1="10" y1="45" x2="290" y2="45" stroke="#d3d6dd" stroke-width="1"/>
  <polyline points="10,45 12.205,44.314 14.409,43.631 16.614,42.955 18.819,42.289 21.024,41.636 23.228,41 25.433,40.384 27.638,39.789 29.843,39.218 32.047,38.672 34.252,38.154 36.457,37.665 38.661,37.204 40.866,36.773 43.071,36.372 45.276,36 47.48,35.656 49.685,35.339 51.89,35.047 54.094,34.78 56.299,34.534 58.504,34.307 60.709,34.097 62.913,33.901 65.118,33.716 67.323,33.539 69.528,33.367 71.732,33.197 73.937,33.027 76.142,32.853 78.346,32.674 80.551,32.486 82.756,32.288 84.961,32.078 87.165,31.853 89.37,31.614 91.575,31.359 93.78,31.088 95.984,30.801 98.189,30.498 100.394,30.179 102.598,29.846 104.803,29.501 107.008,29.144 109.213,28.779 111.417,28.408 113.622,28.033 115.827,27.657 118.031,27.283 120.236,26.914 122.441,26.554 124.646,26.207 126.85,25.874 129.055,25.559 131.26,25.266 133.465,24.998 135.669,24.756 137.874,24.544 140.079,24.364 142.283,24.218 144.488,24.107 146.693,24.032 148.898,23.994 151.102,23.994 153.307,24.032 155.512,24.107 157.717,24.218 159.921,24.364 162.126,24.544 164.331,24.756 166.535,24.998 168.74,25.266 170.945,25.559 173.15,25.874 175.354,26.207 177.559,26.554 179.764,26.914 181.969,27.283 184.173,27.657 186.378,28.033 188.583,28.408 190.787,28.779 192.992,29.144 195.197,29.501 197.402,29.846 199.606,30.179 201.811,30.498 204.016,30.801 206.22,31.088 208.425,31.359 210.63,31.614 212.835,31.853 215.039,32.078 217.244,32.288 219.449,32.486 221.654,32.674 223.858,32.853 226.063,33.027 228.268,33.197 230.472,33.367 232.677,33.539 234.882,33.716 237.087,33.901 239.291,34.097 241.496,34.307 243.701,34.534 245.906,34.78 248.11,35.047 250.315,35.339 252.52,35.656 254.724,36 256.929,36.372 259.134,36.773 261.339,37.204 263.543,37.665 265.748,38.154 267.953,38.672 270.157,39.218 272.362,39.789 274.567,40.384 276.772,41 278.976,41.636 281.181,42.289 283.386,42.955 285.591,43.631 287.795,44.314 290,45" fill="none" stroke="#1b1f27" stroke-width="2" stroke-linecap="round" stroke-linejoin="round"/>
</svg>
