<svg xmlns="http://www.w3.org/2000/svg" width="300" height="90" viewBox="0 0 300 90" role="img" aria-label="Waveform 95 Soft Wave 7">
  <rect x="0" y="0" width="300" height="90" fill="#ffffff"/>
  <line x1="10" y1="45" x2="290" y2="45" stroke="#d3d6dd" stroke-width="1"/>
  <polyline points="10,29.197 12.205,51.404 14.409,73.044 16.614,20.867 18.819,48.159 21.024,65.116 23.228,22.539 25.433,34.888 27.638,67.722 29.843,27.433 32.047,12.8 34.252,19.94 36.457,37.286 38.661,38.206 40.866,30.491 43.071,34.355 45.276,12.8 47.48,65.435 49.685,12.8 51.89,48.667 54.094,12.8 56.299,57.523 58.504,53.583 60.709,59.461 62.913,48.463 65.118,12.8 67.323,17.212 69.528,12.8 71.732,38.553 73.937,58.248 76.142,14.368 78.346,20.144 80.551,16.613 82.756,29.82 84.961,22.242 87.165,17.324 89.37,12.8 91.575,12.8 93.78,48.568 95.984,16.806 98.189,34.539 100.394,54.186 102.598,29.526 104.803,24.497 107.008,60.676 109.213,37.179 111.417,12.8 113.622,29.146 115.827,58.215 118.031,19.226 120.236,20.068 122.441,29.965 124.646,51.255 126.85,61.351 129.055,68.322 131.26,36.369 133.465,44.221 135.669,62.896 137.874,19.016 140.079,40.67 142.283,12.8 144.488,24.378 146.693,76.049 148.898,44.959 151.102,55.776 153.307,22.674 155.512,61.949 157.717,38.766 159.921,42.6 162.126,48.065 164.331,31.391 166.535,47.368 168.74,51.427 170.945,33.52 173.15,55.651 175.354,31.849 177.559,52.522 179.764,75.507 181.969,56.549 184.173,46.069 186.378,51.235 188.583,49.855 190.787,77.2 192.992,25.323 195.197,35.259 197.402,35.52 199.606,74.449 201.811,49.701 204.016,69.856 206.22,77.2 208.425,69.609 210.63,52.38 212.835,36.117 215.039,77.2 217.244,32.763 219.449,34.187 221.654,69.931 223.858,48.366 226.063,35.478 228.268,37.291 230.472,51.108 232.677,68.772 234.882,76.261 237.087,61.095 239.291,73.796 241.496,55.252 243.701,62.562 245.906,27.957 248.11,62.795 250.315,31.083 252.52,56.595 254.724,61.386 256.929,42.677 259.134,42.049 261.339,69.49 263.543,49.778 265.748,21.494 267.953,64.232 270.157,27.894 272.362,23.453 274.567,74.674 276.772,46.129 278.976,44.774 281.181,45.145 283.386,77.2 285.591,41.348 287.795,54.968 290,37.799" fill="none" stroke="#1b1f27" stroke-width="2" stroke-linecap="round" stroke-linejoin="round"/>
</svg>
