<svg xmlns="http://www.w3.org/2000/svg" width="300" height="90" viewBox="0 0 300 90" role="img" aria-label="Waveform 97 Sync'd Sine">
  <rect x="0" y="0" width="300" height="90" fill="#ffffff"/>
  <line x1="10" y1="45" x2="290" y2="45" stroke="#d3d6dd" stroke-width="1"/>
  <polyline points="10,45 12.205,41.018 14.409,37.136 16.614,33.447 18.819,30.039 21.024,26.983 23.228,24.336 25.433,22.138 27.638,20.407 29.843,19.143 32.047,18.327 34.252,17.925 36.457,17.889 38.661,18.161 40.866,18.677 43.071,19.372 45.276,20.185 47.48,21.062 49.685,21.956 51.89,22.838 54.094,23.689 56.299,24.509 58.504,25.311 60.709,26.121 62.913,26.978 65.118,27.928 67.323,29.02 69.528,30.305 71.732,31.829 73.937,33.63 76.142,35.733 78.346,38.152 80.551,40.88 82.756,43.895 84.961,47.156 87.165,50.605 89.37,54.17 91.575,57.769 93.78,61.308 95.984,64.695 98.189,67.834 100.394,70.638 102.598,73.029 104.803,74.943 107.008,76.333 109.213,77.171 111.417,77.2 113.622,77.182 115.827,76.401 118.031,75.154 120.236,73.507 122.441,71.532 124.646,69.309 126.85,66.921 129.055,64.447 131.26,61.957 133.465,59.515 135.669,57.167 137.874,54.947 140.079,52.871 142.283,50.94 144.488,49.138 146.693,47.439 148.898,45.805 151.102,44.195 153.307,42.561 155.512,40.862 157.717,39.06 159.921,37.129 162.126,35.053 164.331,32.833 166.535,30.485 168.74,28.043 170.945,25.553 173.15,23.079 175.354,20.691 177.559,18.468 179.764,16.493 181.969,14.846 184.173,13.599 186.378,12.818 188.583,12.8 190.787,12.829 192.992,13.667 195.197,15.057 197.402,16.971 199.606,19.362 201.811,22.166 204.016,25.305 206.22,28.692 208.425,32.231 210.63,35.83 212.835,39.395 215.039,42.844 217.244,46.105 219.449,49.12 221.654,51.848 223.858,54.267 226.063,56.37 228.268,58.171 230.472,59.695 232.677,60.98 234.882,62.072 237.087,63.022 239.291,63.879 241.496,64.689 243.701,65.491 245.906,66.311 248.11,67.162 250.315,68.044 252.52,68.938 254.724,69.815 256.929,70.628 259.134,71.323 261.339,71.839 263.543,72.111 265.748,72.075 267.953,71.673 270.157,70.857 272.362,69.593 274.567,67.862 276.772,65.664 278.976,63.017 281.181,59.961 283.386,56.553 285.591,52.864 287.795,48.982 290,45" fill="none" stroke="#1b1f27" stroke-width="2" stroke-linecap="round" stroke-linejoin="round"/>
</svg>
