<svg xmlns="http://www.w3.org/2000/svg" width="300" height="90" viewBox="0 0 300 90" role="img" aria-label="Waveform 98 Trashy Wave 7">
  <rect x="0" y="0" width="300" height="90" fill="#ffffff"/>
  <line x1="10" y1="45" x2="290" y2="45" stroke="#d3d6dd" stroke-width="1"/>
  <polyline points="10,12.8 12.205,77.2 14.409,44.255 16.614,47.095 18.819,32.582 21.024,43.757 23.228,45.186 25.433,25.099 27.638,20.935 29.843,53.074 32.047,77.2 34.252,13.027 36.457,32.551 38.661,12.8 40.866,43.182 43.071,12.8 45.276,62.77 47.48,27.879 49.685,77.2 51.89,16.284 54.094,52.121 56.299,12.8 58.504,21.358 60.709,46.823 62.913,69.679 65.118,44.378 67.323,12.8 69.528,30.037 71.732,12.8 73.937,14.609 76.142,65.142 78.346,64.464 80.551,66.971 82.756,40.666 84.961,73.68 87.165,36.751 89.37,29.044 91.575,77.2 93.78,30.203 95.984,77.2 98.189,53.245 100.394,66.656 102.598,77.2 104.803,57.104 107.008,54.853 109.213,40.68 111.417,77.2 113.622,53.658 115.827,39.605 118.031,52.336 120.236,28.372 122.441,77.2 124.646,45.067 126.85,48.03 129.055,51.814 131.26,54.845 133.465,75.463 135.669,77.2 137.874,36.498 140.079,36.821 142.283,47.216 144.488,52.679 146.693,43.884 148.898,25.326 151.102,12.8 153.307,63.526 155.512,50.675 157.717,62.463 159.921,37.301 162.126,12.8 164.331,34.975 166.535,47.945 168.74,12.8 170.945,12.8 173.15,40.423 175.354,53.911 177.559,67.503 179.764,30.423 181.969,12.8 184.173,68.573 186.378,51.954 188.583,12.8 190.787,32.257 192.992,63.406 195.197,76.315 197.402,12.8 199.606,32.593 201.811,20.055 204.016,77.2 206.22,56.668 208.425,35.705 210.63,32.177 212.835,40.294 215.039,42.304 217.244,12.8 219.449,31.2 221.654,59.735 223.858,34.376 226.063,42.814 228.268,73.363 230.472,63.348 232.677,28.427 234.882,60.801 237.087,29.26 239.291,77.2 241.496,22.801 243.701,65.632 245.906,51.744 248.11,25.49 250.315,49.568 252.52,70.857 254.724,77.2 256.929,28.665 259.134,52.101 261.339,33.818 263.543,74.219 265.748,46.875 267.953,76.414 270.157,71.199 272.362,54.332 274.567,42.229 276.772,12.8 278.976,77.2 281.181,20.41 283.386,12.8 285.591,77.2 287.795,36.959 290,41.348" fill="none" stroke="#1b1f27" stroke-width="2" stroke-linecap="round" stroke-linejoin="round"/>
</svg>
