<svg xmlns="http://www.w3.org/2000/svg" width="300" height="90" viewBox="0 0 300 90" role="img" aria-label="Waveform 99 Twingle Pad">
  <rect x="0" y="0" width="300" height="90" fill="#ffffff"/>
  <line x1="10" y1="45" x2="290" y2="45" stroke="#d3d6dd" stroke-width="1"/>
  <polyline points="10,36.082 12.205,28.421 14.409,40.714 16.614,39.248 18.819,22.078 21.024,64.791 23.228,29.29 25.433,18.392 27.638,58.522 29.843,32.368 32.047,30.876 34.252,29.869 36.457,12.8 38.661,21.526 40.866,19.289 43.071,12.8 45.276,47.99 47.48,63.788 49.685,35.923 51.89,36.884 54.094,51.267 56.299,31.097 58.504,61.522 60.709,20.85 62.913,56.178 65.118,24.862 67.323,46.387 69.528,25.734 71.732,58.379 73.937,12.8 76.142,32.538 78.346,12.8 80.551,12.8 82.756,12.8 84.961,12.8 87.165,26.768 89.37,39.416 91.575,30.064 93.78,35.441 95.984,29.875 98.189,53.588 100.394,44.755 102.598,64.973 104.803,12.8 107.008,33.177 109.213,57.52 111.417,30.022 113.622,41.647 115.827,53.956 118.031,12.8 120.236,12.8 122.441,26.766 124.646,34.734 126.85,15.134 129.055,52.187 131.26,38.503 133.465,69.437 135.669,47.438 137.874,26.308 140.079,26.825 142.283,27.27 144.488,41.777 146.693,53.56 148.898,18.399 151.102,14.542 153.307,14.926 155.512,56.797 157.717,49.706 159.921,45.524 162.126,53.535 164.331,69.585 166.535,64.659 168.74,75.419 170.945,49.447 173.15,35.774 175.354,23.371 177.559,38.134 179.764,61.936 181.969,62.604 184.173,61.876 186.378,33.381 188.583,77.2 190.787,50.759 192.992,77.2 195.197,77.2 197.402,31.894 199.606,72.604 201.811,24.813 204.016,30.515 206.22,71.397 208.425,47.677 210.63,77.2 212.835,46.336 215.039,39.519 217.244,53.496 219.449,45.813 221.654,75.35 223.858,62.801 226.063,52.011 228.268,28.219 230.472,77.2 232.677,33.67 234.882,50.333 237.087,39.594 239.291,64.507 241.496,34.81 243.701,60.608 245.906,51.71 248.11,26.794 250.315,34.74 252.52,72.368 254.724,48.859 256.929,51.846 259.134,66.566 261.339,60.054 263.543,49.016 265.748,77.2 267.953,34.054 270.157,23.48 272.362,67.205 274.567,50.636 276.772,65.068 278.976,38.287 281.181,41.644 283.386,25.932 285.591,39.636 287.795,56.316 290,17.858" fill="none" stroke="#1b1f27" stroke-width="2" stroke-linecap="round" stroke-linejoin="round"/>
</svg>
