<svg xmlns="http://www.w3.org/2000/svg" width="300" height="90" viewBox="0 0 300 90" role="img" aria-label="Waveform 101 Thin 4">
  <rect x="0" y="0" width="300" height="90" fill="#ffffff"/>
  <line x1="10" y1="45" x2="290" y2="45" stroke="#d3d6dd" stroke-width="1"/>
  <polyline points="10,50.572 12.205,50.595 14.409,34.439 16.614,51.061 18.819,48.822 21.024,59.726 23.228,38.967 25.433,38.132 27.638,36.185 29.843,45.985 32.047,51.285 34.252,46.739 36.457,44.644 38.661,54.879 40.866,32.427 43.071,51.503 45.276,32.109 47.48,38.479 49.685,44.247 51.89,55.674 54.094,27.388 56.299,32.504 58.504,52.4 60.709,32.694 62.913,54.951 65.118,55.708 67.323,44.697 69.528,26.854 71.732,35.68 73.937,51.707 76.142,53.077 78.346,24.402 80.551,56.375 82.756,36.771 84.961,35.277 87.165,44.669 89.37,30.439 91.575,55.181 93.78,44.846 95.984,59.63 98.189,48.142 100.394,35.549 102.598,53.172 104.803,45.028 107.008,61.09 109.213,50.492 111.417,58.083 113.622,32.32 115.827,30.178 118.031,49.833 120.236,38.008 122.441,45.303 124.646,29.927 126.85,50.365 129.055,51.004 131.26,48.183 133.465,59.717 135.669,62.582 137.874,62.908 140.079,56.816 142.283,40.289 144.488,44.611 146.693,33.996 148.898,50.321 151.102,37.642 153.307,40.784 155.512,65.732 157.717,39.425 159.921,52.188 162.126,40.712 164.331,65.655 166.535,30.944 168.74,61.401 170.945,56.569 173.15,44.143 175.354,56.191 177.559,33.897 179.764,51.189 181.969,48.908 184.173,29.304 186.378,35.109 188.583,44.681 190.787,38.719 192.992,36.922 195.197,42.674 197.402,53.66 199.606,32.391 201.811,31.677 204.016,44.562 206.22,60.563 208.425,53.985 210.63,38.169 212.835,30.786 215.039,45.905 217.244,28.345 219.449,26.904 221.654,31.723 223.858,32.959 226.063,32.391 228.268,25.025 230.472,51.142 232.677,28.422 234.882,27.578 237.087,48.165 239.291,52.575 241.496,52.171 243.701,44.411 245.906,59.486 248.11,32.627 250.315,52.442 252.52,29.404 254.724,49.401 256.929,36.998 259.134,54.006 261.339,36.309 263.543,56.654 265.748,50.674 267.953,52.217 270.157,51.067 272.362,44.97 274.567,45.184 276.772,30.041 278.976,29.328 281.181,54.394 283.386,47.038 285.591,29.566 287.795,44.395 290,28.485" fill="none" stroke="#1b1f27" stroke-width="2" stroke-linecap="round" stroke-linejoin="round"/>
</svg>
