<svg xmlns="http://www.w3.org/2000/svg" width="300" height="90" viewBox="0 0 300 90" role="img" aria-label="Waveform 102 Thin 5">
  <rect x="0" y="0" width="300" height="90" fill="#ffffff"/>
  <line x1="10" y1="45" x2="290" y2="45" stroke="#d3d6dd" stroke-width="1"/>
  <polyline points="10,38.7 12.205,42.72 14.409,35.238 16.614,43.865 18.819,27.3 21.024,41.971 23.228,41.599 25.433,57.87 27.638,52.332 29.843,43.767 32.047,53.045 34.252,39.56 36.457,46.08 38.661,29.11 40.866,56.651 43.071,45.327 45.276,33.818 47.48,56.342 49.685,57.018 51.89,46.068 54.094,34.509 56.299,40.024 58.504,53.381 60.709,36.856 62.913,33.5 65.118,52.452 67.323,34.498 69.528,38.129 71.732,34.291 73.937,55.262 76.142,32.642 78.346,52.534 80.551,41.363 82.756,59.875 84.961,37.888 87.165,32.732 89.37,57.786 91.575,33.139 93.78,47.171 95.984,51.782 98.189,35.695 100.394,62.825 102.598,58.65 104.803,39.798 107.008,36.164 109.213,57.094 111.417,41.911 113.622,43.636 115.827,35.316 118.031,53.925 120.236,33.258 122.441,31.121 124.646,44.032 126.85,62.744 129.055,37.015 131.26,61.416 133.465,53.335 135.669,32.491 137.874,46.221 140.079,54.526 142.283,30.66 144.488,59.371 146.693,46.96 148.898,58.438 151.102,52.972 153.307,42.678 155.512,25.527 157.717,32.248 159.921,40.089 162.126,24.82 164.331,38.964 166.535,36.884 168.74,53.67 170.945,31.003 173.15,35.018 175.354,34.239 177.559,24.52 179.764,57.808 181.969,30.938 184.173,43.266 186.378,53.166 188.583,28.669 190.787,38.274 192.992,59.141 195.197,35.528 197.402,35.228 199.606,32.907 201.811,46.24 204.016,27.471 206.22,32.484 208.425,55.078 210.63,28.302 212.835,46.843 215.039,46.656 217.244,53.941 219.449,58.57 221.654,29.039 223.858,56.356 226.063,57.298 228.268,38.732 230.472,30.815 232.677,40.924 234.882,50.105 237.087,60.891 239.291,63.935 241.496,38.304 243.701,52.761 245.906,34.194 248.11,51.673 250.315,36.078 252.52,30.183 254.724,50.019 256.929,45.752 259.134,34.469 261.339,63.668 263.543,31.225 265.748,59.804 267.953,45.963 270.157,50.648 272.362,52.946 274.567,50.884 276.772,40.055 278.976,43.345 281.181,59.396 283.386,39.261 285.591,61.181 287.795,30.771 290,53.154" fill="none" stroke="#1b1f27" stroke-width="2" stroke-linecap="round" stroke-linejoin="round"/>
</svg>
