<svg xmlns="http://www.w3.org/2000/svg" width="300" height="90" viewBox="0 0 300 90" role="img" aria-label="Waveform 103 Trashy Wave 8">
  <rect x="0" y="0" width="300" height="90" fill="#ffffff"/>
  <line x1="10" y1="45" x2="290" y2="45" stroke="#d3d6dd" stroke-width="1"/>
  <polyline points="10,50.609 12.205,51.688 14.409,25.987 16.614,12.8 18.819,12.8 21.024,34.397 23.228,67.84 25.433,12.8 27.638,29.081 29.843,30.772 32.047,56.776 34.252,48.499 36.457,77.2 38.661,43.485 40.866,64.591 43.071,12.8 45.276,75.285 47.48,23.228 49.685,13.995 51.89,31.438 54.094,53.202 56.299,77.2 58.504,27.627 60.709,47.704 62.913,30.271 65.118,67.182 67.323,12.8 69.528,12.8 71.732,24.482 73.937,73.213 76.142,53.824 78.346,35.179 80.551,77.2 82.756,77.2 84.961,49.138 87.165,49.52 89.37,77.2 91.575,77.2 93.78,75.483 95.984,39.127 98.189,55.129 100.394,77.2 102.598,20.176 104.803,71.475 107.008,52.622 109.213,16.705 111.417,75.787 113.622,54.532 115.827,77.2 118.031,51.348 120.236,23.174 122.441,38.929 124.646,50.599 126.85,63.226 129.055,18.711 131.26,77.2 133.465,71.33 135.669,68.525 137.874,29.144 140.079,12.8 142.283,15.445 144.488,42.607 146.693,12.8 148.898,77.2 151.102,56.78 153.307,57.276 155.512,73.839 157.717,66.32 159.921,51.765 162.126,19.609 164.331,12.8 166.535,38.364 168.74,67.154 170.945,33.243 173.15,77.2 175.354,77.2 177.559,47.74 179.764,44.891 181.969,12.8 184.173,48.773 186.378,16.861 188.583,14.398 190.787,77.2 192.992,44.559 195.197,13.999 197.402,58.946 199.606,19.419 201.811,66.414 204.016,77.2 206.22,12.8 208.425,64.489 210.63,27.544 212.835,21.031 215.039,53.78 217.244,77.2 219.449,77.2 221.654,43.56 223.858,12.8 226.063,34.202 228.268,12.8 230.472,45.609 232.677,22.061 234.882,24.344 237.087,20.697 239.291,12.8 241.496,12.8 243.701,77.2 245.906,12.8 248.11,51.689 250.315,12.8 252.52,32.645 254.724,36.302 256.929,39.761 259.134,77.2 261.339,69.023 263.543,45.4 265.748,64.714 267.953,12.8 270.157,40.357 272.362,12.8 274.567,76.441 276.772,26.937 278.976,21.445 281.181,44.406 283.386,74.298 285.591,12.8 287.795,74.754 290,44.968" fill="none" stroke="#1b1f27" stroke-width="2" stroke-linecap="round" stroke-linejoin="round"/>
</svg>
