<svg xmlns="http://www.w3.org/2000/svg" width="300" height="90" viewBox="0 0 300 90" role="img" aria-label="Waveform 104 Trashy Wave 9">
  <rect x="0" y="0" width="300" height="90" fill="#ffffff"/>
  <line x1="10" y1="45" x2="290" y2="45" stroke="#d3d6dd" stroke-width="1"/>
  <polyline points="10,57.119 12.205,12.8 14.409,22.288 16.614,73.761 18.819,14.128 21.024,17.076 23.228,49.641 25.433,15.21 27.638,12.8 29.843,26.315 32.047,33.616 34.252,50.468 36.457,29.021 38.661,12.8 40.866,52.234 43.071,45.608 45.276,33.867 47.48,12.8 49.685,24.386 51.89,45.872 54.094,46.145 56.299,54.238 58.504,77.2 60.709,49.963 62.913,54.822 65.118,19.603 67.323,73.749 69.528,40.735 71.732,21.776 73.937,32.379 76.142,60.033 78.346,64.805 80.551,77.2 82.756,29.555 84.961,52.681 87.165,40.334 89.37,43.338 91.575,77.2 93.78,51.357 95.984,19.566 98.189,37.308 100.394,48.453 102.598,12.8 104.803,43.764 107.008,77.104 109.213,59.317 111.417,12.8 113.622,12.8 115.827,12.8 118.031,77.2 120.236,20.305 122.441,77.2 124.646,35.838 126.85,34.983 129.055,45.66 131.26,12.8 133.465,26.015 135.669,19.772 137.874,30.79 140.079,44.678 142.283,36.67 144.488,35.388 146.693,64.045 148.898,77.2 151.102,18.972 153.307,54.841 155.512,48.678 157.717,31.793 159.921,12.8 162.126,77.2 164.331,58.599 166.535,25.127 168.74,55.325 170.945,39.044 173.15,20.061 175.354,77.2 177.559,16.415 179.764,32.708 181.969,77.2 184.173,14.303 186.378,45.108 188.583,12.8 190.787,77.2 192.992,56.397 195.197,25.158 197.402,77.2 199.606,58.351 201.811,12.8 204.016,12.8 206.22,49.935 208.425,77.2 210.63,64.388 212.835,60.275 215.039,43.536 217.244,74.538 219.449,77.2 221.654,48.537 223.858,58.624 226.063,16.97 228.268,34.731 230.472,69.892 232.677,20.716 234.882,77.2 237.087,63.684 239.291,49.737 241.496,66.081 243.701,22.936 245.906,64.323 248.11,46.767 250.315,77.2 252.52,38.093 254.724,77.2 256.929,12.8 259.134,67.235 261.339,35.146 263.543,44.394 265.748,28.791 267.953,36.946 270.157,41.995 272.362,42.218 274.567,29.67 276.772,62.388 278.976,28.592 281.181,12.8 283.386,68.986 285.591,45.394 287.795,45.099 290,17.97" fill="none" stroke="#1b1f27" stroke-width="2" stroke-linecap="round" stroke-linejoin="round"/>
</svg>
