<svg xmlns="http://www.w3.org/2000/svg" width="300" height="90" viewBox="0 0 300 90" role="img" aria-label="Waveform 105 Trashy Wave 10">
  <rect x="0" y="0" width="300" height="90" fill="#ffffff"/>
  <line x1="10" y1="45" x2="290" y2="45" stroke="#d3d6dd" stroke-width="1"/>
  <polyline points="10,17.742 12.205,15.12 14.409,44.521 16.614,12.8 18.819,66.361 21.024,77.2 23.228,48.618 25.433,50.924 27.638,55.747 29.843,17.921 32.047,26.625 34.252,12.8 36.457,12.8 38.661,41.785 40.866,77.2 43.071,27.867 45.276,63.956 47.48,77.2 49.685,58.65 51.89,77.2 54.094,47.002 56.299,54.97 58.504,44.394 60.709,15.717 62.913,60.764 65.118,12.8 67.323,50.321 69.528,65 71.732,69.175 73.937,32.561 76.142,33.46 78.346,54.282 80.551,70.552 82.756,61.571 84.961,12.8 87.165,18.995 89.37,12.8 91.575,13.591 93.78,23.196 95.984,34.949 98.189,23.027 100.394,75.631 102.598,53.826 104.803,61.79 107.008,26.75 109.213,17.892 111.417,77.2 113.622,23.78 115.827,66.157 118.031,33.986 120.236,55.719 122.441,24.869 124.646,47.779 126.85,77.2 129.055,56.551 131.26,34.47 133.465,27.813 135.669,40.619 137.874,52.088 140.079,18.872 142.283,21.237 144.488,43.075 146.693,38.182 148.898,42.497 151.102,54.305 153.307,29.048 155.512,32.176 157.717,67.653 159.921,68.751 162.126,77.2 164.331,34.296 166.535,76.384 168.74,37.535 170.945,41.395 173.15,25.647 175.354,21.956 177.559,76.517 179.764,77.2 181.969,13.903 184.173,40.914 186.378,51.914 188.583,33.222 190.787,64.418 192.992,45.237 195.197,63.981 197.402,71.096 199.606,66.538 201.811,47.577 204.016,66.527 206.22,53.79 208.425,32.584 210.63,12.8 212.835,12.8 215.039,36.355 217.244,77.2 219.449,51.276 221.654,30.111 223.858,47.469 226.063,62.147 228.268,44.55 230.472,20.485 232.677,43.332 234.882,49.056 237.087,12.8 239.291,12.8 241.496,45.969 243.701,76.315 245.906,29.664 248.11,20.509 250.315,12.8 252.52,64.923 254.724,34.911 256.929,30.973 259.134,77.2 261.339,12.8 263.543,75.434 265.748,12.8 267.953,45.929 270.157,76.52 272.362,41.94 274.567,12.8 276.772,58.673 278.976,62.652 281.181,28.02 283.386,12.8 285.591,48.253 287.795,49.472 290,76.578" fill="none" stroke="#1b1f27" stroke-width="2" stroke-linecap="round" stroke-linejoin="round"/>
</svg>
