<svg xmlns="http://www.w3.org/2000/svg" width="300" height="90" viewBox="0 0 300 90" role="img" aria-label="Waveform 106 Trashy Wave 11">
  <rect x="0" y="0" width="300" height="90" fill="#ffffff"/>
  <line x1="10" y1="45" x2="290" y2="45" stroke="#d3d6dd" stroke-width="1"/>
  <polyline points="10,68.951 12.205,22.86 14.409,12.8 16.614,48.834 18.819,53.049 21.024,13.848 23.228,63.43 25.433,41.185 27.638,27.506 29.843,60.128 32.047,38.834 34.252,77.06 36.457,29.809 38.661,12.8 40.866,43.315 43.071,71.487 45.276,72.267 47.48,36.327 49.685,31.888 51.89,15.313 54.094,12.8 56.299,42.402 58.504,71.436 60.709,68.744 62.913,12.8 65.118,19.688 67.323,77.2 69.528,22.658 71.732,67.17 73.937,40.108 76.142,52.909 78.346,17.425 80.551,37.086 82.756,20.892 84.961,12.8 87.165,37.614 89.37,16.186 91.575,38.808 93.78,16.399 95.984,12.8 98.189,12.8 100.394,54.252 102.598,77.2 104.803,77.2 107.008,28.902 109.213,12.8 111.417,77.2 113.622,24.099 115.827,54.402 118.031,77.2 120.236,32.876 122.441,77.2 124.646,13.548 126.85,77.2 129.055,43.641 131.26,61.744 133.465,38.324 135.669,65.22 137.874,30.87 140.079,12.8 142.283,64.648 144.488,24.105 146.693,43.446 148.898,43.622 151.102,18.247 153.307,12.8 155.512,33.542 157.717,43.553 159.921,70.854 162.126,19.198 164.331,12.8 166.535,39.148 168.74,12.8 170.945,31.903 173.15,29.059 175.354,48.792 177.559,72.66 179.764,43.528 181.969,12.8 184.173,46.698 186.378,12.8 188.583,43.545 190.787,72.002 192.992,35.525 195.197,33.922 197.402,14.691 199.606,16.139 201.811,77.139 204.016,29.299 206.22,77.2 208.425,51.924 210.63,12.8 212.835,12.8 215.039,43.921 217.244,12.8 219.449,72.621 221.654,12.8 223.858,77.2 226.063,54.497 228.268,36.723 230.472,47.595 232.677,60.069 234.882,76.945 237.087,77.2 239.291,34.064 241.496,77.2 243.701,51.211 245.906,61.428 248.11,19.297 250.315,64.157 252.52,70.995 254.724,41.589 256.929,77.2 259.134,71.719 261.339,43.704 263.543,42.632 265.748,77.2 267.953,17.903 270.157,22.673 272.362,57.44 274.567,77.2 276.772,77.2 278.976,60.223 281.181,77.2 283.386,60.884 285.591,14.826 287.795,77.2 290,12.8" fill="none" stroke="#1b1f27" stroke-width="2" stroke-linecap="round" stroke-linejoin="round"/>
</svg>
