<svg xmlns="http://www.w3.org/2000/svg" width="300" height="90" viewBox="0 0 300 90" role="img" aria-label="Waveform 107 Trashy Wave 12">
  <rect x="0" y="0" width="300" height="90" fill="#ffffff"/>
  <line x1="10" y1="45" x2="290" y2="45" stroke="#d3d6dd" stroke-width="1"/>
  <polyline points="10,12.8 12.205,36.438 14.409,38.699 16.614,77.2 18.819,73.654 21.024,56.564 23.228,12.8 25.433,12.8 27.638,39.281 29.843,48.596 32.047,48.1 34.252,77.2 36.457,20.75 38.661,77.2 40.866,25.858 43.071,34.794 45.276,12.8 47.48,28.199 49.685,32.744 51.89,12.8 54.094,17.099 56.299,12.8 58.504,15.412 60.709,77.2 62.913,29.919 65.118,69.134 67.323,43.371 69.528,15.415 71.732,36.555 73.937,32.083 76.142,39.255 78.346,38.644 80.551,62.281 82.756,77.2 84.961,49.143 87.165,64.056 89.37,48.526 91.575,77.2 93.78,51.157 95.984,12.8 98.189,62.117 100.394,77.2 102.598,20.84 104.803,77.2 107.008,48.146 109.213,77.2 111.417,12.8 113.622,72.955 115.827,54.464 118.031,55.836 120.236,77.2 122.441,52.011 124.646,55.726 126.85,58.459 129.055,77.2 131.26,72.643 133.465,43.49 135.669,37.14 137.874,12.8 140.079,59.006 142.283,37.821 144.488,68.908 146.693,49.772 148.898,69.204 151.102,46.277 153.307,27.821 155.512,12.8 157.717,62.029 159.921,12.8 162.126,20.683 164.331,52.892 166.535,77.2 168.74,77.2 170.945,43.733 173.15,77.2 175.354,30.289 177.559,21.123 179.764,31.989 181.969,30.388 184.173,77.2 186.378,77.2 188.583,48.43 190.787,58.668 192.992,12.8 195.197,54.989 197.402,72.141 199.606,26.095 201.811,77.2 204.016,77.2 206.22,65.488 208.425,27.783 210.63,77.2 212.835,48.197 215.039,12.8 217.244,18.88 219.449,77.2 221.654,68.831 223.858,77.2 226.063,52.398 228.268,28.367 230.472,36.338 232.677,18.671 234.882,77.2 237.087,12.8 239.291,12.8 241.496,54.464 243.701,64.016 245.906,62.815 248.11,38.957 250.315,12.8 252.52,71.023 254.724,12.8 256.929,24.784 259.134,46.947 261.339,52.606 263.543,47.467 265.748,12.8 267.953,33.028 270.157,12.8 272.362,77.2 274.567,46.516 276.772,45.369 278.976,25.716 281.181,26.536 283.386,44.3 285.591,12.8 287.795,18.283 290,40.435" fill="none" stroke="#1b1f27" stroke-width="2" stroke-linecap="round" stroke-linejoin="round"/>
</svg>
