<svg xmlns="http://www.w3.org/2000/svg" width="300" height="90" viewBox="0 0 300 90" role="img" aria-label="Waveform 108 Trashy Wave 13">
  <rect x="0" y="0" width="300" height="90" fill="#ffffff"/>
  <line x1="10" y1="45" x2="290" y2="45" stroke="#d3d6dd" stroke-width="1"/>
  <polyline points="10,65.785 12.205,19.296 14.409,19.279 16.614,48.24 18.819,31.296 21.024,77.2 23.228,58.95 25.433,36.181 27.638,56.42 29.843,32.712 32.047,35.949 34.252,45.116 36.457,17.638 38.661,77.2 40.866,50.832 43.071,25.587 45.276,12.8 47.48,41.943 49.685,40.771 51.89,26.518 54.094,27.342 56.299,33.926 58.504,39.001 60.709,12.8 62.913,68.477 65.118,46.53 67.323,55.198 69.528,12.8 71.732,77.2 73.937,37.93 76.142,15.393 78.346,22.606 80.551,48.576 82.756,12.8 84.961,31.477 87.165,12.8 89.37,12.8 91.575,12.8 93.78,58.562 95.984,62.62 98.189,31.588 100.394,49.805 102.598,61.588 104.803,77.2 107.008,14.416 109.213,17.491 111.417,12.8 113.622,19.102 115.827,65.454 118.031,36.128 120.236,20.173 122.441,17.179 124.646,60.68 126.85,19.949 129.055,68.868 131.26,77.2 133.465,77.2 135.669,56.955 137.874,18.723 140.079,69.972 142.283,75.187 144.488,50.147 146.693,74.051 148.898,51.133 151.102,53.029 153.307,17.731 155.512,12.8 157.717,36.158 159.921,31.934 162.126,70.258 164.331,77.2 166.535,71.411 168.74,28.795 170.945,37.194 173.15,28.732 175.354,71.237 177.559,62.493 179.764,30.22 181.969,37.687 184.173,50.782 186.378,50.339 188.583,18.247 190.787,16.661 192.992,48.087 195.197,12.8 197.402,30.47 199.606,72.056 201.811,12.8 204.016,12.8 206.22,59.808 208.425,61.654 210.63,21.612 212.835,34.87 215.039,77.2 217.244,28.631 219.449,77.2 221.654,42.787 223.858,66.551 226.063,36.409 228.268,23.758 230.472,75.017 232.677,72.588 234.882,46.942 237.087,14.943 239.291,41.434 241.496,12.8 243.701,40.162 245.906,47.54 248.11,65.12 250.315,77.2 252.52,77.2 254.724,77.2 256.929,72.14 259.134,77.2 261.339,43.732 263.543,58.068 265.748,59.321 267.953,64.168 270.157,69.003 272.362,77.2 274.567,12.8 276.772,77.2 278.976,37.874 281.181,43.838 283.386,12.8 285.591,77.2 287.795,70.638 290,12.8" fill="none" stroke="#1b1f27" stroke-width="2" stroke-linecap="round" stroke-linejoin="round"/>
</svg>
