<svg xmlns="http://www.w3.org/2000/svg" width="300" height="90" viewBox="0 0 300 90" role="img" aria-label="Waveform 109 Spark Wave 12">
  <rect x="0" y="0" width="300" height="90" fill="#ffffff"/>
  <line x1="10" y1="45" x2="290" y2="45" stroke="#d3d6dd" stroke-width="1"/>
  <polyline points="10,57.451 12.205,44.196 14.409,73.572 16.614,34.772 18.819,52.585 21.024,63.915 23.228,36.407 25.433,33.036 27.638,62.723 29.843,69.319 32.047,24.559 34.252,46.37 36.457,18.309 38.661,28.272 40.866,49.617 43.071,15.036 45.276,43.782 47.48,12.8 49.685,17.058 51.89,58.691 54.094,12.8 56.299,38.439 58.504,23.643 60.709,41.412 62.913,50.978 65.118,21.261 67.323,40.759 69.528,65.936 71.732,29.366 73.937,67.779 76.142,40.369 78.346,21.302 80.551,21.024 82.756,62.767 84.961,34.386 87.165,29.773 89.37,19.974 91.575,70.454 93.78,21.337 95.984,33.324 98.189,61.677 100.394,36.121 102.598,69.881 104.803,32.387 107.008,48.99 109.213,70.853 111.417,67.246 113.622,26.684 115.827,62.176 118.031,48.44 120.236,61.456 122.441,41.494 124.646,77.2 126.85,44.713 129.055,42.086 131.26,46.359 133.465,63.655 135.669,55.202 137.874,53.942 140.079,51.591 142.283,31.841 144.488,27.172 146.693,57.543 148.898,48.246 151.102,46.712 153.307,59.159 155.512,44.771 157.717,45.158 159.921,46.393 162.126,53.31 164.331,63.907 166.535,38.276 168.74,30.598 170.945,68.808 173.15,25.035 175.354,75.068 177.559,61.205 179.764,76.545 181.969,28.473 184.173,57.291 186.378,32.923 188.583,45.305 190.787,64.315 192.992,27.592 195.197,35.275 197.402,42.94 199.606,37.363 201.811,77.2 204.016,52.334 206.22,55.864 208.425,41.406 210.63,20.906 212.835,51.097 215.039,22.387 217.244,51.554 219.449,37.802 221.654,13.615 223.858,39.015 226.063,30.82 228.268,51.292 230.472,21.929 232.677,31.356 234.882,16.057 237.087,28.349 239.291,41.84 241.496,46.07 243.701,71.164 245.906,33.929 248.11,13.275 250.315,67.634 252.52,36.194 254.724,65.381 256.929,33.257 259.134,42.174 261.339,15.855 263.543,29.653 265.748,28.583 267.953,33.388 270.157,12.8 272.362,35.316 274.567,31.748 276.772,12.8 278.976,58.45 281.181,62.408 283.386,17.561 285.591,23.828 287.795,46.163 290,58.231" fill="none" stroke="#1b1f27" stroke-width="2" stroke-linecap="round" stroke-linejoin="round"/>
</svg>
