<svg xmlns="http://www.w3.org/2000/svg" width="300" height="90" viewBox="0 0 300 90" role="img" aria-label="Waveform 110 Spark Wave 13">
  <rect x="0" y="0" width="300" height="90" fill="#ffffff"/>
  <line x1="10" y1="45" x2="290" y2="45" stroke="#d3d6dd" stroke-width="1"/>
  <polyline points="10,67.775 12.205,49.841 14.409,30.24 16.614,16.114 18.819,50.626 21.024,12.8 23.228,23.933 25.433,12.8 27.638,50.124 29.843,64.693 32.047,34.185 34.252,60.115 36.457,62.785 38.661,12.8 40.866,40.805 43.071,13.497 45.276,40.816 47.48,19.089 49.685,17.958 51.89,63.44 54.094,23.698 56.299,72.857 58.504,31.1 60.709,31.855 62.913,72.389 65.118,40.956 67.323,60.673 69.528,60.508 71.732,16.296 73.937,34.319 76.142,35.888 78.346,61.149 80.551,65.095 82.756,41.6 84.961,15.629 87.165,42.906 89.37,43.741 91.575,64.327 93.78,77.2 95.984,42.754 98.189,26.508 100.394,28.38 102.598,50.358 104.803,59.86 107.008,38.889 109.213,36.219 111.417,77.2 113.622,31.254 115.827,76.344 118.031,73.65 120.236,74.542 122.441,58.766 124.646,22.305 126.85,27.982 129.055,18.368 131.26,60.871 133.465,24.699 135.669,58.568 137.874,59.735 140.079,69.894 142.283,73.301 144.488,67.471 146.693,14.046 148.898,57.919 151.102,24.015 153.307,25.584 155.512,22.316 157.717,41.998 159.921,51.699 162.126,65.941 164.331,37.241 166.535,36.805 168.74,20.399 170.945,20.884 173.15,12.8 175.354,68.311 177.559,61.503 179.764,52.187 181.969,38.348 184.173,33.614 186.378,21.275 188.583,62.549 190.787,20.592 192.992,12.8 195.197,26.002 197.402,55.075 199.606,51.308 201.811,40.784 204.016,60.718 206.22,16.9 208.425,65.25 210.63,57.364 212.835,17.157 215.039,47.736 217.244,62.165 219.449,66.735 221.654,67.221 223.858,68.448 226.063,27.99 228.268,21.806 230.472,47.504 232.677,34.266 234.882,27.729 237.087,46.797 239.291,47.278 241.496,18.957 243.701,37.7 245.906,46.986 248.11,65.974 250.315,66.364 252.52,35.795 254.724,47.908 256.929,75.189 259.134,41.008 261.339,47.068 263.543,77.2 265.748,77.2 267.953,24.008 270.157,23.878 272.362,77.2 274.567,56.364 276.772,69.274 278.976,63.664 281.181,77.2 283.386,75.293 285.591,74.823 287.795,58.456 290,53.711" fill="none" stroke="#1b1f27" stroke-width="2" stroke-linecap="round" stroke-linejoin="round"/>
</svg>
