<svg xmlns="http://www.w3.org/2000/svg" width="300" height="90" viewBox="0 0 300 90" role="img" aria-label="Waveform 111 Trashy Wave 14">
  <rect x="0" y="0" width="300" height="90" fill="#ffffff"/>
  <line x1="10" y1="45" x2="290" y2="45" stroke="#d3d6dd" stroke-width="1"/>
  <polyline points="10,77.2 12.205,25.081 14.409,12.8 16.614,41.384 18.819,12.8 21.024,22.711 23.228,17.844 25.433,45.743 27.638,59.197 29.843,20.699 32.047,53.258 34.252,12.8 36.457,77.2 38.661,33.72 40.866,60.29 43.071,47.9 45.276,45.126 47.48,77.2 49.685,77.2 51.89,74.957 54.094,43.811 56.299,24.168 58.504,34.594 60.709,46.82 62.913,54.458 65.118,55.5 67.323,42.64 69.528,37.113 71.732,23.175 73.937,12.8 76.142,12.8 78.346,62.135 80.551,72.494 82.756,75.409 84.961,72.34 87.165,74.52 89.37,77.2 91.575,63.59 93.78,24.868 95.984,28.595 98.189,67.978 100.394,44.774 102.598,68.964 104.803,30.319 107.008,12.8 109.213,38.464 111.417,43.992 113.622,53.819 115.827,41.579 118.031,12.8 120.236,63.385 122.441,60.57 124.646,77.119 126.85,53.634 129.055,77.2 131.26,71.569 133.465,12.8 135.669,12.8 137.874,77.2 140.079,45.868 142.283,57.865 144.488,40.962 146.693,12.8 148.898,20.027 151.102,17.917 153.307,66.526 155.512,17.581 157.717,47.056 159.921,12.8 162.126,66.851 164.331,76.155 166.535,26.063 168.74,12.8 170.945,71.891 173.15,47.742 175.354,12.8 177.559,66.418 179.764,66.624 181.969,51.558 184.173,35.594 186.378,50.775 188.583,64.771 190.787,50.635 192.992,40.202 195.197,56.575 197.402,77.2 199.606,53.595 201.811,58.406 204.016,38.536 206.22,71.15 208.425,72.233 210.63,73.558 212.835,18.745 215.039,47.106 217.244,45.907 219.449,23.129 221.654,76.116 223.858,54.562 226.063,54.878 228.268,62.584 230.472,12.8 232.677,50.412 234.882,77.2 237.087,70.912 239.291,12.8 241.496,24.192 243.701,56.295 245.906,75.929 248.11,77.2 250.315,46.085 252.52,49.44 254.724,27.582 256.929,77.2 259.134,34.651 261.339,36.382 263.543,67.952 265.748,66.495 267.953,33.476 270.157,29.459 272.362,50.548 274.567,52.711 276.772,20.128 278.976,36.883 281.181,60.818 283.386,12.8 285.591,58.343 287.795,74.84 290,77.2" fill="none" stroke="#1b1f27" stroke-width="2" stroke-linecap="round" stroke-linejoin="round"/>
</svg>
