<svg xmlns="http://www.w3.org/2000/svg" width="300" height="90" viewBox="0 0 300 90" role="img" aria-label="Waveform 112 Trashy Wave 15">
  <rect x="0" y="0" width="300" height="90" fill="#ffffff"/>
  <line x1="10" y1="45" x2="290" y2="45" stroke="#d3d6dd" stroke-width="1"/>
  <polyline points="10,67.103 12.205,47.134 14.409,72.791 16.614,26.128 18.819,77.2 21.024,32.563 23.228,12.8 25.433,77.2 27.638,16.417 29.843,12.8 32.047,41.204 34.252,43.46 36.457,29.931 38.661,50.76 40.866,75.24 43.071,12.8 45.276,37.008 47.48,33.526 49.685,12.8 51.89,39.269 54.094,67.155 56.299,18.688 58.504,28.432 60.709,12.8 62.913,14.597 65.118,42.827 67.323,30.476 69.528,69.084 71.732,37.085 73.937,25.265 76.142,51.116 78.346,12.8 80.551,12.8 82.756,77.2 84.961,23.678 87.165,40.172 89.37,50.441 91.575,67.366 93.78,77.2 95.984,67.041 98.189,54.415 100.394,33.571 102.598,77.2 104.803,56.155 107.008,60.297 109.213,24.313 111.417,72.015 113.622,75.466 115.827,55.151 118.031,23.759 120.236,77.2 122.441,64.123 124.646,16.356 126.85,77.2 129.055,45.817 131.26,55.018 133.465,77.2 135.669,77.2 137.874,15.528 140.079,77.2 142.283,38.458 144.488,22.375 146.693,58.252 148.898,49.475 151.102,36.13 153.307,71.531 155.512,27.037 157.717,33.467 159.921,49.508 162.126,12.8 164.331,44.947 166.535,28.575 168.74,40.209 170.945,45.559 173.15,36.132 175.354,48.334 177.559,77.2 179.764,51.742 181.969,77.2 184.173,64.791 186.378,31.578 188.583,59.757 190.787,48.088 192.992,46.639 195.197,28.758 197.402,50.889 199.606,77.2 201.811,30.805 204.016,46.458 206.22,52.643 208.425,77.2 210.63,64.79 212.835,44.79 215.039,64.735 217.244,61.104 219.449,23.823 221.654,13.948 223.858,19.382 226.063,37.425 228.268,76.665 230.472,77.2 232.677,77.2 234.882,77.2 237.087,15.387 239.291,12.8 241.496,47.035 243.701,77.2 245.906,57.179 248.11,16.834 250.315,57.74 252.52,77.2 254.724,41.757 256.929,47.236 259.134,56.521 261.339,36.384 263.543,50.682 265.748,24.081 267.953,67.107 270.157,47.383 272.362,52.553 274.567,63.077 276.772,72.926 278.976,56.486 281.181,59.369 283.386,45.03 285.591,77.2 287.795,53.263 290,50.315" fill="none" stroke="#1b1f27" stroke-width="2" stroke-linecap="round" stroke-linejoin="round"/>
</svg>
