<svg xmlns="http://www.w3.org/2000/svg" width="300" height="90" viewBox="0 0 300 90" role="img" aria-label="Waveform 113 Rainbow">
  <rect x="0" y="0" width="300" height="90" fill="#ffffff"/>
  <line x1="10" y1="45" x2="290" y2="45" stroke="#d3d6dd" stroke-width="1"/>
  <polyline points="10,71.479 12.205,23.678 14.409,47.665 16.614,12.8 18.819,72.096 21.024,31.526 23.228,29.621 25.433,26.172 27.638,20.282 29.843,33.698 32.047,66.559 34.252,57.553 36.457,42.839 38.661,56.898 40.866,57.4 43.071,16.753 45.276,23.128 47.48,12.8 49.685,46.141 51.89,12.8 54.094,26.857 56.299,24.669 58.504,12.8 60.709,14.643 62.913,37.674 65.118,40.135 67.323,55.045 69.528,30.183 71.732,33.827 73.937,44.364 76.142,51.625 78.346,12.8 80.551,66.098 82.756,47.879 84.961,22.495 87.165,58.901 89.37,21.953 91.575,61.63 93.78,37.418 95.984,52.398 98.189,62.172 100.394,16.519 102.598,54.154 104.803,50.16 107.008,71.8 109.213,15.749 111.417,19.888 113.622,32.351 115.827,32.898 118.031,66.166 120.236,38.702 122.441,31.081 124.646,72.257 126.85,67.742 129.055,48.942 131.26,65.605 133.465,50.044 135.669,49.595 137.874,21.409 140.079,21.392 142.283,24.297 144.488,42.36 146.693,54.965 148.898,64.873 151.102,34.844 153.307,55.029 155.512,70.193 157.717,26.975 159.921,32.006 162.126,68.575 164.331,50.27 166.535,77.2 168.74,61.016 170.945,74.272 173.15,45.014 175.354,39.72 177.559,63.103 179.764,56.859 181.969,53.411 184.173,31.634 186.378,72.998 188.583,31.65 190.787,59.126 192.992,35.973 195.197,20.965 197.402,49.416 199.606,21.951 201.811,69.007 204.016,13.254 206.22,34.032 208.425,33.247 210.63,73.49 212.835,39.287 215.039,21.917 217.244,40.388 219.449,45.256 221.654,55.032 223.858,39.404 226.063,53.101 228.268,12.8 230.472,55.469 232.677,20.645 234.882,44.444 237.087,34.961 239.291,38.059 241.496,32.884 243.701,21.6 245.906,25.132 248.11,21.548 250.315,56.797 252.52,12.8 254.724,38.667 256.929,33.359 259.134,23.386 261.339,63.709 263.543,16.99 265.748,38.369 267.953,29.339 270.157,21.765 272.362,57.07 274.567,53.283 276.772,12.8 278.976,23.325 281.181,39.267 283.386,52.704 285.591,74.22 287.795,32.891 290,28.562" fill="none" stroke="#1b1f27" stroke-width="2" stroke-linecap="round" stroke-linejoin="round"/>
</svg>
