<svg xmlns="http://www.w3.org/2000/svg" width="300" height="90" viewBox="0 0 300 90" role="img" aria-label="Waveform 115 Trashy Wave 15">
  <rect x="0" y="0" width="300" height="90" fill="#ffffff"/>
  <line x1="10" y1="45" x2="290" y2="45" stroke="#d3d6dd" stroke-width="1"/>
  <polyline points="10,50.236 12.205,59.183 14.409,56.628 16.614,35.982 18.819,51.129 21.024,12.8 23.228,63.667 25.433,57.909 27.638,54.011 29.843,21.33 32.047,12.8 34.252,16.416 36.457,59.373 38.661,35.431 40.866,51.729 43.071,23.679 45.276,77.2 47.48,40.114 49.685,49.404 51.89,60.814 54.094,77.2 56.299,12.8 58.504,74.539 60.709,65.815 62.913,26.866 65.118,19.174 67.323,38.795 69.528,62.992 71.732,18.493 73.937,27.499 76.142,46.503 78.346,34.276 80.551,49.097 82.756,51.511 84.961,32.486 87.165,12.8 89.37,47.88 91.575,77.2 93.78,21.987 95.984,61.409 98.189,72.307 100.394,75.657 102.598,12.8 104.803,53.888 107.008,12.8 109.213,13.073 111.417,47.108 113.622,67.931 115.827,43.692 118.031,12.842 120.236,72.883 122.441,31.528 124.646,64.553 126.85,77.2 129.055,40.095 131.26,36.464 133.465,74.653 135.669,12.8 137.874,56.891 140.079,35.244 142.283,29.539 144.488,22.307 146.693,34.933 148.898,12.8 151.102,39.203 153.307,61.252 155.512,12.8 157.717,50.961 159.921,52.771 162.126,25.583 164.331,53.165 166.535,77.2 168.74,30.235 170.945,56.732 173.15,19.37 175.354,77.2 177.559,55.212 179.764,52.982 181.969,48.298 184.173,45.397 186.378,14.84 188.583,73.211 190.787,72.657 192.992,77.2 195.197,77.2 197.402,22.889 199.606,53.263 201.811,38.426 204.016,59.612 206.22,77.2 208.425,73.473 210.63,74.646 212.835,57.32 215.039,56.376 217.244,49.155 219.449,77.2 221.654,63.056 223.858,67.988 226.063,43.605 228.268,43.162 230.472,12.8 232.677,77.2 234.882,66.246 237.087,60.482 239.291,29.919 241.496,14.919 243.701,23.574 245.906,54.522 248.11,15.022 250.315,33.948 252.52,16.658 254.724,30.238 256.929,12.8 259.134,12.8 261.339,35.555 263.543,72.685 265.748,12.8 267.953,77.2 270.157,77.2 272.362,42.312 274.567,68.783 276.772,77.2 278.976,21.854 281.181,31.156 283.386,64.556 285.591,18.158 287.795,45.279 290,77.2" fill="none" stroke="#1b1f27" stroke-width="2" stroke-linecap="round" stroke-linejoin="round"/>
</svg>
