<svg xmlns="http://www.w3.org/2000/svg" width="300" height="90" viewBox="0 0 300 90" role="img" aria-label="Waveform 117 Soothing 2">
  <rect x="0" y="0" width="300" height="90" fill="#ffffff"/>
  <line x1="10" y1="45" x2="290" y2="45" stroke="#d3d6dd" stroke-width="1"/>
  <polyline points="10,45 12.205,44.14 14.409,43.283 16.614,42.431 18.819,41.586 21.024,40.752 23.228,39.93 25.433,39.122 27.638,38.332 29.843,37.56 32.047,36.809 34.252,36.08 36.457,35.375 38.661,34.695 40.866,34.041 43.071,33.414 45.276,32.815 47.48,32.244 49.685,31.701 51.89,31.187 54.094,30.7 56.299,30.242 58.504,29.81 60.709,29.405 62.913,29.025 65.118,28.67 67.323,28.337 69.528,28.025 71.732,27.733 73.937,27.459 76.142,27.202 78.346,26.959 80.551,26.728 82.756,26.509 84.961,26.298 87.165,26.093 89.37,25.894 91.575,25.698 93.78,25.504 95.984,25.31 98.189,25.114 100.394,24.915 102.598,24.712 104.803,24.504 107.008,24.29 109.213,24.069 111.417,23.841 113.622,23.606 115.827,23.363 118.031,23.113 120.236,22.855 122.441,22.591 124.646,22.321 126.85,22.047 129.055,21.768 131.26,21.487 133.465,21.205 135.669,20.924 137.874,20.645 140.079,20.37 142.283,20.102 144.488,19.841 146.693,19.591 148.898,19.353 151.102,19.131 153.307,18.924 155.512,18.737 157.717,18.571 159.921,18.429 162.126,18.311 164.331,18.22 166.535,18.159 168.74,18.127 170.945,18.128 173.15,18.161 175.354,18.229 177.559,18.332 179.764,18.471 181.969,18.646 184.173,18.858 186.378,19.106 188.583,19.391 190.787,19.712 192.992,20.069 195.197,20.46 197.402,20.884 199.606,21.341 201.811,21.829 204.016,22.346 206.22,22.89 208.425,23.46 210.63,24.054 212.835,24.669 215.039,25.302 217.244,25.952 219.449,26.617 221.654,27.293 223.858,27.979 226.063,28.671 228.268,29.368 230.472,30.067 232.677,30.765 234.882,31.462 237.087,32.153 239.291,32.839 241.496,33.515 243.701,34.182 245.906,34.838 248.11,35.481 250.315,36.11 252.52,36.724 254.724,37.322 256.929,37.905 259.134,38.471 261.339,39.022 263.543,39.555 265.748,40.074 267.953,40.576 270.157,41.065 272.362,41.539 274.567,42.001 276.772,42.452 278.976,42.892 281.181,43.324 283.386,43.749 285.591,44.169 287.795,44.586 290,45" fill="none" stroke="#1b1f27" stroke-width="2" stroke-linecap="round" stroke-linejoin="round"/>
</svg>
