<svg xmlns="http://www.w3.org/2000/svg" width="300" height="90" viewBox="0 0 300 90" role="img" aria-label="Waveform 119 5th Rasp">
  <rect x="0" y="0" width="300" height="90" fill="#ffffff"/>
  <line x1="10" y1="45" x2="290" y2="45" stroke="#d3d6dd" stroke-width="1"/>
  <polyline points="10,43.013 12.205,14.136 14.409,12.8 16.614,51.081 18.819,47.266 21.024,69.855 23.228,19.902 25.433,16.885 27.638,12.8 29.843,24.711 32.047,44.571 34.252,45.226 36.457,14.222 38.661,28.817 40.866,20.778 43.071,12.8 45.276,64.919 47.48,36.4 49.685,33.261 51.89,20.566 54.094,12.8 56.299,27.839 58.504,52.576 60.709,37.826 62.913,44.476 65.118,69.359 67.323,65.611 69.528,52.295 71.732,74.363 73.937,66.139 76.142,34.123 78.346,21.529 80.551,43.541 82.756,23.141 84.961,45.209 87.165,25.707 89.37,69.353 91.575,69.749 93.78,33.509 95.984,74.242 98.189,55.94 100.394,55.081 102.598,23.781 104.803,73.621 107.008,20.154 109.213,77.2 111.417,21.873 113.622,68.462 115.827,23.788 118.031,19.248 120.236,66.799 122.441,46.202 124.646,38.431 126.85,34.385 129.055,67.645 131.26,12.8 133.465,70.614 135.669,65.015 137.874,61.773 140.079,18.316 142.283,51.464 144.488,19.545 146.693,53.23 148.898,36.35 151.102,28.897 153.307,37.162 155.512,55.06 157.717,17.153 159.921,32.631 162.126,52.541 164.331,26.878 166.535,41.621 168.74,64.047 170.945,50.619 173.15,36.014 175.354,12.8 177.559,15.041 179.764,62.059 181.969,22.93 184.173,16.925 186.378,20.598 188.583,40.431 190.787,44.945 192.992,27.117 195.197,77.2 197.402,67.808 199.606,48.219 201.811,68.958 204.016,24.366 206.22,67.079 208.425,25.098 210.63,64.161 212.835,77.2 215.039,53.162 217.244,38.646 219.449,40.995 221.654,71.275 223.858,66.652 226.063,71.155 228.268,25.577 230.472,46.86 232.677,29.342 234.882,42.155 237.087,72.77 239.291,38.39 241.496,32.857 243.701,24.293 245.906,17.321 248.11,65.781 250.315,58.908 252.52,61.394 254.724,25.967 256.929,25.196 259.134,61.549 261.339,12.8 263.543,50.335 265.748,12.8 267.953,12.8 270.157,12.8 272.362,24.417 274.567,14.904 276.772,60.282 278.976,48.948 281.181,47.424 283.386,25.389 285.591,52.117 287.795,14.825 290,24.287" fill="none" stroke="#1b1f27" stroke-width="2" stroke-linecap="round" stroke-linejoin="round"/>
</svg>
