<svg xmlns="http://www.w3.org/2000/svg" width="300" height="90" viewBox="0 0 300 90" role="img" aria-label="Waveform 120 Octave Wave">
  <rect x="0" y="0" width="300" height="90" fill="#ffffff"/>
  <line x1="10" y1="45" x2="290" y2="45" stroke="#d3d6dd" stroke-width="1"/>
  <polyline points="10,40.055 12.205,14.807 14.409,25.561 16.614,31.551 18.819,65.486 21.024,51.387 23.228,23.811 25.433,23.633 27.638,12.8 29.843,41.498 32.047,20.237 34.252,61.825 36.457,12.8 38.661,57.415 40.866,37.319 43.071,35.133 45.276,31.414 47.48,42.11 49.685,67.473 51.89,39.88 54.094,27.372 56.299,46.609 58.504,24.212 60.709,18.727 62.913,16.362 65.118,38.682 67.323,18.15 69.528,50.097 71.732,61.055 73.937,63.153 76.142,12.8 78.346,42.307 80.551,20.497 82.756,44.405 84.961,12.8 87.165,13.967 89.37,34.432 91.575,57.138 93.78,12.8 95.984,55.861 98.189,24.842 100.394,12.8 102.598,12.8 104.803,12.8 107.008,12.8 109.213,30.77 111.417,14.027 113.622,29.936 115.827,12.8 118.031,33.955 120.236,25.839 122.441,48.981 124.646,60.278 126.85,33.465 129.055,53.665 131.26,56.632 133.465,55.384 135.669,77.2 137.874,70.252 140.079,57.63 142.283,73.854 144.488,20.743 146.693,53.233 148.898,19.209 151.102,29.281 153.307,15.476 155.512,34.784 157.717,20.305 159.921,26.645 162.126,56.288 164.331,36.365 166.535,31.936 168.74,25.372 170.945,28.946 173.15,73.507 175.354,39.359 177.559,55.304 179.764,60.339 181.969,36.058 184.173,68.22 186.378,71.113 188.583,47.664 190.787,77.2 192.992,62.244 195.197,41.55 197.402,41.015 199.606,54.919 201.811,54.524 204.016,77.2 206.22,68.308 208.425,38.72 210.63,77.2 212.835,46.766 215.039,77.2 217.244,77.2 219.449,77.2 221.654,25.234 223.858,72.101 226.063,50.756 228.268,77.2 230.472,27.913 232.677,34.983 234.882,27.691 237.087,33.086 239.291,55.993 241.496,53.08 243.701,62.78 245.906,37.434 248.11,73.258 250.315,40.996 252.52,66.902 254.724,31.793 256.929,36.586 259.134,43.595 261.339,61.967 263.543,76.107 265.748,43.481 267.953,77.2 270.157,66.15 272.362,40.41 274.567,77.2 276.772,32.212 278.976,45.79 281.181,32.847 283.386,69.5 285.591,42.122 287.795,21.228 290,42.415" fill="none" stroke="#1b1f27" stroke-width="2" stroke-linecap="round" stroke-linejoin="round"/>
</svg>
