<svg xmlns="http://www.w3.org/2000/svg" width="300" height="90" viewBox="0 0 300 90" role="img" aria-label="Waveform 121 Triangle + Overtones">
  <rect x="0" y="0" width="300" height="90" fill="#ffffff"/>
  <line x1="10" y1="45" x2="290" y2="45" stroke="#d3d6dd" stroke-width="1"/>
  <polyline points="10,71.404 12.205,68.348 14.409,65.346 16.614,62.451 18.819,59.711 21.024,57.167 23.228,54.855 25.433,52.799 27.638,51.015 29.843,49.507 32.047,48.269 34.252,47.286 36.457,46.53 38.661,45.965 40.866,45.55 43.071,45.235 45.276,44.967 47.48,44.693 49.685,44.358 51.89,43.909 54.094,43.301 56.299,42.491 58.504,41.446 60.709,40.142 62.913,38.565 65.118,36.712 67.323,34.59 69.528,32.217 71.732,29.621 73.937,26.838 76.142,23.911 78.346,20.891 80.551,18.661 82.756,18.941 84.961,19.287 87.165,19.753 89.37,20.385 91.575,21.223 93.78,22.299 95.984,23.636 98.189,25.247 100.394,27.135 102.598,29.289 104.803,31.692 107.008,34.314 109.213,37.117 111.417,40.058 113.622,43.087 115.827,46.149 118.031,49.191 120.236,52.158 122.441,55.001 124.646,57.672 126.85,60.132 129.055,62.351 131.26,64.307 133.465,65.987 135.669,67.392 137.874,68.532 140.079,69.427 142.283,70.106 144.488,70.609 146.693,70.981 148.898,71.272 151.102,69.873 153.307,66.837 155.512,63.882 157.717,61.059 159.921,58.412 162.126,55.98 164.331,53.794 166.535,51.872 168.74,50.226 170.945,48.855 173.15,47.747 175.354,46.881 177.559,46.226 179.764,45.742 181.969,45.383 184.173,45.098 186.378,44.834 188.583,44.536 190.787,44.151 192.992,43.628 195.197,42.923 197.402,41.999 199.606,40.827 201.811,39.388 204.016,37.673 206.22,35.684 208.425,33.434 210.63,30.945 212.835,28.25 215.039,25.389 217.244,22.41 219.449,19.362 221.654,18.796 223.858,19.102 226.063,19.502 228.268,20.045 230.472,20.776 232.677,21.729 234.882,22.934 237.087,24.407 239.291,26.157 241.496,28.179 243.701,30.461 245.906,32.978 248.11,35.695 250.315,38.574 252.52,41.565 254.724,44.617 256.929,47.676 259.134,50.687 261.339,53.598 263.543,56.36 265.748,58.931 267.953,61.274 270.157,63.363 272.362,65.182 274.567,66.724 276.772,67.994 278.976,69.008 281.181,69.791 283.386,70.377 285.591,70.809 287.795,71.134 290,71.404" fill="none" stroke="#1b1f27" stroke-width="2" stroke-linecap="round" stroke-linejoin="round"/>
</svg>
