<svg xmlns="http://www.w3.org/2000/svg" width="300" height="90" viewBox="0 0 300 90" role="img" aria-label="Waveform 122 Pulse + Overtones">
  <rect x="0" y="0" width="300" height="90" fill="#ffffff"/>
  <line x1="10" y1="45" x2="290" y2="45" stroke="#d3d6dd" stroke-width="1"/>
  <polyline points="10,20.528 12.205,19.135 14.409,17.797 16.614,16.565 18.819,15.488 21.024,14.608 23.228,13.958 25.433,13.566 27.638,13.445 29.843,13.6 32.047,14.026 34.252,14.706 36.457,15.613 38.661,16.712 40.866,66.903 43.071,68.251 45.276,69.647 47.48,71.036 49.685,72.364 51.89,73.579 54.094,74.634 56.299,75.487 58.504,76.105 60.709,76.465 62.913,76.551 65.118,76.361 67.323,75.903 69.528,75.193 71.732,74.26 73.937,73.14 76.142,71.877 78.346,70.52 80.551,69.122 82.756,67.737 84.961,66.421 87.165,65.224 89.37,64.192 91.575,63.366 93.78,62.779 95.984,62.453 98.189,62.402 100.394,62.626 102.598,63.117 104.803,63.856 107.008,64.815 109.213,65.955 111.417,67.233 113.622,68.598 115.827,69.997 118.031,71.376 120.236,72.68 122.441,73.859 124.646,74.867 126.85,75.664 129.055,76.22 131.26,76.512 133.465,76.529 135.669,76.271 137.874,75.748 140.079,74.979 142.283,73.996 144.488,72.835 146.693,71.544 148.898,70.172 151.102,19.828 153.307,18.456 155.512,17.165 157.717,16.004 159.921,15.021 162.126,14.252 164.331,13.729 166.535,13.471 168.74,13.488 170.945,13.78 173.15,14.336 175.354,15.133 177.559,16.141 179.764,17.32 181.969,67.568 184.173,68.947 186.378,70.346 188.583,71.711 190.787,72.989 192.992,74.129 195.197,75.088 197.402,75.827 199.606,76.318 201.811,76.542 204.016,76.491 206.22,76.165 208.425,75.578 210.63,74.752 212.835,73.72 215.039,72.523 217.244,71.207 219.449,69.822 221.654,68.424 223.858,67.067 226.063,65.804 228.268,64.684 230.472,63.751 232.677,63.041 234.882,62.583 237.087,62.393 239.291,62.479 241.496,62.839 243.701,63.457 245.906,64.31 248.11,65.365 250.315,66.58 252.52,67.908 254.724,69.297 256.929,70.693 259.134,72.041 261.339,73.288 263.543,74.387 265.748,75.294 267.953,75.974 270.157,76.4 272.362,76.555 274.567,76.434 276.772,76.042 278.976,75.392 281.181,74.512 283.386,73.435 285.591,72.203 287.795,70.865 290,20.528" fill="none" stroke="#1b1f27" stroke-width="2" stroke-linecap="round" stroke-linejoin="round"/>
</svg>
