<svg xmlns="http://www.w3.org/2000/svg" width="300" height="90" viewBox="0 0 300 90" role="img" aria-label="Waveform 123 Rising Square">
  <rect x="0" y="0" width="300" height="90" fill="#ffffff"/>
  <line x1="10" y1="45" x2="290" y2="45" stroke="#d3d6dd" stroke-width="1"/>
  <polyline points="10,26.163 12.205,26.074 14.409,25.986 16.614,25.897 18.819,25.808 21.024,25.719 23.228,25.631 25.433,25.542 27.638,25.453 29.843,25.364 32.047,25.276 34.252,25.187 36.457,25.098 38.661,25.009 40.866,24.921 43.071,24.832 45.276,24.743 47.48,24.654 49.685,24.566 51.89,24.477 54.094,24.388 56.299,24.299 58.504,24.211 60.709,24.122 62.913,24.033 65.118,23.944 67.323,23.856 69.528,23.767 71.732,23.678 73.937,23.59 76.142,23.501 78.346,23.412 80.551,23.323 82.756,23.235 84.961,23.146 87.165,23.057 89.37,22.968 91.575,22.88 93.78,22.791 95.984,22.702 98.189,22.613 100.394,22.525 102.598,22.436 104.803,22.347 107.008,22.258 109.213,22.17 111.417,22.081 113.622,21.992 115.827,21.903 118.031,21.815 120.236,21.726 122.441,21.637 124.646,21.549 126.85,21.46 129.055,21.371 131.26,21.282 133.465,21.194 135.669,21.105 137.874,21.016 140.079,20.927 142.283,20.839 144.488,20.75 146.693,20.661 148.898,20.572 151.102,69.428 153.307,69.339 155.512,69.25 157.717,69.161 159.921,69.073 162.126,68.984 164.331,68.895 166.535,68.806 168.74,68.718 170.945,68.629 173.15,68.54 175.354,68.451 177.559,68.363 179.764,68.274 181.969,68.185 184.173,68.097 186.378,68.008 188.583,67.919 190.787,67.83 192.992,67.742 195.197,67.653 197.402,67.564 199.606,67.475 201.811,67.387 204.016,67.298 206.22,67.209 208.425,67.12 210.63,67.032 212.835,66.943 215.039,66.854 217.244,66.765 219.449,66.677 221.654,66.588 223.858,66.499 226.063,66.41 228.268,66.322 230.472,66.233 232.677,66.144 234.882,66.056 237.087,65.967 239.291,65.878 241.496,65.789 243.701,65.701 245.906,65.612 248.11,65.523 250.315,65.434 252.52,65.346 254.724,65.257 256.929,65.168 259.134,65.079 261.339,64.991 263.543,64.902 265.748,64.813 267.953,64.724 270.157,64.636 272.362,64.547 274.567,64.458 276.772,64.369 278.976,64.281 281.181,64.192 283.386,64.103 285.591,64.014 287.795,63.926 290,14.893" fill="none" stroke="#1b1f27" stroke-width="2" stroke-linecap="round" stroke-linejoin="round"/>
</svg>
