<svg xmlns="http://www.w3.org/2000/svg" width="300" height="90" viewBox="0 0 300 90" role="img" aria-label="Waveform 124 Soft Wave 8">
  <rect x="0" y="0" width="300" height="90" fill="#ffffff"/>
  <line x1="10" y1="45" x2="290" y2="45" stroke="#d3d6dd" stroke-width="1"/>
  <polyline points="10,36.381 12.205,22.133 14.409,15.201 16.614,12.8 18.819,27.92 21.024,59.537 23.228,29.557 25.433,42.196 27.638,58.585 29.843,36.923 32.047,45.771 34.252,30.856 36.457,51.486 38.661,19.246 40.866,44.001 43.071,49.77 45.276,12.8 47.48,66.65 49.685,26.647 51.89,16.549 54.094,64.988 56.299,20.817 58.504,12.8 60.709,56.108 62.913,30.056 65.118,63.374 67.323,25.424 69.528,12.8 71.732,32.173 73.937,57.768 76.142,23.937 78.346,12.8 80.551,17.158 82.756,41.989 84.961,52.407 87.165,12.8 89.37,25.93 91.575,38.113 93.78,27.119 95.984,33.179 98.189,12.8 100.394,13.264 102.598,32.06 104.803,29.831 107.008,62.694 109.213,46.084 111.417,18.979 113.622,20.362 115.827,21.495 118.031,26.378 120.236,44.172 122.441,58.83 124.646,14.049 126.85,52.115 129.055,21.019 131.26,18.564 133.465,71.095 135.669,58.052 137.874,61.799 140.079,60.215 142.283,54.298 144.488,69.775 146.693,55.649 148.898,14.718 151.102,50.19 153.307,29.395 155.512,58.72 157.717,31.434 159.921,33.711 162.126,72.786 164.331,59.875 166.535,73.938 168.74,25.164 170.945,39.034 173.15,77.2 175.354,64.341 177.559,73.077 179.764,54.615 181.969,25.817 184.173,23.826 186.378,76.243 188.583,40.257 190.787,71.564 192.992,30.066 195.197,77.2 197.402,74.885 199.606,68.805 201.811,35.6 204.016,77.2 206.22,77.2 208.425,39.76 210.63,51.702 212.835,38.774 215.039,26.899 217.244,50.846 219.449,41.645 221.654,40.972 223.858,47.844 226.063,29.784 228.268,77.2 230.472,73.286 232.677,31.411 234.882,76.629 237.087,74.982 239.291,26.744 241.496,55.198 243.701,48.293 245.906,35.337 248.11,77.2 250.315,48.005 252.52,65.442 254.724,45.402 256.929,32.008 259.134,38.17 261.339,26.702 263.543,57.913 265.748,77.2 267.953,28.137 270.157,40.369 272.362,65.244 274.567,19.129 276.772,75.606 278.976,29.644 281.181,67.736 283.386,23.757 285.591,17.953 287.795,70.265 290,47.384" fill="none" stroke="#1b1f27" stroke-width="2" stroke-linecap="round" stroke-linejoin="round"/>
</svg>
