<svg xmlns="http://www.w3.org/2000/svg" width="300" height="90" viewBox="0 0 300 90" role="img" aria-label="Waveform 125 Cacophonous Buzz 3">
  <rect x="0" y="0" width="300" height="90" fill="#ffffff"/>
  <line x1="10" y1="45" x2="290" y2="45" stroke="#d3d6dd" stroke-width="1"/>
  <polyline points="10,56.183 12.205,32.286 14.409,69.167 16.614,23.883 18.819,26.732 21.024,22.055 23.228,63.793 25.433,62 27.638,20.777 29.843,50.881 32.047,37.229 34.252,20.527 36.457,52.843 38.661,54.025 40.866,26.287 43.071,43.137 45.276,36.675 47.48,44.781 49.685,39.12 51.89,65.83 54.094,37.774 56.299,44.509 58.504,66.603 60.709,53.367 62.913,47.615 65.118,22.583 67.323,33.478 69.528,47.718 71.732,33.544 73.937,24.875 76.142,65.045 78.346,12.8 80.551,17.555 82.756,28.795 84.961,68.503 87.165,20.73 89.37,27.136 91.575,38.305 93.78,65.876 95.984,52.178 98.189,61.762 100.394,39.82 102.598,62.015 104.803,31.902 107.008,17.388 109.213,67.611 111.417,43.622 113.622,77.2 115.827,39.781 118.031,47.549 120.236,27.118 122.441,32.404 124.646,68.72 126.85,22.636 129.055,33.251 131.26,41.529 133.465,62.175 135.669,48.304 137.874,62.68 140.079,18.959 142.283,52.511 144.488,18.555 146.693,45.981 148.898,28.915 151.102,43.253 153.307,41.882 155.512,67.36 157.717,77.2 159.921,58.97 162.126,53.672 164.331,77.2 166.535,63.316 168.74,60.423 170.945,36.493 173.15,20.157 175.354,29.656 177.559,41.711 179.764,75.294 181.969,69.786 184.173,14.926 186.378,52.725 188.583,22.972 190.787,62.031 192.992,57.119 195.197,50.616 197.402,63.93 199.606,34.939 201.811,61.062 204.016,20.723 206.22,62.856 208.425,38.593 210.63,13.178 212.835,71.273 215.039,54.279 217.244,67.77 219.449,73.782 221.654,25.476 223.858,55.767 226.063,16.416 228.268,19.129 230.472,34.038 232.677,27.892 234.882,33.888 237.087,12.8 239.291,13.163 241.496,12.8 243.701,55.727 245.906,12.8 248.11,44.208 250.315,34.77 252.52,12.8 254.724,12.8 256.929,12.8 259.134,12.8 261.339,62.296 263.543,33.224 265.748,20.982 267.953,55.914 270.157,31.578 272.362,17.626 274.567,17.158 276.772,26.69 278.976,32.358 281.181,60.627 283.386,34.113 285.591,45.539 287.795,24.081 290,31.354" fill="none" stroke="#1b1f27" stroke-width="2" stroke-linecap="round" stroke-linejoin="round"/>
</svg>
