<svg xmlns="http://www.w3.org/2000/svg" width="300" height="90" viewBox="0 0 300 90" role="img" aria-label="Waveform 126 Silence">
  <rect x="0" y="0" width="300" height="90" fill="#ffffff"/>
  <line x1="10" y1="45" x2="290" y2="45" stroke="#d3d6dd" stroke-width="1"/>
  <polyline points="10,45 12.205,45 14.409,45 16.614,45 18.819,45 21.024,45 23.228,45 25.433,45 27.638,45 29.843,45 32.047,45 34.252,45 36.457,45 38.661,45 40.866,45 43.071,45 45.276,45 47.48,45 49.685,45 51.89,45 54.094,45 56.299,45 58.504,45 60.709,45 62.913,45 65.118,45 67.323,45 69.528,45 71.732,45 73.937,45 76.142,45 78.346,45 80.551,45 82.756,45 84.961,45 87.165,45 89.37,45 91.575,45 93.78,45 95.984,45 98.189,45 100.394,45 102.598,45 104.803,45 107.008,45 109.213,45 111.417,45 113.622,45 115.827,45 118.031,45 120.236,45 122.441,45 124.646,45 126.85,45 129.055,45 131.26,45 133.465,45 135.669,45 137.874,45 140.079,45 142.283,45 144.488,45 146.693,45 148.898,45 151.102,45 153.307,45 155.512,45 157.717,45 159.921,45 162.126,45 164.331,45 166.535,45 168.74,45 170.945,45 173.15,45 175.354,45 177.559,45 179.764,45 181.969,45 184.173,45 186.378,45 188.583,45 190.787,45 192.992,45 195.197,45 197.402,45 199.606,45 201.811,45 204.016,45 206.22,45 208.425,45 210.63,45 212.835,45 215.039,45 217.244,45 219.449,45 221.654,45 223.858,45 226.063,45 228.268,45 230.472,45 232.677,45 234.882,45 237.087,45 239.291,45 241.496,45 243.701,45 245.906,45 248.11,45 250.315,45 252.52,45 254.724,45 256.929,45 259.134,45 261.339,45 263.543,45 265.748,45 267.953,45 270.157,45 272.362,45 274.567,45 276.772,45 278.976,45 281.181,45 283.386,45 285.591,45 287.795,45 290,45" fill="none" stroke="#1b1f27" stroke-width="2" stroke-linecap="round" stroke-linejoin="round"/>
</svg>
