<svg xmlns="http://www.w3.org/2000/svg" width="300" height="90" viewBox="0 0 300 90" role="img" aria-label="Waveform 127 White Noise">
  <rect x="0" y="0" width="300" height="90" fill="#ffffff"/>
  <line x1="10" y1="45" x2="290" y2="45" stroke="#d3d6dd" stroke-width="1"/>
  <polyline points="10,16.838 12.205,38.733 14.409,52.557 16.614,74.536 18.819,19.888 21.024,39.892 23.228,45.756 25.433,41.123 27.638,65.372 29.843,51.189 32.047,20.143 34.252,45.264 36.457,66.217 38.661,69.127 40.866,43.159 43.071,53.107 45.276,72.064 47.48,57.311 49.685,33.67 51.89,48.487 54.094,39.996 56.299,61.462 58.504,54.713 60.709,30.809 62.913,13.931 65.118,48.987 67.323,55.206 69.528,61.983 71.732,25.596 73.937,38.351 76.142,24.659 78.346,22.889 80.551,35.16 82.756,12.807 84.961,16.309 87.165,18.135 89.37,44.193 91.575,15.725 93.78,61.365 95.984,15.104 98.189,14.815 100.394,57.108 102.598,47.193 104.803,74.34 107.008,66.76 109.213,70.079 111.417,62.061 113.622,63.364 115.827,31.494 118.031,60.719 120.236,19.775 122.441,46.571 124.646,51.626 126.85,15.888 129.055,57.269 131.26,43.159 133.465,57.572 135.669,76.894 137.874,55.763 140.079,46.319 142.283,20.695 144.488,53.502 146.693,17.829 148.898,75.223 151.102,12.923 153.307,49.209 155.512,57.643 157.717,32.206 159.921,65.39 162.126,21.332 164.331,51.312 166.535,25.736 168.74,68.046 170.945,64.674 173.15,43.315 175.354,45.757 177.559,71.432 179.764,51.775 181.969,42.568 184.173,15.417 186.378,39.587 188.583,64.607 190.787,69.85 192.992,15.881 195.197,39.263 197.402,52.49 199.606,21.384 201.811,21.174 204.016,48.564 206.22,50.824 208.425,17.978 210.63,36.994 212.835,54.887 215.039,64.2 217.244,73.565 219.449,66.409 221.654,19.835 223.858,40.523 226.063,70.804 228.268,69.944 230.472,64.522 232.677,34.754 234.882,33.261 237.087,51.057 239.291,57.55 241.496,33.565 243.701,61.642 245.906,18.239 248.11,43.557 250.315,22.818 252.52,66.739 254.724,71.196 256.929,53.206 259.134,49.35 261.339,54.241 263.543,59.031 265.748,52.184 267.953,48.574 270.157,13.906 272.362,14.134 274.567,36.888 276.772,14.257 278.976,70.279 281.181,25.335 283.386,67.068 285.591,33.494 287.795,52.411 290,71.093" fill="none" stroke="#1b1f27" stroke-width="2" stroke-linecap="round" stroke-linejoin="round"/>
</svg>
