<svg xmlns="http://www.w3.org/2000/svg" width="320" height="120" viewBox="0 0 320 120" role="img" aria-label="Waveform 0 Twang">
    <rect x="0" y="0" width="320" height="120" fill="#f6f7f9"/>
    <line x1="12" y1="60" x2="308" y2="60" stroke="#c4c9d4" stroke-width="1"/>
  <polyline points="12,73.201 15.116,52.797 18.232,52.368 21.347,71.642 24.463,50.691 27.579,63.131 30.695,56.227 33.811,45.006 36.926,65.465 40.042,51.824 43.158,51.543 46.274,41.988 49.389,49.421 52.505,65.738 55.621,47.861 58.737,63.622 61.853,50.867 64.968,58.947 68.084,49.346 71.2,48.237 74.316,40.815 77.432,49.071 80.547,48.572 83.663,42.408 86.779,54.061 89.895,38.787 93.011,58.83 96.126,57.742 99.242,45.086 102.358,60.163 105.474,58.236 108.589,53.41 111.705,54.811 114.821,54.837 117.937,64.374 121.053,44.24 124.168,41.185 127.284,66.259 130.4,45.796 133.516,45.077 136.632,58.354 139.747,51.947 142.863,56.176 145.979,66.808 149.095,56.102 152.211,67.498 155.326,65.922 158.442,57.488 161.558,67.453 164.674,75.327 167.789,61.224 170.905,51.327 174.021,59.062 177.137,74.137 180.253,55.838 183.368,64.387 186.484,74.635 189.6,52.582 192.716,61.406 195.832,56.94 198.947,79.531 202.063,74.925 205.179,77.562 208.295,55.151 211.411,73.586 214.526,79.276 217.642,69.435 220.758,77.923 223.874,56.767 226.989,60.024 230.105,79.791 233.221,71.842 236.337,72.25 239.453,64.153 242.568,79.469 245.684,79.111 248.8,83.725 251.916,73.11 255.032,78.094 258.147,78.718 261.263,65.309 264.379,65.017 267.495,54.095 270.611,62.597 273.726,62.768 276.842,70.629 279.958,57.88 283.074,72.918 286.189,61.918 289.305,62.484 292.421,60.587 295.537,50.038 298.653,65.651 301.768,48.949 304.884,53.852 308,70.907" fill="none" stroke="#111827" stroke-width="2" stroke-linecap="round" stroke-linejoin="round"/>
  <text x="12" y="18" font-family="Arial, Helvetica, sans-serif" font-size="12" fill="#111827">0: Twang</text>
</svg>
