<svg xmlns="http://www.w3.org/2000/svg" width="320" height="120" viewBox="0 0 320 120" role="img" aria-label="Waveform 1 Clav">
    <rect x="0" y="0" width="320" height="120" fill="#f6f7f9"/>
    <line x1="12" y1="60" x2="308" y2="60" stroke="#c4c9d4" stroke-width="1"/>
  <polyline points="12,58.062 15.116,72.932 18.232,60.417 21.347,64.461 24.463,65.293 27.579,65.22 30.695,41.439 33.811,57.446 36.926,59.725 40.042,38.88 43.158,56.865 46.274,46.043 49.389,56.247 52.505,48.56 55.621,54.648 58.737,43.873 61.853,37.356 64.968,40.035 68.084,48.06 71.2,37.016 74.316,37.519 77.432,43.12 80.547,45.483 83.663,63.759 86.779,54.435 89.895,53.085 93.011,67.613 96.126,45.275 99.242,43.342 102.358,43.849 105.474,55.312 108.589,54.275 111.705,52.347 114.821,63.948 117.937,64.691 121.053,53.959 124.168,57.608 127.284,58.357 130.4,53.001 133.516,70.002 136.632,77.627 139.747,56.481 142.863,81.104 145.979,75.9 149.095,81.909 152.211,82.694 155.326,67.323 158.442,67.713 161.558,74.617 164.674,80.707 167.789,66.187 170.905,74.603 174.021,73.281 177.137,73.398 180.253,53.993 183.368,59.046 186.484,72.395 189.6,71.429 192.716,56.661 195.832,59.675 198.947,74.867 202.063,74.209 205.179,63.92 208.295,66.4 211.411,63.732 214.526,54.377 217.642,46.025 220.758,45.101 223.874,66.055 226.989,54.222 230.105,40.046 233.221,61.927 236.337,41.066 239.453,61.07 242.568,42.317 245.684,63.8 248.8,44.529 251.916,51.77 255.032,63.633 258.147,53.051 261.263,37.55 264.379,51.084 267.495,50.164 270.611,41.433 273.726,55.71 276.842,57.97 279.958,57.443 283.074,54.566 286.189,55.748 289.305,50.592 292.421,54.65 295.537,58.438 298.653,44.171 301.768,64.006 304.884,65.077 308,72.668" fill="none" stroke="#111827" stroke-width="2" stroke-linecap="round" stroke-linejoin="round"/>
  <text x="12" y="18" font-family="Arial, Helvetica, sans-serif" font-size="12" fill="#111827">1: Clav</text>
</svg>
