<svg xmlns="http://www.w3.org/2000/svg" width="320" height="120" viewBox="0 0 320 120" role="img" aria-label="Waveform 2 Xylophone">
    <rect x="0" y="0" width="320" height="120" fill="#f6f7f9"/>
    <line x1="12" y1="60" x2="308" y2="60" stroke="#c4c9d4" stroke-width="1"/>
  <polyline points="12,71.902 15.116,64.089 18.232,68.474 21.347,57.311 24.463,50.985 27.579,67.444 30.695,55.859 33.811,41.259 36.926,54.499 40.042,55.625 43.158,63.126 46.274,51.3 49.389,35.586 52.505,62.171 55.621,63.578 58.737,55.591 61.853,55.655 64.968,53.266 68.084,50.252 71.2,58.534 74.316,67.201 77.432,70.328 80.547,46.683 83.663,60.452 86.779,59.072 89.895,71.486 93.011,51.249 96.126,65.235 99.242,73.517 102.358,58.82 105.474,53.932 108.589,55.798 111.705,78.514 114.821,71.589 117.937,62.309 121.053,59.657 124.168,68.606 127.284,72.542 130.4,80.778 133.516,55.999 136.632,56.429 139.747,76.98 142.863,62.56 145.979,69.088 149.095,61.52 152.211,50.5 155.326,49.268 158.442,57.606 161.558,60.764 164.674,64.601 167.789,49.426 170.905,47.187 174.021,66.06 177.137,51.763 180.253,61.057 183.368,63.717 186.484,52.571 189.6,45.37 192.716,37.912 195.832,50.579 198.947,60.782 202.063,37.715 205.179,46.288 208.295,47.649 211.411,55.955 214.526,63.729 217.642,60.116 220.758,53.051 223.874,61.406 226.989,66.654 230.105,50.607 233.221,47.307 236.337,65.909 239.453,58.608 242.568,66.046 245.684,53.425 248.8,69.927 251.916,67.398 255.032,58.151 258.147,65.947 261.263,77.543 264.379,75.725 267.495,84.198 270.611,57.218 273.726,84.181 276.842,79.031 279.958,59.563 283.074,65.215 286.189,75.719 289.305,61.685 292.421,68.283 295.537,53.79 298.653,63.782 301.768,58.234 304.884,51.422 308,74.428" fill="none" stroke="#111827" stroke-width="2" stroke-linecap="round" stroke-linejoin="round"/>
  <text x="12" y="18" font-family="Arial, Helvetica, sans-serif" font-size="12" fill="#111827">2: Xylophone</text>
</svg>
