<svg xmlns="http://www.w3.org/2000/svg" width="320" height="120" viewBox="0 0 320 120" role="img" aria-label="Waveform 3 Slippery Slope">
    <rect x="0" y="0" width="320" height="120" fill="#f6f7f9"/>
    <line x1="12" y1="60" x2="308" y2="60" stroke="#c4c9d4" stroke-width="1"/>
  <polyline points="12,58.15 15.116,57.163 18.232,52.629 21.347,53.95 24.463,62.587 27.579,48.037 30.695,48.03 33.811,54.874 36.926,51.603 40.042,47.599 43.158,45.148 46.274,53.522 49.389,45.332 52.505,45.926 55.621,42.901 58.737,38.691 61.853,41.18 64.968,52.115 68.084,42.682 71.2,40.477 74.316,48.676 77.432,47.656 80.547,51.059 83.663,38.519 86.779,41.093 89.895,38.435 93.011,39.21 96.126,50.647 99.242,44.087 102.358,43.192 105.474,47.462 108.589,50.263 111.705,44.518 114.821,47.089 117.937,53.421 121.053,41.009 124.168,50.438 127.284,56.027 130.4,53.678 133.516,50.709 136.632,48.974 139.747,53.719 142.863,58.723 145.979,55.147 149.095,62.257 152.211,51.902 155.326,61.987 158.442,57.434 161.558,59.757 164.674,63.246 167.789,56.68 170.905,68.216 174.021,59.6 177.137,61.745 180.253,68.671 183.368,70.368 186.484,67.856 189.6,77.768 192.716,78.441 195.832,75.114 198.947,78.291 202.063,68.783 205.179,67.549 208.295,67.073 211.411,77.23 214.526,73.809 217.642,73.153 220.758,80.683 223.874,76.614 226.989,71.04 230.105,75.485 233.221,73.825 236.337,71.899 239.453,83.251 242.568,83.938 245.684,71.882 248.8,83.358 251.916,74.602 255.032,72.22 258.147,69.175 261.263,73.455 264.379,79.12 267.495,71.884 270.611,78.477 273.726,67.543 276.842,76.663 279.958,71.217 283.074,62.899 286.189,74.552 289.305,61.953 292.421,67.82 295.537,66.429 298.653,70.325 301.768,70.178 304.884,62.804 308,52.691" fill="none" stroke="#111827" stroke-width="2" stroke-linecap="round" stroke-linejoin="round"/>
  <text x="12" y="18" font-family="Arial, Helvetica, sans-serif" font-size="12" fill="#111827">3: Slippery Slope</text>
</svg>
