<svg xmlns="http://www.w3.org/2000/svg" width="320" height="120" viewBox="0 0 320 120" role="img" aria-label="Waveform 5 Xylophone 2">
    <rect x="0" y="0" width="320" height="120" fill="#f6f7f9"/>
    <line x1="12" y1="60" x2="308" y2="60" stroke="#c4c9d4" stroke-width="1"/>
  <polyline points="12,55.462 15.116,68.24 18.232,67.005 21.347,69.694 24.463,43.23 27.579,52.423 30.695,49.263 33.811,59.252 36.926,47.538 40.042,56.352 43.158,60.711 46.274,44.783 49.389,65.729 52.505,48.313 55.621,62.355 58.737,60.069 61.853,47.916 64.968,56.049 68.084,45.423 71.2,50.091 74.316,50.542 77.432,42.502 80.547,53.064 83.663,49.748 86.779,39.86 89.895,61.509 93.011,50.17 96.126,54.901 99.242,63.023 102.358,59.386 105.474,62.703 108.589,44.222 111.705,54.504 114.821,51.204 117.937,42.758 121.053,37.96 124.168,66.057 127.284,54.45 130.4,49.962 133.516,49.742 136.632,63.035 139.747,69.65 142.863,60.212 145.979,50.411 149.095,66.645 152.211,55.813 155.326,45.604 158.442,55.218 161.558,53.297 164.674,56.176 167.789,73.369 170.905,72.96 174.021,69.674 177.137,73.597 180.253,55.805 183.368,53.217 186.484,56.607 189.6,59.879 192.716,73.659 195.832,55.737 198.947,77.483 202.063,70.802 205.179,73.871 208.295,66.981 211.411,73.648 214.526,68.651 217.642,72.537 220.758,68.885 223.874,60.958 226.989,80.797 230.105,80.346 233.221,80.701 236.337,65.187 239.453,84.546 242.568,76.642 245.684,71.134 248.8,73.12 251.916,65.019 255.032,74.891 258.147,76.202 261.263,79.37 264.379,58.627 267.495,65.41 270.611,70.705 273.726,78.825 276.842,53.462 279.958,67.059 283.074,73.151 286.189,58.318 289.305,52.039 292.421,72.335 295.537,67.613 298.653,70.568 301.768,54.318 304.884,60.565 308,50.73" fill="none" stroke="#111827" stroke-width="2" stroke-linecap="round" stroke-linejoin="round"/>
  <text x="12" y="18" font-family="Arial, Helvetica, sans-serif" font-size="12" fill="#111827">5: Xylophone 2</text>
</svg>
