<svg xmlns="http://www.w3.org/2000/svg" width="320" height="120" viewBox="0 0 320 120" role="img" aria-label="Waveform 7 Chaos 1">
    <rect x="0" y="0" width="320" height="120" fill="#f6f7f9"/>
    <line x1="12" y1="60" x2="308" y2="60" stroke="#c4c9d4" stroke-width="1"/>
  <polyline points="12,48.389 15.116,55.017 18.232,48.251 21.347,54.972 24.463,47.341 27.579,50.115 30.695,51.28 33.811,51.848 36.926,51.411 40.042,48.477 43.158,48.156 46.274,49.566 49.389,65.678 52.505,56.927 55.621,40.884 58.737,46.389 61.853,58.908 64.968,60.102 68.084,40.279 71.2,33.843 74.316,45.992 77.432,46.664 80.547,68.234 83.663,51.045 86.779,38.699 89.895,76.238 93.011,55.179 96.126,74.045 99.242,80.169 102.358,66.764 105.474,85.724 108.589,66.99 111.705,74.186 114.821,72.095 117.937,81.082 121.053,60.686 124.168,59.333 127.284,76.503 130.4,57.49 133.516,52.352 136.632,61.376 139.747,60.552 142.863,62.025 145.979,62.383 149.095,77.642 152.211,81.421 155.326,67.38 158.442,53.348 161.558,54.315 164.674,49.298 167.789,59.915 170.905,54.823 174.021,58.978 177.137,48.079 180.253,75.113 183.368,49.245 186.484,45.564 189.6,38.782 192.716,60.177 195.832,41.55 198.947,36.015 202.063,58.317 205.179,53.435 208.295,65.269 211.411,50.318 214.526,57.92 217.642,69.682 220.758,45.035 223.874,48.848 226.989,51.999 230.105,58.684 233.221,60.718 236.337,60.883 239.453,52.132 242.568,48.806 245.684,67.262 248.8,73.373 251.916,54.685 255.032,75.794 258.147,76.63 261.263,74.609 264.379,75.982 267.495,69.759 270.611,85.891 273.726,69.481 276.842,69.254 279.958,56.718 283.074,82.427 286.189,62.118 289.305,55.884 292.421,57.473 295.537,70.507 298.653,59.436 301.768,60.447 304.884,58.112 308,53.657" fill="none" stroke="#111827" stroke-width="2" stroke-linecap="round" stroke-linejoin="round"/>
  <text x="12" y="18" font-family="Arial, Helvetica, sans-serif" font-size="12" fill="#111827">7: Chaos 1</text>
</svg>
