<svg xmlns="http://www.w3.org/2000/svg" width="320" height="120" viewBox="0 0 320 120" role="img" aria-label="Waveform 8 Chaos 2">
    <rect x="0" y="0" width="320" height="120" fill="#f6f7f9"/>
    <line x1="12" y1="60" x2="308" y2="60" stroke="#c4c9d4" stroke-width="1"/>
  <polyline points="12,76.856 15.116,58.983 18.232,66.103 21.347,59.656 24.463,63.97 27.579,61.027 30.695,68.982 33.811,67.108 36.926,46.082 40.042,38.973 43.158,38.945 46.274,37.684 49.389,71.094 52.505,70.436 55.621,39.238 58.737,62.339 61.853,50.656 64.968,53.786 68.084,57.278 71.2,72.89 74.316,53.602 77.432,84.463 80.547,62.726 83.663,48.243 86.779,90.084 89.895,70.503 93.011,65.324 96.126,68.226 99.242,74.124 102.358,71.077 105.474,70.584 108.589,54.871 111.705,63.883 114.821,65.995 117.937,79.477 121.053,66.61 124.168,79.525 127.284,82.055 130.4,55.962 133.516,41.969 136.632,72.778 139.747,58.657 142.863,59.48 145.979,58.286 149.095,67.939 152.211,32.042 155.326,31.389 158.442,56.541 161.558,37.913 164.674,36.897 167.789,45.917 170.905,46.155 174.021,60.319 177.137,63.712 180.253,53.953 183.368,64.608 186.484,40.018 189.6,59.441 192.716,61.49 195.832,64.316 198.947,49.361 202.063,77.445 205.179,71.811 208.295,76.333 211.411,77.623 214.526,72.604 217.642,72.392 220.758,76.877 223.874,61.535 226.989,84.319 230.105,86.599 233.221,69.927 236.337,55.744 239.453,62.971 242.568,65.369 245.684,46.306 248.8,77.496 251.916,35.787 255.032,74.266 258.147,42.09 261.263,54.583 264.379,49.924 267.495,60.299 270.611,67.385 273.726,46.35 276.842,39.293 279.958,43.002 283.074,44.787 286.189,49.537 289.305,52.872 292.421,43.137 295.537,41.508 298.653,52.614 301.768,62.195 304.884,77.714 308,54.637" fill="none" stroke="#111827" stroke-width="2" stroke-linecap="round" stroke-linejoin="round"/>
  <text x="12" y="18" font-family="Arial, Helvetica, sans-serif" font-size="12" fill="#111827">8: Chaos 2</text>
</svg>
