<svg xmlns="http://www.w3.org/2000/svg" width="320" height="120" viewBox="0 0 320 120" role="img" aria-label="Waveform 9 Chaos 3">
    <rect x="0" y="0" width="320" height="120" fill="#f6f7f9"/>
    <line x1="12" y1="60" x2="308" y2="60" stroke="#c4c9d4" stroke-width="1"/>
  <polyline points="12,55.642 15.116,62.952 18.232,54.99 21.347,56.109 24.463,51.73 27.579,51.445 30.695,37.345 33.811,33.194 36.926,49.73 40.042,51.076 43.158,59.832 46.274,56.095 49.389,57.283 52.505,35.842 55.621,68.175 58.737,50.841 61.853,43.752 64.968,77.485 68.084,74.862 71.2,62.257 74.316,81.195 77.432,71.027 80.547,83.704 83.663,70.917 86.779,87.24 89.895,59.175 93.011,68.882 96.126,75.626 99.242,80.549 102.358,66.61 105.474,67.053 108.589,62.614 111.705,65.449 114.821,51.691 117.937,49.947 121.053,66.639 124.168,45.81 127.284,35.678 130.4,54.434 133.516,54.748 136.632,60.271 139.747,35.532 142.863,38.369 145.979,58.88 149.095,73.563 152.211,49.735 155.326,64.149 158.442,51.043 161.558,42.483 164.674,45.558 167.789,81.421 170.905,77.517 174.021,58.447 177.137,73.658 180.253,73.727 183.368,59.363 186.484,67.804 189.6,71.82 192.716,87.218 195.832,48.885 198.947,48.897 202.063,78.369 205.179,59.653 208.295,61.568 211.411,76.135 214.526,47.966 217.642,63.325 220.758,46.709 223.874,41.571 226.989,64.613 230.105,64.749 233.221,44.948 236.337,57.661 239.453,35.901 242.568,49.347 245.684,48.233 248.8,52.638 251.916,72.797 255.032,35.466 258.147,54.887 261.263,58.452 264.379,81.702 267.495,54.94 270.611,64.619 273.726,62.04 276.842,78.452 279.958,77.918 283.074,67.282 286.189,74.363 289.305,84.178 292.421,67.332 295.537,58.527 298.653,65.448 301.768,56.671 304.884,54.448 308,76.317" fill="none" stroke="#111827" stroke-width="2" stroke-linecap="round" stroke-linejoin="round"/>
  <text x="12" y="18" font-family="Arial, Helvetica, sans-serif" font-size="12" fill="#111827">9: Chaos 3</text>
</svg>
