<svg xmlns="http://www.w3.org/2000/svg" width="320" height="120" viewBox="0 0 320 120" role="img" aria-label="Waveform 10 Chaos 4">
    <rect x="0" y="0" width="320" height="120" fill="#f6f7f9"/>
    <line x1="12" y1="60" x2="308" y2="60" stroke="#c4c9d4" stroke-width="1"/>
  <polyline points="12,63.408 15.116,60.333 18.232,76.131 21.347,36.503 24.463,65.884 27.579,39.938 30.695,61.943 33.811,55.219 36.926,50.539 40.042,46.585 43.158,54.025 46.274,66.256 49.389,61.585 52.505,45.454 55.621,59.61 58.737,48.429 61.853,51.198 64.968,54.759 68.084,51.805 71.2,50.314 74.316,64.528 77.432,62.057 80.547,30.183 83.663,40.161 86.779,60.987 89.895,46.831 93.011,44.733 96.126,45.704 99.242,52.879 102.358,31.576 105.474,57.356 108.589,59.642 111.705,47.5 114.821,50.221 117.937,48.658 121.053,55.994 124.168,44.706 127.284,52.102 130.4,37.529 133.516,60.167 136.632,60.107 139.747,72.736 142.863,54.565 145.979,73.228 149.095,52.416 152.211,45.398 155.326,71.222 158.442,65.918 161.558,55.729 164.674,39.14 167.789,49.617 170.905,68.642 174.021,64.854 177.137,62.564 180.253,64.721 183.368,64.034 186.484,78.843 189.6,78.876 192.716,74.253 195.832,57.246 198.947,68.96 202.063,84.467 205.179,66.449 208.295,62.948 211.411,75.337 214.526,57.842 217.642,55.774 220.758,58.846 223.874,58.295 226.989,54.311 230.105,81.944 233.221,66.886 236.337,67.764 239.453,64.201 242.568,85.259 245.684,77.127 248.8,78.771 251.916,76.661 255.032,57.071 258.147,72.462 261.263,90.202 264.379,57.091 267.495,66.705 270.611,66.184 273.726,57.633 276.842,65.718 279.958,59.118 283.074,64.271 286.189,65.695 289.305,62.619 292.421,61.663 295.537,65.417 298.653,63.789 301.768,61.851 304.884,75.762 308,77.297" fill="none" stroke="#111827" stroke-width="2" stroke-linecap="round" stroke-linejoin="round"/>
  <text x="12" y="18" font-family="Arial, Helvetica, sans-serif" font-size="12" fill="#111827">10: Chaos 4</text>
</svg>
