<svg xmlns="http://www.w3.org/2000/svg" width="320" height="120" viewBox="0 0 320 120" role="img" aria-label="Waveform 12 Hollow">
    <rect x="0" y="0" width="320" height="120" fill="#f6f7f9"/>
    <line x1="12" y1="60" x2="308" y2="60" stroke="#c4c9d4" stroke-width="1"/>
  <polyline points="12,65.403 15.116,65.997 18.232,68.767 21.347,53.415 24.463,65.044 27.579,46.028 30.695,41.932 33.811,40.771 36.926,47.625 40.042,64.68 43.158,52.482 46.274,56.889 49.389,39.223 52.505,56.301 55.621,63.587 58.737,48.485 61.853,49.755 64.968,47.471 68.084,42.407 71.2,62.242 74.316,57.675 77.432,57.189 80.547,55.665 83.663,46.151 86.779,59.65 89.895,58.972 93.011,62.909 96.126,59.552 99.242,51.431 102.358,57.267 105.474,62.864 108.589,66.403 111.705,77.899 114.821,64.323 117.937,77.037 121.053,76.078 124.168,60.39 127.284,77.904 130.4,60.129 133.516,65.33 136.632,65.791 139.747,54.427 142.863,70.631 145.979,65.273 149.095,53.627 152.211,56.111 155.326,66.592 158.442,53.066 161.558,61.433 164.674,55.278 167.789,44.737 170.905,61.474 174.021,58.306 177.137,50.683 180.253,60.99 183.368,41.376 186.484,45.496 189.6,59.963 192.716,62.419 195.832,48.173 198.947,56.687 202.063,58.45 205.179,38.907 208.295,42.33 211.411,56.079 214.526,42.48 217.642,66.32 220.758,63.953 223.874,69.788 226.989,50.242 230.105,51.716 233.221,65.025 236.337,51.782 239.453,70.412 242.568,60.392 245.684,66.452 248.8,77.697 251.916,80.195 255.032,80.723 258.147,60.915 261.263,76.685 264.379,62.946 267.495,77.848 270.611,73.434 273.726,58.336 276.842,73.676 279.958,77.922 283.074,65.679 286.189,68.52 289.305,69.773 292.421,62.799 295.537,59.96 298.653,73.617 301.768,68.971 304.884,64.848 308,63.054" fill="none" stroke="#111827" stroke-width="2" stroke-linecap="round" stroke-linejoin="round"/>
  <text x="12" y="18" font-family="Arial, Helvetica, sans-serif" font-size="12" fill="#111827">12: Hollow</text>
</svg>
