<svg xmlns="http://www.w3.org/2000/svg" width="320" height="120" viewBox="0 0 320 120" role="img" aria-label="Waveform 13 BP Square">
    <rect x="0" y="0" width="320" height="120" fill="#f6f7f9"/>
    <line x1="12" y1="60" x2="308" y2="60" stroke="#c4c9d4" stroke-width="1"/>
  <polyline points="12,27.708 15.116,25.543 18.232,23.529 21.347,21.805 24.463,20.492 27.579,19.681 30.695,19.429 33.811,19.753 36.926,20.63 40.042,22 43.158,23.767 46.274,25.808 49.389,27.982 52.505,30.136 55.621,32.122 58.737,33.8 61.853,35.054 64.968,35.797 68.084,35.978 71.2,35.583 74.316,34.64 77.432,33.214 80.547,31.406 83.663,29.34 86.779,27.161 89.895,25.019 93.011,23.065 96.126,21.434 99.242,20.24 102.358,19.565 105.474,19.456 108.589,19.922 111.705,20.93 114.821,22.409 117.937,24.257 121.053,26.345 124.168,28.528 127.284,30.654 130.4,32.575 133.516,34.157 136.632,35.291 139.747,35.896 142.863,35.933 145.979,35.396 149.095,34.325 152.211,32.794 155.326,30.908 158.442,28.8 161.558,91.2 164.674,89.092 167.789,87.206 170.905,85.675 174.021,84.604 177.137,84.067 180.253,84.104 183.368,84.709 186.484,85.843 189.6,87.425 192.716,89.346 195.832,91.472 198.947,93.655 202.063,95.743 205.179,97.591 208.295,99.07 211.411,100.078 214.526,100.544 217.642,100.435 220.758,99.76 223.874,98.566 226.989,96.935 230.105,94.981 233.221,92.839 236.337,90.66 239.453,88.594 242.568,86.786 245.684,85.36 248.8,84.417 251.916,84.022 255.032,84.203 258.147,84.946 261.263,86.2 264.379,87.878 267.495,89.864 270.611,92.018 273.726,94.192 276.842,96.233 279.958,98 283.074,99.37 286.189,100.247 289.305,100.571 292.421,100.319 295.537,99.508 298.653,98.195 301.768,96.471 304.884,94.457 308,27.708" fill="none" stroke="#111827" stroke-width="2" stroke-linecap="round" stroke-linejoin="round"/>
  <text x="12" y="18" font-family="Arial, Helvetica, sans-serif" font-size="12" fill="#111827">13: BP Square</text>
</svg>
