<svg xmlns="http://www.w3.org/2000/svg" width="320" height="120" viewBox="0 0 320 120" role="img" aria-label="Waveform 14 Ski Slope 1">
    <rect x="0" y="0" width="320" height="120" fill="#f6f7f9"/>
    <line x1="12" y1="60" x2="308" y2="60" stroke="#c4c9d4" stroke-width="1"/>
  <polyline points="12,62.345 15.116,53.394 18.232,57.782 21.347,64.75 24.463,63.144 27.579,54.448 30.695,49.212 33.811,46.287 36.926,45.627 40.042,46.668 43.158,43.425 46.274,43.787 49.389,52.586 52.505,50.517 55.621,47.874 58.737,40.848 61.853,47.407 64.968,38.536 68.084,37.751 71.2,36.184 74.316,41.032 77.432,36.086 80.547,36.833 83.663,41.122 86.779,39.801 89.895,37.193 93.011,48.196 96.126,37.139 99.242,43.452 102.358,45.528 105.474,46.453 108.589,51.961 111.705,54.067 114.821,42.522 117.937,39.494 121.053,49.674 124.168,48.585 127.284,47.805 130.4,55.603 133.516,46.638 136.632,58.17 139.747,52.791 142.863,53.861 145.979,51.093 149.095,49.016 152.211,57.085 155.326,66.252 158.442,54.581 161.558,58.521 164.674,55.73 167.789,68.636 170.905,68.916 174.021,59.694 177.137,57.754 180.253,65.318 183.368,69.574 186.484,61.753 189.6,63.758 192.716,73.973 195.832,76.913 198.947,75.716 202.063,66.913 205.179,76.157 208.295,75.321 211.411,77.307 214.526,70.389 217.642,70.429 220.758,75.944 223.874,78.571 226.989,83.908 230.105,79.494 233.221,71.714 236.337,72.955 239.453,82.391 242.568,70.448 245.684,81.726 248.8,76.65 251.916,80.99 255.032,71.504 258.147,79.26 261.263,67.947 264.379,74.399 267.495,76.172 270.611,68.798 273.726,74.482 276.842,74.953 279.958,72.821 283.074,76.439 286.189,73.339 289.305,65.381 292.421,66.029 295.537,62.027 298.653,66.572 301.768,70.303 304.884,61.307 308,63.757" fill="none" stroke="#111827" stroke-width="2" stroke-linecap="round" stroke-linejoin="round"/>
  <text x="12" y="18" font-family="Arial, Helvetica, sans-serif" font-size="12" fill="#111827">14: Ski Slope 1</text>
</svg>
