<svg xmlns="http://www.w3.org/2000/svg" width="320" height="120" viewBox="0 0 320 120" role="img" aria-label="Waveform 15 Rasp">
    <rect x="0" y="0" width="320" height="120" fill="#f6f7f9"/>
    <line x1="12" y1="60" x2="308" y2="60" stroke="#c4c9d4" stroke-width="1"/>
  <polyline points="12,48.963 15.116,70.148 18.232,67.298 21.347,65.798 24.463,57.29 27.579,59.988 30.695,64.316 33.811,58.764 36.926,40.665 40.042,65.408 43.158,50.067 46.274,50.372 49.389,40.386 52.505,42.443 55.621,62.363 58.737,52.962 61.853,42.016 64.968,50.254 68.084,37.578 71.2,53.799 74.316,41.016 77.432,58.343 80.547,62.046 83.663,35.447 86.779,40.438 89.895,48.995 93.011,61.83 96.126,49.218 99.242,40.936 102.358,57.833 105.474,42.655 108.589,54.827 111.705,53.888 114.821,43.939 117.937,57.486 121.053,54.381 124.168,57.842 127.284,59.812 130.4,58.293 133.516,59.073 136.632,43.417 139.747,47.097 142.863,68.284 145.979,46.596 149.095,58.752 152.211,61.424 155.326,62.927 158.442,50.678 161.558,53.965 164.674,46.853 167.789,68.681 170.905,58.267 174.021,61.92 177.137,72.517 180.253,55.738 183.368,59.857 186.484,78.512 189.6,74.473 192.716,69.185 195.832,53.331 198.947,73.387 202.063,62.558 205.179,66.489 208.295,61.661 211.411,73.771 214.526,76.382 217.642,78.742 220.758,79.787 223.874,69.34 226.989,64.385 230.105,81.455 233.221,69.44 236.337,80.04 239.453,67.37 242.568,70.989 245.684,84.162 248.8,80.89 251.916,77.816 255.032,68.483 258.147,71.169 261.263,78.512 264.379,74.827 267.495,59.059 270.611,57.941 273.726,52.981 276.842,77.087 279.958,56.438 283.074,73.615 286.189,51.119 289.305,60.127 292.421,66.851 295.537,73.784 298.653,51.424 301.768,65.055 304.884,73.991 308,68.336" fill="none" stroke="#111827" stroke-width="2" stroke-linecap="round" stroke-linejoin="round"/>
  <text x="12" y="18" font-family="Arial, Helvetica, sans-serif" font-size="12" fill="#111827">15: Rasp</text>
</svg>
