<svg xmlns="http://www.w3.org/2000/svg" width="320" height="120" viewBox="0 0 320 120" role="img" aria-label="Waveform 16 Peal">
    <rect x="0" y="0" width="320" height="120" fill="#f6f7f9"/>
    <line x1="12" y1="60" x2="308" y2="60" stroke="#c4c9d4" stroke-width="1"/>
  <polyline points="12,62.803 15.116,61.303 18.232,46.367 21.347,58.618 24.463,42.912 27.579,62.077 30.695,49.529 33.811,42.224 36.926,63.905 40.042,52.464 43.158,55.389 46.274,54.427 49.389,47.212 52.505,54.245 55.621,40.17 58.737,62.194 61.853,57.486 64.968,60.321 68.084,36.292 71.2,42.578 74.316,37.72 77.432,52.393 80.547,58.956 83.663,56.798 86.779,40.812 89.895,63.293 93.011,41.633 96.126,65.731 99.242,68.173 102.358,70.499 105.474,68.711 108.589,55.692 111.705,51.424 114.821,53.05 117.937,57.803 121.053,64.1 124.168,74.264 127.284,51.91 130.4,65.497 133.516,55.018 136.632,62.69 139.747,80.611 142.863,64.232 145.979,55.687 149.095,55.58 152.211,76.619 155.326,64.329 158.442,60.903 161.558,61.129 164.674,81.213 167.789,73.643 170.905,81.544 174.021,76.139 177.137,71.777 180.253,53.894 183.368,54.516 186.484,76.273 189.6,64.34 192.716,64.441 195.832,56.065 198.947,68.724 202.063,61.843 205.179,52.848 208.295,72.911 211.411,63.917 214.526,51.483 217.642,55.331 220.758,46.965 223.874,49.648 226.989,58.583 230.105,41.711 233.221,59.524 236.337,48.856 239.453,64.287 242.568,62.816 245.684,39.871 248.8,41.694 251.916,56.475 255.032,54.022 258.147,45.502 261.263,50.753 264.379,60.894 267.495,55.128 270.611,36.777 273.726,45.923 276.842,64.428 279.958,56.001 283.074,55.262 286.189,44.949 289.305,48.234 292.421,60.914 295.537,53.204 298.653,58.924 301.768,51.132 304.884,56.237 308,70.097" fill="none" stroke="#111827" stroke-width="2" stroke-linecap="round" stroke-linejoin="round"/>
  <text x="12" y="18" font-family="Arial, Helvetica, sans-serif" font-size="12" fill="#111827">16: Peal</text>
</svg>
