<svg xmlns="http://www.w3.org/2000/svg" width="320" height="120" viewBox="0 0 320 120" role="img" aria-label="Waveform 17 Fuzz">
    <rect x="0" y="0" width="320" height="120" fill="#f6f7f9"/>
    <line x1="12" y1="60" x2="308" y2="60" stroke="#c4c9d4" stroke-width="1"/>
  <polyline points="12,47.663 15.116,52.46 18.232,54.424 21.347,51.467 24.463,57.584 27.579,64.3 30.695,63.948 33.811,55.017 36.926,58.679 40.042,40.228 43.158,61.649 46.274,59.684 49.389,55.531 52.505,38.876 55.621,49.101 58.737,44.932 61.853,46.805 64.968,44.573 68.084,38.485 71.2,64.096 74.316,67.402 77.432,50.62 80.547,60.157 83.663,53.491 86.779,74.429 89.895,52.714 93.011,54.249 96.126,56.711 99.242,69.367 102.358,56.49 105.474,67.33 108.589,57.215 111.705,77.591 114.821,60.691 117.937,84.401 121.053,69.798 124.168,56.283 127.284,66.095 130.4,64.294 133.516,69.995 136.632,70.472 139.747,72.13 142.863,74.667 145.979,77.855 149.095,64.171 152.211,73.406 155.326,75.254 158.442,50.796 161.558,47.277 164.674,65.107 167.789,56.883 170.905,54.128 174.021,39.939 177.137,50.143 180.253,60.957 183.368,59.186 186.484,56.449 189.6,38.28 192.716,45.692 195.832,46.97 198.947,54.639 202.063,54.328 205.179,64.196 208.295,54.16 211.411,56.141 214.526,60.835 217.642,40.443 220.758,54.914 223.874,44.999 226.989,71.016 230.105,52.271 233.221,73.884 236.337,73.698 239.453,61.824 242.568,57.565 245.684,58.476 248.8,67.092 251.916,72.104 255.032,77.519 258.147,58.398 261.263,61.766 264.379,56.556 267.495,60.182 270.611,81.542 273.726,74.394 276.842,56.508 279.958,58.121 283.074,65.912 286.189,64.921 289.305,59.327 292.421,74.547 295.537,77.536 298.653,49.555 301.768,74.34 304.884,71.561 308,71.857" fill="none" stroke="#111827" stroke-width="2" stroke-linecap="round" stroke-linejoin="round"/>
  <text x="12" y="18" font-family="Arial, Helvetica, sans-serif" font-size="12" fill="#111827">17: Fuzz</text>
</svg>
