<svg xmlns="http://www.w3.org/2000/svg" width="320" height="120" viewBox="0 0 320 120" role="img" aria-label="Waveform 18 Floss">
    <rect x="0" y="0" width="320" height="120" fill="#f6f7f9"/>
    <line x1="12" y1="60" x2="308" y2="60" stroke="#c4c9d4" stroke-width="1"/>
  <polyline points="12,61.504 15.116,72.598 18.232,62.493 21.347,44.356 24.463,43.367 27.579,66.697 30.695,49.678 33.811,39.272 36.926,54.08 40.042,57.818 43.158,40.018 46.274,37.306 49.389,36.479 52.505,54.35 55.621,60.125 58.737,58.934 61.853,67.524 64.968,60.286 68.084,72.112 71.2,58.959 74.316,70.181 77.432,50.553 80.547,62.559 83.663,79.729 86.779,78.861 89.895,70.016 93.011,64.756 96.126,73.455 99.242,66.16 102.358,65.822 105.474,59.05 108.589,79.567 111.705,65.419 114.821,57.847 117.937,70.527 121.053,63.154 124.168,54.28 127.284,66.849 130.4,49.488 133.516,71.481 136.632,65.179 139.747,51.31 142.863,44.846 145.979,61.158 149.095,64.584 152.211,64.026 155.326,53.32 158.442,39.344 161.558,63.795 164.674,53.284 167.789,47.398 170.905,37.024 174.021,46.046 177.137,44.765 180.253,58.071 183.368,56.46 186.484,60.475 189.6,66.971 192.716,54.229 195.832,66.223 198.947,69.47 202.063,75.768 205.179,75.009 208.295,62.781 211.411,74.104 214.526,64.766 217.642,75.389 220.758,80.53 223.874,83.368 226.989,64.5 230.105,68.546 233.221,60.429 236.337,66.026 239.453,51.066 242.568,68.27 245.684,59.454 248.8,70.479 251.916,61.647 255.032,42.273 258.147,67.306 261.263,66.131 264.379,43.515 267.495,55.137 270.611,57.541 273.726,63.087 276.842,38.523 279.958,51.624 283.074,41.109 286.189,52.247 289.305,41.194 292.421,62.924 295.537,52.081 298.653,53.204 301.768,57.755 304.884,52.447 308,73.618" fill="none" stroke="#111827" stroke-width="2" stroke-linecap="round" stroke-linejoin="round"/>
  <text x="12" y="18" font-family="Arial, Helvetica, sans-serif" font-size="12" fill="#111827">18: Floss</text>
</svg>
