<svg xmlns="http://www.w3.org/2000/svg" width="320" height="120" viewBox="0 0 320 120" role="img" aria-label="Waveform 19 Excite">
    <rect x="0" y="0" width="320" height="120" fill="#f6f7f9"/>
    <line x1="12" y1="60" x2="308" y2="60" stroke="#c4c9d4" stroke-width="1"/>
  <polyline points="12,46.364 15.116,63.759 18.232,41.596 21.347,66.273 24.463,58.241 27.579,40.322 30.695,64.727 33.811,53.012 36.926,50.18 40.042,47.334 43.158,48.484 46.274,45.221 49.389,47.88 52.505,42.421 55.621,43.772 58.737,45.489 61.853,60.61 64.968,48.054 68.084,77.344 71.2,53.821 74.316,72.241 77.432,77.91 80.547,62.468 83.663,73.484 86.779,78.743 89.895,81.725 93.011,68.678 96.126,82.717 99.242,54.724 102.358,66.372 105.474,70.659 108.589,63.821 111.705,73.397 114.821,46.799 117.937,49.428 121.053,50.615 124.168,48.052 127.284,65.356 130.4,63.662 133.516,46.449 136.632,35.977 139.747,38.241 142.863,54.42 145.979,57.432 149.095,51.346 152.211,43.057 155.326,50.459 158.442,48.179 161.558,72.304 164.674,62.522 167.789,58.436 170.905,68.231 174.021,69.641 177.137,83.381 180.253,67.138 183.368,62.105 186.484,68.854 189.6,66.682 192.716,58.2 195.832,76.26 198.947,70.491 202.063,79.005 205.179,63.566 208.295,74.554 211.411,63.273 214.526,66.636 217.642,48.879 220.758,44.137 223.874,60.105 226.989,55.637 230.105,55.755 233.221,50.045 236.337,36.428 239.453,52.079 242.568,38.109 245.684,54.337 248.8,44.886 251.916,57.419 255.032,48.414 258.147,65.59 261.263,65.411 264.379,59.33 267.495,54.193 270.611,69.979 273.726,61.621 276.842,60.678 279.958,56.498 283.074,84.721 286.189,76.981 289.305,57.38 292.421,81.553 295.537,80.924 298.653,76.509 301.768,54.597 304.884,69.126 308,46.399" fill="none" stroke="#111827" stroke-width="2" stroke-linecap="round" stroke-linejoin="round"/>
  <text x="12" y="18" font-family="Arial, Helvetica, sans-serif" font-size="12" fill="#111827">19: Excite</text>
</svg>
