<svg xmlns="http://www.w3.org/2000/svg" width="320" height="120" viewBox="0 0 320 120" role="img" aria-label="Waveform 20 Awaken">
    <rect x="0" y="0" width="320" height="120" fill="#f6f7f9"/>
    <line x1="12" y1="60" x2="308" y2="60" stroke="#c4c9d4" stroke-width="1"/>
  <polyline points="12,60.204 15.116,56.611 18.232,52.955 21.347,63.851 24.463,49.829 27.579,49.28 30.695,57.353 33.811,44.03 36.926,51.719 40.042,40.956 43.158,59.234 46.274,53.166 49.389,56.694 52.505,53.998 55.621,47.877 58.737,49.409 61.853,39.066 64.968,47.356 68.084,62.636 71.2,55.653 74.316,50.743 77.432,51.774 80.547,37.557 83.663,42.787 86.779,55.217 89.895,42.738 93.011,53.17 96.126,46.377 99.242,58.873 102.358,57.056 105.474,47.121 108.589,45.639 111.705,53.58 114.821,40.306 117.937,64.85 121.053,48.101 124.168,53.734 127.284,48.002 130.4,62.459 133.516,63.738 136.632,48.098 139.747,64.8 142.863,43.34 145.979,59.178 149.095,69.296 152.211,49.739 155.326,71.589 158.442,48.408 161.558,68.79 164.674,56.681 167.789,51.846 170.905,50.921 174.021,72.533 177.137,71.977 180.253,55.705 183.368,77.667 186.484,60.485 189.6,52.789 192.716,52.459 195.832,81.108 198.947,71.339 202.063,58.436 205.179,62.799 208.295,73.491 211.411,73.833 214.526,65.758 217.642,81.844 220.758,70.748 223.874,73.531 226.989,56.179 230.105,82.01 233.221,78.299 236.337,72.976 239.453,58.782 242.568,68.162 245.684,76.186 248.8,70.284 251.916,69.725 255.032,65.279 258.147,68.653 261.263,63.593 264.379,68.437 267.495,70.374 270.611,66.049 273.726,69.039 276.842,59.92 279.958,65.618 283.074,73.847 286.189,76.5 289.305,49.681 292.421,49.619 295.537,62.379 298.653,56.341 301.768,70.424 304.884,51.724 308,48.159" fill="none" stroke="#111827" stroke-width="2" stroke-linecap="round" stroke-linejoin="round"/>
  <text x="12" y="18" font-family="Arial, Helvetica, sans-serif" font-size="12" fill="#111827">20: Awaken</text>
</svg>
