<svg xmlns="http://www.w3.org/2000/svg" width="320" height="120" viewBox="0 0 320 120" role="img" aria-label="Waveform 21 Energize">
    <rect x="0" y="0" width="320" height="120" fill="#f6f7f9"/>
    <line x1="12" y1="60" x2="308" y2="60" stroke="#c4c9d4" stroke-width="1"/>
  <polyline points="12,74.044 15.116,47.767 18.232,61.003 21.347,56.67 24.463,64.431 27.579,51.369 30.695,42.565 33.811,56.47 36.926,45.979 40.042,56.992 43.158,64.556 46.274,57.221 49.389,63.52 52.505,36.82 55.621,54.664 58.737,58.641 61.853,54.536 64.968,57.423 68.084,61.35 71.2,44.432 74.316,47.447 77.432,45.823 80.547,63.447 83.663,64.138 86.779,55.591 89.895,57.036 93.011,61.953 96.126,62.89 99.242,57.129 102.358,69.723 105.474,44.197 108.589,46.504 111.705,51.116 114.821,49.417 117.937,65.167 121.053,57.821 124.168,70.157 127.284,69.081 130.4,69.663 133.516,59.683 136.632,67.371 139.747,69.334 142.863,68.268 145.979,68.27 149.095,66.123 152.211,64.935 155.326,72.991 158.442,58.634 161.558,75.953 164.674,62.062 167.789,56.809 170.905,74.197 174.021,57.772 177.137,71.237 180.253,53.86 183.368,72.326 186.484,58.245 189.6,71.637 192.716,76.694 195.832,54.862 198.947,66.676 202.063,57.72 205.179,49.157 208.295,55.761 211.411,63.979 214.526,69.839 217.642,58.434 220.758,66.906 223.874,53.839 226.989,50.377 230.105,42.265 233.221,39.403 236.337,41.792 239.453,55.699 242.568,59.989 245.684,60.875 248.8,60.069 251.916,48.384 255.032,50.818 258.147,42.985 261.263,35.833 264.379,54.505 267.495,37.463 270.611,44.885 273.726,61.981 276.842,47.261 279.958,65.181 283.074,55.495 286.189,41.35 289.305,66.768 292.421,43.682 295.537,41.799 298.653,63.842 301.768,56.501 304.884,62.95 308,49.92" fill="none" stroke="#111827" stroke-width="2" stroke-linecap="round" stroke-linejoin="round"/>
  <text x="12" y="18" font-family="Arial, Helvetica, sans-serif" font-size="12" fill="#111827">21: Energize</text>
</svg>
