<svg xmlns="http://www.w3.org/2000/svg" width="320" height="120" viewBox="0 0 320 120" role="img" aria-label="Waveform 22 BP Twang">
    <rect x="0" y="0" width="320" height="120" fill="#f6f7f9"/>
    <line x1="12" y1="60" x2="308" y2="60" stroke="#c4c9d4" stroke-width="1"/>
  <polyline points="12,58.904 15.116,65.739 18.232,64.881 21.347,43.616 24.463,42.907 27.579,45.566 30.695,48.706 33.811,32.328 36.926,33.675 40.042,39.049 43.158,37.896 46.274,60.578 49.389,43.133 52.505,52.859 55.621,68.008 58.737,47.47 61.853,51.201 64.968,49.764 68.084,71.812 71.2,73.825 74.316,55.081 77.432,49.557 80.547,68.346 83.663,62.463 86.779,59.68 89.895,72.749 93.011,69.926 96.126,47.596 99.242,50.856 102.358,47.57 105.474,63.545 108.589,69.222 111.705,70.505 114.821,51.759 117.937,59.334 121.053,62.156 124.168,81.975 127.284,86.212 130.4,73.327 133.516,81.11 136.632,82.735 139.747,69.042 142.863,86.928 145.979,69.146 149.095,81.331 152.211,66.807 155.326,58.136 158.442,49.618 161.558,61.009 164.674,42.755 167.789,63.943 170.905,40.164 174.021,42.863 177.137,41.379 180.253,52.735 183.368,40.433 186.484,31.972 189.6,40.71 192.716,54.999 195.832,44.947 198.947,53.954 202.063,53.657 205.179,65.804 208.295,43.788 211.411,63.988 214.526,58.462 217.642,51.688 220.758,53.344 223.874,55.464 226.989,67.452 230.105,55.514 233.221,54.311 236.337,65.003 239.453,49.539 242.568,49.232 245.684,43.568 248.8,48.612 251.916,55.743 255.032,66.226 258.147,48.536 261.263,69.735 264.379,74.732 267.495,69.069 270.611,60.396 273.726,63.371 276.842,72.262 279.958,73.008 283.074,73.222 286.189,69.276 289.305,86.14 292.421,65.341 295.537,73.347 298.653,60.376 301.768,54.908 304.884,51.46 308,51.68" fill="none" stroke="#111827" stroke-width="2" stroke-linecap="round" stroke-linejoin="round"/>
  <text x="12" y="18" font-family="Arial, Helvetica, sans-serif" font-size="12" fill="#111827">22: BP Twang</text>
</svg>
