<svg xmlns="http://www.w3.org/2000/svg" width="320" height="120" viewBox="0 0 320 120" role="img" aria-label="Waveform 26 Thin Ramp">
    <rect x="0" y="0" width="320" height="120" fill="#f6f7f9"/>
    <line x1="12" y1="60" x2="308" y2="60" stroke="#c4c9d4" stroke-width="1"/>
  <polyline points="12,101.4 15.116,99.657 18.232,97.914 21.347,96.171 24.463,94.427 27.579,92.684 30.695,90.941 33.811,89.198 36.926,87.455 40.042,85.712 43.158,83.968 46.274,82.225 49.389,80.482 52.505,78.739 55.621,76.996 58.737,75.253 61.853,73.509 64.968,71.766 68.084,70.023 71.2,68.28 74.316,66.537 77.432,64.794 80.547,63.051 83.663,61.307 86.779,59.564 89.895,57.821 93.011,56.078 96.126,54.335 99.242,52.592 102.358,50.848 105.474,49.105 108.589,47.362 111.705,45.619 114.821,43.876 117.937,42.133 121.053,40.389 124.168,38.646 127.284,36.903 130.4,35.16 133.516,33.417 136.632,31.674 139.747,29.931 142.863,28.187 145.979,26.444 149.095,24.701 152.211,22.958 155.326,21.215 158.442,19.472 161.558,100.528 164.674,98.785 167.789,97.042 170.905,95.299 174.021,93.556 177.137,91.813 180.253,90.069 183.368,88.326 186.484,86.583 189.6,84.84 192.716,83.097 195.832,81.354 198.947,79.611 202.063,77.867 205.179,76.124 208.295,74.381 211.411,72.638 214.526,70.895 217.642,69.152 220.758,67.408 223.874,65.665 226.989,63.922 230.105,62.179 233.221,60.436 236.337,58.693 239.453,56.949 242.568,55.206 245.684,53.463 248.8,51.72 251.916,49.977 255.032,48.234 258.147,46.491 261.263,44.747 264.379,43.004 267.495,41.261 270.611,39.518 273.726,37.775 276.842,36.032 279.958,34.288 283.074,32.545 286.189,30.802 289.305,29.059 292.421,27.316 295.537,25.573 298.653,23.829 301.768,22.086 304.884,20.343 308,101.4" fill="none" stroke="#111827" stroke-width="2" stroke-linecap="round" stroke-linejoin="round"/>
  <text x="12" y="18" font-family="Arial, Helvetica, sans-serif" font-size="12" fill="#111827">26: Thin Ramp</text>
</svg>
