<svg xmlns="http://www.w3.org/2000/svg" width="320" height="120" viewBox="0 0 320 120" role="img" aria-label="Waveform 27 Xylophone 3">
    <rect x="0" y="0" width="320" height="120" fill="#f6f7f9"/>
    <line x1="12" y1="60" x2="308" y2="60" stroke="#c4c9d4" stroke-width="1"/>
  <polyline points="12,70.145 15.116,54.367 18.232,54.717 21.347,47.571 24.463,42.663 27.579,42.885 30.695,50.022 33.811,54.529 36.926,51.806 40.042,49.284 43.158,51.005 46.274,36.293 49.389,59.168 52.505,61.986 55.621,49.109 58.737,37.826 61.853,40.905 64.968,38.777 68.084,59.62 71.2,67.804 74.316,57.876 77.432,66.462 80.547,69.139 83.663,68.171 86.779,46.026 89.895,69.18 93.011,65.909 96.126,51.029 99.242,76.261 102.358,54.937 105.474,76.263 108.589,67.82 111.705,76.975 114.821,82.405 117.937,70.149 121.053,57.239 124.168,77.047 127.284,71.457 130.4,72.626 133.516,79.326 136.632,79.834 139.747,78.557 142.863,53.759 145.979,74.041 149.095,56.278 152.211,50.036 155.326,63.597 158.442,46.256 161.558,47.945 164.674,55.784 167.789,52.194 170.905,68.415 174.021,61.164 177.137,49.063 180.253,60.89 183.368,36.846 186.484,49.373 189.6,52.874 192.716,41.218 195.832,44.564 198.947,50.543 202.063,46.083 205.179,56.814 208.295,48.84 211.411,56.264 214.526,39.586 217.642,46.647 220.758,65.817 223.874,53.381 226.989,54.603 230.105,53.381 233.221,62.623 236.337,59.571 239.453,73.629 242.568,51.912 245.684,71.503 248.8,74.861 251.916,55.921 255.032,71.112 258.147,82.346 261.263,60.907 264.379,72.756 267.495,82.812 270.611,68.778 273.726,77.53 276.842,80.134 279.958,76.48 283.074,66.376 286.189,57.722 289.305,67.415 292.421,69.062 295.537,54.726 298.653,59.39 301.768,56.097 304.884,56.008 308,60.484" fill="none" stroke="#111827" stroke-width="2" stroke-linecap="round" stroke-linejoin="round"/>
  <text x="12" y="18" font-family="Arial, Helvetica, sans-serif" font-size="12" fill="#111827">27: Xylophone 3</text>
</svg>
