<svg xmlns="http://www.w3.org/2000/svg" width="320" height="120" viewBox="0 0 320 120" role="img" aria-label="Waveform 29 Harmonic Ramp">
    <rect x="0" y="0" width="320" height="120" fill="#f6f7f9"/>
    <line x1="12" y1="60" x2="308" y2="60" stroke="#c4c9d4" stroke-width="1"/>
  <polyline points="12,101.4 15.116,98.363 18.232,95.477 21.347,92.882 24.463,90.698 27.579,89.015 30.695,87.892 33.811,87.344 36.926,87.35 40.042,87.848 43.158,88.743 46.274,89.913 49.389,91.215 52.505,92.498 55.621,93.611 58.737,94.418 61.853,94.801 64.968,94.673 68.084,93.981 71.2,92.715 74.316,90.9 77.432,88.603 80.547,85.923 83.663,82.986 86.779,79.935 89.895,76.922 93.011,74.096 96.126,71.593 99.242,69.527 102.358,67.981 105.474,67.001 108.589,66.595 111.705,66.731 114.821,67.339 117.937,68.315 121.053,69.532 124.168,70.843 127.284,72.098 130.4,73.147 133.516,73.858 136.632,74.119 139.747,73.854 142.863,73.018 145.979,71.611 149.095,69.668 152.211,67.265 155.326,64.508 158.442,61.528 161.558,58.472 164.674,55.492 167.789,52.735 170.905,50.332 174.021,48.389 177.137,46.982 180.253,46.146 183.368,45.881 186.484,46.142 189.6,46.853 192.716,47.902 195.832,49.157 198.947,50.468 202.063,51.685 205.179,52.661 208.295,53.269 211.411,53.405 214.526,52.999 217.642,52.019 220.758,50.473 223.874,48.407 226.989,45.904 230.105,43.078 233.221,40.065 236.337,37.014 239.453,34.077 242.568,31.397 245.684,29.1 248.8,27.285 251.916,26.019 255.032,25.327 258.147,25.199 261.263,25.582 264.379,26.389 267.495,27.502 270.611,28.785 273.726,30.087 276.842,31.257 279.958,32.152 283.074,32.65 286.189,32.656 289.305,32.108 292.421,30.985 295.537,29.302 298.653,27.118 301.768,24.523 304.884,21.637 308,101.4" fill="none" stroke="#111827" stroke-width="2" stroke-linecap="round" stroke-linejoin="round"/>
  <text x="12" y="18" font-family="Arial, Helvetica, sans-serif" font-size="12" fill="#111827">29: Harmonic Ramp</text>
</svg>
