<svg xmlns="http://www.w3.org/2000/svg" width="320" height="120" viewBox="0 0 320 120" role="img" aria-label="Waveform 30 Rouse">
    <rect x="0" y="0" width="320" height="120" fill="#f6f7f9"/>
    <line x1="12" y1="60" x2="308" y2="60" stroke="#c4c9d4" stroke-width="1"/>
  <polyline points="12,56.403 15.116,58.45 18.232,54.738 21.347,57.876 24.463,59.439 27.579,54.74 30.695,46.415 33.811,45.841 36.926,45.967 40.042,48.324 43.158,46.941 46.274,52.209 49.389,52.599 52.505,45.15 55.621,44.569 58.737,40.975 61.853,51.949 64.968,39.861 68.084,47.138 71.2,49.51 74.316,38.947 77.432,37.321 80.547,41.734 83.663,47.92 86.779,46.953 89.895,48.935 93.011,35.672 96.126,38.568 99.242,36.507 102.358,47.42 105.474,47.996 108.589,48.409 111.705,46.88 114.821,52.44 117.937,46.336 121.053,54.752 124.168,44.386 127.284,49.395 130.4,43.348 133.516,45.233 136.632,53.481 139.747,45.418 142.863,51.305 145.979,54.229 149.095,58.359 152.211,55.59 155.326,58.907 158.442,66.99 161.558,65.757 164.674,53.831 167.789,70.974 170.905,65.418 174.021,65.853 177.137,70.014 180.253,61.945 183.368,62.396 186.484,61.908 189.6,70.476 192.716,76.507 195.832,78.026 198.947,71.972 202.063,79.247 205.179,66.096 208.295,73.769 211.411,77.421 214.526,77.457 217.642,69.478 220.758,82.599 223.874,82.922 226.989,75.526 230.105,83.821 233.221,74.665 236.337,69.975 239.453,76.624 242.568,71.903 245.684,70.453 248.8,80.441 251.916,82.755 255.032,68.958 258.147,71.346 261.263,70.475 264.379,66.026 267.495,70.365 270.611,63.753 273.726,74.036 276.842,63.433 279.958,63.11 283.074,73.552 286.189,70.069 289.305,62.84 292.421,70.951 295.537,67.669 298.653,65.628 301.768,56.936 304.884,63.647 308,63.295" fill="none" stroke="#111827" stroke-width="2" stroke-linecap="round" stroke-linejoin="round"/>
  <text x="12" y="18" font-family="Arial, Helvetica, sans-serif" font-size="12" fill="#111827">30: Rouse</text>
</svg>
