<svg xmlns="http://www.w3.org/2000/svg" width="320" height="120" viewBox="0 0 320 120" role="img" aria-label="Waveform 31 Waken">
    <rect x="0" y="0" width="320" height="120" fill="#f6f7f9"/>
    <line x1="12" y1="60" x2="308" y2="60" stroke="#c4c9d4" stroke-width="1"/>
  <polyline points="12,64.311 15.116,53.591 18.232,59.723 21.347,54.341 24.463,51.962 27.579,56.828 30.695,55.555 33.811,54.093 36.926,43.918 40.042,58.777 43.158,51.301 46.274,55.84 49.389,41.215 52.505,53.094 55.621,49.538 58.737,47.193 61.853,44.988 64.968,46.153 68.084,46.69 71.2,43.098 74.316,36.747 77.432,49.819 80.547,38.935 83.663,42.135 86.779,45.33 89.895,38.284 93.011,37.995 96.126,44.867 99.242,48.493 102.358,50.643 105.474,41.882 108.589,44.047 111.705,40.221 114.821,52.025 117.937,40.553 121.053,54.034 124.168,47.229 127.284,54.669 130.4,57.072 133.516,52.39 136.632,57.328 139.747,57.378 142.863,58.39 145.979,52.355 149.095,49.628 152.211,57.567 155.326,53.273 158.442,66.73 161.558,64.139 164.674,68.202 167.789,69.05 170.905,57.955 174.021,70.377 177.137,66.641 180.253,58.629 183.368,74.368 186.484,76.408 189.6,64.686 192.716,74.596 195.832,64.64 198.947,71.738 202.063,65.528 205.179,78.922 208.295,68.497 211.411,77.428 214.526,69.618 217.642,79.769 220.758,71.63 223.874,80.089 226.989,81.212 230.105,70.636 233.221,78.99 236.337,79.104 239.453,69.018 242.568,78.204 245.684,72.854 248.8,69.293 251.916,81.83 255.032,71.904 258.147,67.747 261.263,82.018 264.379,68.608 267.495,78.282 270.611,77.927 273.726,79.184 276.842,64.783 279.958,70.783 283.074,70.266 286.189,72.97 289.305,61.646 292.421,72.293 295.537,59.742 298.653,56.254 301.768,67.486 304.884,54.478 308,64.301" fill="none" stroke="#111827" stroke-width="2" stroke-linecap="round" stroke-linejoin="round"/>
  <text x="12" y="18" font-family="Arial, Helvetica, sans-serif" font-size="12" fill="#111827">31: Waken</text>
</svg>
