<svg xmlns="http://www.w3.org/2000/svg" width="320" height="120" viewBox="0 0 320 120" role="img" aria-label="Waveform 32 Sine">
    <rect x="0" y="0" width="320" height="120" fill="#f6f7f9"/>
    <line x1="12" y1="60" x2="308" y2="60" stroke="#c4c9d4" stroke-width="1"/>
  <polyline points="12,60 15.116,57.674 18.232,55.359 21.347,53.063 24.463,50.799 27.579,48.574 30.695,46.399 33.811,44.284 36.926,42.237 40.042,40.268 43.158,38.386 46.274,36.598 49.389,34.912 52.505,33.336 55.621,31.877 58.737,30.54 61.853,29.332 64.968,28.259 68.084,27.324 71.2,26.532 74.316,25.887 77.432,25.39 80.547,25.045 83.663,24.853 86.779,24.815 89.895,24.93 93.011,25.199 96.126,25.62 99.242,26.191 102.358,26.91 105.474,27.774 108.589,28.779 111.705,29.92 114.821,31.193 117.937,32.591 121.053,34.11 124.168,35.742 127.284,37.48 130.4,39.316 133.516,41.243 136.632,43.251 139.747,45.333 142.863,47.48 145.979,49.681 149.095,51.927 152.211,54.208 155.326,56.515 158.442,58.837 161.558,61.163 164.674,63.485 167.789,65.792 170.905,68.073 174.021,70.319 177.137,72.52 180.253,74.667 183.368,76.749 186.484,78.757 189.6,80.684 192.716,82.52 195.832,84.258 198.947,85.89 202.063,87.409 205.179,88.807 208.295,90.08 211.411,91.221 214.526,92.226 217.642,93.09 220.758,93.809 223.874,94.38 226.989,94.801 230.105,95.07 233.221,95.185 236.337,95.147 239.453,94.955 242.568,94.61 245.684,94.113 248.8,93.468 251.916,92.676 255.032,91.741 258.147,90.668 261.263,89.46 264.379,88.123 267.495,86.664 270.611,85.088 273.726,83.402 276.842,81.614 279.958,79.732 283.074,77.763 286.189,75.716 289.305,73.601 292.421,71.426 295.537,69.201 298.653,66.937 301.768,64.641 304.884,62.326 308,60" fill="none" stroke="#111827" stroke-width="2" stroke-linecap="round" stroke-linejoin="round"/>
  <text x="12" y="18" font-family="Arial, Helvetica, sans-serif" font-size="12" fill="#111827">32: Sine</text>
</svg>
