<svg xmlns="http://www.w3.org/2000/svg" width="320" height="120" viewBox="0 0 320 120" role="img" aria-label="Waveform 39 Dome 4">
    <rect x="0" y="0" width="320" height="120" fill="#f6f7f9"/>
    <line x1="12" y1="60" x2="308" y2="60" stroke="#c4c9d4" stroke-width="1"/>
  <polyline points="12,60 15.116,58.321 18.232,56.668 21.347,55.068 24.463,53.544 27.579,52.117 30.695,50.804 33.811,49.619 36.926,48.57 40.042,47.659 43.158,46.885 46.274,46.241 49.389,45.716 52.505,45.294 55.621,44.954 58.737,44.677 61.853,44.437 64.968,44.209 68.084,43.97 71.2,43.696 74.316,43.365 77.432,42.96 80.547,42.465 83.663,41.871 86.779,41.171 89.895,40.366 93.011,39.46 96.126,38.463 99.242,37.388 102.358,36.253 105.474,35.081 108.589,33.896 111.705,32.722 114.821,31.586 117.937,30.514 121.053,29.531 124.168,28.659 127.284,27.917 130.4,27.32 133.516,26.879 136.632,26.599 139.747,26.483 142.863,26.524 145.979,26.714 149.095,27.038 152.211,27.48 155.326,28.017 158.442,28.626 161.558,29.282 164.674,29.959 167.789,30.632 170.905,31.277 174.021,31.873 177.137,32.401 180.253,32.847 183.368,33.201 186.484,33.458 189.6,33.62 192.716,33.689 195.832,33.678 198.947,33.6 202.063,33.472 205.179,33.318 208.295,33.159 211.411,33.022 214.526,32.931 217.642,32.91 220.758,32.983 223.874,33.169 226.989,33.486 230.105,33.945 233.221,34.556 236.337,35.32 239.453,36.237 242.568,37.298 245.684,38.492 248.8,39.803 251.916,41.209 255.032,42.69 258.147,44.218 261.263,45.767 264.379,47.311 267.495,48.824 270.611,50.282 273.726,51.664 276.842,52.951 279.958,54.13 283.074,55.193 286.189,56.134 289.305,56.955 292.421,57.662 295.537,58.266 298.653,58.782 301.768,59.228 304.884,59.626 308,60" fill="none" stroke="#111827" stroke-width="2" stroke-linecap="round" stroke-linejoin="round"/>
  <text x="12" y="18" font-family="Arial, Helvetica, sans-serif" font-size="12" fill="#111827">39: Dome 4</text>
</svg>
