<svg xmlns="http://www.w3.org/2000/svg" width="320" height="120" viewBox="0 0 320 120" role="img" aria-label="Waveform 40 Rasp 1">
    <rect x="0" y="0" width="320" height="120" fill="#f6f7f9"/>
    <line x1="12" y1="60" x2="308" y2="60" stroke="#c4c9d4" stroke-width="1"/>
  <polyline points="12,47.206 15.116,60.426 18.232,53.542 21.347,56.059 24.463,48.968 27.579,64.409 30.695,58.479 33.811,43.054 36.926,66.952 40.042,59.068 43.158,66.925 46.274,64.344 49.389,63.967 52.505,42.258 55.621,47.894 58.737,64.177 61.853,56.246 64.968,64.744 68.084,46.946 71.2,63.069 74.316,60.671 77.432,54.477 80.547,55.522 83.663,43.166 86.779,56.373 89.895,46.689 93.011,47.511 96.126,63.992 99.242,43.68 102.358,53.95 105.474,64.986 108.589,37.869 111.705,52.349 114.821,54.755 117.937,65.326 121.053,51.962 124.168,66.282 127.284,58.726 130.4,50.141 133.516,53.419 136.632,66.821 139.747,48.673 142.863,59.483 145.979,51.549 149.095,53.51 152.211,60.96 155.326,48.277 158.442,68.308 161.558,70.126 164.674,67.016 167.789,71.449 170.905,50.515 174.021,57.024 177.137,69.817 180.253,55.572 183.368,61.966 186.484,75.314 189.6,52.997 192.716,72.491 195.832,76.296 198.947,63.148 202.063,70.927 205.179,77.015 208.295,62.852 211.411,74.081 214.526,81.219 217.642,65.273 220.758,63.572 223.874,61.315 226.989,81.314 230.105,84.229 233.221,84.755 236.337,73.702 239.453,82.391 242.568,56.855 245.684,73.26 248.8,56.844 251.916,66.339 255.032,81.445 258.147,58.588 261.263,61.876 264.379,71.858 267.495,57.672 270.611,69.501 273.726,75.31 276.842,78.19 279.958,73.356 283.074,74.777 286.189,62.102 289.305,65.858 292.421,67.63 295.537,74.72 298.653,76.012 301.768,62.919 304.884,49.597 308,54.392" fill="none" stroke="#111827" stroke-width="2" stroke-linecap="round" stroke-linejoin="round"/>
  <text x="12" y="18" font-family="Arial, Helvetica, sans-serif" font-size="12" fill="#111827">40: Rasp 1</text>
</svg>
