<svg xmlns="http://www.w3.org/2000/svg" width="320" height="120" viewBox="0 0 320 120" role="img" aria-label="Waveform 41 Rasp 2">
    <rect x="0" y="0" width="320" height="120" fill="#f6f7f9"/>
    <line x1="12" y1="60" x2="308" y2="60" stroke="#c4c9d4" stroke-width="1"/>
  <polyline points="12,61.046 15.116,51.582 18.232,61.59 21.347,48.878 24.463,63.57 27.579,66.498 30.695,43.691 33.811,55.494 36.926,61.213 40.042,46.124 43.158,43.267 46.274,39.419 49.389,41.813 52.505,54.06 55.621,54.681 58.737,44.429 61.853,42.736 64.968,45.831 68.084,45.66 71.2,51.848 74.316,57.375 77.432,48.526 80.547,52.432 83.663,64.517 86.779,56.747 89.895,60.987 93.011,56.293 96.126,51.525 99.242,41.936 102.358,66.616 105.474,62.061 108.589,67.714 111.705,49.885 114.821,63.866 117.937,65.643 121.053,61.682 124.168,53.725 127.284,50.824 130.4,57.345 133.516,78.344 136.632,57.114 139.747,82.187 142.863,55.432 145.979,60.64 149.095,79.317 152.211,76.156 155.326,78.658 158.442,78.534 161.558,77.29 164.674,72.396 167.789,76.411 170.905,73.791 174.021,71.243 177.137,69.077 180.253,82.707 183.368,56.625 186.484,73.075 189.6,71.844 192.716,67.747 195.832,50.05 198.947,58.484 202.063,70.212 205.179,63.374 208.295,74.101 211.411,64.226 214.526,56.32 217.642,70.843 220.758,59.73 223.874,41.623 226.989,46.532 230.105,44.484 233.221,45.86 236.337,42.518 239.453,50.328 242.568,48.682 245.684,57.95 248.8,46.628 251.916,44.999 255.032,38.003 258.147,61.9 261.263,63.097 264.379,57.925 267.495,53.741 270.611,48.338 273.726,39.272 276.842,65.531 279.958,43.939 283.074,56.424 286.189,55.932 289.305,53.965 292.421,61.693 295.537,54.141 298.653,54.532 301.768,48.995 304.884,60.822 308,56.152" fill="none" stroke="#111827" stroke-width="2" stroke-linecap="round" stroke-linejoin="round"/>
  <text x="12" y="18" font-family="Arial, Helvetica, sans-serif" font-size="12" fill="#111827">41: Rasp 2</text>
</svg>
