<svg xmlns="http://www.w3.org/2000/svg" width="320" height="120" viewBox="0 0 320 120" role="img" aria-label="Waveform 42 Rasp 3">
    <rect x="0" y="0" width="320" height="120" fill="#f6f7f9"/>
    <line x1="12" y1="60" x2="308" y2="60" stroke="#c4c9d4" stroke-width="1"/>
  <polyline points="12,45.906 15.116,71.718 18.232,69.647 21.347,41.728 24.463,49.262 27.579,39.741 30.695,58.111 33.811,39.307 36.926,55.986 40.042,62.868 43.158,49.528 46.274,44.676 49.389,50.133 52.505,38.691 55.621,63.611 58.737,56.146 61.853,61.035 64.968,59.063 68.084,47.852 71.2,44.386 74.316,58.077 77.432,46.754 80.547,53.632 83.663,61.21 86.779,61.383 89.895,50.408 93.011,68.909 96.126,71.485 99.242,72.111 102.358,52.607 105.474,60.681 108.589,69.237 111.705,76.052 114.821,71.507 117.937,63.261 121.053,67.38 124.168,64.723 127.284,65.009 130.4,56.142 133.516,64.342 136.632,64.896 139.747,73.707 142.863,65.867 145.979,53.828 149.095,58.928 152.211,72.942 155.326,60.603 158.442,68.426 161.558,63.438 164.674,56.29 167.789,59.651 170.905,46.375 174.021,64.023 177.137,47.443 180.253,60.791 183.368,61.295 186.484,53.251 189.6,45.785 192.716,48.998 195.832,40.955 198.947,44.399 202.063,62.697 205.179,45.742 208.295,55.35 211.411,56.45 214.526,65.672 217.642,55.954 220.758,67.68 223.874,65.954 226.989,58.964 230.105,55.045 233.221,60.22 236.337,67.361 239.453,76.845 242.568,72.411 245.684,76.555 248.8,72.026 251.916,60.627 255.032,61.501 258.147,74.797 261.263,74.11 264.379,82.566 267.495,58.795 270.611,64.122 273.726,67.743 276.842,57.612 279.958,75.039 283.074,67.073 286.189,75.903 289.305,65.058 292.421,75.326 295.537,78.472 298.653,74.143 301.768,72.203 304.884,47.167 308,57.913" fill="none" stroke="#111827" stroke-width="2" stroke-linecap="round" stroke-linejoin="round"/>
  <text x="12" y="18" font-family="Arial, Helvetica, sans-serif" font-size="12" fill="#111827">42: Rasp 3</text>
</svg>
