<svg xmlns="http://www.w3.org/2000/svg" width="320" height="120" viewBox="0 0 320 120" role="img" aria-label="Waveform 43 Rasp 4">
    <rect x="0" y="0" width="320" height="120" fill="#f6f7f9"/>
    <line x1="12" y1="60" x2="308" y2="60" stroke="#c4c9d4" stroke-width="1"/>
  <polyline points="12,59.746 15.116,62.877 18.232,48.736 21.347,63.596 24.463,64.025 27.579,42.138 30.695,43.841 33.811,52.541 36.926,51.387 40.042,51.478 43.158,56.876 46.274,51.278 49.389,60.061 52.505,54.165 55.621,45.655 58.737,41.169 61.853,52.774 64.968,45.796 68.084,52.499 71.2,68.229 74.316,60.856 77.432,75.667 80.547,56.035 83.663,58.468 86.779,65.816 89.895,67.71 93.011,79.417 96.126,59.249 99.242,68.904 102.358,61.939 105.474,81.381 108.589,62.609 111.705,63.88 114.821,68.663 117.937,78.367 121.053,60.735 124.168,62.721 127.284,65.763 130.4,70.316 133.516,65.828 136.632,59.603 139.747,52.887 142.863,65.026 145.979,66.111 149.095,59.342 152.211,63.562 155.326,38.67 158.442,56.974 161.558,50.976 164.674,44.467 167.789,50.166 170.905,58.252 174.021,41.15 177.137,42.065 180.253,57.904 183.368,58.57 186.484,57.277 189.6,74.475 192.716,57.535 195.832,60.208 198.947,59.231 202.063,55.157 205.179,56.555 208.295,63.971 211.411,74.413 214.526,69.603 217.642,61.921 220.758,64.316 223.874,75.343 226.989,81.429 230.105,71.32 233.221,75.745 236.337,59.688 239.453,66.087 242.568,54.136 245.684,48.553 248.8,46.433 251.916,50.17 255.032,55.234 258.147,54.724 261.263,49.495 264.379,40.545 267.495,53.75 270.611,40.121 273.726,56.436 276.842,39.626 279.958,39.561 283.074,42.27 286.189,63.23 289.305,46.925 292.421,63.704 295.537,53.018 298.653,48.812 301.768,55.618 304.884,57.033 308,59.673" fill="none" stroke="#111827" stroke-width="2" stroke-linecap="round" stroke-linejoin="round"/>
  <text x="12" y="18" font-family="Arial, Helvetica, sans-serif" font-size="12" fill="#111827">43: Rasp 4</text>
</svg>
