<svg xmlns="http://www.w3.org/2000/svg" width="320" height="120" viewBox="0 0 320 120" role="img" aria-label="Waveform 45 HP Saw">
    <rect x="0" y="0" width="320" height="120" fill="#f6f7f9"/>
    <line x1="12" y1="60" x2="308" y2="60" stroke="#c4c9d4" stroke-width="1"/>
  <polyline points="12,101.4 15.116,100.528 18.232,99.657 21.347,98.785 24.463,97.914 27.579,97.042 30.695,96.171 33.811,95.299 36.926,94.427 40.042,93.556 43.158,92.684 46.274,91.813 49.389,90.941 52.505,90.069 55.621,89.198 58.737,88.326 61.853,87.455 64.968,86.583 68.084,85.712 71.2,84.84 74.316,83.968 77.432,83.097 80.547,82.225 83.663,81.354 86.779,80.482 89.895,79.611 93.011,78.739 96.126,77.867 99.242,76.996 102.358,76.124 105.474,75.253 108.589,74.381 111.705,73.509 114.821,72.638 117.937,71.766 121.053,70.895 124.168,70.023 127.284,69.152 130.4,68.28 133.516,67.408 136.632,66.537 139.747,65.665 142.863,64.794 145.979,63.922 149.095,63.051 152.211,62.179 155.326,61.307 158.442,60.436 161.558,59.564 164.674,58.693 167.789,57.821 170.905,56.949 174.021,56.078 177.137,55.206 180.253,54.335 183.368,53.463 186.484,52.592 189.6,51.72 192.716,50.848 195.832,49.977 198.947,49.105 202.063,48.234 205.179,47.362 208.295,46.491 211.411,45.619 214.526,44.747 217.642,43.876 220.758,43.004 223.874,42.133 226.989,41.261 230.105,40.389 233.221,39.518 236.337,38.646 239.453,37.775 242.568,36.903 245.684,36.032 248.8,35.16 251.916,34.288 255.032,33.417 258.147,32.545 261.263,31.674 264.379,30.802 267.495,29.931 270.611,29.059 273.726,28.187 276.842,27.316 279.958,26.444 283.074,25.573 286.189,24.701 289.305,23.829 292.421,22.958 295.537,22.086 298.653,21.215 301.768,20.343 304.884,19.472 308,101.4" fill="none" stroke="#111827" stroke-width="2" stroke-linecap="round" stroke-linejoin="round"/>
  <text x="12" y="18" font-family="Arial, Helvetica, sans-serif" font-size="12" fill="#111827">45: HP Saw</text>
</svg>
