<svg xmlns="http://www.w3.org/2000/svg" width="320" height="120" viewBox="0 0 320 120" role="img" aria-label="Waveform 46 High BP Saw">
    <rect x="0" y="0" width="320" height="120" fill="#f6f7f9"/>
    <line x1="12" y1="60" x2="308" y2="60" stroke="#c4c9d4" stroke-width="1"/>
  <polyline points="12,101.4 15.116,97.492 18.232,93.734 21.347,90.267 24.463,87.211 27.579,84.658 30.695,82.662 33.811,81.243 36.926,80.377 40.042,80.004 43.158,80.028 46.274,80.326 49.389,80.756 52.505,81.167 55.621,81.409 58.737,81.344 61.853,80.856 64.968,79.856 68.084,78.293 71.2,76.155 74.316,73.469 77.432,70.3 80.547,66.748 83.663,62.939 86.779,59.017 89.895,55.133 93.011,51.435 96.126,48.061 99.242,45.123 102.358,42.705 105.474,40.854 108.589,39.576 111.705,38.841 114.821,38.577 117.937,38.682 121.053,39.027 124.168,39.466 127.284,39.849 130.4,40.027 133.516,39.866 136.632,39.256 139.747,38.119 142.863,36.412 145.979,34.133 149.095,31.318 152.211,28.044 155.326,24.415 158.442,20.564 161.558,99.436 164.674,95.585 167.789,91.956 170.905,88.682 174.021,85.867 177.137,83.588 180.253,81.881 183.368,80.744 186.484,80.134 189.6,79.973 192.716,80.151 195.832,80.534 198.947,80.973 202.063,81.318 205.179,81.423 208.295,81.159 211.411,80.424 214.526,79.146 217.642,77.295 220.758,74.877 223.874,71.939 226.989,68.565 230.105,64.867 233.221,60.983 236.337,57.061 239.453,53.252 242.568,49.7 245.684,46.531 248.8,43.845 251.916,41.707 255.032,40.144 258.147,39.144 261.263,38.656 264.379,38.591 267.495,38.833 270.611,39.244 273.726,39.674 276.842,39.972 279.958,39.996 283.074,39.623 286.189,38.757 289.305,37.338 292.421,35.342 295.537,32.789 298.653,29.733 301.768,26.266 304.884,22.508 308,101.4" fill="none" stroke="#111827" stroke-width="2" stroke-linecap="round" stroke-linejoin="round"/>
  <text x="12" y="18" font-family="Arial, Helvetica, sans-serif" font-size="12" fill="#111827">46: High BP Saw</text>
</svg>
