<svg xmlns="http://www.w3.org/2000/svg" width="320" height="120" viewBox="0 0 320 120" role="img" aria-label="Waveform 48 Vocal">
    <rect x="0" y="0" width="320" height="120" fill="#f6f7f9"/>
    <line x1="12" y1="60" x2="308" y2="60" stroke="#c4c9d4" stroke-width="1"/>
  <polyline points="12,70.987 15.116,49.34 18.232,63.373 21.347,61.649 24.463,56.565 27.579,60.41 30.695,36.877 33.811,37.807 36.926,62.441 40.042,56.006 43.158,37.064 46.274,54.073 49.389,47.389 52.505,65.72 55.621,60.149 58.737,66.596 61.853,49.824 64.968,42.898 68.084,48.577 71.2,70.083 74.316,70.583 77.432,69.098 80.547,60.526 83.663,65.808 86.779,80.595 89.895,61.453 93.011,70.757 96.126,56.407 99.242,57.861 102.358,61.162 105.474,56.867 108.589,82.401 111.705,63.573 114.821,65.03 117.937,56.751 121.053,54.456 124.168,58.613 127.284,53.954 130.4,74.482 133.516,70.493 136.632,64.284 139.747,41.61 142.863,40.082 145.979,49.713 149.095,40.905 152.211,51.878 155.326,47.332 158.442,54.704 161.558,36.82 164.674,54.296 167.789,62.312 170.905,50.905 174.021,51.763 177.137,41.525 180.253,57.871 183.368,47.399 186.484,68.23 189.6,52.792 192.716,69.788 195.832,59.005 198.947,57.183 202.063,80.015 205.179,81.844 208.295,75.801 211.411,74.475 214.526,58.979 217.642,65.023 220.758,84.257 223.874,79.534 226.989,73.222 230.105,71.875 233.221,55.624 236.337,52.625 239.453,57.499 242.568,51.309 245.684,69.557 248.8,64.808 251.916,71.059 255.032,52.03 258.147,52.208 261.263,63.556 264.379,63.135 267.495,65.065 270.611,48.229 273.726,43.514 276.842,51.439 279.958,48.741 283.074,42.503 286.189,59.63 289.305,65.459 292.421,46.471 295.537,41.613 298.653,53.73 301.768,60.987 304.884,63.746 308,68.477" fill="none" stroke="#111827" stroke-width="2" stroke-linecap="round" stroke-linejoin="round"/>
  <text x="12" y="18" font-family="Arial, Helvetica, sans-serif" font-size="12" fill="#111827">48: Vocal</text>
</svg>
