<svg xmlns="http://www.w3.org/2000/svg" width="320" height="120" viewBox="0 0 320 120" role="img" aria-label="Waveform 49 Squeeze box">
    <rect x="0" y="0" width="320" height="120" fill="#f6f7f9"/>
    <line x1="12" y1="60" x2="308" y2="60" stroke="#c4c9d4" stroke-width="1"/>
  <polyline points="12,57.627 15.116,65.489 18.232,50.088 21.347,56.958 24.463,49.863 27.579,61.297 30.695,54.478 33.811,53.591 36.926,56.72 40.042,48.22 43.158,46.976 46.274,54.965 49.389,51.58 52.505,47.057 55.621,39.61 58.737,43.196 61.853,52.167 64.968,43.504 68.084,38.621 71.2,43.6 74.316,46.82 77.432,42.929 80.547,38.238 83.663,37.361 86.779,49.236 89.895,45.284 93.011,46.676 96.126,42.334 99.242,48.959 102.358,42.422 105.474,47.758 108.589,48.33 111.705,52.836 114.821,44.552 117.937,52.39 121.053,41.116 124.168,48.714 127.284,50.248 130.4,55.706 133.516,48.74 136.632,60.334 139.747,57.364 142.863,53.444 145.979,51.743 149.095,58.07 152.211,60.026 155.326,51.22 158.442,62.061 161.558,68.138 164.674,61.925 167.789,67.539 170.905,56.09 174.021,69.026 177.137,72.154 180.253,65.184 183.368,74.573 186.484,72.443 189.6,76.385 192.716,73.306 195.832,72.101 198.947,67.525 202.063,66.984 205.179,77.954 208.295,72.961 211.411,77.555 214.526,77.57 217.642,82.838 220.758,72.908 223.874,78.775 226.989,84.203 230.105,81.713 233.221,74.03 236.337,77.821 239.453,81.16 242.568,75.701 245.684,82.941 248.8,83.909 251.916,81.745 255.032,75.249 258.147,69.195 261.263,74.511 264.379,65.399 267.495,71.75 270.611,68.111 273.726,72.473 276.842,72.523 279.958,76.419 283.074,60.808 286.189,75.501 289.305,73.277 292.421,63.34 295.537,66.089 298.653,69.682 301.768,58.658 304.884,55.04 308,65.85" fill="none" stroke="#111827" stroke-width="2" stroke-linecap="round" stroke-linejoin="round"/>
  <text x="12" y="18" font-family="Arial, Helvetica, sans-serif" font-size="12" fill="#111827">49: Squeeze box</text>
</svg>
