<svg xmlns="http://www.w3.org/2000/svg" width="320" height="120" viewBox="0 0 320 120" role="img" aria-label="Waveform 50 Pulse">
    <rect x="0" y="0" width="320" height="120" fill="#f6f7f9"/>
    <line x1="12" y1="60" x2="308" y2="60" stroke="#c4c9d4" stroke-width="1"/>
  <polyline points="12,27.708 15.116,27.708 18.232,27.708 21.347,27.708 24.463,27.708 27.579,27.708 30.695,27.708 33.811,27.708 36.926,27.708 40.042,27.708 43.158,27.708 46.274,27.708 49.389,27.708 52.505,27.708 55.621,27.708 58.737,27.708 61.853,27.708 64.968,27.708 68.084,27.708 71.2,27.708 74.316,27.708 77.432,27.708 80.547,27.708 83.663,27.708 86.779,92.292 89.895,92.292 93.011,92.292 96.126,92.292 99.242,92.292 102.358,92.292 105.474,92.292 108.589,92.292 111.705,92.292 114.821,92.292 117.937,92.292 121.053,92.292 124.168,92.292 127.284,92.292 130.4,92.292 133.516,92.292 136.632,92.292 139.747,92.292 142.863,92.292 145.979,92.292 149.095,92.292 152.211,92.292 155.326,92.292 158.442,92.292 161.558,92.292 164.674,92.292 167.789,92.292 170.905,92.292 174.021,92.292 177.137,92.292 180.253,92.292 183.368,92.292 186.484,92.292 189.6,92.292 192.716,92.292 195.832,92.292 198.947,92.292 202.063,92.292 205.179,92.292 208.295,92.292 211.411,92.292 214.526,92.292 217.642,92.292 220.758,92.292 223.874,92.292 226.989,92.292 230.105,92.292 233.221,92.292 236.337,92.292 239.453,92.292 242.568,92.292 245.684,92.292 248.8,92.292 251.916,92.292 255.032,92.292 258.147,92.292 261.263,92.292 264.379,92.292 267.495,92.292 270.611,92.292 273.726,92.292 276.842,92.292 279.958,92.292 283.074,92.292 286.189,92.292 289.305,92.292 292.421,92.292 295.537,92.292 298.653,92.292 301.768,92.292 304.884,92.292 308,27.708" fill="none" stroke="#111827" stroke-width="2" stroke-linecap="round" stroke-linejoin="round"/>
  <text x="12" y="18" font-family="Arial, Helvetica, sans-serif" font-size="12" fill="#111827">50: Pulse</text>
</svg>
