<svg xmlns="http://www.w3.org/2000/svg" width="320" height="120" viewBox="0 0 320 120" role="img" aria-label="Waveform 51 Limp Saw">
    <rect x="0" y="0" width="320" height="120" fill="#f6f7f9"/>
    <line x1="12" y1="60" x2="308" y2="60" stroke="#c4c9d4" stroke-width="1"/>
  <polyline points="12,82.77 15.116,82.291 18.232,81.811 21.347,81.332 24.463,80.853 27.579,80.373 30.695,79.894 33.811,79.414 36.926,78.935 40.042,78.456 43.158,77.976 46.274,77.497 49.389,77.018 52.505,76.538 55.621,76.059 58.737,75.579 61.853,75.1 64.968,74.621 68.084,74.141 71.2,73.662 74.316,73.183 77.432,72.703 80.547,72.224 83.663,71.745 86.779,71.265 89.895,70.786 93.011,70.306 96.126,69.827 99.242,69.348 102.358,68.868 105.474,68.389 108.589,67.91 111.705,67.43 114.821,66.951 117.937,66.471 121.053,65.992 124.168,65.513 127.284,65.033 130.4,64.554 133.516,64.075 136.632,63.595 139.747,63.116 142.863,62.637 145.979,62.157 149.095,61.678 152.211,61.198 155.326,60.719 158.442,60.24 161.558,59.76 164.674,59.281 167.789,58.802 170.905,58.322 174.021,57.843 177.137,57.363 180.253,56.884 183.368,56.405 186.484,55.925 189.6,55.446 192.716,54.967 195.832,54.487 198.947,54.008 202.063,53.529 205.179,53.049 208.295,52.57 211.411,52.09 214.526,51.611 217.642,51.132 220.758,50.652 223.874,50.173 226.989,49.694 230.105,49.214 233.221,48.735 236.337,48.255 239.453,47.776 242.568,47.297 245.684,46.817 248.8,46.338 251.916,45.859 255.032,45.379 258.147,44.9 261.263,44.421 264.379,43.941 267.495,43.462 270.611,42.982 273.726,42.503 276.842,42.024 279.958,41.544 283.074,41.065 286.189,40.586 289.305,40.106 292.421,39.627 295.537,39.147 298.653,38.668 301.768,38.189 304.884,37.709 308,82.77" fill="none" stroke="#111827" stroke-width="2" stroke-linecap="round" stroke-linejoin="round"/>
  <text x="12" y="18" font-family="Arial, Helvetica, sans-serif" font-size="12" fill="#111827">51: Limp Saw</text>
</svg>
