<svg xmlns="http://www.w3.org/2000/svg" width="320" height="120" viewBox="0 0 320 120" role="img" aria-label="Waveform 52 Spark Wave 1">
    <rect x="0" y="0" width="320" height="120" fill="#f6f7f9"/>
    <line x1="12" y1="60" x2="308" y2="60" stroke="#c4c9d4" stroke-width="1"/>
  <polyline points="12,68.387 15.116,44.646 18.232,69.94 21.347,66.812 24.463,63.322 27.579,47.306 30.695,44.185 33.811,38.819 36.926,49.113 40.042,42.944 43.158,38.884 46.274,50.265 49.389,53.77 52.505,61.801 55.621,63.619 58.737,49.04 61.853,55.135 64.968,53.267 68.084,40.007 71.2,48.094 74.316,48.551 77.432,62.595 80.547,62.615 83.663,46.91 86.779,61.961 89.895,66.874 93.011,51.59 96.126,65.803 99.242,79.005 102.358,80.034 105.474,69.613 108.589,79.842 111.705,75.437 114.821,64.242 117.937,77.989 121.053,83.801 124.168,56.508 127.284,70.371 130.4,64.474 133.516,73.673 136.632,74.258 139.747,80.133 142.863,73.939 145.979,78.993 149.095,51.035 152.211,49.573 155.326,48.947 158.442,63.886 161.558,64.106 164.674,46.968 167.789,54.962 170.905,60.662 174.021,56.269 177.137,46.363 180.253,60.724 183.368,38.955 186.484,46.176 189.6,60.378 192.716,44.524 195.832,38.548 198.947,40.304 202.063,54.452 205.179,38.36 208.295,50.03 211.411,56.573 214.526,44.423 217.642,62.158 220.758,49.602 223.874,45.356 226.989,42.552 230.105,56.154 233.221,48.959 236.337,53.234 239.453,59.67 242.568,66.757 245.684,60.602 248.8,79.795 251.916,73.424 255.032,55.093 258.147,69.764 261.263,73.252 264.379,69.786 267.495,81.425 270.611,80.338 273.726,70.878 276.842,81.237 279.958,64.418 283.074,67.537 286.189,68.704 289.305,73.146 292.421,69.842 295.537,55.663 298.653,54.999 301.768,53.961 304.884,60.594 308,46.539" fill="none" stroke="#111827" stroke-width="2" stroke-linecap="round" stroke-linejoin="round"/>
  <text x="12" y="18" font-family="Arial, Helvetica, sans-serif" font-size="12" fill="#111827">52: Spark Wave 1</text>
</svg>
