<svg xmlns="http://www.w3.org/2000/svg" width="320" height="120" viewBox="0 0 320 120" role="img" aria-label="Waveform 53 Spark Wave 2">
    <rect x="0" y="0" width="320" height="120" fill="#f6f7f9"/>
    <line x1="12" y1="60" x2="308" y2="60" stroke="#c4c9d4" stroke-width="1"/>
  <polyline points="12,53.248 15.116,64.784 18.232,49.029 21.347,59.701 24.463,49.105 27.579,49.703 30.695,58.894 33.811,52.053 36.926,44.514 40.042,60.534 43.158,46.232 46.274,56.867 49.389,63.698 52.505,48.295 55.621,45.663 58.737,63.043 61.853,46.874 64.968,68.981 68.084,44.654 71.2,71.937 74.316,51.33 77.432,62.528 80.547,65.018 83.663,73.148 86.779,66.394 89.895,55.195 93.011,62.097 96.126,82.546 99.242,75.798 102.358,60.386 105.474,61.333 108.589,73.214 111.705,63.265 114.821,61.397 117.937,64.115 121.053,77.156 124.168,54.506 127.284,71.125 130.4,49.667 133.516,46.179 136.632,68.965 139.747,59.314 142.863,44.118 145.979,62.296 149.095,51.449 152.211,40.193 155.326,55.994 158.442,52.434 161.558,51.644 164.674,64.124 167.789,45.477 170.905,43.559 174.021,62.376 177.137,40.985 180.253,57.838 183.368,65.209 186.484,50.202 189.6,60.089 192.716,53.061 195.832,57.802 198.947,55.135 202.063,75.893 205.179,78.153 208.295,58.651 211.411,74.537 214.526,77.334 217.642,68.125 220.758,75.218 223.874,83.725 226.989,65.016 230.105,72.429 233.221,64.483 236.337,74.541 239.453,77.892 242.568,77.462 245.684,61.58 248.8,54.202 251.916,62.968 255.032,48.827 258.147,49.692 261.263,48.636 264.379,56.745 267.495,47.399 270.611,56.337 273.726,59.572 276.842,63.252 279.958,57.92 283.074,42.735 286.189,56.031 289.305,55.014 292.421,58.219 295.537,59.189 298.653,58.648 301.768,66.356 304.884,70.46 308,48.3" fill="none" stroke="#111827" stroke-width="2" stroke-linecap="round" stroke-linejoin="round"/>
  <text x="12" y="18" font-family="Arial, Helvetica, sans-serif" font-size="12" fill="#111827">53: Spark Wave 2</text>
</svg>
