<svg xmlns="http://www.w3.org/2000/svg" width="320" height="120" viewBox="0 0 320 120" role="img" aria-label="Waveform 54 Spark Wave 3">
    <rect x="0" y="0" width="320" height="120" fill="#f6f7f9"/>
    <line x1="12" y1="60" x2="308" y2="60" stroke="#c4c9d4" stroke-width="1"/>
  <polyline points="12,67.088 15.116,55.944 18.232,57.113 21.347,52.638 24.463,63.979 27.579,52.307 30.695,44.963 33.811,36.813 36.926,40.614 40.042,50.05 43.158,54.698 46.274,64.783 49.389,46.119 52.505,65.346 55.621,58.29 58.737,49.598 61.853,68.94 64.968,56.748 68.084,49.887 71.2,66.799 74.316,53.391 77.432,60.905 80.547,64.926 83.663,66.902 86.779,66.276 89.895,66.905 93.011,66.018 96.126,62.828 99.242,64.361 102.358,60.936 105.474,72.942 108.589,57.467 111.705,71.243 114.821,50.35 117.937,43.016 121.053,64.617 124.168,48.277 127.284,40.652 130.4,63.841 133.516,50.126 136.632,39.763 139.747,46.245 142.863,53.692 145.979,58.569 149.095,67.191 152.211,48.204 155.326,53.132 158.442,61.269 161.558,60.153 164.674,73.362 167.789,56.515 170.905,74.766 174.021,56.99 177.137,79.601 180.253,66.905 183.368,70.854 186.484,58.581 189.6,59.8 192.716,57.032 195.832,67.839 198.947,56.156 202.063,50.15 205.179,66.711 208.295,70.425 211.411,63.706 214.526,50.223 217.642,41.614 220.758,38.824 223.874,60.462 226.989,56.153 230.105,59.638 233.221,54.099 236.337,44.944 239.453,49.924 242.568,47.301 245.684,56.463 248.8,57.59 251.916,58.739 255.032,54.968 258.147,47.976 261.263,47.917 264.379,72.561 267.495,75.436 270.611,68.776 273.726,58.106 276.842,56.427 279.958,62.795 283.074,57.367 286.189,80.764 289.305,71.2 292.421,76.848 295.537,59.052 298.653,52.973 301.768,63.198 304.884,58.158 308,50.06" fill="none" stroke="#111827" stroke-width="2" stroke-linecap="round" stroke-linejoin="round"/>
  <text x="12" y="18" font-family="Arial, Helvetica, sans-serif" font-size="12" fill="#111827">54: Spark Wave 3</text>
</svg>
