<svg xmlns="http://www.w3.org/2000/svg" width="320" height="120" viewBox="0 0 320 120" role="img" aria-label="Waveform 55 Mid Wave 1">
    <rect x="0" y="0" width="320" height="120" fill="#f6f7f9"/>
    <line x1="12" y1="60" x2="308" y2="60" stroke="#c4c9d4" stroke-width="1"/>
  <polyline points="12,55.399 15.116,52.895 18.232,63.437 21.347,52.31 24.463,54.684 27.579,57.266 30.695,59.639 33.811,53.424 36.926,44.428 40.042,44.701 43.158,56.575 46.274,43.633 49.389,49.515 52.505,45.044 55.621,52.861 58.737,47.384 61.853,43.52 64.968,48.141 68.084,52.491 71.2,38.247 74.316,50.178 77.432,51.672 80.547,38.006 83.663,35.77 86.779,39.499 89.895,47.618 93.011,44.05 96.126,47.01 99.242,38.075 102.358,45.201 105.474,44.196 108.589,38.718 111.705,46.001 114.821,42.061 117.937,50.816 121.053,53.37 124.168,49.209 127.284,48.775 130.4,55.25 133.516,58.563 136.632,50.295 139.747,46.319 142.863,46.276 145.979,57.059 149.095,55.364 152.211,55.325 155.326,50.536 158.442,60.504 161.558,58.431 164.674,65.353 167.789,55.995 170.905,60.988 174.021,63.055 177.137,68.471 180.253,61.85 183.368,63.602 186.484,76.641 189.6,74.765 192.716,78.396 195.832,74.588 198.947,66.121 202.063,67.469 205.179,72.111 208.295,74.45 211.411,77.597 214.526,80.221 217.642,78.342 220.758,73.334 223.874,78.337 226.989,68.639 230.105,68.846 233.221,83.417 236.337,82.914 239.453,68.647 242.568,80.387 245.684,80.784 248.8,83.261 251.916,76.197 255.032,76.364 258.147,80.717 261.263,77.529 264.379,80.889 267.495,69.573 270.611,70.359 273.726,70.236 276.842,64.063 279.958,72.777 283.074,74.215 286.189,59.785 289.305,66.115 292.421,71.396 295.537,68.204 298.653,63.118 301.768,55.715 304.884,66.267 308,55.326" fill="none" stroke="#111827" stroke-width="2" stroke-linecap="round" stroke-linejoin="round"/>
  <text x="12" y="18" font-family="Arial, Helvetica, sans-serif" font-size="12" fill="#111827">55: Mid Wave 1</text>
</svg>
