<svg xmlns="http://www.w3.org/2000/svg" width="320" height="120" viewBox="0 0 320 120" role="img" aria-label="Waveform 56 Cacophonous Buzz 1">
    <rect x="0" y="0" width="320" height="120" fill="#f6f7f9"/>
    <line x1="12" y1="60" x2="308" y2="60" stroke="#c4c9d4" stroke-width="1"/>
  <polyline points="12,65.788 15.116,68.933 18.232,47.54 21.347,43.035 24.463,70.17 27.579,63.355 30.695,51.781 33.811,40.271 36.926,65.393 40.042,59.708 43.158,41.79 46.274,47.803 49.389,61.758 52.505,59.745 55.621,40.203 58.737,62.749 61.853,62.865 64.968,37.138 68.084,62.872 71.2,57.41 74.316,57.577 77.432,57.798 80.547,65.905 83.663,57.556 86.779,43.124 89.895,42.215 93.011,59.294 96.126,43.002 99.242,66.767 102.358,64.287 105.474,46.48 108.589,69.131 111.705,48.962 114.821,52.968 117.937,58.755 121.053,71.823 124.168,70.382 127.284,73.356 130.4,69.842 133.516,63.36 136.632,71.157 139.747,77.337 142.863,67.54 145.979,69.407 149.095,81.968 152.211,70.082 155.326,75.664 158.442,71.724 161.558,63.803 164.674,72.902 167.789,83.868 170.905,80.732 174.021,74.102 177.137,67.457 180.253,82.607 183.368,81.075 186.484,76.952 189.6,64.755 192.716,75.526 195.832,75.421 198.947,52.341 202.063,57.845 205.179,52.301 208.295,51.631 211.411,64.412 214.526,53.427 217.642,51.169 220.758,61.593 223.874,54.196 226.989,50.893 230.105,46.149 233.221,43.457 236.337,50.308 239.453,53.544 242.568,40.202 245.684,63.001 248.8,43.792 251.916,49.705 255.032,57.372 258.147,54.351 261.263,47.319 264.379,38.755 267.495,58.705 270.611,43.682 273.726,58.465 276.842,43.009 279.958,42.497 283.074,57.121 286.189,45.134 289.305,51.607 292.421,67.957 295.537,48.907 298.653,69.285 301.768,65.101 304.884,51.982 308,53.581" fill="none" stroke="#111827" stroke-width="2" stroke-linecap="round" stroke-linejoin="round"/>
  <text x="12" y="18" font-family="Arial, Helvetica, sans-serif" font-size="12" fill="#111827">56: Cacophonous Buzz 1</text>
</svg>
