<svg xmlns="http://www.w3.org/2000/svg" width="320" height="120" viewBox="0 0 320 120" role="img" aria-label="Waveform 57 Mid Buzz 1">
    <rect x="0" y="0" width="320" height="120" fill="#f6f7f9"/>
    <line x1="12" y1="60" x2="308" y2="60" stroke="#c4c9d4" stroke-width="1"/>
  <polyline points="12,50.648 15.116,60.089 18.232,55.597 21.347,64.864 24.463,55.861 27.579,65.578 30.695,66.201 33.811,53.065 36.926,60.167 40.042,47.472 43.158,48.051 46.274,53.059 49.389,41.098 52.505,44.376 55.621,49.133 58.737,45.487 61.853,52.185 64.968,50.37 68.084,65.065 71.2,49.948 74.316,58.278 77.432,56.026 80.547,67.106 83.663,54.249 86.779,47.76 89.895,60.617 93.011,71.91 96.126,62.962 99.242,67.961 102.358,79.257 105.474,74.079 108.589,70.654 111.705,75.129 114.821,60.609 117.937,56.373 121.053,77.521 124.168,81.38 127.284,58.561 130.4,68.639 133.516,78.338 136.632,78.939 139.747,68.857 142.863,77.975 145.979,62.596 149.095,61.579 152.211,66.868 155.326,57.609 158.442,61.616 161.558,49.95 164.674,56.796 167.789,67.107 170.905,53.316 174.021,66.881 177.137,45.823 180.253,60.691 183.368,56.765 186.484,57.128 189.6,38.695 192.716,56.777 195.832,37.345 198.947,38.256 202.063,50.33 205.179,63.65 208.295,61.86 211.411,56.635 214.526,62.778 217.642,65.26 220.758,40.563 223.874,49.547 226.989,63.326 230.105,56.709 233.221,57.818 236.337,75.15 239.453,51.082 242.568,63.93 245.684,52.626 248.8,69.19 251.916,65.333 255.032,80.87 258.147,67.248 261.263,58.333 264.379,63.396 267.495,63.759 270.611,59.467 273.726,57.956 276.842,64.07 279.958,73.597 283.074,67.77 286.189,65.105 289.305,62.7 292.421,52.609 295.537,73.238 298.653,59.916 301.768,59.329 304.884,67.307 308,55.342" fill="none" stroke="#111827" stroke-width="2" stroke-linecap="round" stroke-linejoin="round"/>
  <text x="12" y="18" font-family="Arial, Helvetica, sans-serif" font-size="12" fill="#111827">57: Mid Buzz 1</text>
</svg>
