<svg xmlns="http://www.w3.org/2000/svg" width="320" height="120" viewBox="0 0 320 120" role="img" aria-label="Waveform 61 Spark Wave 4">
    <rect x="0" y="0" width="320" height="120" fill="#f6f7f9"/>
    <line x1="12" y1="60" x2="308" y2="60" stroke="#c4c9d4" stroke-width="1"/>
  <polyline points="12,48.048 15.116,55.396 18.232,62.176 21.347,70.067 24.463,62.709 27.579,52.647 30.695,44.818 33.811,54.517 36.926,47.466 40.042,64.236 43.158,50.958 46.274,50.597 49.389,49.087 52.505,42.32 55.621,54.697 58.737,59.196 61.853,59.915 64.968,63.22 68.084,58.95 71.2,59.264 74.316,38.324 77.432,51.229 80.547,41.417 83.663,64.896 86.779,57.902 89.895,64.938 93.011,50.634 96.126,69.141 99.242,55.723 102.358,63.51 105.474,50.946 108.589,59.943 111.705,48.654 114.821,49.335 117.937,66.119 121.053,65.543 124.168,66.274 127.284,61.547 130.4,74.008 133.516,68.026 136.632,75.837 139.747,66.061 142.863,71.576 145.979,81.99 149.095,63.531 152.211,58.397 155.326,84.326 158.442,69.454 161.558,78.627 164.674,82.731 167.789,67.034 170.905,73.386 174.021,55.735 177.137,66.917 180.253,82.574 183.368,69.904 186.484,58.925 189.6,72.052 192.716,58.799 195.832,74.218 198.947,50.293 202.063,53.723 205.179,48.61 208.295,63.461 211.411,64.473 214.526,71.782 217.642,54.272 220.758,52.554 223.874,58.387 226.989,42.687 230.105,46.703 233.221,52.316 236.337,43.244 239.453,44.956 242.568,37.375 245.684,55.025 248.8,62.167 251.916,41.613 255.032,54.169 258.147,51.835 261.263,61.38 264.379,61.345 267.495,41.04 270.611,51.79 273.726,45.543 276.842,54.822 279.958,51.677 283.074,57.353 286.189,41.534 289.305,41.161 292.421,50.725 295.537,66.482 298.653,45.223 301.768,70.47 304.884,58.695 308,62.385" fill="none" stroke="#111827" stroke-width="2" stroke-linecap="round" stroke-linejoin="round"/>
  <text x="12" y="18" font-family="Arial, Helvetica, sans-serif" font-size="12" fill="#111827">61: Spark Wave 4</text>
</svg>
