<svg xmlns="http://www.w3.org/2000/svg" width="320" height="120" viewBox="0 0 320 120" role="img" aria-label="Waveform 62 Spark Wave 5">
    <rect x="0" y="0" width="320" height="120" fill="#f6f7f9"/>
    <line x1="12" y1="60" x2="308" y2="60" stroke="#c4c9d4" stroke-width="1"/>
  <polyline points="12,61.889 15.116,46.553 18.232,70.234 21.347,62.916 24.463,48.401 27.579,54.87 30.695,59.238 33.811,38.331 36.926,42.24 40.042,52 43.158,57.219 46.274,55.854 49.389,57.406 52.505,55.931 55.621,63.627 58.737,41.934 61.853,49.235 64.968,47.472 68.084,61.142 71.2,51.802 74.316,68.005 77.432,49.457 80.547,71.597 83.663,61.589 86.779,62.539 89.895,54.359 93.011,63.25 96.126,60.121 99.242,56.918 102.358,78.481 105.474,78.546 108.589,61.467 111.705,74.821 114.821,56.976 117.937,63.737 121.053,71.241 124.168,77.272 127.284,75.732 130.4,72.805 133.516,83.003 136.632,54.64 139.747,57.58 142.863,53.031 145.979,75.178 149.095,72.122 152.211,55.183 155.326,66.271 158.442,59.346 161.558,64.774 164.674,66.625 167.789,50.273 170.905,45.969 174.021,48.514 177.137,45.283 180.253,60.658 183.368,45.595 186.484,39.101 189.6,45.992 192.716,40.05 195.832,36.142 198.947,36.208 202.063,46.208 205.179,59.959 208.295,44.71 211.411,56.697 214.526,52.154 217.642,39.383 220.758,60.504 223.874,53.738 226.989,55.119 230.105,57.264 233.221,66.677 236.337,68.087 239.453,71.474 242.568,61.104 245.684,73.63 248.8,58.585 251.916,57.242 255.032,77.666 258.147,64.732 261.263,72.393 264.379,57.006 267.495,75.074 270.611,67.575 273.726,74.014 276.842,75.882 279.958,82.777 283.074,68.002 286.189,61.506 289.305,81.234 292.421,64.357 295.537,61.834 298.653,64.834 301.768,64.698 304.884,74.02 308,64.145" fill="none" stroke="#111827" stroke-width="2" stroke-linecap="round" stroke-linejoin="round"/>
  <text x="12" y="18" font-family="Arial, Helvetica, sans-serif" font-size="12" fill="#111827">62: Spark Wave 5</text>
</svg>
