<svg xmlns="http://www.w3.org/2000/svg" width="320" height="120" viewBox="0 0 320 120" role="img" aria-label="Waveform 65 Organ">
    <rect x="0" y="0" width="320" height="120" fill="#f6f7f9"/>
    <line x1="12" y1="60" x2="308" y2="60" stroke="#c4c9d4" stroke-width="1"/>
  <polyline points="12,60 15.116,56.729 18.232,53.543 21.347,50.524 24.463,47.75 27.579,45.286 30.695,43.189 33.811,41.5 36.926,40.248 40.042,39.442 43.158,39.079 46.274,39.138 49.389,39.583 52.505,40.367 55.621,41.429 58.737,42.7 61.853,44.106 64.968,45.57 68.084,47.015 71.2,48.365 74.316,49.555 77.432,50.524 80.547,51.227 83.663,51.629 86.779,51.71 89.895,51.467 93.011,50.912 96.126,50.07 99.242,48.984 102.358,47.706 105.474,46.3 108.589,44.836 111.705,43.391 114.821,42.043 117.937,40.867 121.053,39.936 124.168,39.315 127.284,39.058 130.4,39.206 133.516,39.789 136.632,40.818 139.747,42.292 142.863,44.189 145.979,46.475 149.095,49.102 152.211,52.008 155.326,55.12 158.442,58.359 161.558,61.641 164.674,64.88 167.789,67.992 170.905,70.898 174.021,73.525 177.137,75.811 180.253,77.708 183.368,79.182 186.484,80.211 189.6,80.794 192.716,80.942 195.832,80.685 198.947,80.064 202.063,79.133 205.179,77.957 208.295,76.609 211.411,75.164 214.526,73.7 217.642,72.294 220.758,71.016 223.874,69.93 226.989,69.088 230.105,68.533 233.221,68.29 236.337,68.371 239.453,68.773 242.568,69.476 245.684,70.445 248.8,71.635 251.916,72.985 255.032,74.43 258.147,75.894 261.263,77.3 264.379,78.571 267.495,79.633 270.611,80.417 273.726,80.862 276.842,80.921 279.958,80.558 283.074,79.752 286.189,78.5 289.305,76.811 292.421,74.714 295.537,72.25 298.653,69.476 301.768,66.457 304.884,63.271 308,60" fill="none" stroke="#111827" stroke-width="2" stroke-linecap="round" stroke-linejoin="round"/>
  <text x="12" y="18" font-family="Arial, Helvetica, sans-serif" font-size="12" fill="#111827">65: Organ</text>
</svg>
