<svg xmlns="http://www.w3.org/2000/svg" width="320" height="120" viewBox="0 0 320 120" role="img" aria-label="Waveform 66 Spark Wave 5">
    <rect x="0" y="0" width="320" height="120" fill="#f6f7f9"/>
    <line x1="12" y1="60" x2="308" y2="60" stroke="#c4c9d4" stroke-width="1"/>
  <polyline points="12,59.289 15.116,70.84 18.232,47.833 21.347,68.119 24.463,55.249 27.579,41.939 30.695,66.834 33.811,39.783 36.926,58.52 40.042,39.784 43.158,60.126 46.274,53.391 49.389,36.415 52.505,53.875 55.621,40.211 58.737,55.643 61.853,56.965 64.968,60.322 68.084,55.027 71.2,61.118 74.316,48.051 77.432,44.66 80.547,45.908 83.663,43.256 86.779,43.701 89.895,58.681 93.011,41.974 96.126,66.299 99.242,44.68 102.358,62.733 105.474,55.412 108.589,50.756 111.705,48.346 114.821,74.683 117.937,73.483 121.053,59.263 124.168,62.166 127.284,78.718 130.4,78.173 133.516,72.691 136.632,80.518 139.747,54.784 142.863,75.612 145.979,65.593 149.095,74.075 152.211,75.692 155.326,64.008 158.442,67.184 161.558,64.471 164.674,63.58 167.789,79.18 170.905,66.039 174.021,66.348 177.137,66.377 180.253,82.541 183.368,58.734 186.484,69.877 189.6,79.349 192.716,71.052 195.832,73.015 198.947,77.225 202.063,49.6 205.179,73.899 208.295,46.311 211.411,64.535 214.526,61.157 217.642,57.374 220.758,43.515 223.874,62.578 226.989,63.461 230.105,47.258 233.221,61.176 236.337,65.161 239.453,65.348 242.568,63.528 245.684,47.048 248.8,51.561 251.916,62.502 255.032,50.965 258.147,49.319 261.263,46.461 264.379,54.955 267.495,52.354 270.611,59.898 273.726,61.601 276.842,37.654 279.958,60.856 283.074,57.585 286.189,66.915 289.305,59.696 292.421,62.472 295.537,55.077 298.653,50.141 301.768,46.859 304.884,65.408 308,71.188" fill="none" stroke="#111827" stroke-width="2" stroke-linecap="round" stroke-linejoin="round"/>
  <text x="12" y="18" font-family="Arial, Helvetica, sans-serif" font-size="12" fill="#111827">66: Spark Wave 5</text>
</svg>
