<svg xmlns="http://www.w3.org/2000/svg" width="320" height="120" viewBox="0 0 320 120" role="img" aria-label="Waveform 67 Soft Wave 1">
    <rect x="0" y="0" width="320" height="120" fill="#f6f7f9"/>
    <line x1="12" y1="60" x2="308" y2="60" stroke="#c4c9d4" stroke-width="1"/>
  <polyline points="12,67.502 15.116,60.827 18.232,57.014 21.347,59.575 24.463,47.764 27.579,49.206 30.695,53.401 33.811,53.089 36.926,52.963 40.042,54.222 43.158,42.652 46.274,54.09 49.389,45.384 52.505,41.019 55.621,46.243 58.737,39.199 61.853,42.787 64.968,40.855 68.084,47.112 71.2,44.102 74.316,40.334 77.432,36.039 80.547,37.541 83.663,49.148 86.779,36.583 89.895,35.724 93.011,38.797 96.126,39.801 99.242,49.426 102.358,50.76 105.474,37.073 108.589,52.614 111.705,48.891 114.821,53.638 117.937,47.667 121.053,44.757 124.168,50.2 127.284,45.827 130.4,54.339 133.516,45.089 136.632,46.779 139.747,57.35 142.863,48.499 145.979,51.131 149.095,49.951 152.211,62.485 155.326,65.727 158.442,57.391 161.558,55.578 164.674,55.648 167.789,66.028 170.905,70.785 174.021,67.674 177.137,61.107 180.253,71.74 183.368,74.779 186.484,68.478 189.6,71.524 192.716,72.016 195.832,79.562 198.947,79.872 202.063,68.44 205.179,76.985 208.295,77.426 211.411,77.682 214.526,68.962 217.642,69.348 220.758,74.186 223.874,77.46 226.989,70.633 230.105,76.23 233.221,69.071 236.337,76.539 239.453,76.742 242.568,73.198 245.684,76.469 248.8,81.964 251.916,81.66 255.032,78.595 258.147,70.642 261.263,67.004 264.379,78.75 267.495,65.218 270.611,74.854 273.726,65.762 276.842,63.704 279.958,65.494 283.074,67.91 286.189,61.473 289.305,68.349 292.421,70.947 295.537,72.436 298.653,66.551 301.768,66.39 304.884,55.602 308,67.399" fill="none" stroke="#111827" stroke-width="2" stroke-linecap="round" stroke-linejoin="round"/>
  <text x="12" y="18" font-family="Arial, Helvetica, sans-serif" font-size="12" fill="#111827">67: Soft Wave 1</text>
</svg>
