<svg xmlns="http://www.w3.org/2000/svg" width="320" height="120" viewBox="0 0 320 120" role="img" aria-label="Waveform 68 Soft Wave 2">
    <rect x="0" y="0" width="320" height="120" fill="#f6f7f9"/>
    <line x1="12" y1="60" x2="308" y2="60" stroke="#c4c9d4" stroke-width="1"/>
  <polyline points="12,58.851 15.116,55.967 18.232,61.999 21.347,56.04 24.463,56.848 27.579,51.294 30.695,45.982 33.811,44.781 36.926,50.914 40.042,48.116 43.158,47.011 46.274,41.161 49.389,50.56 52.505,48.963 55.621,51.211 58.737,45.417 61.853,52.385 64.968,47.147 68.084,46.663 71.2,37.69 74.316,38.134 77.432,48.536 80.547,51.302 83.663,43.363 86.779,51.52 89.895,41.633 93.011,41.119 96.126,46.101 99.242,44.852 102.358,37.423 105.474,47.519 108.589,48.252 111.705,42.231 114.821,53.223 117.937,41.885 121.053,44.04 124.168,53.042 127.284,51.102 130.4,51.503 133.516,52.246 136.632,50.626 139.747,52.749 142.863,55.584 145.979,49.257 149.095,57.78 152.211,64.461 155.326,60.093 158.442,57.132 161.558,53.96 164.674,53.459 167.789,64.104 170.905,63.322 174.021,72.199 177.137,57.733 180.253,68.424 183.368,70.19 186.484,66.417 189.6,65.734 192.716,70.105 195.832,66.177 198.947,79.638 202.063,71.281 205.179,73.251 208.295,72.154 211.411,77.689 214.526,77.684 217.642,79.639 220.758,79.777 223.874,74.627 226.989,76.319 230.105,79.606 233.221,73.395 236.337,69.107 239.453,69.136 242.568,79.499 245.684,78.869 248.8,70.816 251.916,80.735 255.032,81.54 258.147,67.043 261.263,78.547 264.379,81.332 267.495,73.135 270.611,72.469 273.726,70.909 276.842,65.054 279.958,73.168 283.074,64.625 286.189,64.373 289.305,67.155 292.421,72.29 295.537,64.508 298.653,57.177 301.768,60.38 304.884,62.993 308,51.845" fill="none" stroke="#111827" stroke-width="2" stroke-linecap="round" stroke-linejoin="round"/>
  <text x="12" y="18" font-family="Arial, Helvetica, sans-serif" font-size="12" fill="#111827">68: Soft Wave 2</text>
</svg>
