<svg xmlns="http://www.w3.org/2000/svg" width="320" height="120" viewBox="0 0 320 120" role="img" aria-label="Waveform 69 Spark Wave 7">
    <rect x="0" y="0" width="320" height="120" fill="#f6f7f9"/>
    <line x1="12" y1="60" x2="308" y2="60" stroke="#c4c9d4" stroke-width="1"/>
  <polyline points="12,71.829 15.116,44.315 18.232,43.063 21.347,46.794 24.463,41.598 27.579,49.164 30.695,53.053 33.811,50.571 36.926,44.794 40.042,63.634 43.158,53.221 46.274,44.186 49.389,66.064 52.505,42.051 55.621,43.812 58.737,67.918 61.853,60.09 64.968,48.054 68.084,67.099 71.2,72.361 74.316,53.592 77.432,70.177 80.547,78.4 83.663,59.942 86.779,81.633 89.895,77.113 93.011,69.018 96.126,54.305 99.242,60.212 102.358,58.606 105.474,57.36 108.589,58.884 111.705,70.319 114.821,68.432 117.937,65.109 121.053,45.778 124.168,64.934 127.284,63.184 130.4,47.358 133.516,64.122 136.632,53.805 139.747,41.395 142.863,36.819 145.979,38.357 149.095,40.861 152.211,42.13 155.326,50.138 158.442,54.459 161.558,46.665 164.674,73.868 167.789,63.972 170.905,52.726 174.021,59.849 177.137,77.981 180.253,66.805 183.368,66.324 186.484,62.459 189.6,81.691 192.716,64.812 195.832,64.23 198.947,78.993 202.063,66.763 205.179,55.638 208.295,47.955 211.411,63.891 214.526,47.33 217.642,50.921 220.758,40.688 223.874,44.055 226.989,60.514 230.105,61.303 233.221,51.697 236.337,52.733 239.453,53.14 242.568,38.82 245.684,61.514 248.8,54.754 251.916,63.445 255.032,45.357 258.147,69.407 261.263,61.12 264.379,53.391 267.495,51.42 270.611,64.12 273.726,77.299 276.842,62.885 279.958,61.353 283.074,58.064 286.189,69.966 289.305,68.842 292.421,83.112 295.537,53.818 298.653,67.726 301.768,50.324 304.884,49.318 308,47.489" fill="none" stroke="#111827" stroke-width="2" stroke-linecap="round" stroke-linejoin="round"/>
  <text x="12" y="18" font-family="Arial, Helvetica, sans-serif" font-size="12" fill="#111827">69: Spark Wave 7</text>
</svg>
