<svg xmlns="http://www.w3.org/2000/svg" width="320" height="120" viewBox="0 0 320 120" role="img" aria-label="Waveform 70 Reed">
    <rect x="0" y="0" width="320" height="120" fill="#f6f7f9"/>
    <line x1="12" y1="60" x2="308" y2="60" stroke="#c4c9d4" stroke-width="1"/>
  <polyline points="12,56.689 15.116,66.148 18.232,54.421 21.347,44.372 24.463,62.167 27.579,58.122 30.695,45.679 33.811,41.589 36.926,46.333 40.042,57.256 43.158,63.972 46.274,52.131 49.389,45.897 52.505,53.628 55.621,47.918 58.737,42.859 61.853,38.546 64.968,47.357 68.084,52.391 71.2,45.213 74.316,61.073 77.432,44.041 80.547,53.489 83.663,58.225 86.779,58.107 89.895,38.126 93.011,53.511 96.126,46.945 99.242,64.36 102.358,49.29 105.474,62.802 108.589,40.703 111.705,50.503 114.821,61.939 117.937,51.55 121.053,43.264 124.168,41.636 127.284,45.831 130.4,46.155 133.516,52.431 136.632,65.926 139.747,67.953 142.863,54.719 145.979,69.084 149.095,58.811 152.211,48.812 155.326,71.269 158.442,54.688 161.558,72.131 164.674,68.028 167.789,57.382 170.905,64.396 174.021,62.741 177.137,66.577 180.253,55.372 183.368,52.905 186.484,54.089 189.6,67.798 192.716,59.07 195.832,69.077 198.947,79.841 202.063,75.174 205.179,54.871 208.295,75.872 211.411,74.451 214.526,75.432 217.642,83.886 220.758,67.299 223.874,57.481 226.989,61.056 230.105,58.578 233.221,79.95 236.337,60.301 239.453,59.844 242.568,68.874 245.684,83.363 248.8,80.152 251.916,75.751 255.032,62.222 258.147,72.47 261.263,59.301 264.379,62.498 267.495,67.6 270.611,60.19 273.726,55.737 276.842,62.126 279.958,70.473 283.074,76.17 286.189,69.485 289.305,61.143 292.421,51.177 295.537,64.252 298.653,47.558 301.768,66.151 304.884,60.896 308,49.25" fill="none" stroke="#111827" stroke-width="2" stroke-linecap="round" stroke-linejoin="round"/>
  <text x="12" y="18" font-family="Arial, Helvetica, sans-serif" font-size="12" fill="#111827">70: Reed</text>
</svg>
