<svg xmlns="http://www.w3.org/2000/svg" width="320" height="120" viewBox="0 0 320 120" role="img" aria-label="Waveform 71 Soft Wave 3">
    <rect x="0" y="0" width="320" height="120" fill="#f6f7f9"/>
    <line x1="12" y1="60" x2="308" y2="60" stroke="#c4c9d4" stroke-width="1"/>
  <polyline points="12,66.017 15.116,57.95 18.232,60.393 21.347,61.996 24.463,50.978 27.579,57.559 30.695,56.842 33.811,52.977 36.926,44.768 40.042,46.356 43.158,43.531 46.274,52.055 49.389,49.528 52.505,39.677 55.621,49.557 58.737,47.511 61.853,48.062 64.968,49.466 68.084,45.318 71.2,51.574 74.316,48.093 77.432,36.348 80.547,42.906 83.663,42.568 86.779,46.651 89.895,42.8 93.011,48.086 96.126,48.439 99.242,47.689 102.358,47.093 105.474,45.739 108.589,51.726 111.705,38.814 114.821,51.978 117.937,41.098 121.053,41.887 124.168,45.01 127.284,50.365 130.4,42.995 133.516,57.158 136.632,45.607 139.747,55.507 142.863,60.28 145.979,60.195 149.095,48.147 152.211,53.831 155.326,59.751 158.442,56.353 161.558,65.666 164.674,63.453 167.789,58.332 170.905,57.491 174.021,69.213 177.137,64.172 180.253,75.037 183.368,72.984 186.484,76.797 189.6,64.923 192.716,64.37 195.832,75.7 198.947,78.936 202.063,79.803 205.179,78.61 208.295,72.898 211.411,77.71 214.526,70.729 217.642,77.39 220.758,79.989 223.874,82.688 226.989,76.818 230.105,73.172 233.221,69.809 236.337,79.934 239.453,79.44 242.568,81.842 245.684,69.511 248.8,70.492 251.916,77.961 255.032,73.818 258.147,72.804 261.263,80.056 264.379,72.517 267.495,80.326 270.611,65.313 273.726,69.791 276.842,69.104 279.958,63.067 283.074,71.328 286.189,73.075 289.305,63.574 292.421,59.758 295.537,57.286 298.653,62.175 301.768,58.908 304.884,68.607 308,54.863" fill="none" stroke="#111827" stroke-width="2" stroke-linecap="round" stroke-linejoin="round"/>
  <text x="12" y="18" font-family="Arial, Helvetica, sans-serif" font-size="12" fill="#111827">71: Soft Wave 3</text>
</svg>
