<svg xmlns="http://www.w3.org/2000/svg" width="320" height="120" viewBox="0 0 320 120" role="img" aria-label="Waveform 72 Soft Wave 4">
    <rect x="0" y="0" width="320" height="120" fill="#f6f7f9"/>
    <line x1="12" y1="60" x2="308" y2="60" stroke="#c4c9d4" stroke-width="1"/>
  <polyline points="12,57.366 15.116,53.091 18.232,65.378 21.347,58.462 24.463,60.061 27.579,59.647 30.695,49.422 33.811,44.669 36.926,59.279 40.042,56.81 43.158,47.89 46.274,55.686 49.389,54.703 52.505,47.622 55.621,54.525 58.737,53.729 61.853,41.101 64.968,39.199 68.084,44.87 71.2,45.161 74.316,45.893 77.432,48.845 80.547,40.107 83.663,36.783 86.779,45.028 89.895,48.709 93.011,50.409 96.126,38.178 99.242,43.115 102.358,50.316 105.474,39.625 108.589,47.364 111.705,48.715 114.821,51.563 117.937,51.875 121.053,41.169 124.168,47.852 127.284,55.639 130.4,56.719 133.516,47.755 136.632,49.453 139.747,50.906 142.863,50.805 145.979,58.321 149.095,55.976 152.211,55.808 155.326,54.117 158.442,56.094 161.558,64.049 164.674,61.264 167.789,56.409 170.905,66.587 174.021,57.178 177.137,60.798 180.253,71.721 183.368,68.396 186.484,74.736 189.6,75.693 192.716,62.458 195.832,78.875 198.947,78.702 202.063,66.084 205.179,74.876 208.295,67.626 211.411,77.717 214.526,79.451 217.642,71.121 220.758,69.02 223.874,79.855 226.989,82.504 230.105,76.547 233.221,74.133 236.337,72.502 239.453,71.834 242.568,71.583 245.684,71.911 248.8,75.904 251.916,77.036 255.032,76.764 258.147,69.204 261.263,75.039 264.379,75.099 267.495,71.684 270.611,79.487 273.726,74.938 276.842,70.454 279.958,70.74 283.074,68.043 286.189,59.416 289.305,62.38 292.421,61.1 295.537,65.919 298.653,69.361 301.768,69.458 304.884,59.438 308,55.869" fill="none" stroke="#111827" stroke-width="2" stroke-linecap="round" stroke-linejoin="round"/>
  <text x="12" y="18" font-family="Arial, Helvetica, sans-serif" font-size="12" fill="#111827">72: Soft Wave 4</text>
</svg>
