<svg xmlns="http://www.w3.org/2000/svg" width="320" height="120" viewBox="0 0 320 120" role="img" aria-label="Waveform 73 Saxophone">
    <rect x="0" y="0" width="320" height="120" fill="#f6f7f9"/>
    <line x1="12" y1="60" x2="308" y2="60" stroke="#c4c9d4" stroke-width="1"/>
  <polyline points="12,69.23 15.116,68.599 18.232,49.616 21.347,51.909 24.463,48.244 27.579,64.831 30.695,60.02 33.811,51.077 36.926,59.748 40.042,49.666 43.158,53.923 46.274,39.065 49.389,41.991 52.505,65.535 55.621,45.679 58.737,48.83 61.853,64.054 64.968,57.389 68.084,57.944 71.2,50.373 74.316,61.258 77.432,65.231 80.547,54.002 83.663,73.527 86.779,67.55 89.895,59.147 93.011,56.437 96.126,71.181 99.242,60.605 102.358,57.279 105.474,79.198 108.589,65.443 111.705,62.034 114.821,75.847 117.937,64.591 121.053,52.037 124.168,67.054 127.284,52.868 130.4,66.33 133.516,64.84 136.632,58.708 139.747,43.187 142.863,60.262 145.979,54.666 149.095,64.643 152.211,51.414 155.326,61.662 158.442,43.354 161.558,52.981 164.674,45.479 167.789,36.1 170.905,43.153 174.021,46.867 177.137,67.805 180.253,57.705 183.368,49.509 186.484,65.032 189.6,60.297 192.716,73.094 195.832,52.989 198.947,75.924 202.063,59.404 205.179,63.39 208.295,76.992 211.411,74.784 214.526,63.816 217.642,80.534 220.758,68.042 223.874,71.509 226.989,61.171 230.105,74.648 233.221,70.94 236.337,75.267 239.453,72.52 242.568,66.155 245.684,58.655 248.8,69.742 251.916,59.582 255.032,64.992 258.147,68.606 261.263,46.92 264.379,60.166 267.495,63.678 270.611,59.79 273.726,36.863 276.842,52.542 279.958,36.678 283.074,43.664 286.189,41.633 289.305,42.21 292.421,47.251 295.537,42.55 298.653,49.338 301.768,58.85 304.884,68.332 308,54.532" fill="none" stroke="#111827" stroke-width="2" stroke-linecap="round" stroke-linejoin="round"/>
  <text x="12" y="18" font-family="Arial, Helvetica, sans-serif" font-size="12" fill="#111827">73: Saxophone</text>
</svg>
