<svg xmlns="http://www.w3.org/2000/svg" width="320" height="120" viewBox="0 0 320 120" role="img" aria-label="Waveform 74 Soft Wave 5">
    <rect x="0" y="0" width="320" height="120" fill="#f6f7f9"/>
    <line x1="12" y1="60" x2="308" y2="60" stroke="#c4c9d4" stroke-width="1"/>
  <polyline points="12,56.623 15.116,59.933 18.232,58.787 21.347,51.393 24.463,61.668 27.579,47.263 30.695,51.143 33.811,44.614 36.926,55.182 40.042,44.597 43.158,56.61 46.274,46.389 49.389,48.495 52.505,46.951 55.621,47.902 58.737,49.604 61.853,43.738 64.968,51.784 68.084,43.974 71.2,48.897 74.316,41.492 77.432,40.719 80.547,51.07 83.663,41.772 86.779,41.782 89.895,43.967 93.011,38.493 96.126,50.777 99.242,50.527 102.358,40.203 105.474,43.958 108.589,38.64 111.705,51.956 114.821,50.732 117.937,40.31 121.053,39.734 124.168,53.538 127.284,49.628 130.4,51.047 133.516,45.509 136.632,57.147 139.747,58.265 142.863,48.416 145.979,54.573 149.095,55.074 152.211,59.761 155.326,59.409 158.442,55.575 161.558,60.813 164.674,56.887 167.789,69.121 170.905,68.22 174.021,66.228 177.137,70.611 180.253,65.089 183.368,75.778 186.484,70.616 189.6,64.113 192.716,75.195 195.832,68.664 198.947,78.234 202.063,71.766 205.179,67.408 208.295,73.642 211.411,77.731 214.526,80.334 217.642,75.142 220.758,80.202 223.874,74.189 226.989,77.316 230.105,83.298 233.221,82.782 236.337,74.2 239.453,73.183 242.568,84.184 245.684,76.712 248.8,70.168 251.916,75.187 255.032,82.656 258.147,78.565 261.263,81.565 264.379,80.262 267.495,70.958 270.611,74.717 273.726,68.672 276.842,73.154 279.958,69.526 283.074,61.472 286.189,65.217 289.305,59.992 292.421,63.786 295.537,66.624 298.653,67.173 301.768,57.437 304.884,57.661 308,57.881" fill="none" stroke="#111827" stroke-width="2" stroke-linecap="round" stroke-linejoin="round"/>
  <text x="12" y="18" font-family="Arial, Helvetica, sans-serif" font-size="12" fill="#111827">74: Soft Wave 5</text>
</svg>
