<svg xmlns="http://www.w3.org/2000/svg" width="320" height="120" viewBox="0 0 320 120" role="img" aria-label="Waveform 75 Trashy Wave 1">
    <rect x="0" y="0" width="320" height="120" fill="#f6f7f9"/>
    <line x1="12" y1="60" x2="308" y2="60" stroke="#c4c9d4" stroke-width="1"/>
  <polyline points="12,63.141 15.116,79.342 18.232,49.458 21.347,69.982 24.463,65.324 27.579,48.448 30.695,74.888 33.811,57.469 36.926,63.939 40.042,50.068 43.158,36.676 46.274,52.036 49.389,54.849 52.505,43.113 55.621,53.736 58.737,46.015 61.853,54.864 64.968,67.34 68.084,70.907 71.2,48.427 74.316,37.227 77.432,49.202 80.547,67.027 83.663,36.467 86.779,38.607 89.895,53.706 93.011,61.765 96.126,45.049 99.242,56.018 102.358,55.496 105.474,62.836 108.589,55.272 111.705,53.147 114.821,31.458 117.937,51.78 121.053,33.689 124.168,71.857 127.284,53.067 130.4,52.226 133.516,44.833 136.632,51.083 139.747,67.415 142.863,66.645 145.979,78.798 149.095,49.386 152.211,50.819 155.326,56.663 158.442,65.192 161.558,62.759 164.674,67.271 167.789,59.012 170.905,49.463 174.021,79.312 177.137,50.877 180.253,56.426 183.368,47.226 186.484,62.695 189.6,82.224 192.716,70.373 195.832,75.33 198.947,57.576 202.063,62.728 205.179,75.417 208.295,73.265 211.411,66.511 214.526,47.363 217.642,79.007 220.758,81.065 223.874,53.929 226.989,62.526 230.105,75.754 233.221,65.477 236.337,78.563 239.453,60.552 242.568,93.979 245.684,71.187 248.8,88.047 251.916,60.323 255.032,79.187 258.147,47.425 261.263,70.3 264.379,75.94 267.495,59.277 270.611,52.686 273.726,56.701 276.842,70.129 279.958,73.54 283.074,65.005 286.189,66.324 289.305,69.231 292.421,71.084 295.537,42.797 298.653,59.815 301.768,39.913 304.884,54.809 308,66.481" fill="none" stroke="#111827" stroke-width="2" stroke-linecap="round" stroke-linejoin="round"/>
  <text x="12" y="18" font-family="Arial, Helvetica, sans-serif" font-size="12" fill="#111827">75: Trashy Wave 1</text>
</svg>
