<svg xmlns="http://www.w3.org/2000/svg" width="320" height="120" viewBox="0 0 320 120" role="img" aria-label="Waveform 76 Trashy Wave 2">
    <rect x="0" y="0" width="320" height="120" fill="#f6f7f9"/>
    <line x1="12" y1="60" x2="308" y2="60" stroke="#c4c9d4" stroke-width="1"/>
  <polyline points="12,62.627 15.116,54.326 18.232,67.289 21.347,45.618 24.463,52.812 27.579,59.051 30.695,42.394 33.811,42.955 36.926,57.469 40.042,39.011 43.158,46.139 46.274,58.307 49.389,36.463 52.505,52.949 55.621,47.853 58.737,57.194 61.853,41.363 64.968,55.378 68.084,32.293 71.2,31.711 74.316,38.764 77.432,31.438 80.547,56.027 83.663,57.758 86.779,56.954 89.895,65.667 93.011,41.205 96.126,67.98 99.242,51.436 102.358,63.144 105.474,73.752 108.589,71.347 111.705,73.251 114.821,66.293 117.937,43.666 121.053,55.977 124.168,60.794 127.284,78.943 130.4,72.709 133.516,57.889 136.632,58.071 139.747,61.894 142.863,89.869 145.979,71.51 149.095,85.777 152.211,75.696 155.326,72.987 158.442,61.084 161.558,65.983 164.674,72.073 167.789,59.461 170.905,52.194 174.021,68.064 177.137,71.148 180.253,65.288 183.368,80.674 186.484,50.883 189.6,64.06 192.716,58.404 195.832,81.577 198.947,51.427 202.063,59.7 205.179,69.339 208.295,78.677 211.411,45.299 214.526,53.918 217.642,73.04 220.758,54.469 223.874,37.535 226.989,66.581 230.105,55.93 233.221,40.965 236.337,49.913 239.453,50.086 242.568,41.985 245.684,33.941 248.8,49.586 251.916,30.54 255.032,48.764 258.147,56.969 261.263,47.129 264.379,48.99 267.495,71.63 270.611,37.018 273.726,37.818 276.842,45.494 279.958,45.184 283.074,54.515 286.189,60.247 289.305,51.758 292.421,41.732 295.537,68.353 298.653,56.844 301.768,44.323 304.884,55.07 308,59.181" fill="none" stroke="#111827" stroke-width="2" stroke-linecap="round" stroke-linejoin="round"/>
  <text x="12" y="18" font-family="Arial, Helvetica, sans-serif" font-size="12" fill="#111827">76: Trashy Wave 2</text>
</svg>
