<svg xmlns="http://www.w3.org/2000/svg" width="320" height="120" viewBox="0 0 320 120" role="img" aria-label="Waveform 77 Trashy Wave 3">
    <rect x="0" y="0" width="320" height="120" fill="#f6f7f9"/>
    <line x1="12" y1="60" x2="308" y2="60" stroke="#c4c9d4" stroke-width="1"/>
  <polyline points="12,70.394 15.116,58.291 18.232,56.15 21.347,41.983 24.463,40.369 27.579,49.089 30.695,59.807 33.811,57.774 36.926,30.812 40.042,49.362 43.158,64.821 46.274,45.08 49.389,40.271 52.505,43.896 55.621,44.113 58.737,41.879 61.853,59.672 64.968,46.581 68.084,46.838 71.2,39.454 74.316,64.997 77.432,46.832 80.547,57.596 83.663,54.392 86.779,58.864 89.895,61.032 93.011,53.458 96.126,65.377 99.242,49.792 102.358,73.097 105.474,86.212 108.589,67.379 111.705,72.306 114.821,70.677 117.937,82.533 121.053,74.244 124.168,65.006 127.284,68.945 130.4,55.804 133.516,60.997 136.632,53.568 139.747,72.338 142.863,69.62 145.979,77.299 149.095,84.251 152.211,61.464 155.326,40.874 158.442,65.623 161.558,68.891 164.674,55.39 167.789,67.166 170.905,53.914 174.021,56.078 177.137,49.824 180.253,45.798 183.368,45.474 186.484,50.467 189.6,58.949 192.716,32.432 195.832,47.014 198.947,56.557 202.063,70.573 205.179,59.271 208.295,62.368 211.411,46.865 214.526,45.043 217.642,54.895 220.758,47.944 223.874,36.184 226.989,68.17 230.105,57.431 233.221,49.01 236.337,77.29 239.453,69.221 242.568,50.873 245.684,59.592 248.8,75.719 251.916,87.407 255.032,77.001 258.147,84.378 261.263,62.731 264.379,60.613 267.495,72.269 270.611,58.298 273.726,83.445 276.842,75.279 279.958,69.065 283.074,52.327 286.189,72.031 289.305,48.992 292.421,81.631 295.537,60.16 298.653,45.284 301.768,56.885 304.884,51.151 308,60.161" fill="none" stroke="#111827" stroke-width="2" stroke-linecap="round" stroke-linejoin="round"/>
  <text x="12" y="18" font-family="Arial, Helvetica, sans-serif" font-size="12" fill="#111827">77: Trashy Wave 3</text>
</svg>
