<svg xmlns="http://www.w3.org/2000/svg" width="320" height="120" viewBox="0 0 320 120" role="img" aria-label="Waveform 78 Trashy Wave 4">
    <rect x="0" y="0" width="320" height="120" fill="#f6f7f9"/>
    <line x1="12" y1="60" x2="308" y2="60" stroke="#c4c9d4" stroke-width="1"/>
  <polyline points="12,49.18 15.116,62.258 18.232,45.022 21.347,46.668 24.463,48.718 27.579,60 30.695,56.809 33.811,52.335 36.926,54.462 40.042,39.858 43.158,55.611 46.274,33.198 49.389,45.687 52.505,57.405 55.621,50.746 58.737,57.829 61.853,51.42 64.968,69.246 68.084,63.836 71.2,78.502 74.316,72.608 77.432,63.932 80.547,52.088 83.663,51.59 86.779,60.569 89.895,75.996 93.011,84.303 96.126,80.259 99.242,64.447 102.358,56.711 105.474,71.072 108.589,55.261 111.705,82.702 114.821,72.857 117.937,80.928 121.053,80.168 124.168,64.497 127.284,53.796 130.4,54.275 133.516,71.314 136.632,64.97 139.747,41.462 142.863,46.375 145.979,44.222 149.095,45.568 152.211,61.765 155.326,54.563 158.442,39.837 161.558,52.49 164.674,42.989 167.789,32.468 170.905,45.245 174.021,65.699 177.137,44.756 180.253,53.619 183.368,60.838 186.484,44.921 189.6,50.627 192.716,62.726 195.832,69.779 198.947,69.903 202.063,60.721 205.179,48.668 208.295,73.432 211.411,74.17 214.526,80.427 217.642,78.305 220.758,79.786 223.874,48.872 226.989,50.811 230.105,64.647 233.221,78.919 236.337,72.151 239.453,59.36 242.568,67.436 245.684,67.615 248.8,50.862 251.916,68.509 255.032,46.493 258.147,78.818 261.263,42.704 264.379,63.535 267.495,62.808 270.611,68.772 273.726,60.314 276.842,45.317 279.958,63.629 283.074,35.387 286.189,59.45 289.305,45.979 292.421,46.595 295.537,51.861 298.653,38.462 301.768,58.633 304.884,50.053 308,61.141" fill="none" stroke="#111827" stroke-width="2" stroke-linecap="round" stroke-linejoin="round"/>
  <text x="12" y="18" font-family="Arial, Helvetica, sans-serif" font-size="12" fill="#111827">78: Trashy Wave 4</text>
</svg>
