<svg xmlns="http://www.w3.org/2000/svg" width="320" height="120" viewBox="0 0 320 120" role="img" aria-label="Waveform 79 Trashy Wave 5">
    <rect x="0" y="0" width="320" height="120" fill="#f6f7f9"/>
    <line x1="12" y1="60" x2="308" y2="60" stroke="#c4c9d4" stroke-width="1"/>
  <polyline points="12,56.947 15.116,37.246 18.232,62.888 21.347,43.121 24.463,36.478 27.579,42.139 30.695,45.872 33.811,39.121 36.926,49.831 40.042,51.961 43.158,47.518 46.274,43.329 49.389,60.857 52.505,72.491 55.621,50.703 58.737,67.031 61.853,73.496 64.968,63.965 68.084,60.721 71.2,67.869 74.316,79.5 77.432,71.195 80.547,73.066 83.663,74.265 86.779,57.725 89.895,64.669 93.011,87.862 96.126,66.959 99.242,79.152 102.358,52.243 105.474,67.541 108.589,54.723 111.705,63.568 114.821,58.553 117.937,51.399 121.053,59.497 124.168,30.783 127.284,57.1 130.4,52.747 133.516,63.392 136.632,52.464 139.747,68.018 142.863,54.245 145.979,53.096 149.095,51.193 152.211,58.758 155.326,66.623 158.442,63.318 161.558,57.059 164.674,51.649 167.789,67.972 170.905,76.607 174.021,63.827 177.137,75.403 180.253,73.392 183.368,84.573 186.484,72.707 189.6,71.286 192.716,59.473 195.832,83.329 198.947,69.439 202.063,61.645 205.179,65.489 208.295,58.667 211.411,51.981 214.526,64.07 217.642,69.238 220.758,57.898 223.874,28.907 226.989,51.804 230.105,63.496 233.221,33.239 236.337,53.368 239.453,52.989 242.568,51.414 245.684,40.562 248.8,54.984 251.916,55.838 255.032,57.373 258.147,62.636 261.263,75.553 264.379,66.333 267.495,57.449 270.611,66.006 273.726,76.003 276.842,55.497 279.958,69.564 283.074,86.862 286.189,55.296 289.305,77.286 292.421,91.489 295.537,48.179 298.653,51.296 301.768,73.809 304.884,76.467 308,62.121" fill="none" stroke="#111827" stroke-width="2" stroke-linecap="round" stroke-linejoin="round"/>
  <text x="12" y="18" font-family="Arial, Helvetica, sans-serif" font-size="12" fill="#111827">79: Trashy Wave 5</text>
</svg>
