<svg xmlns="http://www.w3.org/2000/svg" width="320" height="120" viewBox="0 0 320 120" role="img" aria-label="Waveform 80 Trashy Wave 6">
    <rect x="0" y="0" width="320" height="120" fill="#f6f7f9"/>
    <line x1="12" y1="60" x2="308" y2="60" stroke="#c4c9d4" stroke-width="1"/>
  <polyline points="12,56.433 15.116,63.607 18.232,55.05 21.347,52.495 24.463,79.612 27.579,59.611 30.695,49.77 33.811,61.145 36.926,58.919 40.042,47.47 43.158,62.41 46.274,61.77 49.389,65.159 52.505,32.423 55.621,42.138 58.737,43.918 61.853,51.962 64.968,70.218 68.084,58.364 71.2,55.925 74.316,33.853 77.432,62.225 80.547,40.244 83.663,43.508 86.779,60.452 89.895,31.624 93.011,43.012 96.126,37.037 99.242,51.482 102.358,37.909 105.474,57.843 108.589,60.031 111.705,66.32 114.821,48.803 117.937,50.11 121.053,40.572 124.168,58.659 127.284,44.543 130.4,35.842 133.516,39.832 136.632,52.3 139.747,55.541 142.863,41.46 145.979,59.164 149.095,59.026 152.211,75.121 155.326,44.716 158.442,78.193 161.558,49.606 164.674,45.231 167.789,56.868 170.905,67.732 174.021,61.953 177.137,64.309 180.253,64.386 183.368,60.264 186.484,54.765 189.6,70.062 192.716,67.208 195.832,62.709 198.947,68.802 202.063,67.743 205.179,72.285 208.295,60.047 211.411,71.883 214.526,65.665 217.642,61.686 220.758,61.755 223.874,66.331 226.989,70.483 230.105,80.692 233.221,75.878 236.337,63.471 239.453,81.29 242.568,66.625 245.684,69.456 248.8,81.117 251.916,80.403 255.032,58.277 258.147,80.211 261.263,78.323 264.379,62.422 267.495,69.214 270.611,67.571 273.726,71.597 276.842,71.742 279.958,71.465 283.074,63.151 286.189,75.608 289.305,55.727 292.421,65.121 295.537,75.769 298.653,78.617 301.768,50.009 304.884,48.102 308,54.821" fill="none" stroke="#111827" stroke-width="2" stroke-linecap="round" stroke-linejoin="round"/>
  <text x="12" y="18" font-family="Arial, Helvetica, sans-serif" font-size="12" fill="#111827">80: Trashy Wave 6</text>
</svg>
