<svg xmlns="http://www.w3.org/2000/svg" width="320" height="120" viewBox="0 0 320 120" role="img" aria-label="Waveform 81 Jaw Harp 1">
    <rect x="0" y="0" width="320" height="120" fill="#f6f7f9"/>
    <line x1="12" y1="60" x2="308" y2="60" stroke="#c4c9d4" stroke-width="1"/>
  <polyline points="12,64.031 15.116,59.211 18.232,62.763 21.347,62.275 24.463,61.848 27.579,67.776 30.695,45.944 33.811,53.541 36.926,62.7 40.042,53.368 43.158,58.649 46.274,61.775 49.389,56.36 52.505,59.56 55.621,54.713 58.737,44.984 61.853,48.115 64.968,51.628 68.084,43.26 71.2,37.7 74.316,48.252 77.432,53.932 80.547,59.381 83.663,65.275 86.779,59.058 89.895,39.909 93.011,44.974 96.126,57.776 99.242,69.51 102.358,60.404 105.474,68.811 108.589,52.173 111.705,47.423 114.821,63.785 117.937,66.595 121.053,69.404 124.168,49.843 127.284,72.27 130.4,61.69 133.516,57.707 136.632,65.581 139.747,78.914 142.863,58.74 145.979,74.36 149.095,76.725 152.211,69.618 155.326,61.014 158.442,60.374 161.558,79.964 164.674,64.086 167.789,57.656 170.905,72.98 174.021,69.206 177.137,64.757 180.253,82.441 183.368,54.204 186.484,73.755 189.6,72.259 192.716,78.832 195.832,69.406 198.947,71.082 202.063,66.214 205.179,62.827 208.295,52.821 211.411,64.721 214.526,58.264 217.642,66.681 220.758,45.379 223.874,46.171 226.989,67.822 230.105,48.922 233.221,58.773 236.337,43.97 239.453,39.585 242.568,55.047 245.684,52.1 248.8,48.726 251.916,38.228 255.032,41.354 258.147,41.77 261.263,59.664 264.379,35.785 267.495,57.318 270.611,55.242 273.726,51.814 276.842,44.112 279.958,59.415 283.074,58.282 286.189,56.116 289.305,57.338 292.421,68.736 295.537,49.843 298.653,64.894 301.768,62.965 304.884,56.568 308,68.617" fill="none" stroke="#111827" stroke-width="2" stroke-linecap="round" stroke-linejoin="round"/>
  <text x="12" y="18" font-family="Arial, Helvetica, sans-serif" font-size="12" fill="#111827">81: Jaw Harp 1</text>
</svg>
