<svg xmlns="http://www.w3.org/2000/svg" width="320" height="120" viewBox="0 0 320 120" role="img" aria-label="Waveform 82 Jaw Harp 2">
    <rect x="0" y="0" width="320" height="120" fill="#f6f7f9"/>
    <line x1="12" y1="60" x2="308" y2="60" stroke="#c4c9d4" stroke-width="1"/>
  <polyline points="12,48.891 15.116,50.368 18.232,70.82 21.347,55.125 24.463,47.54 27.579,41.019 30.695,60.364 33.811,37.354 36.926,57.474 40.042,41.132 43.158,35.93 46.274,38.052 49.389,35.7 52.505,44.191 55.621,63.644 58.737,56.702 61.853,37.435 64.968,64.86 68.084,45.452 71.2,59.218 74.316,48.954 77.432,52.159 80.547,60.582 83.663,61.968 86.779,63.695 89.895,58.311 93.011,57.59 96.126,77.736 99.242,70.705 102.358,75.374 105.474,67.43 108.589,82.676 111.705,73.59 114.821,71.425 117.937,64.213 121.053,75.103 124.168,60.841 127.284,57.476 130.4,60.487 133.516,72.685 136.632,73.363 139.747,70.433 142.863,69.175 145.979,67.548 149.095,56.336 152.211,66.404 155.326,71.939 158.442,50.266 161.558,66.111 164.674,47.98 167.789,69.876 170.905,45.564 174.021,61.986 177.137,43.123 180.253,60.524 183.368,58.874 186.484,53.931 189.6,46.199 192.716,60.083 195.832,60.31 198.947,56.997 202.063,58.699 205.179,45.196 208.295,63.05 211.411,56.944 214.526,38.635 217.642,51.792 220.758,53.328 223.874,41.522 226.989,51.274 230.105,59.483 233.221,73.133 236.337,68.813 239.453,66.103 242.568,49.796 245.684,70.705 248.8,74.124 251.916,53.856 255.032,64.851 258.147,54.666 261.263,70.677 264.379,60.426 267.495,62.372 270.611,71.027 273.726,80.285 276.842,65.173 279.958,61.535 283.074,68.931 286.189,76.088 289.305,68.431 292.421,53.389 295.537,74.175 298.653,55.525 301.768,57.193 304.884,71.893 308,70.377" fill="none" stroke="#111827" stroke-width="2" stroke-linecap="round" stroke-linejoin="round"/>
  <text x="12" y="18" font-family="Arial, Helvetica, sans-serif" font-size="12" fill="#111827">82: Jaw Harp 2</text>
</svg>
