<svg xmlns="http://www.w3.org/2000/svg" width="320" height="120" viewBox="0 0 320 120" role="img" aria-label="Waveform 83 Soft Wave 6">
    <rect x="0" y="0" width="320" height="120" fill="#f6f7f9"/>
    <line x1="12" y1="60" x2="308" y2="60" stroke="#c4c9d4" stroke-width="1"/>
  <polyline points="12,61.561 15.116,65.882 18.232,53.97 21.347,52.701 24.463,60.619 27.579,49.498 30.695,50.604 33.811,52.643 36.926,53.303 40.042,55.878 43.158,46.167 46.274,45.951 49.389,45.397 52.505,52.212 55.621,42.938 58.737,39.326 61.853,47.328 64.968,42.179 68.084,39.939 71.2,40.868 74.316,38.249 77.432,37.274 80.547,42.441 83.663,39.386 86.779,43.735 89.895,47.467 93.011,42.834 96.126,41.23 99.242,42.48 102.358,52.652 105.474,38.616 108.589,49.062 111.705,41.704 114.821,46.996 117.937,54.509 121.053,49.835 124.168,46 127.284,47.417 130.4,42.084 133.516,43.684 136.632,58.65 139.747,49.978 142.863,45.943 145.979,54.267 149.095,59.295 152.211,60.99 155.326,58.382 158.442,53.24 161.558,62.813 164.674,53.748 167.789,68.365 170.905,67.288 174.021,57.272 177.137,73.367 180.253,68.367 183.368,67.601 186.484,68.633 189.6,61.682 192.716,74.55 195.832,64.114 198.947,76.127 202.063,80.774 205.179,66.924 208.295,75.874 211.411,77.795 214.526,76.03 217.642,68.397 220.758,80.841 223.874,81.812 226.989,78.811 230.105,80.557 233.221,72.023 236.337,73.558 239.453,70.974 242.568,74.653 245.684,81.756 248.8,69.196 251.916,83.424 255.032,76.048 258.147,79.289 261.263,69.531 264.379,70.378 267.495,75.972 270.611,69.808 273.726,65.317 276.842,68.744 279.958,72.344 283.074,65.023 286.189,74.763 289.305,65.808 292.421,59.309 295.537,61.517 298.653,65.607 301.768,69.583 304.884,57.941 308,66.936" fill="none" stroke="#111827" stroke-width="2" stroke-linecap="round" stroke-linejoin="round"/>
  <text x="12" y="18" font-family="Arial, Helvetica, sans-serif" font-size="12" fill="#111827">83: Soft Wave 6</text>
</svg>
