<svg xmlns="http://www.w3.org/2000/svg" width="320" height="120" viewBox="0 0 320 120" role="img" aria-label="Waveform 84 Thin 1">
    <rect x="0" y="0" width="320" height="120" fill="#f6f7f9"/>
    <line x1="12" y1="60" x2="308" y2="60" stroke="#c4c9d4" stroke-width="1"/>
  <polyline points="12,47.591 15.116,61.666 18.232,57.993 21.347,40.95 24.463,48.197 27.579,46.02 30.695,61.143 33.811,35.349 36.926,48.974 40.042,48.238 43.158,51.744 46.274,52.57 49.389,57.029 52.505,47.736 55.621,58.315 58.737,57.259 61.853,51.24 64.968,68.341 68.084,55.332 71.2,77.923 74.316,53.793 77.432,79.449 80.547,62.893 83.663,81.961 86.779,68.01 89.895,58.341 93.011,72.018 96.126,74.761 99.242,56.062 102.358,56.276 105.474,70.758 108.589,60.301 111.705,69.396 114.821,57.533 117.937,58.221 121.053,55.919 124.168,52.61 127.284,56.737 130.4,59.855 133.516,49.138 136.632,38.868 139.747,36.545 142.863,48.927 145.979,47.125 149.095,43.512 152.211,65.036 155.326,47.144 158.442,47.649 161.558,62.158 164.674,74.374 167.789,71.428 170.905,59.667 174.021,62.707 177.137,76.361 180.253,66.705 183.368,61.794 186.484,66.336 189.6,74.601 192.716,72.591 195.832,60.62 198.947,72.849 202.063,54.396 205.179,73.546 208.295,54.465 211.411,64.077 214.526,44.436 217.642,60.228 220.758,42.551 223.874,56.628 226.989,64.875 230.105,62.967 233.221,49.294 236.337,60.523 239.453,56.357 242.568,59.32 245.684,66.565 248.8,51.918 251.916,68.151 255.032,64.726 258.147,61.858 261.263,74.322 264.379,63.201 267.495,56.384 270.611,59.464 273.726,67.512 276.842,69.343 279.958,59.912 283.074,58.761 286.189,59.168 289.305,66.485 292.421,60.395 295.537,77.564 298.653,53.499 301.768,66.43 304.884,69.457 308,73.899" fill="none" stroke="#111827" stroke-width="2" stroke-linecap="round" stroke-linejoin="round"/>
  <text x="12" y="18" font-family="Arial, Helvetica, sans-serif" font-size="12" fill="#111827">84: Thin 1</text>
</svg>
