<svg xmlns="http://www.w3.org/2000/svg" width="320" height="120" viewBox="0 0 320 120" role="img" aria-label="Waveform 85 Thin 2">
    <rect x="0" y="0" width="320" height="120" fill="#f6f7f9"/>
    <line x1="12" y1="60" x2="308" y2="60" stroke="#c4c9d4" stroke-width="1"/>
  <polyline points="12,61.431 15.116,54.519 18.232,69.351 21.347,67.508 24.463,68.766 27.579,54.979 30.695,53.769 33.811,55.347 36.926,50.513 40.042,41.86 43.158,62.495 46.274,60.514 49.389,65.842 52.505,59.313 55.621,62.42 58.737,61.179 61.853,58.676 64.968,38.663 68.084,40.623 71.2,50.775 74.316,61.275 77.432,53.313 80.547,37.982 83.663,51.264 86.779,44.484 89.895,48.334 93.011,56.511 96.126,38.422 99.242,60.21 102.358,46.96 105.474,47.221 108.589,42.12 111.705,49.579 114.821,51.04 117.937,44.662 121.053,53.405 124.168,58.292 127.284,39.383 130.4,58.652 133.516,66.427 136.632,50.989 139.747,63.103 142.863,66.827 145.979,48.871 149.095,61.461 152.211,71.717 155.326,68.274 158.442,47.878 161.558,58.644 164.674,68.534 167.789,64.839 170.905,71.337 174.021,65.6 177.137,64.956 180.253,55.272 183.368,77.355 186.484,57.967 189.6,60.709 192.716,66.85 195.832,65.468 198.947,73.697 202.063,62.807 205.179,72.778 208.295,82.382 211.411,74.637 214.526,72.538 217.642,64.213 220.758,69.162 223.874,70.054 226.989,65.417 230.105,60.242 233.221,77.548 236.337,68.091 239.453,63.06 242.568,60.393 245.684,59.434 248.8,77.316 251.916,80.457 255.032,81.591 258.147,64.921 261.263,72.504 264.379,72.308 267.495,72.564 270.611,55.534 273.726,74.93 276.842,68.584 279.958,69.031 283.074,76.867 286.189,58.687 289.305,58.785 292.421,57.441 295.537,59.018 298.653,62.311 301.768,53.277 304.884,52.056 308,46.679" fill="none" stroke="#111827" stroke-width="2" stroke-linecap="round" stroke-linejoin="round"/>
  <text x="12" y="18" font-family="Arial, Helvetica, sans-serif" font-size="12" fill="#111827">85: Thin 2</text>
</svg>
