<svg xmlns="http://www.w3.org/2000/svg" width="320" height="120" viewBox="0 0 320 120" role="img" aria-label="Waveform 86 Spark Wave 8">
    <rect x="0" y="0" width="320" height="120" fill="#f6f7f9"/>
    <line x1="12" y1="60" x2="308" y2="60" stroke="#c4c9d4" stroke-width="1"/>
  <polyline points="12,46.291 15.116,45.674 18.232,48.42 21.347,60.328 24.463,54.388 27.579,57.068 30.695,67.961 33.811,67.787 36.926,44.774 40.042,57.895 43.158,38.837 46.274,64.569 49.389,43.688 52.505,42.135 55.621,40.227 58.737,41.431 61.853,45.165 64.968,48.73 68.084,39.337 71.2,39.554 74.316,57.979 77.432,47.363 80.547,63.873 83.663,43.635 86.779,44.857 89.895,62.632 93.011,65.294 96.126,54.935 99.242,58.467 102.358,59.627 105.474,44.297 108.589,71.965 111.705,47.115 114.821,60.152 117.937,73.959 121.053,63.125 124.168,74.715 127.284,60.461 130.4,65.856 133.516,62.372 136.632,70.262 139.747,67.637 142.863,62.776 145.979,57.963 149.095,58.289 152.211,57.933 155.326,69.676 158.442,58.104 161.558,65.808 164.674,73.914 167.789,69.802 170.905,65.633 174.021,79.819 177.137,64.217 180.253,82.408 183.368,72.014 186.484,55.727 189.6,79.556 192.716,62.105 195.832,68.203 198.947,69.034 202.063,62.092 205.179,59.136 208.295,64.651 211.411,64.783 214.526,47.639 217.642,69.783 220.758,65.32 223.874,50.362 226.989,59.616 230.105,49.477 233.221,38.652 236.337,65.887 239.453,59.977 242.568,52.22 245.684,44.123 248.8,38.121 251.916,59.116 255.032,38.15 258.147,39.254 261.263,44.745 264.379,58.375 267.495,39.653 270.611,63.35 273.726,38.892 276.842,55.925 279.958,39.614 283.074,58.514 286.189,52.517 289.305,46.892 292.421,51.504 295.537,67.419 298.653,69.811 301.768,68.333 304.884,63.281 308,48.44" fill="none" stroke="#111827" stroke-width="2" stroke-linecap="round" stroke-linejoin="round"/>
  <text x="12" y="18" font-family="Arial, Helvetica, sans-serif" font-size="12" fill="#111827">86: Spark Wave 8</text>
</svg>
