<svg xmlns="http://www.w3.org/2000/svg" width="320" height="120" viewBox="0 0 320 120" role="img" aria-label="Waveform 87 Spark Wave 9">
    <rect x="0" y="0" width="320" height="120" fill="#f6f7f9"/>
    <line x1="12" y1="60" x2="308" y2="60" stroke="#c4c9d4" stroke-width="1"/>
  <polyline points="12,60.131 15.116,65.811 18.232,56.477 21.347,53.177 24.463,69.06 27.579,59.291 30.695,53.401 33.811,51.6 36.926,39.547 40.042,45.66 43.158,45.098 46.274,40.846 49.389,52.008 52.505,55.746 55.621,49.158 58.737,53.149 61.853,63.465 64.968,61.962 68.084,41.53 71.2,61.073 74.316,58.681 77.432,45.59 80.547,65.073 83.663,69.308 86.779,49.494 89.895,52.053 93.011,48.93 96.126,74.895 99.242,59.662 102.358,74.598 105.474,71.896 108.589,73.488 111.705,73.282 114.821,67.792 117.937,71.577 121.053,68.823 124.168,56.733 127.284,74.646 130.4,64.653 133.516,77.35 136.632,78.044 139.747,59.157 142.863,73.211 145.979,80.131 149.095,66.88 152.211,54.72 155.326,51.621 158.442,47.996 161.558,51.955 164.674,57.808 167.789,53.041 170.905,67.197 174.021,43.618 177.137,42.583 180.253,60.491 183.368,47.704 186.484,64.883 189.6,53.496 192.716,43.356 195.832,59.107 198.947,54.949 202.063,54.577 205.179,41.505 208.295,45.9 211.411,57.006 214.526,56.991 217.642,54.894 220.758,44.29 223.874,45.713 226.989,43.068 230.105,60.037 233.221,53.013 236.337,61.749 239.453,57.515 242.568,75.949 245.684,62.728 248.8,63.518 251.916,74.745 255.032,61.647 258.147,81.13 261.263,55.758 264.379,83.016 267.495,73.687 270.611,79.135 273.726,67.363 276.842,76.985 279.958,70.714 283.074,69.163 286.189,72.488 289.305,57.985 292.421,65.137 295.537,62.77 298.653,60.442 301.768,62.561 304.884,49.626 308,50.201" fill="none" stroke="#111827" stroke-width="2" stroke-linecap="round" stroke-linejoin="round"/>
  <text x="12" y="18" font-family="Arial, Helvetica, sans-serif" font-size="12" fill="#111827">87: Spark Wave 9</text>
</svg>
