<svg xmlns="http://www.w3.org/2000/svg" width="320" height="120" viewBox="0 0 320 120" role="img" aria-label="Waveform 88 Spark Wave 10">
    <rect x="0" y="0" width="320" height="120" fill="#f6f7f9"/>
    <line x1="12" y1="60" x2="308" y2="60" stroke="#c4c9d4" stroke-width="1"/>
  <polyline points="12,73.972 15.116,56.969 18.232,64.546 21.347,46.065 24.463,54.843 27.579,61.688 30.695,39.13 33.811,64.835 36.926,63.928 40.042,63.249 43.158,52.446 46.274,47.449 49.389,61.936 52.505,42.24 55.621,60.182 58.737,67.151 61.853,55.204 64.968,48.695 68.084,46.177 71.2,55.935 74.316,61.46 77.432,74.503 80.547,67.476 83.663,66.566 86.779,53.926 89.895,69.355 93.011,59.437 96.126,62.658 99.242,56.455 102.358,83.929 105.474,63.616 108.589,66.86 111.705,61.111 114.821,64.948 117.937,57.703 121.053,62.178 124.168,54.731 127.284,75.401 130.4,49.846 133.516,49.856 136.632,43.771 139.747,67.317 142.863,43.39 145.979,63.433 149.095,38.313 152.211,45.34 155.326,58.667 158.442,36.544 161.558,39.494 164.674,45.985 167.789,43.557 170.905,50.093 174.021,49.726 177.137,66.185 180.253,57.605 183.368,44.978 186.484,68.91 189.6,53.207 192.716,51.893 195.832,49.38 198.947,69.78 202.063,76.017 205.179,81.298 208.295,54.522 211.411,74.97 214.526,60.922 217.642,60.861 220.758,69.905 223.874,84.082 226.989,65.532 230.105,76.313 233.221,68.537 236.337,54.077 239.453,75.737 242.568,57.674 245.684,63.707 248.8,66.906 251.916,64.288 255.032,55.381 258.147,61.058 261.263,60.122 264.379,40.996 267.495,39.662 270.611,55.134 273.726,56.056 276.842,59 279.958,35.237 283.074,44.361 286.189,59.815 289.305,39.853 292.421,53.514 295.537,66.296 298.653,64.091 301.768,45.976 304.884,59.492 308,51.961" fill="none" stroke="#111827" stroke-width="2" stroke-linecap="round" stroke-linejoin="round"/>
  <text x="12" y="18" font-family="Arial, Helvetica, sans-serif" font-size="12" fill="#111827">88: Spark Wave 10</text>
</svg>
