<svg xmlns="http://www.w3.org/2000/svg" width="320" height="120" viewBox="0 0 320 120" role="img" aria-label="Waveform 91 Cacophonous Buzz 2">
    <rect x="0" y="0" width="320" height="120" fill="#f6f7f9"/>
    <line x1="12" y1="60" x2="308" y2="60" stroke="#c4c9d4" stroke-width="1"/>
  <polyline points="12,57.532 15.116,61.118 18.232,63.056 21.347,58.38 24.463,46.928 27.579,46.36 30.695,60.997 33.811,53.053 36.926,55.827 40.042,62.423 43.158,48.005 46.274,38.384 49.389,59.997 52.505,53.69 55.621,54.722 58.737,37.878 61.853,42.215 64.968,45.832 68.084,35.415 71.2,41.408 74.316,38.726 77.432,40.793 80.547,39.384 83.663,50.975 86.779,59.636 89.895,56.375 93.011,56.634 96.126,52.094 99.242,47.424 102.358,58.85 105.474,48.763 108.589,62.777 111.705,46.807 114.821,56.519 117.937,52.343 121.053,56.845 124.168,70.607 127.284,77.632 130.4,70.021 133.516,67.038 136.632,74.943 139.747,56.361 142.863,66.811 145.979,70.545 149.095,68.833 152.211,75.229 155.326,78.338 158.442,84.814 161.558,80.632 164.674,83.743 167.789,81.948 170.905,58.287 174.021,61.452 177.137,63.677 180.253,82.374 183.368,60.844 186.484,66.68 189.6,57.873 192.716,74.358 195.832,67 198.947,66.986 202.063,57.969 205.179,55.445 208.295,47.501 211.411,64.844 214.526,65.994 217.642,43.905 220.758,56.281 223.874,54.553 226.989,51.409 230.105,50.032 233.221,47.511 236.337,58.823 239.453,51.389 242.568,49.394 245.684,36.147 248.8,56.495 251.916,51.025 255.032,63.926 258.147,36.737 261.263,58.805 264.379,51.985 267.495,50.967 270.611,42.478 273.726,54.95 276.842,38.758 279.958,48.794 283.074,58.746 286.189,48.917 289.305,65.426 292.421,63.252 295.537,56.014 298.653,45.749 301.768,44.722 304.884,69.994 308,57.243" fill="none" stroke="#111827" stroke-width="2" stroke-linecap="round" stroke-linejoin="round"/>
  <text x="12" y="18" font-family="Arial, Helvetica, sans-serif" font-size="12" fill="#111827">91: Cacophonous Buzz 2</text>
</svg>
