<svg xmlns="http://www.w3.org/2000/svg" width="320" height="120" viewBox="0 0 320 120" role="img" aria-label="Waveform 92 Thin 3">
    <rect x="0" y="0" width="320" height="120" fill="#f6f7f9"/>
    <line x1="12" y1="60" x2="308" y2="60" stroke="#c4c9d4" stroke-width="1"/>
  <polyline points="12,71.372 15.116,52.275 18.232,71.113 21.347,51.229 24.463,61.599 27.579,48.583 30.695,46.437 33.811,65.846 36.926,50.601 40.042,50.188 43.158,54.266 46.274,43.641 49.389,39.336 52.505,38.321 55.621,63.652 58.737,49.596 61.853,60.515 64.968,59.064 68.084,66.587 71.2,62.927 74.316,68.408 77.432,68.001 80.547,69.564 83.663,47.668 86.779,64.273 89.895,74.776 93.011,69.25 96.126,72.053 99.242,77.598 102.358,73.821 105.474,76.362 108.589,64.301 111.705,72.974 114.821,64.16 117.937,78.941 121.053,62.543 124.168,81.605 127.284,62.837 130.4,68.818 133.516,82.015 136.632,82.725 139.747,76.86 142.863,77.247 145.979,63.734 149.095,77.423 152.211,72.015 155.326,60.282 158.442,74.706 161.558,66.78 164.674,67.637 167.789,65.187 170.905,59.851 174.021,54.231 177.137,42.043 180.253,60.458 183.368,65.514 186.484,46.856 189.6,60.793 192.716,55.609 195.832,57.904 198.947,52.901 202.063,50.455 205.179,37.814 208.295,57.73 211.411,57.068 214.526,46.366 217.642,57.996 220.758,64.231 223.874,49.904 226.989,63.842 230.105,60.592 233.221,61.872 236.337,54.686 239.453,48.927 242.568,73.123 245.684,54.752 248.8,52.913 251.916,66.653 255.032,58.444 258.147,78.614 261.263,69.819 264.379,76.626 267.495,56.022 270.611,58.263 273.726,83.421 276.842,59.818 279.958,79.894 283.074,69.396 286.189,68.889 289.305,76.519 292.421,76.884 295.537,51.366 298.653,65.36 301.768,67.93 304.884,56.339 308,59.004" fill="none" stroke="#111827" stroke-width="2" stroke-linecap="round" stroke-linejoin="round"/>
  <text x="12" y="18" font-family="Arial, Helvetica, sans-serif" font-size="12" fill="#111827">92: Thin 3</text>
</svg>
