<svg xmlns="http://www.w3.org/2000/svg" width="320" height="120" viewBox="0 0 320 120" role="img" aria-label="Waveform 93 Spark Wave 11">
    <rect x="0" y="0" width="320" height="120" fill="#f6f7f9"/>
    <line x1="12" y1="60" x2="308" y2="60" stroke="#c4c9d4" stroke-width="1"/>
  <polyline points="12,56.232 15.116,72.413 18.232,50.202 21.347,44.118 24.463,47.383 27.579,50.98 30.695,61.147 33.811,50.101 36.926,46.002 40.042,38.797 43.158,61.614 46.274,50.243 49.389,49.264 52.505,53.795 55.621,45.696 58.737,63.598 61.853,52.254 64.968,45.797 68.084,71.234 71.2,57.789 74.316,71.187 77.432,67.934 80.547,71.967 83.663,73.906 86.779,68.705 89.895,63.098 93.011,79.757 96.126,59.817 99.242,74.392 102.358,83.153 105.474,68.082 108.589,57.673 111.705,60.803 114.821,61.316 117.937,65.067 121.053,55.899 124.168,50.623 127.284,63.592 130.4,54.012 133.516,54.521 136.632,48.452 139.747,56.04 142.863,47.426 145.979,47.036 149.095,48.857 152.211,62.635 155.326,38.349 158.442,63.254 161.558,54.318 164.674,55.813 167.789,55.702 170.905,42.747 174.021,60.338 177.137,65.645 180.253,57.571 183.368,62.788 186.484,50.882 189.6,60.504 192.716,64.146 195.832,77.157 198.947,67.732 202.063,71.895 205.179,77.607 208.295,66.352 211.411,75.031 214.526,79.277 217.642,63.963 220.758,60.866 223.874,59.293 226.989,57.326 230.105,76.867 233.221,77.396 236.337,75.993 239.453,67.149 242.568,54.847 245.684,55.73 248.8,56.301 251.916,56.197 255.032,52.177 258.147,58.541 261.263,45.203 264.379,63.586 267.495,50.976 270.611,63.242 273.726,43.134 276.842,41.833 279.958,44.417 283.074,44.593 286.189,56.215 289.305,58.387 292.421,65.262 295.537,54.891 298.653,69.009 301.768,51.345 304.884,66.205 308,60.764" fill="none" stroke="#111827" stroke-width="2" stroke-linecap="round" stroke-linejoin="round"/>
  <text x="12" y="18" font-family="Arial, Helvetica, sans-serif" font-size="12" fill="#111827">93: Spark Wave 11</text>
</svg>
