<svg xmlns="http://www.w3.org/2000/svg" width="320" height="120" viewBox="0 0 320 120" role="img" aria-label="Waveform 95 Soft Wave 7">
    <rect x="0" y="0" width="320" height="120" fill="#f6f7f9"/>
    <line x1="12" y1="60" x2="308" y2="60" stroke="#c4c9d4" stroke-width="1"/>
  <polyline points="12,57.104 15.116,57.254 18.232,64.107 21.347,59.966 24.463,53.699 27.579,57.997 30.695,60.926 33.811,52.308 36.926,45.278 40.042,48.84 43.158,48.804 46.274,56.408 49.389,41.267 52.505,48.187 55.621,52.88 58.737,47.701 61.853,46.594 64.968,51.453 68.084,51.12 71.2,46.723 74.316,44.965 77.432,38.201 80.547,41.977 83.663,36.204 86.779,40.82 89.895,35.573 93.011,37.581 96.126,50.582 99.242,37.271 102.358,41.651 105.474,48.053 108.589,46.397 111.705,44.594 114.821,42.014 117.937,51.36 121.053,41.223 124.168,46.991 127.284,44.47 130.4,57.733 133.516,46.77 136.632,55.133 139.747,61.009 142.863,48.166 145.979,48.339 149.095,53.882 152.211,51.589 155.326,57.013 158.442,66.687 161.558,59.959 164.674,60.604 167.789,61.838 170.905,60.524 174.021,61.891 177.137,66.003 180.253,61.697 183.368,62.218 186.484,77.03 189.6,75.002 192.716,68.171 195.832,69.088 198.947,73.319 202.063,65.185 205.179,71.799 208.295,78.85 211.411,77.88 214.526,81.331 217.642,75.963 220.758,81.693 223.874,80.935 226.989,80.805 230.105,71.381 233.221,74.236 236.337,83.743 239.453,79.068 242.568,84.024 245.684,77.441 248.8,67.9 251.916,72.328 255.032,78.279 258.147,69.214 261.263,75.567 264.379,68.238 267.495,71.617 270.611,74.304 273.726,77.403 276.842,68.384 279.958,65.061 283.074,75.277 286.189,59.89 289.305,68.042 292.421,58.86 295.537,65.749 298.653,69.039 301.768,63.698 304.884,63.836 308,62.449" fill="none" stroke="#111827" stroke-width="2" stroke-linecap="round" stroke-linejoin="round"/>
  <text x="12" y="18" font-family="Arial, Helvetica, sans-serif" font-size="12" fill="#111827">95: Soft Wave 7</text>
</svg>
