<svg xmlns="http://www.w3.org/2000/svg" width="320" height="120" viewBox="0 0 320 120" role="img" aria-label="Waveform 97 Sync'd Sine">
    <rect x="0" y="0" width="320" height="120" fill="#f6f7f9"/>
    <line x1="12" y1="60" x2="308" y2="60" stroke="#c4c9d4" stroke-width="1"/>
  <polyline points="12,60 15.116,52.724 18.232,46.126 21.347,40.789 24.463,37.113 27.579,35.265 30.695,35.156 33.811,36.466 36.926,38.695 40.042,41.248 43.158,43.535 46.274,45.059 49.389,45.501 52.505,44.77 55.621,43.018 58.737,40.613 61.853,38.083 64.968,36.03 68.084,35.034 71.2,35.556 74.316,37.863 77.432,41.979 80.547,47.677 83.663,54.505 86.779,61.846 89.895,69.015 93.011,75.346 96.126,80.297 99.242,83.521 102.358,84.917 105.474,84.632 108.589,83.041 111.705,80.674 114.821,78.133 117.937,75.997 121.053,74.722 124.168,74.574 127.284,75.583 130.4,77.541 133.516,80.031 136.632,82.499 139.747,84.339 142.863,84.992 145.979,84.04 149.095,81.273 152.211,76.73 155.326,70.7 158.442,63.682 161.558,56.318 164.674,49.3 167.789,43.27 170.905,38.727 174.021,35.96 177.137,35.008 180.253,35.661 183.368,37.501 186.484,39.969 189.6,42.459 192.716,44.417 195.832,45.426 198.947,45.278 202.063,44.003 205.179,41.867 208.295,39.326 211.411,36.959 214.526,35.368 217.642,35.083 220.758,36.479 223.874,39.703 226.989,44.654 230.105,50.985 233.221,58.154 236.337,65.495 239.453,72.323 242.568,78.021 245.684,82.137 248.8,84.444 251.916,84.966 255.032,83.97 258.147,81.917 261.263,79.387 264.379,76.982 267.495,75.23 270.611,74.499 273.726,74.941 276.842,76.465 279.958,78.752 283.074,81.305 286.189,83.534 289.305,84.844 292.421,84.735 295.537,82.887 298.653,79.211 301.768,73.874 304.884,67.276 308,60" fill="none" stroke="#111827" stroke-width="2" stroke-linecap="round" stroke-linejoin="round"/>
  <text x="12" y="18" font-family="Arial, Helvetica, sans-serif" font-size="12" fill="#111827">97: Sync'd Sine</text>
</svg>
