<svg xmlns="http://www.w3.org/2000/svg" width="320" height="120" viewBox="0 0 320 120" role="img" aria-label="Waveform 98 Trashy Wave 7">
    <rect x="0" y="0" width="320" height="120" fill="#f6f7f9"/>
    <line x1="12" y1="60" x2="308" y2="60" stroke="#c4c9d4" stroke-width="1"/>
  <polyline points="12,67.887 15.116,57.279 18.232,34.267 21.347,67.797 24.463,56.189 27.579,46.695 30.695,47.417 33.811,62.899 36.926,34.382 40.042,58.445 43.158,38.49 46.274,51.434 49.389,28.966 52.505,43.627 55.621,54.034 58.737,61.863 61.853,39.81 64.968,72.48 68.084,63.345 71.2,58.813 74.316,50.832 77.432,66.346 80.547,73.297 83.663,71.472 86.779,48.588 89.895,66.329 93.011,67.251 96.126,68.911 99.242,79.425 102.358,65.026 105.474,71.803 108.589,82.578 111.705,73.294 114.821,71.86 117.937,65.966 121.053,66.298 124.168,61.387 127.284,40.399 130.4,38.416 133.516,51.309 136.632,65.697 139.747,60.207 142.863,65.697 145.979,52.623 149.095,51.005 152.211,38.912 155.326,39.892 158.442,42.161 161.558,49.558 164.674,33.492 167.789,40.454 170.905,52.082 174.021,54.224 177.137,57.083 180.253,64.76 183.368,50.889 186.484,58.741 189.6,59.938 192.716,66.627 195.832,39.995 198.947,65.126 202.063,68.362 205.179,69.261 208.295,74.377 211.411,58.398 214.526,70.834 217.642,66.983 220.758,60.509 223.874,57.082 226.989,90.917 230.105,67.837 233.221,58.423 236.337,61.462 239.453,71.931 242.568,49.101 245.684,60.692 248.8,72.823 251.916,49.469 255.032,53.934 258.147,69.204 261.263,62.376 264.379,55.004 267.495,73.579 270.611,49.651 273.726,28.818 276.842,51.77 279.958,42.908 283.074,48.669 286.189,46.905 289.305,62.344 292.421,35.162 295.537,55.41 298.653,47.43 301.768,57.615 304.884,52.204 308,68.322" fill="none" stroke="#111827" stroke-width="2" stroke-linecap="round" stroke-linejoin="round"/>
  <text x="12" y="18" font-family="Arial, Helvetica, sans-serif" font-size="12" fill="#111827">98: Trashy Wave 7</text>
</svg>
