<svg xmlns="http://www.w3.org/2000/svg" width="320" height="120" viewBox="0 0 320 120" role="img" aria-label="Waveform 99 Twingle Pad">
    <rect x="0" y="0" width="320" height="120" fill="#f6f7f9"/>
    <line x1="12" y1="60" x2="308" y2="60" stroke="#c4c9d4" stroke-width="1"/>
  <polyline points="12,55.619 15.116,54.378 18.232,50.926 21.347,62.387 24.463,56.913 27.579,49.79 30.695,47.807 33.811,52.196 36.926,53.643 40.042,57.534 43.158,49.683 46.274,54.373 49.389,45.41 52.505,46.845 55.621,39.634 58.737,39.453 61.853,51.87 64.968,43.504 68.084,49.326 71.2,37.634 74.316,36.164 77.432,38.51 80.547,47.342 83.663,46.183 86.779,50.888 89.895,42.649 93.011,46.87 96.126,42.659 99.242,52.095 102.358,37.984 105.474,40.158 108.589,45.509 111.705,51.077 114.821,40.353 117.937,44.79 121.053,54.912 124.168,41.801 127.284,49.007 130.4,46.389 133.516,58.839 136.632,53.961 139.747,59.166 142.863,59.947 145.979,57.403 149.095,52.078 152.211,59.496 155.326,51.037 158.442,65.649 161.558,53.488 164.674,68.409 167.789,70.702 170.905,63.79 174.021,63.43 177.137,69.068 180.253,64.994 183.368,60.424 186.484,68.789 189.6,68.401 192.716,77.084 195.832,65.226 198.947,72.383 202.063,76.548 205.179,73.423 208.295,74.322 211.411,77.908 214.526,83.098 217.642,67.445 220.758,70.937 223.874,69.603 226.989,70.43 230.105,68.323 233.221,74.974 236.337,70.578 239.453,81.767 242.568,76.108 245.684,70.483 248.8,72.987 251.916,68.629 255.032,73.502 258.147,71.376 261.263,72.059 264.379,78.565 267.495,70.165 270.611,64.763 273.726,64.872 276.842,73.784 279.958,62.633 283.074,62.135 286.189,71.493 289.305,63.267 292.421,64.231 295.537,67.159 298.653,64.663 301.768,56.216 304.884,60.281 308,66.473" fill="none" stroke="#111827" stroke-width="2" stroke-linecap="round" stroke-linejoin="round"/>
  <text x="12" y="18" font-family="Arial, Helvetica, sans-serif" font-size="12" fill="#111827">99: Twingle Pad</text>
</svg>
