<svg xmlns="http://www.w3.org/2000/svg" width="320" height="120" viewBox="0 0 320 120" role="img" aria-label="Waveform 101 Thin 4">
    <rect x="0" y="0" width="320" height="120" fill="#f6f7f9"/>
    <line x1="12" y1="60" x2="308" y2="60" stroke="#c4c9d4" stroke-width="1"/>
  <polyline points="12,51.033 15.116,63.025 18.232,63.35 21.347,54.484 24.463,60.987 27.579,53.924 30.695,47.071 33.811,52.565 36.926,48.954 40.042,42.499 43.158,37.36 46.274,43.973 49.389,63.633 52.505,47.82 55.621,54.73 58.737,59.752 61.853,36.315 64.968,40.037 68.084,56.55 71.2,45.116 74.316,58.18 77.432,56.635 80.547,48.366 83.663,65.654 86.779,60.214 89.895,43.86 93.011,68.294 96.126,46.411 99.242,54.317 102.358,57.297 105.474,57.695 108.589,73.382 111.705,46.192 114.821,49.254 117.937,67.071 121.053,73.266 124.168,62.392 127.284,54.014 130.4,78.353 133.516,76.368 136.632,55.324 139.747,62.787 142.863,74.883 145.979,66.73 149.095,60.94 152.211,80.839 155.326,66.681 158.442,80.274 161.558,81.3 164.674,74.42 167.789,77.259 170.905,72.574 174.021,82.677 177.137,62.597 180.253,82.308 183.368,67.483 186.484,59.605 189.6,72.467 192.716,69.884 195.832,64.593 198.947,62.89 202.063,49.725 205.179,48.064 208.295,71.161 211.411,64.968 214.526,44.745 217.642,50.11 220.758,67.183 223.874,62.935 226.989,63.977 230.105,51.141 233.221,65.23 236.337,44.696 239.453,63.194 242.568,43.74 245.684,49.174 248.8,64.265 251.916,63.822 255.032,57.519 258.147,60.685 261.263,57.947 264.379,39.205 267.495,44.617 270.611,58.695 273.726,58.085 276.842,62.383 279.958,38.173 283.074,59.211 286.189,41.719 289.305,44.535 292.421,57.767 295.537,62.185 298.653,55.584 301.768,55.459 304.884,54.441 308,45.869" fill="none" stroke="#111827" stroke-width="2" stroke-linecap="round" stroke-linejoin="round"/>
  <text x="12" y="18" font-family="Arial, Helvetica, sans-serif" font-size="12" fill="#111827">101: Thin 4</text>
</svg>
