<svg xmlns="http://www.w3.org/2000/svg" width="320" height="120" viewBox="0 0 320 120" role="img" aria-label="Waveform 102 Thin 5">
    <rect x="0" y="0" width="320" height="120" fill="#f6f7f9"/>
    <line x1="12" y1="60" x2="308" y2="60" stroke="#c4c9d4" stroke-width="1"/>
  <polyline points="12,64.873 15.116,54.182 18.232,71.407 21.347,47.333 24.463,46.679 27.579,56.148 30.695,61.49 33.811,65.358 36.926,43.728 40.042,59.244 43.158,43.621 46.274,49.23 49.389,42.973 52.505,61.431 55.621,63.66 58.737,42.489 61.853,54.615 64.968,53.268 68.084,58.742 71.2,66.635 74.316,58.882 77.432,54.862 80.547,49.567 83.663,62.348 86.779,64.851 89.895,62.262 93.011,51.93 96.126,66.371 99.242,55.512 102.358,72.268 105.474,56.315 108.589,74.905 111.705,72.359 114.821,56.894 117.937,64.689 121.053,78.964 124.168,73.39 127.284,68.199 130.4,77.15 133.516,62.366 136.632,63.106 139.747,54.307 142.863,56.338 145.979,59.919 149.095,69.53 152.211,77.626 155.326,48.626 158.442,70.166 161.558,67.448 164.674,58.314 167.789,60.498 170.905,45.158 174.021,46.477 177.137,40.963 180.253,60.391 183.368,43.174 186.484,39.781 189.6,46.407 192.716,51.135 195.832,55.498 198.947,48.805 202.063,42.21 205.179,59.412 208.295,52.411 211.411,57.192 214.526,54.097 217.642,64.201 220.758,46.153 223.874,58.286 226.989,47.429 230.105,61.702 233.221,50.61 236.337,69.539 239.453,60.731 242.568,67.469 245.684,67.779 248.8,60.683 251.916,79.451 255.032,81.016 258.147,73.581 261.263,68.96 264.379,63.846 267.495,78.651 270.611,74.479 273.726,57.576 276.842,83.443 279.958,69.273 283.074,69.86 286.189,61.69 289.305,55.628 292.421,71.4 295.537,57.536 298.653,75.195 301.768,49.687 304.884,69.765 308,47.63" fill="none" stroke="#111827" stroke-width="2" stroke-linecap="round" stroke-linejoin="round"/>
  <text x="12" y="18" font-family="Arial, Helvetica, sans-serif" font-size="12" fill="#111827">102: Thin 5</text>
</svg>
