<svg xmlns="http://www.w3.org/2000/svg" width="320" height="120" viewBox="0 0 320 120" role="img" aria-label="Waveform 103 Trashy Wave 8">
    <rect x="0" y="0" width="320" height="120" fill="#f6f7f9"/>
    <line x1="12" y1="60" x2="308" y2="60" stroke="#c4c9d4" stroke-width="1"/>
  <polyline points="12,40.479 15.116,62.244 18.232,68.838 21.347,50.309 24.463,41.496 27.579,57.859 30.695,51.279 33.811,45.875 36.926,50.062 40.042,55.847 43.158,43.525 46.274,32.188 49.389,59.975 52.505,53.638 55.621,71.416 58.737,59.766 61.853,36.908 64.968,75.358 68.084,71.502 71.2,66.311 74.316,68.158 77.432,58.669 80.547,46.515 83.663,78.513 86.779,70.433 89.895,73.227 93.011,77.478 96.126,81.599 99.242,45.909 102.358,76.42 105.474,66.81 108.589,66.637 111.705,65.766 114.821,68.506 117.937,64.295 121.053,73.181 124.168,68.889 127.284,52.575 130.4,71.711 133.516,46.308 136.632,46.213 139.747,48.333 142.863,40.512 145.979,61.969 149.095,39.944 152.211,63.214 155.326,48.645 158.442,34.462 161.558,36.405 164.674,40.433 167.789,46.591 170.905,41.372 174.021,45.146 177.137,49.815 180.253,72.72 183.368,43.227 186.484,79.792 189.6,56.055 192.716,42.763 195.832,77.054 198.947,47.372 202.063,52.678 205.179,66.13 208.295,61.159 211.411,84.469 214.526,68.435 217.642,57.942 220.758,70.179 223.874,48.785 226.989,78.174 230.105,72.775 233.221,68.824 236.337,75.35 239.453,71.969 242.568,71.427 245.684,67.241 248.8,65.894 251.916,69.549 255.032,53.725 258.147,52.31 261.263,70.399 264.379,70.466 267.495,54.537 270.611,64.536 273.726,43.714 276.842,53.383 279.958,40.833 283.074,67.515 286.189,56.189 289.305,48.841 292.421,49.899 295.537,59.403 298.653,66.232 301.768,67.71 304.884,45.497 308,64.942" fill="none" stroke="#111827" stroke-width="2" stroke-linecap="round" stroke-linejoin="round"/>
  <text x="12" y="18" font-family="Arial, Helvetica, sans-serif" font-size="12" fill="#111827">103: Trashy Wave 8</text>
</svg>
