<svg xmlns="http://www.w3.org/2000/svg" width="320" height="120" viewBox="0 0 320 120" role="img" aria-label="Waveform 104 Trashy Wave 9">
    <rect x="0" y="0" width="320" height="120" fill="#f6f7f9"/>
    <line x1="12" y1="60" x2="308" y2="60" stroke="#c4c9d4" stroke-width="1"/>
  <polyline points="12,68.945 15.116,66.213 18.232,57.725 21.347,75.742 24.463,29.256 27.579,68.978 30.695,69.321 33.811,61.642 36.926,53.711 40.042,47.25 43.158,56.132 46.274,71.299 49.389,46.164 52.505,48.024 55.621,50.673 58.737,48.269 61.853,58.983 64.968,70.077 68.084,68.386 71.2,55.679 74.316,75.051 77.432,74.212 80.547,67.492 83.663,72.207 86.779,67.588 89.895,61.899 93.011,81.037 96.126,68.299 99.242,81.315 102.358,51.252 105.474,63.279 108.589,66.099 111.705,67.332 114.821,54.202 117.937,55.466 121.053,44.231 124.168,64.155 127.284,55.879 130.4,70.183 133.516,38.387 136.632,62.687 139.747,54.188 142.863,48.382 145.979,41.863 149.095,66.269 152.211,60.206 155.326,60.706 158.442,57.944 161.558,40.974 164.674,49.093 167.789,53.114 170.905,72.734 174.021,63.974 177.137,59.761 180.253,63.514 183.368,66.962 186.484,57.898 189.6,68.434 192.716,68.49 195.832,61.623 198.947,67.608 202.063,53.602 205.179,53.971 208.295,75.374 211.411,62.281 214.526,72.778 217.642,48.875 220.758,40.012 223.874,28.82 226.989,50.187 230.105,50.925 233.221,52.124 236.337,48.287 239.453,65.598 242.568,47.125 245.684,40.189 248.8,70.016 251.916,56.879 255.032,43.905 258.147,65.107 261.263,74.268 264.379,52.564 267.495,78.158 270.611,61.77 273.726,88.383 276.842,84.263 279.958,75.748 283.074,69.31 286.189,52.035 289.305,51.167 292.421,74.094 295.537,76.421 298.653,79.066 301.768,53.906 304.884,71.911 308,57.642" fill="none" stroke="#111827" stroke-width="2" stroke-linecap="round" stroke-linejoin="round"/>
  <text x="12" y="18" font-family="Arial, Helvetica, sans-serif" font-size="12" fill="#111827">104: Trashy Wave 9</text>
</svg>
