<svg xmlns="http://www.w3.org/2000/svg" width="320" height="120" viewBox="0 0 320 120" role="img" aria-label="Waveform 105 Trashy Wave 10">
    <rect x="0" y="0" width="320" height="120" fill="#f6f7f9"/>
    <line x1="12" y1="60" x2="308" y2="60" stroke="#c4c9d4" stroke-width="1"/>
  <polyline points="12,47.732 15.116,71.874 18.232,78.866 21.347,56.136 24.463,72.39 27.579,36.77 30.695,44.24 33.811,62.966 36.926,54.519 40.042,63.459 43.158,50.324 46.274,60.759 49.389,50.466 52.505,57.636 55.621,42.108 58.737,45.856 61.853,58.149 64.968,47.351 68.084,37.049 71.2,43.735 74.316,29.404 77.432,56.963 80.547,34.671 83.663,41.45 86.779,41.335 89.895,49.555 93.011,36.187 96.126,38.377 99.242,53.645 102.358,36.918 105.474,53.582 108.589,42.427 111.705,49.384 114.821,52.733 117.937,33.477 121.053,54.285 124.168,42.351 127.284,51.602 130.4,53.278 133.516,43.807 136.632,62.523 139.747,41.712 142.863,64.577 145.979,76.911 149.095,74.102 152.211,76.569 155.326,59.498 158.442,43.839 161.558,54.22 164.674,63.375 167.789,70.991 170.905,63.859 174.021,70.38 177.137,69.367 180.253,62.788 183.368,63.353 186.484,68.936 189.6,75.49 192.716,76.225 195.832,69.983 198.947,66.971 202.063,59.7 205.179,60.767 208.295,76.754 211.411,82.183 214.526,82.653 217.642,70.304 220.758,72.849 223.874,66.244 226.989,68.866 230.105,88.82 233.221,65.782 236.337,87.369 239.453,73.199 242.568,62.336 245.684,69.082 248.8,67.169 251.916,81.443 255.032,65.509 258.147,53.702 261.263,77.038 264.379,48.653 267.495,60.943 270.611,63.335 273.726,83.977 276.842,71.528 279.958,77.649 283.074,66.299 286.189,72.347 289.305,58.588 292.421,68.426 295.537,54.331 298.653,77.407 301.768,59.086 304.884,72.525 308,58.622" fill="none" stroke="#111827" stroke-width="2" stroke-linecap="round" stroke-linejoin="round"/>
  <text x="12" y="18" font-family="Arial, Helvetica, sans-serif" font-size="12" fill="#111827">105: Trashy Wave 10</text>
</svg>
