<svg xmlns="http://www.w3.org/2000/svg" width="320" height="120" viewBox="0 0 320 120" role="img" aria-label="Waveform 106 Trashy Wave 11">
    <rect x="0" y="0" width="320" height="120" fill="#f6f7f9"/>
    <line x1="12" y1="60" x2="308" y2="60" stroke="#c4c9d4" stroke-width="1"/>
  <polyline points="12,55.498 15.116,46.858 18.232,47.017 21.347,52.471 24.463,59.878 27.579,47.374 30.695,61.425 33.811,48.452 36.926,56.329 40.042,52.402 43.158,39.087 46.274,46.33 49.389,52.781 52.505,46.773 55.621,36.225 58.737,57.035 61.853,44.647 64.968,64.369 68.084,48.116 71.2,47.719 74.316,51.64 77.432,68.179 80.547,52.65 83.663,62.741 86.779,59.682 89.895,40.816 93.011,44.608 96.126,61.308 99.242,69.763 102.358,44.567 105.474,64.498 108.589,66.782 111.705,69.488 114.821,58.588 117.937,75.042 121.053,55.873 124.168,80.968 127.284,48.498 130.4,73.76 133.516,77.562 136.632,69.511 139.747,65.17 142.863,58.822 145.979,69.622 149.095,89.792 152.211,80.746 155.326,75.821 158.442,68.711 161.558,57.445 164.674,68.178 167.789,50.74 170.905,87.29 174.021,79.833 177.137,68.938 180.253,63.37 183.368,76.101 186.484,57.124 189.6,57.326 192.716,64.257 195.832,76.23 198.947,60.822 202.063,56.672 205.179,54.689 208.295,61.465 211.411,52.69 214.526,39.528 217.642,64.337 220.758,54.533 223.874,49.851 226.989,52.22 230.105,68.996 233.221,49.551 236.337,38.019 239.453,33.753 242.568,39.323 245.684,31.837 248.8,57.689 251.916,51.661 255.032,55.787 258.147,42.547 261.263,53.867 264.379,50.683 267.495,52.597 270.611,47.666 273.726,44.394 276.842,46.893 279.958,49.293 283.074,55.809 286.189,37.29 289.305,61.816 292.421,39.074 295.537,79.887 298.653,53.736 301.768,63.496 304.884,43.807 308,59.602" fill="none" stroke="#111827" stroke-width="2" stroke-linecap="round" stroke-linejoin="round"/>
  <text x="12" y="18" font-family="Arial, Helvetica, sans-serif" font-size="12" fill="#111827">106: Trashy Wave 11</text>
</svg>
