<svg xmlns="http://www.w3.org/2000/svg" width="320" height="120" viewBox="0 0 320 120" role="img" aria-label="Waveform 107 Trashy Wave 12">
    <rect x="0" y="0" width="320" height="120" fill="#f6f7f9"/>
    <line x1="12" y1="60" x2="308" y2="60" stroke="#c4c9d4" stroke-width="1"/>
  <polyline points="12,54.984 15.116,50.823 18.232,64.857 21.347,57.117 24.463,68.135 27.579,58.111 30.695,58.138 33.811,42.571 36.926,50.372 40.042,42.053 43.158,57.77 46.274,53.803 49.389,35.888 52.505,58.419 55.621,61.465 58.737,41.72 61.853,62.956 64.968,55.573 68.084,41.96 71.2,63.742 74.316,57.173 77.432,54.593 80.547,45.94 83.663,59.375 86.779,61.592 89.895,56.88 93.011,56.861 96.126,79.406 99.242,68.119 102.358,83.5 105.474,56.258 108.589,83.515 111.705,68.543 114.821,91.952 117.937,84.93 121.053,74.14 124.168,64.48 127.284,67.48 130.4,85.835 133.516,80.671 136.632,73.288 139.747,67.334 142.863,67.553 145.979,75.411 149.095,59.286 152.211,58.234 155.326,43.708 158.442,44.27 161.558,68.633 164.674,51.494 167.789,58.445 170.905,39.33 174.021,47.146 177.137,47.615 180.253,52.16 183.368,69.881 186.484,56.708 189.6,52.214 192.716,67.264 195.832,41.667 198.947,45.252 202.063,46.845 205.179,65.321 208.295,45.156 211.411,33.556 214.526,51.353 217.642,66.891 220.758,68.708 223.874,48.5 226.989,53.809 230.105,41.517 233.221,49.315 236.337,65.396 239.453,52.888 242.568,68.91 245.684,57.487 248.8,83.822 251.916,58.848 255.032,63.323 258.147,69.956 261.263,48.769 264.379,62.307 267.495,53.236 270.611,68.946 273.726,61.041 276.842,55.978 279.958,52.474 283.074,53.621 286.189,57.354 289.305,59.049 292.421,78.973 295.537,71.694 298.653,62.876 301.768,76.058 304.884,68.868 308,60.582" fill="none" stroke="#111827" stroke-width="2" stroke-linecap="round" stroke-linejoin="round"/>
  <text x="12" y="18" font-family="Arial, Helvetica, sans-serif" font-size="12" fill="#111827">107: Trashy Wave 12</text>
</svg>
