<svg xmlns="http://www.w3.org/2000/svg" width="320" height="120" viewBox="0 0 320 120" role="img" aria-label="Waveform 108 Trashy Wave 13">
    <rect x="0" y="0" width="320" height="120" fill="#f6f7f9"/>
    <line x1="12" y1="60" x2="308" y2="60" stroke="#c4c9d4" stroke-width="1"/>
  <polyline points="12,62.751 15.116,75.489 18.232,53.729 21.347,53.521 24.463,55.784 27.579,69.023 30.695,46.861 33.811,57.831 36.926,45.042 40.042,53.249 43.158,69.259 46.274,41.921 49.389,41.305 52.505,71.929 55.621,59.818 58.737,57.67 61.853,54.705 64.968,49.257 68.084,58.959 71.2,73.809 74.316,64.784 77.432,71.693 80.547,69.412 83.663,85.553 86.779,63.297 89.895,80.125 93.011,87.706 96.126,73.587 99.242,62.074 102.358,87.814 105.474,61.818 108.589,71.396 111.705,78.939 114.821,65.152 117.937,62.625 121.053,80.064 124.168,55.691 127.284,73.031 130.4,55.327 133.516,41.307 136.632,55.71 139.747,65.439 142.863,65.007 145.979,42.334 149.095,49.583 152.211,37.835 155.326,57.397 158.442,47.463 161.558,52.232 164.674,68.073 167.789,44.447 170.905,51.361 174.021,56.767 177.137,42.547 180.253,59.981 183.368,56.265 186.484,51.162 189.6,43.893 192.716,68.578 195.832,64.432 198.947,58.598 202.063,86.673 205.179,54.718 208.295,56.22 211.411,60.861 214.526,66.037 217.642,69.602 220.758,71.57 223.874,61.187 226.989,86.13 230.105,48.733 233.221,58.524 236.337,60.257 239.453,63.727 242.568,64.774 245.684,65.51 248.8,58.964 251.916,60.649 255.032,61.795 258.147,64.396 261.263,57.722 264.379,65.228 267.495,43.775 270.611,29.741 273.726,37.91 276.842,46.717 279.958,67.738 283.074,36.681 286.189,65.473 289.305,56.037 292.421,43.936 295.537,63.395 298.653,56.054 301.768,77.806 304.884,67.77 308,53.282" fill="none" stroke="#111827" stroke-width="2" stroke-linecap="round" stroke-linejoin="round"/>
  <text x="12" y="18" font-family="Arial, Helvetica, sans-serif" font-size="12" fill="#111827">108: Trashy Wave 13</text>
</svg>
