<svg xmlns="http://www.w3.org/2000/svg" width="320" height="120" viewBox="0 0 320 120" role="img" aria-label="Waveform 109 Spark Wave 12">
    <rect x="0" y="0" width="320" height="120" fill="#f6f7f9"/>
    <line x1="12" y1="60" x2="308" y2="60" stroke="#c4c9d4" stroke-width="1"/>
  <polyline points="12,45.834 15.116,51.944 18.232,44.236 21.347,60.191 24.463,39.876 27.579,50.441 30.695,55.306 33.811,48.619 36.926,46.282 40.042,41.898 43.158,39.623 46.274,37.562 49.389,51.63 52.505,47.551 55.621,43.845 58.737,68.474 61.853,65.47 64.968,53.851 68.084,64.699 71.2,58.213 74.316,73.448 77.432,75.583 80.547,56.369 83.663,60.7 86.779,83.945 89.895,56.035 93.011,57.699 96.126,60.555 99.242,58.805 102.358,52.393 105.474,64.109 108.589,72.323 111.705,67.857 114.821,68.35 117.937,66.061 121.053,53.5 124.168,61.051 127.284,55.651 130.4,51.703 133.516,43.485 136.632,62.272 139.747,38.121 142.863,40.127 145.979,52.077 149.095,67.249 152.211,64.572 155.326,61.474 158.442,65.279 161.558,49.339 164.674,65.558 167.789,74.197 170.905,80.895 174.021,57.812 177.137,73.661 180.253,66.539 183.368,63.903 186.484,63.138 189.6,82.105 192.716,75.897 195.832,54.605 198.947,62.61 202.063,62.765 205.179,55.092 208.295,55.655 211.411,64.386 214.526,49.273 217.642,46.759 220.758,55.316 223.874,48.603 226.989,52.824 230.105,36.761 233.221,35.63 236.337,54.185 239.453,42.398 242.568,45.186 245.684,55.664 248.8,56.852 251.916,56.674 255.032,48.707 258.147,49.277 261.263,57.687 264.379,60.231 267.495,54.997 270.611,71.025 273.726,60.861 276.842,70.446 279.958,76.829 283.074,59.922 286.189,70.15 289.305,72.215 292.421,61.175 295.537,78.5 298.653,78.087 301.768,64.293 304.884,74.043 308,59.954" fill="none" stroke="#111827" stroke-width="2" stroke-linecap="round" stroke-linejoin="round"/>
  <text x="12" y="18" font-family="Arial, Helvetica, sans-serif" font-size="12" fill="#111827">109: Spark Wave 12</text>
</svg>
