<svg xmlns="http://www.w3.org/2000/svg" width="320" height="120" viewBox="0 0 320 120" role="img" aria-label="Waveform 110 Spark Wave 13">
    <rect x="0" y="0" width="320" height="120" fill="#f6f7f9"/>
    <line x1="12" y1="60" x2="308" y2="60" stroke="#c4c9d4" stroke-width="1"/>
  <polyline points="12,59.674 15.116,73.777 18.232,55.595 21.347,57.769 24.463,60.444 27.579,59.4 30.695,47.931 33.811,68.617 36.926,47.821 40.042,64.5 43.158,50.374 46.274,45.507 49.389,60.444 52.505,59.128 55.621,47.951 58.737,43.414 61.853,43.926 64.968,53.154 68.084,49.991 71.2,60.045 74.316,51.95 77.432,49.447 80.547,60.438 83.663,58.983 86.779,60.419 89.895,46.028 93.011,42.191 96.126,53.196 99.242,62.954 102.358,43.077 105.474,40.572 108.589,54.142 111.705,48.041 114.821,61.857 117.937,52.502 121.053,50.987 124.168,66.733 127.284,67.277 130.4,50.5 133.516,60.774 136.632,45.413 139.747,64.68 142.863,58.026 145.979,53.824 149.095,56.219 152.211,71.254 155.326,53.624 158.442,65.508 161.558,74.805 164.674,59.717 167.789,67.607 170.905,63.584 174.021,60.704 177.137,62.256 180.253,55.106 183.368,50.484 186.484,54.769 189.6,68.213 192.716,70.155 195.832,59.453 198.947,63.458 202.063,71.176 205.179,54.324 208.295,54.592 211.411,74.946 214.526,77.375 217.642,79.724 220.758,81.927 223.874,62.029 226.989,82.346 230.105,63.015 233.221,63.883 236.337,61.753 239.453,78.081 242.568,75.239 245.684,77.513 248.8,82.25 251.916,68.98 255.032,65.572 258.147,81.32 261.263,55.868 264.379,69.338 267.495,71.177 270.611,67.094 273.726,68.279 276.842,69.687 279.958,56.969 283.074,78.028 286.189,69.67 289.305,64.516 292.421,58.22 295.537,59.955 298.653,57.919 301.768,51.14 304.884,56.642 308,61.715" fill="none" stroke="#111827" stroke-width="2" stroke-linecap="round" stroke-linejoin="round"/>
  <text x="12" y="18" font-family="Arial, Helvetica, sans-serif" font-size="12" fill="#111827">110: Spark Wave 13</text>
</svg>
