<svg xmlns="http://www.w3.org/2000/svg" width="320" height="120" viewBox="0 0 320 120" role="img" aria-label="Waveform 111 Trashy Wave 14">
    <rect x="0" y="0" width="320" height="120" fill="#f6f7f9"/>
    <line x1="12" y1="60" x2="308" y2="60" stroke="#c4c9d4" stroke-width="1"/>
  <polyline points="12,77.77 15.116,60.103 18.232,52.609 21.347,63.964 24.463,45.186 27.579,58.538 30.695,36.307 33.811,60.408 36.926,72.009 40.042,49.803 43.158,44.122 46.274,56.064 49.389,63.09 52.505,56.784 55.621,53.607 58.737,54.938 61.853,70.725 64.968,38.268 68.084,35.573 71.2,34.517 74.316,48.266 77.432,60.502 80.547,54.847 83.663,69.782 86.779,60.827 89.895,47.714 93.011,54.835 96.126,73.996 99.242,36.247 102.358,55.961 105.474,59.506 108.589,71.541 111.705,61.96 114.821,55.234 117.937,44.392 121.053,62.756 124.168,67.77 127.284,60.673 130.4,57.375 133.516,72.561 136.632,79.007 139.747,53.296 142.863,83.317 145.979,78.968 149.095,78.732 152.211,76.068 155.326,84.574 158.442,81.712 161.558,73.272 164.674,75.119 167.789,77.576 170.905,76.58 174.021,70.754 177.137,61.67 180.253,50.631 183.368,68.439 186.484,78.175 189.6,74.143 192.716,69.372 195.832,63.609 198.947,72.048 202.063,61.688 205.179,72.257 208.295,77.226 211.411,58.062 214.526,57.829 217.642,75.996 220.758,35.223 223.874,41.553 226.989,60.177 230.105,44.954 233.221,59.951 236.337,72.607 239.453,54.49 242.568,32.669 245.684,59.086 248.8,50.759 251.916,71.741 255.032,34.878 258.147,54.634 261.263,41.19 264.379,66.145 267.495,62.535 270.611,62.551 273.726,59.29 276.842,48.506 279.958,55.498 283.074,53.955 286.189,46.573 289.305,48.312 292.421,53.811 295.537,63.179 298.653,64.258 301.768,52.892 304.884,66.08 308,56.223" fill="none" stroke="#111827" stroke-width="2" stroke-linecap="round" stroke-linejoin="round"/>
  <text x="12" y="18" font-family="Arial, Helvetica, sans-serif" font-size="12" fill="#111827">111: Trashy Wave 14</text>
</svg>
