<svg xmlns="http://www.w3.org/2000/svg" width="320" height="120" viewBox="0 0 320 120" role="img" aria-label="Waveform 112 Trashy Wave 15">
    <rect x="0" y="0" width="320" height="120" fill="#f6f7f9"/>
    <line x1="12" y1="60" x2="308" y2="60" stroke="#c4c9d4" stroke-width="1"/>
  <polyline points="12,56.556 15.116,64.068 18.232,70.449 21.347,60.329 24.463,32.743 27.579,69.275 30.695,53.72 33.811,75.227 36.926,45.352 40.042,39.455 43.158,54.524 46.274,42.837 49.389,46.198 52.505,47.73 55.621,49.867 58.737,39.624 61.853,60.054 64.968,58.451 68.084,50.117 71.2,42.26 74.316,53.8 77.432,46.916 80.547,48.137 83.663,66.415 86.779,62.737 89.895,63.778 93.011,67.088 96.126,71.394 99.242,84.284 102.358,65.914 105.474,71.966 108.589,67.574 111.705,81.715 114.821,59.618 117.937,83.259 121.053,81.023 124.168,71.982 127.284,58.956 130.4,69.45 133.516,75.67 136.632,74.504 139.747,63.74 142.863,63.068 145.979,55.777 149.095,48.226 152.211,61.836 155.326,52.461 158.442,57.271 161.558,55.48 164.674,58.435 167.789,35.602 170.905,57.599 174.021,58.767 177.137,40.346 180.253,60.121 183.368,62.219 186.484,48.778 189.6,40.052 192.716,43.399 195.832,49.746 198.947,56.478 202.063,51.861 205.179,33.21 208.295,60.918 211.411,59.628 214.526,48.954 217.642,57.851 220.758,49.399 223.874,40.202 226.989,61.766 230.105,46.455 233.221,67.996 236.337,71.004 239.453,52.925 242.568,62.256 245.684,55.756 248.8,76.892 251.916,78.928 255.032,63.114 258.147,53.063 261.263,56.792 264.379,77.769 267.495,63.174 270.611,83.831 273.726,75.937 276.842,57.591 279.958,79.379 283.074,72.467 286.189,66.637 289.305,74.525 292.421,73.01 295.537,75.686 298.653,52.698 301.768,65.453 304.884,62.16 308,77.903" fill="none" stroke="#111827" stroke-width="2" stroke-linecap="round" stroke-linejoin="round"/>
  <text x="12" y="18" font-family="Arial, Helvetica, sans-serif" font-size="12" fill="#111827">112: Trashy Wave 15</text>
</svg>
