<svg xmlns="http://www.w3.org/2000/svg" width="320" height="120" viewBox="0 0 320 120" role="img" aria-label="Waveform 113 Rainbow">
    <rect x="0" y="0" width="320" height="120" fill="#f6f7f9"/>
    <line x1="12" y1="60" x2="308" y2="60" stroke="#c4c9d4" stroke-width="1"/>
  <polyline points="12,72.214 15.116,47.248 18.232,50.789 21.347,65.306 24.463,46.521 27.579,66.109 30.695,62.273 33.811,49.124 36.926,61.236 40.042,56.909 43.158,40.325 46.274,61.421 49.389,56.538 52.505,42.055 55.621,45.712 58.737,49.386 61.853,69.434 64.968,63.186 68.084,55.544 71.2,65.205 74.316,52.135 77.432,70.637 80.547,60.952 83.663,74.285 86.779,69.861 89.895,67.049 93.011,74.097 96.126,77.432 99.242,59.198 102.358,80.046 105.474,56.967 108.589,78.882 111.705,59.572 114.821,75.765 117.937,65.543 121.053,59.76 124.168,63.172 127.284,74.315 130.4,70.674 133.516,44.203 136.632,67.175 139.747,68.894 142.863,63.569 145.979,39.406 149.095,62.051 152.211,44.876 155.326,44.017 158.442,54.174 161.558,55.655 164.674,37.168 167.789,46.325 170.905,42.341 174.021,44.83 177.137,63.485 180.253,57.438 183.368,47.088 186.484,65.712 189.6,60.711 192.716,55.199 195.832,72.345 198.947,59.541 202.063,55.406 205.179,62.844 208.295,55.712 211.411,75.279 214.526,65.759 217.642,76.372 220.758,82.671 223.874,76.057 226.989,82.461 230.105,79.086 233.221,54.873 236.337,76.719 239.453,61.778 242.568,72.52 245.684,52.805 248.8,71.84 251.916,52.811 255.032,68.342 258.147,48.476 261.263,43.487 264.379,38.026 267.495,38.275 270.611,37.714 273.726,49.405 276.842,60.103 279.958,52.155 283.074,45.522 286.189,41.817 289.305,45.583 292.421,54.294 295.537,67.233 298.653,59.7 301.768,43.839 304.884,64.078 308,66.997" fill="none" stroke="#111827" stroke-width="2" stroke-linecap="round" stroke-linejoin="round"/>
  <text x="12" y="18" font-family="Arial, Helvetica, sans-serif" font-size="12" fill="#111827">113: Rainbow</text>
</svg>
