<svg xmlns="http://www.w3.org/2000/svg" width="320" height="120" viewBox="0 0 320 120" role="img" aria-label="Waveform 115 Trashy Wave 15">
    <rect x="0" y="0" width="320" height="120" fill="#f6f7f9"/>
    <line x1="12" y1="60" x2="308" y2="60" stroke="#c4c9d4" stroke-width="1"/>
  <polyline points="12,71.575 15.116,69.384 18.232,48.649 21.347,70.84 24.463,51.286 27.579,59.098 30.695,43.684 33.811,57.898 36.926,44.479 40.042,58.263 43.158,60.393 46.274,30.547 49.389,42.105 52.505,65.238 55.621,47.892 58.737,41.663 61.853,52.344 64.968,53.108 68.084,61.644 71.2,58.731 74.316,43.356 77.432,62.31 80.547,59.765 83.663,55.531 86.779,56.045 89.895,34.371 93.011,56.642 96.126,43.053 99.242,56.994 102.358,30.726 105.474,43.597 108.589,60.226 111.705,55.029 114.821,66.725 117.937,50.835 121.053,47.351 124.168,65.635 127.284,55.254 130.4,49.488 133.516,54.504 136.632,52.536 139.747,46.944 142.863,34.908 145.979,66.621 149.095,51.98 152.211,54.792 155.326,56.303 158.442,69.841 161.558,56.894 164.674,48.277 167.789,54.284 170.905,63.137 174.021,64.643 177.137,54.831 180.253,78.709 183.368,48.028 186.484,61.357 189.6,80.145 192.716,57.476 195.832,65.441 198.947,68.723 202.063,49.031 205.179,75.204 208.295,58.596 211.411,84.647 214.526,77.856 217.642,64.642 220.758,63.21 223.874,49.649 226.989,64.079 230.105,69.716 233.221,65.883 236.337,57.184 239.453,64.994 242.568,78.009 245.684,65.621 248.8,82.29 251.916,71.924 255.032,73.37 258.147,77.875 261.263,72.384 264.379,58.878 267.495,80.819 270.611,64.124 273.726,72.369 276.842,74.755 279.958,81.778 283.074,83.29 286.189,70.215 289.305,52.281 292.421,77.2 295.537,70.596 298.653,57.051 301.768,58.577 304.884,59.111 308,51.863" fill="none" stroke="#111827" stroke-width="2" stroke-linecap="round" stroke-linejoin="round"/>
  <text x="12" y="18" font-family="Arial, Helvetica, sans-serif" font-size="12" fill="#111827">115: Trashy Wave 15</text>
</svg>
