<svg xmlns="http://www.w3.org/2000/svg" width="320" height="120" viewBox="0 0 320 120" role="img" aria-label="Waveform 119 5th Rasp">
    <rect x="0" y="0" width="320" height="120" fill="#f6f7f9"/>
    <line x1="12" y1="60" x2="308" y2="60" stroke="#c4c9d4" stroke-width="1"/>
  <polyline points="12,68.315 15.116,53.851 18.232,44.529 21.347,56.295 24.463,53.935 27.579,58.006 30.695,41.379 33.811,48.131 36.926,39.409 40.042,50.954 43.158,57.959 46.274,43.151 49.389,55.267 52.505,41.681 55.621,43.853 58.737,61.368 61.853,59.57 64.968,48.055 68.084,56.854 71.2,61.921 74.316,63.923 77.432,62.444 80.547,65.351 83.663,75.38 86.779,84.523 89.895,72.501 93.011,69.359 96.126,54.873 99.242,65.699 102.358,50.84 105.474,73.042 108.589,53.948 111.705,67.242 114.821,61.084 117.937,51.809 121.053,40.941 124.168,52.835 127.284,61.013 130.4,60.034 133.516,52.816 136.632,42.654 139.747,44.548 142.863,48.199 145.979,48.262 149.095,59.356 152.211,41.203 155.326,49.818 158.442,60.739 161.558,50.007 164.674,56.235 167.789,69.508 170.905,66.202 174.021,79.037 177.137,72.581 180.253,66.472 183.368,70.543 186.484,56.063 189.6,67.719 192.716,71.423 195.832,81.179 198.947,58.514 202.063,54.521 205.179,76.69 208.295,50.335 211.411,64.509 214.526,57.003 217.642,52.964 220.758,66.218 223.874,56.985 226.989,36.412 230.105,37.87 233.221,53.348 236.337,40.058 239.453,54.202 242.568,39.532 245.684,39.711 248.8,64.622 251.916,69.472 255.032,71.28 258.147,73.224 261.263,56.828 264.379,76.431 267.495,77.626 270.611,58.261 273.726,63.997 276.842,65.091 279.958,66.209 283.074,60.387 286.189,62.951 289.305,80.304 292.421,55.69 295.537,55.691 298.653,58.942 301.768,75.031 304.884,58.489 308,48.58" fill="none" stroke="#111827" stroke-width="2" stroke-linecap="round" stroke-linejoin="round"/>
  <text x="12" y="18" font-family="Arial, Helvetica, sans-serif" font-size="12" fill="#111827">119: 5th Rasp</text>
</svg>
