<svg xmlns="http://www.w3.org/2000/svg" width="320" height="120" viewBox="0 0 320 120" role="img" aria-label="Waveform 120 Octave Wave">
    <rect x="0" y="0" width="320" height="120" fill="#f6f7f9"/>
    <line x1="12" y1="60" x2="308" y2="60" stroke="#c4c9d4" stroke-width="1"/>
  <polyline points="12,56.1 15.116,51.699 18.232,56.246 21.347,54.4 24.463,48.944 27.579,60.523 30.695,57.591 33.811,59.89 36.926,43.739 40.042,45.217 43.158,41.878 46.274,47.832 49.389,54.742 52.505,48.081 55.621,44.611 58.737,54.109 61.853,38.166 64.968,43.174 68.084,39.912 71.2,52.02 74.316,39.637 77.432,35.992 80.547,38.249 83.663,40.615 86.779,49.925 89.895,50.815 93.011,45.959 96.126,42.464 99.242,38.839 102.358,39.432 105.474,44.253 108.589,53.267 111.705,43.714 114.821,48.194 117.937,39.28 121.053,39.841 124.168,51.814 127.284,43.849 130.4,53.074 133.516,43.54 136.632,51.947 139.747,45.35 142.863,59.697 145.979,51.169 149.095,50.887 152.211,51.325 155.326,65.202 158.442,60.201 161.558,52.634 164.674,55.566 167.789,63.42 170.905,56.094 174.021,59.093 177.137,64.46 180.253,61.602 183.368,63.423 186.484,75.202 189.6,62.73 192.716,70.06 195.832,65.651 198.947,67.468 202.063,69.967 205.179,77.813 208.295,79.53 211.411,78.056 214.526,67.535 217.642,68.267 220.758,72.427 223.874,76.35 226.989,73.919 230.105,72.966 233.221,82.988 236.337,80.122 239.453,71.092 242.568,75.947 245.684,71.211 248.8,70.719 251.916,82.329 255.032,69.125 258.147,78.585 261.263,66.061 264.379,66.541 267.495,70.824 270.611,64.35 273.726,73.602 276.842,69.015 279.958,74.728 283.074,75.941 286.189,66.166 289.305,71.317 292.421,59.306 295.537,66.284 298.653,66.53 301.768,62.477 304.884,66.457 308,54.48" fill="none" stroke="#111827" stroke-width="2" stroke-linecap="round" stroke-linejoin="round"/>
  <text x="12" y="18" font-family="Arial, Helvetica, sans-serif" font-size="12" fill="#111827">120: Octave Wave</text>
</svg>
