<svg xmlns="http://www.w3.org/2000/svg" width="320" height="120" viewBox="0 0 320 120" role="img" aria-label="Waveform 121 Triangle + Overtones">
    <rect x="0" y="0" width="320" height="120" fill="#f6f7f9"/>
    <line x1="12" y1="60" x2="308" y2="60" stroke="#c4c9d4" stroke-width="1"/>
  <polyline points="12,95.19 15.116,90.062 18.232,85.084 21.347,80.397 24.463,76.121 27.579,72.347 30.695,69.131 33.811,66.491 36.926,64.405 40.042,62.812 43.158,61.615 46.274,60.693 49.389,59.903 52.505,59.094 55.621,58.116 58.737,56.831 61.853,55.122 64.968,52.902 68.084,50.119 71.2,46.761 74.316,42.854 77.432,38.466 80.547,33.694 83.663,28.665 86.779,25.004 89.895,25.826 93.011,26.835 96.126,28.167 99.242,29.936 102.358,32.224 105.474,35.079 108.589,38.509 111.705,42.48 114.821,46.922 117.937,51.734 121.053,56.785 124.168,61.931 127.284,67.021 130.4,71.905 133.516,76.45 136.632,80.547 139.747,84.117 142.863,87.116 145.979,89.543 149.095,91.435 152.211,92.867 155.326,93.945 158.442,94.8 161.558,92.616 164.674,87.545 167.789,82.696 170.905,78.201 174.021,74.166 177.137,70.667 180.253,67.74 183.368,65.382 186.484,63.552 189.6,62.171 192.716,61.129 195.832,60.291 198.947,59.511 202.063,58.635 205.179,57.52 208.295,56.036 211.411,54.08 214.526,51.583 217.642,48.511 220.758,44.873 223.874,40.715 226.989,36.12 230.105,31.203 233.221,26.098 236.337,25.4 239.453,26.298 242.568,27.453 245.684,28.991 248.8,31.011 251.916,33.58 255.032,36.723 258.147,40.43 261.263,44.648 264.379,49.289 267.495,54.238 270.611,59.356 273.726,64.493 276.842,69.497 279.958,74.228 283.074,78.561 286.189,82.401 289.305,85.689 292.421,88.4 295.537,90.552 298.653,92.203 301.768,93.443 304.884,94.392 308,95.19" fill="none" stroke="#111827" stroke-width="2" stroke-linecap="round" stroke-linejoin="round"/>
  <text x="12" y="18" font-family="Arial, Helvetica, sans-serif" font-size="12" fill="#111827">121: Triangle + Overtones</text>
</svg>
