<svg xmlns="http://www.w3.org/2000/svg" width="320" height="120" viewBox="0 0 320 120" role="img" aria-label="Waveform 122 Pulse + Overtones">
    <rect x="0" y="0" width="320" height="120" fill="#f6f7f9"/>
    <line x1="12" y1="60" x2="308" y2="60" stroke="#c4c9d4" stroke-width="1"/>
  <polyline points="12,27.708 15.116,25.543 18.232,23.529 21.347,21.805 24.463,20.492 27.579,19.681 30.695,19.429 33.811,19.753 36.926,85.214 40.042,86.584 43.158,88.351 46.274,90.392 49.389,92.566 52.505,94.72 55.621,96.706 58.737,98.384 61.853,99.638 64.968,100.381 68.084,100.562 71.2,100.167 74.316,99.224 77.432,97.798 80.547,95.99 83.663,93.924 86.779,91.745 89.895,89.603 93.011,87.649 96.126,86.018 99.242,84.824 102.358,84.149 105.474,84.04 108.589,84.506 111.705,20.93 114.821,22.409 117.937,24.257 121.053,26.345 124.168,28.528 127.284,30.654 130.4,32.575 133.516,34.157 136.632,99.875 139.747,100.48 142.863,100.517 145.979,99.98 149.095,98.909 152.211,97.378 155.326,95.492 158.442,93.384 161.558,91.2 164.674,89.092 167.789,87.206 170.905,85.675 174.021,84.604 177.137,84.067 180.253,84.104 183.368,84.709 186.484,85.843 189.6,87.425 192.716,89.346 195.832,91.472 198.947,93.655 202.063,95.743 205.179,97.591 208.295,99.07 211.411,35.494 214.526,35.96 217.642,35.851 220.758,35.176 223.874,33.982 226.989,32.351 230.105,30.397 233.221,28.255 236.337,90.66 239.453,88.594 242.568,86.786 245.684,85.36 248.8,84.417 251.916,84.022 255.032,84.203 258.147,84.946 261.263,86.2 264.379,87.878 267.495,89.864 270.611,92.018 273.726,94.192 276.842,96.233 279.958,98 283.074,99.37 286.189,100.247 289.305,100.571 292.421,100.319 295.537,99.508 298.653,98.195 301.768,96.471 304.884,94.457 308,27.708" fill="none" stroke="#111827" stroke-width="2" stroke-linecap="round" stroke-linejoin="round"/>
  <text x="12" y="18" font-family="Arial, Helvetica, sans-serif" font-size="12" fill="#111827">122: Pulse + Overtones</text>
</svg>
