<svg xmlns="http://www.w3.org/2000/svg" width="320" height="120" viewBox="0 0 320 120" role="img" aria-label="Waveform 123 Rising Square">
    <rect x="0" y="0" width="320" height="120" fill="#f6f7f9"/>
    <line x1="12" y1="60" x2="308" y2="60" stroke="#c4c9d4" stroke-width="1"/>
  <polyline points="12,38.058 15.116,37.84 18.232,37.622 21.347,37.404 24.463,37.186 27.579,36.969 30.695,36.751 33.811,36.533 36.926,36.315 40.042,36.097 43.158,35.879 46.274,35.661 49.389,35.443 52.505,35.225 55.621,35.007 58.737,34.79 61.853,34.572 64.968,34.354 68.084,34.136 71.2,33.918 74.316,33.7 77.432,33.482 80.547,33.264 83.663,33.046 86.779,32.829 89.895,32.611 93.011,32.393 96.126,32.175 99.242,31.957 102.358,31.739 105.474,31.521 108.589,31.303 111.705,31.085 114.821,30.867 117.937,30.65 121.053,30.432 124.168,30.214 127.284,29.996 130.4,29.778 133.516,29.56 136.632,29.342 139.747,29.124 142.863,28.906 145.979,28.689 149.095,28.471 152.211,28.253 155.326,28.035 158.442,27.817 161.558,92.183 164.674,91.965 167.789,91.747 170.905,91.529 174.021,91.311 177.137,91.094 180.253,90.876 183.368,90.658 186.484,90.44 189.6,90.222 192.716,90.004 195.832,89.786 198.947,89.568 202.063,89.35 205.179,89.133 208.295,88.915 211.411,88.697 214.526,88.479 217.642,88.261 220.758,88.043 223.874,87.825 226.989,87.607 230.105,87.389 233.221,87.171 236.337,86.954 239.453,86.736 242.568,86.518 245.684,86.3 248.8,86.082 251.916,85.864 255.032,85.646 258.147,85.428 261.263,85.21 264.379,84.993 267.495,84.775 270.611,84.557 273.726,84.339 276.842,84.121 279.958,83.903 283.074,83.685 286.189,83.467 289.305,83.249 292.421,83.031 295.537,82.814 298.653,82.596 301.768,82.378 304.884,82.16 308,18.6" fill="none" stroke="#111827" stroke-width="2" stroke-linecap="round" stroke-linejoin="round"/>
  <text x="12" y="18" font-family="Arial, Helvetica, sans-serif" font-size="12" fill="#111827">123: Rising Square</text>
</svg>
