<svg xmlns="http://www.w3.org/2000/svg" width="320" height="120" viewBox="0 0 320 120" role="img" aria-label="Waveform 124 Soft Wave 8">
    <rect x="0" y="0" width="320" height="120" fill="#f6f7f9"/>
    <line x1="12" y1="60" x2="308" y2="60" stroke="#c4c9d4" stroke-width="1"/>
  <polyline points="12,54.615 15.116,65.383 18.232,59.625 21.347,56.822 24.463,52.158 27.579,52.316 30.695,61.032 33.811,59.779 36.926,52.104 40.042,53.911 43.158,42.757 46.274,45.798 49.389,42.325 52.505,46.74 55.621,47.925 58.737,45.861 61.853,43.441 64.968,51.785 68.084,38.119 71.2,42.932 74.316,47.395 77.432,36.3 80.547,43.614 83.663,50.594 86.779,43.433 89.895,41.331 93.011,38.688 96.126,51.101 99.242,37.103 102.358,52.325 105.474,52.919 108.589,52.379 111.705,50.198 114.821,46.534 117.937,49.27 121.053,53.53 124.168,46.624 127.284,48.387 130.4,58.291 133.516,55.608 136.632,50.775 139.747,60.067 142.863,54.918 145.979,60.233 149.095,49.083 152.211,59.231 155.326,59.225 158.442,59.164 161.558,62.723 164.674,63.371 167.789,55.724 170.905,59.36 174.021,60.633 177.137,67.525 180.253,64.899 183.368,61.629 186.484,66.961 189.6,72.689 192.716,62.413 195.832,78.349 198.947,66.532 202.063,64.77 205.179,79.438 208.295,75.002 211.411,78.085 214.526,69.302 217.642,76.309 220.758,78.231 223.874,81.578 226.989,80.103 230.105,69.908 233.221,83.726 236.337,83.517 239.453,73.79 242.568,68.031 245.684,80.813 248.8,75.807 251.916,78.631 255.032,80.909 258.147,80.746 261.263,79.112 264.379,76.868 267.495,69.373 270.611,71.368 273.726,77.631 276.842,74.415 279.958,72.3 283.074,62.799 286.189,61.209 289.305,66.542 292.421,64.676 295.537,67.694 298.653,62.154 301.768,54.995 304.884,62.902 308,58.505" fill="none" stroke="#111827" stroke-width="2" stroke-linecap="round" stroke-linejoin="round"/>
  <text x="12" y="18" font-family="Arial, Helvetica, sans-serif" font-size="12" fill="#111827">124: Soft Wave 8</text>
</svg>
