<svg xmlns="http://www.w3.org/2000/svg" width="320" height="120" viewBox="0 0 320 120" role="img" aria-label="Waveform 125 Cacophonous Buzz 3">
    <rect x="0" y="0" width="320" height="120" fill="#f6f7f9"/>
    <line x1="12" y1="60" x2="308" y2="60" stroke="#c4c9d4" stroke-width="1"/>
  <polyline points="12,64.416 15.116,62.148 18.232,70.524 21.347,51.925 24.463,67.044 27.579,56.256 30.695,56.021 33.811,53.395 36.926,52.001 40.042,49.104 43.158,48.897 46.274,53.89 49.389,51.409 52.505,64.813 55.621,62.453 58.737,61.735 61.853,64.056 64.968,44.46 68.084,38.223 71.2,36.627 74.316,52.151 77.432,58.719 80.547,44.932 83.663,52.022 86.779,46.796 89.895,56.236 93.011,45.192 96.126,44.672 99.242,58.804 102.358,40.747 105.474,53.97 108.589,55.559 111.705,47.117 114.821,50.959 117.937,45.615 121.053,61.128 124.168,54.41 127.284,60.83 130.4,62.996 133.516,45.79 136.632,59.456 139.747,59.83 142.863,70.134 145.979,62.592 149.095,58.87 152.211,65.18 155.326,50.63 158.442,58.698 161.558,61.317 164.674,60.223 167.789,75.064 170.905,70.525 174.021,63.562 177.137,60.636 180.253,55.006 183.368,74.934 186.484,58.646 189.6,61.123 192.716,77.935 195.832,55.844 198.947,57.315 202.063,58.809 205.179,72.232 208.295,61.103 211.411,75.132 214.526,74.481 217.642,60.051 220.758,83.79 223.874,74.602 226.989,57.728 230.105,64.68 233.221,61.481 236.337,69.543 239.453,81.298 242.568,66.758 245.684,82.564 248.8,79.415 251.916,73.686 255.032,55.961 258.147,73.771 261.263,69.071 264.379,79.148 267.495,76.141 270.611,62.439 273.726,58.492 276.842,76.145 279.958,55.528 283.074,78.725 286.189,58.871 289.305,62.158 292.421,64.484 295.537,54.721 298.653,72.672 301.768,67.246 304.884,47.801 308,59.144" fill="none" stroke="#111827" stroke-width="2" stroke-linecap="round" stroke-linejoin="round"/>
  <text x="12" y="18" font-family="Arial, Helvetica, sans-serif" font-size="12" fill="#111827">125: Cacophonous Buzz 3</text>
</svg>
