<svg xmlns="http://www.w3.org/2000/svg" width="320" height="120" viewBox="0 0 320 120" role="img" aria-label="Waveform 126 Silence">
    <rect x="0" y="0" width="320" height="120" fill="#f6f7f9"/>
    <line x1="12" y1="60" x2="308" y2="60" stroke="#c4c9d4" stroke-width="1"/>
  <polyline points="12,60 15.116,60 18.232,60 21.347,60 24.463,60 27.579,60 30.695,60 33.811,60 36.926,60 40.042,60 43.158,60 46.274,60 49.389,60 52.505,60 55.621,60 58.737,60 61.853,60 64.968,60 68.084,60 71.2,60 74.316,60 77.432,60 80.547,60 83.663,60 86.779,60 89.895,60 93.011,60 96.126,60 99.242,60 102.358,60 105.474,60 108.589,60 111.705,60 114.821,60 117.937,60 121.053,60 124.168,60 127.284,60 130.4,60 133.516,60 136.632,60 139.747,60 142.863,60 145.979,60 149.095,60 152.211,60 155.326,60 158.442,60 161.558,60 164.674,60 167.789,60 170.905,60 174.021,60 177.137,60 180.253,60 183.368,60 186.484,60 189.6,60 192.716,60 195.832,60 198.947,60 202.063,60 205.179,60 208.295,60 211.411,60 214.526,60 217.642,60 220.758,60 223.874,60 226.989,60 230.105,60 233.221,60 236.337,60 239.453,60 242.568,60 245.684,60 248.8,60 251.916,60 255.032,60 258.147,60 261.263,60 264.379,60 267.495,60 270.611,60 273.726,60 276.842,60 279.958,60 283.074,60 286.189,60 289.305,60 292.421,60 295.537,60 298.653,60 301.768,60 304.884,60 308,60" fill="none" stroke="#111827" stroke-width="2" stroke-linecap="round" stroke-linejoin="round"/>
  <text x="12" y="18" font-family="Arial, Helvetica, sans-serif" font-size="12" fill="#111827">126: Silence</text>
</svg>
