<svg xmlns="http://www.w3.org/2000/svg" width="320" height="120" viewBox="0 0 320 120" role="img" aria-label="Waveform 127 White Noise">
    <rect x="0" y="0" width="320" height="120" fill="#f6f7f9"/>
    <line x1="12" y1="60" x2="308" y2="60" stroke="#c4c9d4" stroke-width="1"/>
  <polyline points="12,68.903 15.116,19.501 18.232,61.018 21.347,90.212 24.463,95.891 27.579,79.788 30.695,68.663 33.811,54.055 36.926,31.585 40.042,67.183 43.158,90.038 46.274,98.522 49.389,25.495 52.505,92.805 55.621,57.526 58.737,69.092 61.853,27.748 64.968,22.401 68.084,20.756 71.2,40.023 74.316,44.238 77.432,44.795 80.547,101.134 83.663,91.69 86.779,35.611 89.895,55.006 93.011,70.158 96.126,25.289 99.242,39.253 102.358,65.032 105.474,91.516 108.589,29.927 111.705,64.678 114.821,54.224 117.937,66.907 121.053,77.802 124.168,92.838 127.284,51.239 130.4,57.583 133.516,23.934 136.632,28.189 139.747,25.832 142.863,87.529 145.979,57.337 149.095,59.044 152.211,99.432 155.326,62.617 158.442,54.664 161.558,46.608 164.674,35.822 167.789,78.933 170.905,91.45 174.021,23.956 177.137,100.359 180.253,83.049 183.368,42.708 186.484,19.767 189.6,70.728 192.716,73.201 195.832,59.485 198.947,28.231 202.063,61.974 205.179,33.402 208.295,67.953 211.411,77.067 214.526,78.711 217.642,52.444 220.758,72.671 223.874,44.498 226.989,81.124 230.105,77.654 233.221,77.908 236.337,66.218 239.453,98.222 242.568,30.435 245.684,37.006 248.8,58.666 251.916,62.397 255.032,51.246 258.147,37.579 261.263,93.789 264.379,34.094 267.495,80.081 270.611,22.032 273.726,87.498 276.842,18.666 279.958,24.571 283.074,65.719 286.189,72.574 289.305,42.799 292.421,76.635 295.537,40.71 298.653,79.438 301.768,99.498 304.884,97.104 308,67.615" fill="none" stroke="#111827" stroke-width="2" stroke-linecap="round" stroke-linejoin="round"/>
  <text x="12" y="18" font-family="Arial, Helvetica, sans-serif" font-size="12" fill="#111827">127: White Noise</text>
</svg>
