<svg xmlns="http://www.w3.org/2000/svg" width="160" height="48" viewBox="0 0 160 48" role="img" aria-label="Waveform 0 Twang">
  <defs>
    <filter id="glow">
      <feGaussianBlur stdDeviation="1.5" result="coloredBlur"/>
      <feMerge>
        <feMergeNode in="coloredBlur"/>
        <feMergeNode in="SourceGraphic"/>
      </feMerge>
    </filter>
  </defs>
  <rect x="0" y="0" width="160" height="48" fill="#1f2025"/>
  <polyline points="8,12.025 10.028,13.651 12.056,14.536 14.085,16.544 16.113,18.028 18.141,19.181 20.169,20.02 22.197,20.483 24.225,19.861 26.254,19.46 28.282,19.356 30.31,18.032 32.338,18.113 34.366,17.544 36.394,17.908 38.423,18.816 40.451,20.329 42.479,21.017 44.507,21.458 46.535,22.815 48.563,22.332 50.592,22.172 52.62,21.241 54.648,20.778 56.676,20.855 58.704,20.048 60.732,19.94 62.761,20.106 64.789,20.935 66.817,21.208 68.845,22.45 70.873,22.734 72.901,22.951 74.93,22.88 76.958,23.255 78.986,22.733 81.014,22.49 83.042,21.963 85.07,21.887 87.099,21.424 89.127,22.061 91.155,22.626 93.183,22.888 95.211,22.912 97.239,23.118 99.268,23.234 101.296,23.703 103.324,23.084 105.352,22.904 107.38,23.006 109.408,22.984 111.437,22.298 113.465,22.562 115.493,22.991 117.521,22.687 119.549,23.137 121.577,23.927 123.606,23.769 125.634,24.298 127.662,23.708 129.69,23.797 131.718,23.791 133.746,23.186 135.775,23.492 137.803,22.913 139.831,23.016 141.859,23.633 143.887,23.108 145.915,23.293 147.944,23.815 149.972,24.155 152,24.339" fill="none" stroke="#1fdcf5" stroke-width="1.8" stroke-linecap="round" stroke-linejoin="round" filter="url(#glow)"/>
</svg>
