<svg xmlns="http://www.w3.org/2000/svg" width="160" height="48" viewBox="0 0 160 48" role="img" aria-label="Waveform 1 Clav">
  <defs>
    <filter id="glow">
      <feGaussianBlur stdDeviation="1.5" result="coloredBlur"/>
      <feMerge>
        <feMergeNode in="coloredBlur"/>
        <feMergeNode in="SourceGraphic"/>
      </feMerge>
    </filter>
  </defs>
  <rect x="0" y="0" width="160" height="48" fill="#1f2025"/>
  <polyline points="8,12.289 10.028,13.282 12.056,15.024 14.085,16.086 16.113,17.398 18.141,18.712 20.169,20.324 22.197,20.716 24.225,19.842 26.254,19.828 28.282,19.207 30.31,18.428 32.338,17.756 34.366,17.002 36.394,18.115 38.423,19.45 40.451,19.91 42.479,21.2 44.507,21.64 46.535,22.696 48.563,22.827 50.592,21.907 52.62,21.182 54.648,20.752 56.676,20.963 58.704,19.876 60.732,20.02 62.761,20.231 64.789,21.227 66.817,21.23 68.845,22.403 70.873,22.407 72.901,23.072 74.93,23.54 76.958,23.152 78.986,22.696 81.014,22.287 83.042,21.951 85.07,21.77 87.099,21.841 89.127,22.066 91.155,22.075 93.183,22.97 95.211,23.281 97.239,23.24 99.268,23.693 101.296,23.219 103.324,23.254 105.352,23.313 107.38,22.818 109.408,23.046 111.437,22.609 113.465,22.727 115.493,23.003 117.521,22.761 119.549,23.379 121.577,23.256 123.606,23.794 125.634,23.934 127.662,23.623 129.69,23.776 131.718,23.657 133.746,23.1 135.775,23.41 137.803,23.122 139.831,22.976 141.859,22.983 143.887,23.14 145.915,23.56 147.944,24.02 149.972,24.206 152,23.613" fill="none" stroke="#1fdcf5" stroke-width="1.8" stroke-linecap="round" stroke-linejoin="round" filter="url(#glow)"/>
</svg>
