<svg xmlns="http://www.w3.org/2000/svg" width="160" height="48" viewBox="0 0 160 48" role="img" aria-label="Waveform 2 Xylophone">
  <rect x="0" y="0" width="160" height="48" fill="#ffffff"/>
  <polyline points="8,12.405 10.028,13.603 12.056,15.26 14.085,16.237 16.113,17.486 18.141,18.992 20.169,20.188 22.197,20.844 24.225,20.133 26.254,19.572 28.282,18.909 30.31,18.199 32.338,17.811 34.366,16.971 36.394,17.864 38.423,18.845 40.451,19.643 42.479,21.06 44.507,21.782 46.535,22.799 48.563,22.715 50.592,22.334 52.62,21.603 54.648,21.325 56.676,20.439 58.704,19.88 60.732,20.293 62.761,20.251 64.789,20.822 66.817,21.237 68.845,22.547 70.873,22.594 72.901,23.612 74.93,23.563 76.958,23.146 78.986,22.874 81.014,22.041 83.042,22.332 85.07,22.149 87.099,21.591 89.127,21.723 91.155,22.008 93.183,23.086 95.211,22.878 97.239,23.107 99.268,23.419 101.296,23.742 103.324,23.676 105.352,23.102 107.38,22.858 109.408,22.919 111.437,22.257 113.465,22.276 115.493,22.624 117.521,23.088 119.549,23.111 121.577,23.643 123.606,23.776 125.634,23.989 127.662,23.462 129.69,23.929 131.718,23.428 133.746,23.639 135.775,23.712 137.803,23.322 139.831,23.497 141.859,23.039 143.887,23.208 145.915,23.705 147.944,23.865 149.972,23.571 152,24.01" fill="none" stroke="#111111" stroke-width="1.8" stroke-linecap="round" stroke-linejoin="round"/>
</svg>
