<svg xmlns="http://www.w3.org/2000/svg" width="160" height="48" viewBox="0 0 160 48" role="img" aria-label="Waveform 3 Slippery Slope">
  <defs>
    <filter id="glow">
      <feGaussianBlur stdDeviation="1.5" result="coloredBlur"/>
      <feMerge>
        <feMergeNode in="coloredBlur"/>
        <feMergeNode in="SourceGraphic"/>
      </feMerge>
    </filter>
  </defs>
  <rect x="0" y="0" width="160" height="48" fill="#1f2025"/>
  <polyline points="8,20.905 10.028,21.041 12.056,20.893 14.085,19.759 16.113,19.695 18.141,19.44 20.169,18.682 22.197,19.025 24.225,19.518 26.254,20.425 28.282,20.596 30.31,20.83 32.338,21.688 34.366,22.163 36.394,21.994 38.423,21.429 40.451,20.589 42.479,20.71 44.507,20.073 46.535,19.467 48.563,20.006 50.592,20.134 52.62,20.761 54.648,22.01 56.676,22.042 58.704,23.042 60.732,23.475 62.761,22.689 64.789,22.276 66.817,21.809 68.845,21.035 70.873,20.991 72.901,20.872 74.93,20.918 76.958,21.11 78.986,21.705 81.014,22.345 83.042,23.01 85.07,23.386 87.099,23.752 89.127,23.475 91.155,22.74 93.183,22.65 95.211,22.03 97.239,21.142 99.268,20.97 101.296,21.285 103.324,22.108 105.352,22.216 107.38,23.199 109.408,23.45 111.437,24.3 113.465,24.24 115.493,24.116 117.521,23.313 119.549,22.905 121.577,23.038 123.606,22.341 125.634,21.791 127.662,21.898 129.69,22.892 131.718,23.562 133.746,23.705 135.775,24.026 137.803,24.984 139.831,24.742 141.859,24.748 143.887,23.989 145.915,24.093 147.944,23.583 149.972,22.893 152,22.301" fill="none" stroke="#1fdcf5" stroke-width="1.8" stroke-linecap="round" stroke-linejoin="round" filter="url(#glow)"/>
</svg>
