<svg xmlns="http://www.w3.org/2000/svg" width="160" height="48" viewBox="0 0 160 48" role="img" aria-label="Waveform 4 Enharmonic Square">
  <defs>
    <filter id="glow">
      <feGaussianBlur stdDeviation="1.5" result="coloredBlur"/>
      <feMerge>
        <feMergeNode in="coloredBlur"/>
        <feMergeNode in="SourceGraphic"/>
      </feMerge>
    </filter>
  </defs>
  <rect x="0" y="0" width="160" height="48" fill="#1f2025"/>
  <polyline points="8,13.541 10.028,12.439 12.056,12.396 14.085,12.456 16.113,12.87 18.141,12.403 20.169,12.173 22.197,12.306 24.225,12.807 26.254,12.372 28.282,13.338 30.31,12.977 32.338,12.114 34.366,13.047 36.394,12.855 38.423,13.528 40.451,13.202 42.479,12.973 44.507,12.808 46.535,12.205 48.563,14.362 50.592,19.055 52.62,22.032 54.648,25.145 56.676,29.211 58.704,31.64 60.732,35.91 62.761,34.567 64.789,35.343 66.817,35.917 68.845,34.964 70.873,35.434 72.901,34.803 74.93,35.243 76.958,35.749 78.986,35.308 81.014,34.76 83.042,34.544 85.07,35.711 87.099,35.918 89.127,35.097 91.155,35.852 93.183,35.453 95.211,34.769 97.239,34.924 99.268,34.567 101.296,31.806 103.324,28.23 105.352,25.178 107.38,21.677 109.408,17.835 111.437,14.872 113.465,13.488 115.493,12.325 117.521,13.427 119.549,12.78 121.577,12.129 123.606,13.458 125.634,13.152 127.662,12.373 129.69,13.481 131.718,13.464 133.746,12.161 135.775,13.361 137.803,13.192 139.831,12.357 141.859,12.523 143.887,12.245 145.915,13.546 147.944,12.956 149.972,12.15 152,13.52" fill="none" stroke="#1fdcf5" stroke-width="1.8" stroke-linecap="round" stroke-linejoin="round" filter="url(#glow)"/>
</svg>
