<svg xmlns="http://www.w3.org/2000/svg" width="160" height="48" viewBox="0 0 160 48" role="img" aria-label="Waveform 5 Xylophone 2">
  <defs>
    <filter id="glow">
      <feGaussianBlur stdDeviation="1.5" result="coloredBlur"/>
      <feMerge>
        <feMergeNode in="coloredBlur"/>
        <feMergeNode in="SourceGraphic"/>
      </feMerge>
    </filter>
  </defs>
  <rect x="0" y="0" width="160" height="48" fill="#1f2025"/>
  <polyline points="8,12.401 10.028,13.448 12.056,14.732 14.085,16.156 16.113,17.353 18.141,19.348 20.169,20.025 22.197,20.458 24.225,20.441 26.254,19.54 28.282,18.614 30.31,18.416 32.338,17.84 34.366,17.286 36.394,18.448 38.423,18.996 40.451,19.862 42.479,20.429 44.507,21.808 46.535,22.698 48.563,22.136 50.592,21.963 52.62,21.375 54.648,21.081 56.676,20.349 58.704,19.906 60.732,20.262 62.761,20.8 64.789,20.847 66.817,21.183 68.845,21.788 70.873,22.69 72.901,23.07 74.93,23.439 76.958,23.208 78.986,23.025 81.014,22.293 83.042,22.017 85.07,21.831 87.099,21.802 89.127,22.387 91.155,22.447 93.183,23.075 95.211,23.393 97.239,23.55 99.268,23.755 101.296,23.875 103.324,23.516 105.352,22.839 107.38,22.893 109.408,23.048 111.437,22.455 113.465,22.188 115.493,23.179 117.521,23.426 119.549,23.256 121.577,23.616 123.606,23.757 125.634,24.077 127.662,23.547 129.69,23.564 131.718,23.51 133.746,23.839 135.775,23.508 137.803,23.472 139.831,23.138 141.859,23.656 143.887,23.431 145.915,23.91 147.944,23.787 149.972,23.934 152,23.937" fill="none" stroke="#1fdcf5" stroke-width="1.8" stroke-linecap="round" stroke-linejoin="round" filter="url(#glow)"/>
</svg>
