<svg xmlns="http://www.w3.org/2000/svg" width="160" height="48" viewBox="0 0 160 48" role="img" aria-label="Waveform 6 Mellow Square">
  <defs>
    <filter id="glow">
      <feGaussianBlur stdDeviation="1.5" result="coloredBlur"/>
      <feMerge>
        <feMergeNode in="coloredBlur"/>
        <feMergeNode in="SourceGraphic"/>
      </feMerge>
    </filter>
  </defs>
  <rect x="0" y="0" width="160" height="48" fill="#1f2025"/>
  <polyline points="8,15.353 10.028,15.901 12.056,15.66 14.085,15.912 16.113,15.759 18.141,15.452 20.169,15.33 22.197,15.592 24.225,15.538 26.254,15.367 28.282,15.842 30.31,15.449 32.338,15.756 34.366,15.593 36.394,15.4 38.423,15.781 40.451,15.509 42.479,15.361 44.507,15.431 46.535,15.617 48.563,17.121 50.592,20.169 52.62,22.221 54.648,24.941 56.676,27.963 58.704,30.179 60.732,32.388 62.761,32.086 64.789,32.276 66.817,32.178 68.845,32.132 70.873,32.285 72.901,32.668 74.93,32.441 76.958,32.407 78.986,32.559 81.014,32.239 83.042,32.565 85.07,32.404 87.099,32.48 89.127,32.55 91.155,32.231 93.183,32.401 95.211,32.556 97.239,32.109 99.268,32.439 101.296,30.076 103.324,27.885 105.352,25.38 107.38,22.764 109.408,19.937 111.437,17.371 113.465,15.298 115.493,15.722 117.521,15.709 119.549,15.356 121.577,15.72 123.606,15.66 125.634,15.663 127.662,15.424 129.69,15.838 131.718,15.474 133.746,15.726 135.775,15.373 137.803,15.834 139.831,15.635 141.859,15.852 143.887,15.428 145.915,15.527 147.944,15.899 149.972,15.646 152,15.467" fill="none" stroke="#1fdcf5" stroke-width="1.8" stroke-linecap="round" stroke-linejoin="round" filter="url(#glow)"/>
</svg>
