<svg xmlns="http://www.w3.org/2000/svg" width="160" height="48" viewBox="0 0 160 48" role="img" aria-label="Waveform 7 Chaos 1">
  <rect x="0" y="0" width="160" height="48" fill="#ffffff"/>
  <polyline points="8,30.452 10.028,29.488 12.056,27.2 14.085,24.249 16.113,22.318 18.141,20.059 20.169,17.687 22.197,17.564 24.225,19.7 26.254,22.509 28.282,24.577 30.31,27.099 32.338,28.99 34.366,29.2 36.394,26.172 38.423,24.76 40.451,23.514 42.479,21.23 44.507,18.932 46.535,15.35 48.563,15.572 50.592,20.098 52.62,22.947 54.648,24.773 56.676,27.639 58.704,28.212 60.732,31.237 62.761,28.015 64.789,26.734 66.817,24.178 68.845,24.187 70.873,20.521 72.901,20.165 74.93,19.18 76.958,21.328 78.986,23.883 81.014,23.234 83.042,25.59 85.07,26.551 87.099,28.363 89.127,25.964 91.155,24.314 93.183,23.149 95.211,21.598 97.239,18.742 99.268,19.347 101.296,19.199 103.324,21.806 105.352,23.95 107.38,25.449 109.408,29.463 111.437,31.651 113.465,31.438 115.493,28.448 117.521,26.221 119.549,23.251 121.577,21.806 123.606,19.292 125.634,16.422 127.662,19.319 129.69,20.424 131.718,20.699 133.746,22.396 135.775,26.164 137.803,24.915 139.831,26.788 141.859,26.951 143.887,24.876 145.915,24.55 147.944,22.39 149.972,22.999 152,22.025" fill="none" stroke="#111111" stroke-width="1.8" stroke-linecap="round" stroke-linejoin="round"/>
</svg>
