<svg xmlns="http://www.w3.org/2000/svg" width="160" height="48" viewBox="0 0 160 48" role="img" aria-label="Waveform 8 Chaos 2">
  <rect x="0" y="0" width="160" height="48" fill="#ffffff"/>
  <polyline points="8,31.564 10.028,29.217 12.056,27.421 14.085,24.636 16.113,22.101 18.141,22.14 20.169,17.613 22.197,19.964 24.225,21.051 26.254,23.85 28.282,25.156 30.31,24.747 32.338,28.192 34.366,30.146 36.394,27.06 38.423,25.312 40.451,23.225 42.479,21.281 44.507,19.683 46.535,17.092 48.563,17.611 50.592,18.264 52.62,22.842 54.648,23.452 56.676,25.336 58.704,28.329 60.732,28.918 62.761,29.362 64.789,28.268 66.817,23.837 68.845,23.936 70.873,22.906 72.901,19.503 74.93,20.98 76.958,20.879 78.986,22.011 81.014,25.397 83.042,26.813 85.07,27.206 87.099,28.778 89.127,25.276 91.155,25.054 93.183,22.634 95.211,21.486 97.239,21.04 99.268,18.609 101.296,21.252 103.324,22.112 105.352,23.515 107.38,27.932 109.408,30.184 111.437,32.905 113.465,31.441 115.493,30.606 117.521,26.864 119.549,25.511 121.577,21.698 123.606,18.83 125.634,16.327 127.662,19.376 129.69,20.182 131.718,22.427 133.746,24.006 135.775,25.574 137.803,24.974 139.831,27.515 141.859,26.601 143.887,25.371 145.915,24.028 147.944,21.998 149.972,20.933 152,20.622" fill="none" stroke="#111111" stroke-width="1.8" stroke-linecap="round" stroke-linejoin="round"/>
</svg>
