<svg xmlns="http://www.w3.org/2000/svg" width="160" height="48" viewBox="0 0 160 48" role="img" aria-label="Waveform 9 Chaos 3">
  <defs>
    <filter id="glow">
      <feGaussianBlur stdDeviation="1.5" result="coloredBlur"/>
      <feMerge>
        <feMergeNode in="coloredBlur"/>
        <feMergeNode in="SourceGraphic"/>
      </feMerge>
    </filter>
  </defs>
  <rect x="0" y="0" width="160" height="48" fill="#1f2025"/>
  <polyline points="8,32.387 10.028,30.524 12.056,27.834 14.085,25.518 16.113,22.028 18.141,19.809 20.169,19.396 22.197,17.345 24.225,20.39 26.254,21.102 28.282,24.713 30.31,25.288 32.338,29.293 34.366,29.653 36.394,27.61 38.423,25.546 40.451,23.675 42.479,20.399 44.507,17.085 46.535,15.848 48.563,17.593 50.592,18.296 52.62,20.138 54.648,22.806 56.676,27.453 58.704,29.392 60.732,30.291 62.761,29.746 64.789,25.669 66.817,23.666 68.845,23.69 70.873,20.144 72.901,18.284 74.93,21.234 76.958,20.667 78.986,22.299 81.014,24.787 83.042,26.728 85.07,28.398 87.099,28.136 89.127,25.56 91.155,25.63 93.183,21.987 95.211,21.703 97.239,19.985 99.268,18.189 101.296,20.018 103.324,21.354 105.352,24.426 107.38,26.365 109.408,27.752 111.437,31.031 113.465,31.467 115.493,30.99 117.521,27.055 119.549,23.822 121.577,22.793 123.606,19.343 125.634,17.885 127.662,16.885 129.69,21.393 131.718,22.338 133.746,22.659 135.775,26.078 137.803,27.846 139.831,26.5 141.859,26.816 143.887,24.032 145.915,23.265 147.944,23.281 149.972,21.548 152,20.3" fill="none" stroke="#1fdcf5" stroke-width="1.8" stroke-linecap="round" stroke-linejoin="round" filter="url(#glow)"/>
</svg>
