<svg xmlns="http://www.w3.org/2000/svg" width="160" height="48" viewBox="0 0 160 48" role="img" aria-label="Waveform 10 Chaos 4">
  <rect x="0" y="0" width="160" height="48" fill="#ffffff"/>
  <polyline points="8,32.648 10.028,28.096 12.056,27.349 14.085,26.25 16.113,22.485 18.141,20.071 20.169,19.198 22.197,17.379 24.225,21.335 26.254,23.227 28.282,24.079 30.31,25.613 32.338,28.517 34.366,29.119 36.394,26.232 38.423,26.231 40.451,22.066 42.479,19.391 44.507,18.673 46.535,16.92 48.563,18.039 50.592,19.451 52.62,22.001 54.648,22.885 56.676,26.2 58.704,27.705 60.732,31.748 62.761,29.652 64.789,26.604 66.817,25.94 68.845,24.117 70.873,22.665 72.901,18.504 74.93,20.067 76.958,21.377 78.986,23.731 81.014,23.093 83.042,26.947 85.07,27.623 87.099,28.071 89.127,24.809 91.155,23.274 93.183,21.79 95.211,22.239 97.239,20.944 99.268,19.161 101.296,20.244 103.324,20.926 105.352,24.061 107.38,28.102 109.408,27.68 111.437,31.528 113.465,33.162 115.493,30.098 117.521,27.199 119.549,23.131 121.577,22.416 123.606,18.873 125.634,16.655 127.662,19.645 129.69,21.123 131.718,21.494 133.746,23.578 135.775,26.036 137.803,26.685 139.831,28.104 141.859,26.485 143.887,23.986 145.915,25.131 147.944,22.559 149.972,21.368 152,19.817" fill="none" stroke="#111111" stroke-width="1.8" stroke-linecap="round" stroke-linejoin="round"/>
</svg>
