<svg xmlns="http://www.w3.org/2000/svg" width="160" height="48" viewBox="0 0 160 48" role="img" aria-label="Waveform 11 Bright Square">
  <defs>
    <filter id="glow">
      <feGaussianBlur stdDeviation="1.5" result="coloredBlur"/>
      <feMerge>
        <feMergeNode in="coloredBlur"/>
        <feMergeNode in="SourceGraphic"/>
      </feMerge>
    </filter>
  </defs>
  <rect x="0" y="0" width="160" height="48" fill="#1f2025"/>
  <polyline points="8,13.08 10.028,13.017 12.056,12.689 14.085,12.502 16.113,12.445 18.141,13.179 20.169,12.821 22.197,13.025 24.225,12.686 26.254,12.563 28.282,12.988 30.31,12.995 32.338,13.19 34.366,13.185 36.394,12.453 38.423,12.801 40.451,13.159 42.479,12.449 44.507,12.858 46.535,12.674 48.563,15.014 50.592,18.189 52.62,21.998 54.648,25.58 56.676,28.657 58.704,32.475 60.732,35.409 62.761,35.51 64.789,35.113 66.817,35.575 68.845,35 70.873,35.051 72.901,35.102 74.93,34.893 76.958,35.352 78.986,35.321 81.014,34.986 83.042,35.456 85.07,35.171 87.099,35.581 89.127,35.401 91.155,35.372 93.183,35.302 95.211,35.403 97.239,35.498 99.268,35.299 101.296,32.268 103.324,28.729 105.352,25.703 107.38,21.769 109.408,18.26 111.437,14.705 113.465,12.855 115.493,12.893 117.521,12.429 119.549,13.23 121.577,13.022 123.606,12.797 125.634,12.673 127.662,12.752 129.69,13.196 131.718,12.991 133.746,13.193 135.775,12.725 137.803,12.782 139.831,12.444 141.859,12.798 143.887,12.694 145.915,13.117 147.944,12.888 149.972,13.193 152,12.537" fill="none" stroke="#1fdcf5" stroke-width="1.8" stroke-linecap="round" stroke-linejoin="round" filter="url(#glow)"/>
</svg>
