<svg xmlns="http://www.w3.org/2000/svg" width="160" height="48" viewBox="0 0 160 48" role="img" aria-label="Waveform 12 Hollow">
  <defs>
    <filter id="glow">
      <feGaussianBlur stdDeviation="1.5" result="coloredBlur"/>
      <feMerge>
        <feMergeNode in="coloredBlur"/>
        <feMergeNode in="SourceGraphic"/>
      </feMerge>
    </filter>
  </defs>
  <rect x="0" y="0" width="160" height="48" fill="#1f2025"/>
  <polyline points="8,21.118 10.028,21.116 12.056,20.367 14.085,20.362 16.113,19.799 18.141,19.313 20.169,19.323 22.197,19.396 24.225,19.42 26.254,20.323 28.282,20.398 30.31,20.878 32.338,21.388 34.366,22.491 36.394,21.915 38.423,21.308 40.451,21.075 42.479,20.721 44.507,20.353 46.535,19.864 48.563,19.832 50.592,20.348 52.62,20.802 54.648,21.629 56.676,21.933 58.704,22.894 60.732,23.519 62.761,23.12 64.789,22.696 66.817,21.873 68.845,21.336 70.873,20.985 72.901,20.167 74.93,21.055 76.958,21.096 78.986,21.776 81.014,22.602 83.042,23.085 85.07,23.758 87.099,23.513 89.127,23.602 91.155,22.827 93.183,22.737 95.211,21.946 97.239,21.307 99.268,20.637 101.296,20.841 103.324,21.653 105.352,22.248 107.38,22.771 109.408,24.089 111.437,24.352 113.465,24.558 115.493,24.518 117.521,23.545 119.549,22.783 121.577,22.744 123.606,22.391 125.634,21.749 127.662,22.303 129.69,22.42 131.718,22.936 133.746,23.735 135.775,24.24 137.803,24.548 139.831,25.248 141.859,24.315 143.887,24.438 145.915,23.744 147.944,23.259 149.972,23.122 152,22.258" fill="none" stroke="#1fdcf5" stroke-width="1.8" stroke-linecap="round" stroke-linejoin="round" filter="url(#glow)"/>
</svg>
