<svg xmlns="http://www.w3.org/2000/svg" width="160" height="48" viewBox="0 0 160 48" role="img" aria-label="Waveform 13 BP Square">
  <rect x="0" y="0" width="160" height="48" fill="#ffffff"/>
  <polyline points="8,12.939 10.028,13.092 12.056,12.732 14.085,13.042 16.113,13.145 18.141,12.547 20.169,12.708 22.197,13.208 24.225,12.9 26.254,12.842 28.282,12.435 30.31,12.89 32.338,12.607 34.366,12.438 36.394,12.7 38.423,13.209 40.451,13.013 42.479,12.909 44.507,13.06 46.535,12.523 48.563,15.015 50.592,18.213 52.62,22.35 54.648,25.787 56.676,29.045 58.704,32.552 60.732,35.284 62.761,34.987 64.789,35.13 66.817,35.348 68.845,35.588 70.873,34.983 72.901,35.054 74.93,34.976 76.958,34.922 78.986,35.308 81.014,35.443 83.042,34.955 85.07,35.462 87.099,34.913 89.127,35.125 91.155,35.566 93.183,35.041 95.211,34.948 97.239,35.323 99.268,35.011 101.296,32.582 103.324,28.891 105.352,25.144 107.38,21.571 109.408,18.25 111.437,15.125 113.465,12.428 115.493,12.951 117.521,12.883 119.549,12.727 121.577,12.682 123.606,12.75 125.634,12.914 127.662,12.814 129.69,13.062 131.718,13.061 133.746,12.873 135.775,12.841 137.803,12.648 139.831,13.171 141.859,12.699 143.887,12.986 145.915,12.597 147.944,12.836 149.972,12.999 152,12.696" fill="none" stroke="#111111" stroke-width="1.8" stroke-linecap="round" stroke-linejoin="round"/>
</svg>
