<svg xmlns="http://www.w3.org/2000/svg" width="160" height="48" viewBox="0 0 160 48" role="img" aria-label="Waveform 14 Ski Slope 1">
  <rect x="0" y="0" width="160" height="48" fill="#ffffff"/>
  <polyline points="8,21.306 10.028,21.067 12.056,20.768 14.085,19.744 16.113,19.367 18.141,18.97 20.169,18.621 22.197,19.034 24.225,19.829 26.254,20.162 28.282,20.401 30.31,21.597 32.338,21.881 34.366,22.355 36.394,21.412 38.423,21.227 40.451,20.844 42.479,20.738 44.507,19.722 46.535,19.805 48.563,20.207 50.592,20.336 52.62,20.822 54.648,21.913 56.676,22.154 58.704,22.622 60.732,23.234 62.761,22.849 64.789,22.203 66.817,21.693 68.845,21.819 70.873,21.15 72.901,20.157 74.93,21.002 76.958,21.563 78.986,22.034 81.014,22.807 83.042,23.204 85.07,23.248 87.099,23.984 89.127,23.184 91.155,22.741 93.183,22.397 95.211,21.577 97.239,21.219 99.268,20.718 101.296,21.556 103.324,21.466 105.352,22.363 107.38,22.795 109.408,23.801 111.437,24.263 113.465,24.399 115.493,23.949 117.521,23.837 119.549,23.029 121.577,23.111 123.606,21.988 125.634,21.66 127.662,22.185 129.69,22.831 131.718,23.345 133.746,24.127 135.775,24.351 137.803,24.703 139.831,25.142 141.859,24.255 143.887,24.574 145.915,23.856 147.944,23.292 149.972,22.951 152,22.491" fill="none" stroke="#111111" stroke-width="1.8" stroke-linecap="round" stroke-linejoin="round"/>
</svg>
