<svg xmlns="http://www.w3.org/2000/svg" width="160" height="48" viewBox="0 0 160 48" role="img" aria-label="Waveform 15 Rasp">
  <defs>
    <filter id="glow">
      <feGaussianBlur stdDeviation="1.5" result="coloredBlur"/>
      <feMerge>
        <feMergeNode in="coloredBlur"/>
        <feMergeNode in="SourceGraphic"/>
      </feMerge>
    </filter>
  </defs>
  <rect x="0" y="0" width="160" height="48" fill="#1f2025"/>
  <polyline points="8,25.485 10.028,24.507 12.056,23.396 14.085,23.659 16.113,22.543 18.141,20.661 20.169,20.561 22.197,21.59 24.225,22.786 26.254,22.299 28.282,24.675 30.31,24.968 32.338,26.795 34.366,26.258 36.394,25.825 38.423,25.217 40.451,23.784 42.479,22.311 44.507,20.913 46.535,19.774 48.563,20.861 50.592,22.097 52.62,22.576 54.648,23.47 56.676,24.791 58.704,25.603 60.732,27.672 62.761,25.13 64.789,24.921 66.817,24.103 68.845,22.409 70.873,21.085 72.901,20.42 74.93,21.358 76.958,22.515 78.986,22.275 81.014,22.825 83.042,24.366 85.07,26.758 87.099,26.166 89.127,24.858 91.155,25.292 93.183,22.825 95.211,22.478 97.239,21.092 99.268,19.474 101.296,21.537 103.324,22.046 105.352,23.704 107.38,23.407 109.408,25.546 111.437,25.821 113.465,24.964 115.493,26.077 117.521,24.244 119.549,24.113 121.577,21.974 123.606,22.284 125.634,20.293 127.662,21.145 129.69,21.878 131.718,22.723 133.746,22.988 135.775,24.669 137.803,24.165 139.831,24.456 141.859,24.112 143.887,23.081 145.915,23.606 147.944,22.707 149.972,22.143 152,21.985" fill="none" stroke="#1fdcf5" stroke-width="1.8" stroke-linecap="round" stroke-linejoin="round" filter="url(#glow)"/>
</svg>
