<svg xmlns="http://www.w3.org/2000/svg" width="160" height="48" viewBox="0 0 160 48" role="img" aria-label="Waveform 16 Peal">
  <defs>
    <filter id="glow">
      <feGaussianBlur stdDeviation="1.5" result="coloredBlur"/>
      <feMerge>
        <feMergeNode in="coloredBlur"/>
        <feMergeNode in="SourceGraphic"/>
      </feMerge>
    </filter>
  </defs>
  <rect x="0" y="0" width="160" height="48" fill="#1f2025"/>
  <polyline points="8,11.761 10.028,13.679 12.056,14.885 14.085,15.926 16.113,17.275 18.141,18.595 20.169,20.322 22.197,20.639 24.225,20.351 26.254,19.198 28.282,18.922 30.31,18.432 32.338,17.94 34.366,17.702 36.394,18.458 38.423,19.223 40.451,19.941 42.479,20.561 44.507,21.628 46.535,22.532 48.563,22.557 50.592,21.825 52.62,21.983 54.648,21.532 56.676,20.39 58.704,19.891 60.732,19.594 62.761,20.607 64.789,21.36 66.817,21.668 68.845,22.554 70.873,22.312 72.901,22.846 74.93,23.161 76.958,23.106 78.986,23.037 81.014,22.705 83.042,21.926 85.07,21.987 87.099,21.354 89.127,22.284 91.155,22.12 93.183,22.326 95.211,23.209 97.239,23.258 99.268,23.699 101.296,23.602 103.324,23.724 105.352,23.253 107.38,22.624 109.408,22.398 111.437,22.723 113.465,22.758 115.493,22.446 117.521,23.451 119.549,23.267 121.577,23.377 123.606,23.853 125.634,23.98 127.662,24.047 129.69,23.831 131.718,23.184 133.746,23.372 135.775,23.3 137.803,23.452 139.831,23.554 141.859,23.132 143.887,23.796 145.915,23.757 147.944,23.842 149.972,23.552 152,23.631" fill="none" stroke="#1fdcf5" stroke-width="1.8" stroke-linecap="round" stroke-linejoin="round" filter="url(#glow)"/>
</svg>
