<svg xmlns="http://www.w3.org/2000/svg" width="160" height="48" viewBox="0 0 160 48" role="img" aria-label="Waveform 17 Fuzz">
  <defs>
    <filter id="glow">
      <feGaussianBlur stdDeviation="1.5" result="coloredBlur"/>
      <feMerge>
        <feMergeNode in="coloredBlur"/>
        <feMergeNode in="SourceGraphic"/>
      </feMerge>
    </filter>
  </defs>
  <rect x="0" y="0" width="160" height="48" fill="#1f2025"/>
  <polyline points="8,25.141 10.028,24.221 12.056,24.352 14.085,23.209 16.113,22.938 18.141,21.668 20.169,19.941 22.197,20.556 24.225,21.532 26.254,23.934 28.282,23.627 30.31,24.897 32.338,25.66 34.366,26.271 36.394,26.398 38.423,24.8 40.451,24.1 42.479,22.104 44.507,20.715 46.535,19.594 48.563,20.082 50.592,21.551 52.62,22.383 54.648,23.94 56.676,25.441 58.704,26.819 60.732,26.75 62.761,25.909 64.789,24.93 66.817,23.115 68.845,21.482 70.873,21.397 72.901,20.13 74.93,21.522 76.958,22.001 78.986,23.643 81.014,24.106 83.042,25.532 85.07,26.247 87.099,25.63 89.127,24.911 91.155,24.619 93.183,22.472 95.211,23.413 97.239,20.562 99.268,19.515 101.296,20.496 103.324,22.885 105.352,22.111 107.38,22.927 109.408,23.944 111.437,26.4 113.465,26.436 115.493,24.155 117.521,24.034 119.549,23.091 121.577,23.241 123.606,21.933 125.634,21.459 127.662,21.152 129.69,22.307 131.718,23.749 133.746,22.855 135.775,23.987 137.803,24.996 139.831,25.427 141.859,25.1 143.887,24.544 145.915,22.927 147.944,23.312 149.972,21.701 152,21.503" fill="none" stroke="#1fdcf5" stroke-width="1.8" stroke-linecap="round" stroke-linejoin="round" filter="url(#glow)"/>
</svg>
