<svg xmlns="http://www.w3.org/2000/svg" width="160" height="48" viewBox="0 0 160 48" role="img" aria-label="Waveform 18 Floss">
  <defs>
    <filter id="glow">
      <feGaussianBlur stdDeviation="1.5" result="coloredBlur"/>
      <feMerge>
        <feMergeNode in="coloredBlur"/>
        <feMergeNode in="SourceGraphic"/>
      </feMerge>
    </filter>
  </defs>
  <rect x="0" y="0" width="160" height="48" fill="#1f2025"/>
  <polyline points="8,11.704 10.028,13.163 12.056,14.723 14.085,16.55 16.113,17.429 18.141,18.849 20.169,20.429 22.197,20.482 24.225,19.754 26.254,19.771 28.282,18.985 30.31,18.042 32.338,18.017 34.366,17.411 36.394,18.41 38.423,19.403 40.451,19.996 42.479,20.536 44.507,21.74 46.535,22.866 48.563,22.152 50.592,21.988 52.62,21.895 54.648,21.256 56.676,20.662 58.704,20.343 60.732,20.029 62.761,20.404 64.789,21.014 66.817,21.537 68.845,22.282 70.873,22.786 72.901,23.39 74.93,23.465 76.958,22.586 78.986,22.781 81.014,22.727 83.042,21.802 85.07,21.65 87.099,21.473 89.127,21.719 91.155,22.199 93.183,22.524 95.211,22.929 97.239,23.444 99.268,24.036 101.296,23.163 103.324,23.572 105.352,23.464 107.38,23.244 109.408,22.538 111.437,22.594 113.465,22.364 115.493,23.185 117.521,22.905 119.549,23.034 121.577,23.826 123.606,23.576 125.634,24.372 127.662,24.115 129.69,23.902 131.718,23.242 133.746,23.766 135.775,23.511 137.803,23.366 139.831,23.374 141.859,23.18 143.887,23.034 145.915,23.79 147.944,23.724 149.972,23.886 152,24.261" fill="none" stroke="#1fdcf5" stroke-width="1.8" stroke-linecap="round" stroke-linejoin="round" filter="url(#glow)"/>
</svg>
