<svg xmlns="http://www.w3.org/2000/svg" width="160" height="48" viewBox="0 0 160 48" role="img" aria-label="Waveform 19 Excite">
  <defs>
    <filter id="glow">
      <feGaussianBlur stdDeviation="1.5" result="coloredBlur"/>
      <feMerge>
        <feMergeNode in="coloredBlur"/>
        <feMergeNode in="SourceGraphic"/>
      </feMerge>
    </filter>
  </defs>
  <rect x="0" y="0" width="160" height="48" fill="#1f2025"/>
  <polyline points="8,12.114 10.028,13.66 12.056,14.858 14.085,15.999 16.113,17.217 18.141,18.882 20.169,20.181 22.197,20.878 24.225,20.159 26.254,19.747 28.282,19.359 30.31,18.387 32.338,17.85 34.366,17.322 36.394,17.995 38.423,18.774 40.451,19.728 42.479,20.803 44.507,21.678 46.535,22.743 48.563,22.799 50.592,22.036 52.62,21.994 54.648,21.526 56.676,20.748 58.704,20.046 60.732,20.316 62.761,20.4 64.789,21.26 66.817,22.001 68.845,22.318 70.873,23 72.901,23.314 74.93,23.24 76.958,22.618 78.986,22.668 81.014,22.579 83.042,22.033 85.07,21.711 87.099,22.021 89.127,21.849 91.155,22.713 93.183,22.987 95.211,23.375 97.239,23.588 99.268,23.255 101.296,23.388 103.324,23.284 105.352,23.31 107.38,22.975 109.408,23.224 111.437,22.638 113.465,22.198 115.493,22.835 117.521,23.198 119.549,23.653 121.577,23.53 123.606,23.889 125.634,24.117 127.662,24.013 129.69,23.632 131.718,23.64 133.746,23.247 135.775,22.993 137.803,23.499 139.831,22.881 141.859,23.364 143.887,23.117 145.915,23.879 147.944,23.64 149.972,24.077 152,24.147" fill="none" stroke="#1fdcf5" stroke-width="1.8" stroke-linecap="round" stroke-linejoin="round" filter="url(#glow)"/>
</svg>
