<svg xmlns="http://www.w3.org/2000/svg" width="160" height="48" viewBox="0 0 160 48" role="img" aria-label="Waveform 20 Awaken">
  <rect x="0" y="0" width="160" height="48" fill="#ffffff"/>
  <polyline points="8,12.392 10.028,13.274 12.056,14.662 14.085,16.215 16.113,17.446 18.141,18.615 20.169,20.163 22.197,20.622 24.225,19.89 26.254,19.728 28.282,18.994 30.31,18.383 32.338,17.596 34.366,17.545 36.394,18.479 38.423,18.986 40.451,19.62 42.479,20.632 44.507,21.788 46.535,22.272 48.563,22.187 50.592,22.157 52.62,21.958 54.648,21.195 56.676,20.768 58.704,20.334 60.732,19.527 62.761,20.747 64.789,21.019 66.817,21.91 68.845,21.752 70.873,22.742 72.901,23.509 74.93,23.206 76.958,22.801 78.986,22.325 81.014,22.135 83.042,21.987 85.07,21.892 87.099,21.942 89.127,21.696 91.155,22.727 93.183,22.76 95.211,23.04 97.239,23.208 99.268,24.007 101.296,23.953 103.324,23.77 105.352,22.988 107.38,22.713 109.408,22.793 111.437,22.616 113.465,22.693 115.493,22.863 117.521,22.707 119.549,23.197 121.577,23.812 123.606,24 125.634,23.809 127.662,24.154 129.69,23.912 131.718,23.94 133.746,23.383 135.775,23.514 137.803,23.308 139.831,23.568 141.859,23.508 143.887,23.104 145.915,23.58 147.944,24.009 149.972,24.113 152,24.165" fill="none" stroke="#111111" stroke-width="1.8" stroke-linecap="round" stroke-linejoin="round"/>
</svg>
