<svg xmlns="http://www.w3.org/2000/svg" width="160" height="48" viewBox="0 0 160 48" role="img" aria-label="Waveform 21 Energize">
  <rect x="0" y="0" width="160" height="48" fill="#ffffff"/>
  <polyline points="8,11.751 10.028,13.285 12.056,15.243 14.085,16.172 16.113,17.404 18.141,19.387 20.169,20.284 22.197,21.011 24.225,20.207 26.254,19.699 28.282,19.096 30.31,18.449 32.338,17.985 34.366,17.417 36.394,17.879 38.423,18.747 40.451,20.015 42.479,20.633 44.507,21.327 46.535,22.137 48.563,22.293 50.592,21.999 52.62,21.729 54.648,21.231 56.676,20.862 58.704,19.966 60.732,20.163 62.761,20.866 64.789,21.42 66.817,21.706 68.845,22.433 70.873,22.704 72.901,23.252 74.93,23.22 76.958,22.806 78.986,22.604 81.014,22.58 83.042,22.323 85.07,21.759 87.099,21.43 89.127,22.433 91.155,22.458 93.183,22.824 95.211,23.146 97.239,23.51 99.268,23.251 101.296,23.913 103.324,23.158 105.352,23.295 107.38,22.608 109.408,23.184 111.437,22.574 113.465,22.875 115.493,22.462 117.521,22.91 119.549,23.605 121.577,23.707 123.606,23.748 125.634,24 127.662,23.789 129.69,24.145 131.718,23.597 133.746,23.761 135.775,23.06 137.803,22.818 139.831,23.17 141.859,22.903 143.887,23.334 145.915,23.937 147.944,23.771 149.972,23.721 152,24.049" fill="none" stroke="#111111" stroke-width="1.8" stroke-linecap="round" stroke-linejoin="round"/>
</svg>
