<svg xmlns="http://www.w3.org/2000/svg" width="160" height="48" viewBox="0 0 160 48" role="img" aria-label="Waveform 22 BP Twang">
  <rect x="0" y="0" width="160" height="48" fill="#ffffff"/>
  <polyline points="8,14.235 10.028,14.037 12.056,14.049 14.085,14.331 16.113,14.523 18.141,13.928 20.169,14.291 22.197,14.699 24.225,14.169 26.254,14.291 28.282,13.958 30.31,14.202 32.338,14.576 34.366,14.166 36.394,16.431 38.423,17.8 40.451,19.535 42.479,21.31 44.507,22.249 46.535,24.567 48.563,24.97 50.592,24.519 52.62,24.554 54.648,24.505 56.676,24.461 58.704,25.022 60.732,25.077 62.761,24.755 64.789,24.91 66.817,24.955 68.845,24.591 70.873,24.817 72.901,24.701 74.93,25.674 76.958,27.482 78.986,28.288 81.014,30.026 83.042,31.677 85.07,32.811 87.099,33.813 89.127,33.736 91.155,33.442 93.183,33.882 95.211,33.915 97.239,33.278 99.268,33.772 101.296,33.742 103.324,33.961 105.352,33.947 107.38,33.807 109.408,33.307 111.437,33.698 113.465,32.907 115.493,31.692 117.521,30.371 119.549,28.866 121.577,27.726 123.606,26.154 125.634,24.709 127.662,24.758 129.69,24.424 131.718,25.016 133.746,24.685 135.775,24.52 137.803,25.143 139.831,23.846 141.859,22.744 143.887,21.189 145.915,18.899 147.944,17.884 149.972,15.925 152,14.145" fill="none" stroke="#111111" stroke-width="1.8" stroke-linecap="round" stroke-linejoin="round"/>
</svg>
