<svg xmlns="http://www.w3.org/2000/svg" width="160" height="48" viewBox="0 0 160 48" role="img" aria-label="Waveform 23 Complex Pulse">
  <rect x="0" y="0" width="160" height="48" fill="#ffffff"/>
  <polyline points="8,12.88 10.028,13.034 12.056,12.979 14.085,12.967 16.113,12.491 18.141,12.729 20.169,12.798 22.197,14.857 24.225,18.27 26.254,21.561 28.282,25.302 30.31,28.451 32.338,31.847 34.366,34.933 36.394,35.532 38.423,34.775 40.451,35.117 42.479,35.162 44.507,35.58 46.535,34.972 48.563,35.467 50.592,35.231 52.62,35.256 54.648,35.388 56.676,35.489 58.704,35.284 60.732,34.146 62.761,31.283 64.789,27.979 66.817,24.065 68.845,20.644 70.873,16.98 72.901,13.425 74.93,12.995 76.958,12.994 78.986,13.034 81.014,12.495 83.042,12.756 85.07,12.592 87.099,14.025 89.127,17.605 91.155,20.398 93.183,23.889 95.211,27.283 97.239,30.873 99.268,34.568 101.296,35.054 103.324,35.263 105.352,35.24 107.38,35.431 109.408,34.867 111.437,35.544 113.465,34.929 115.493,34.781 117.521,35.127 119.549,35.05 121.577,35.419 123.606,35.27 125.634,35.357 127.662,31.803 129.69,28.718 131.718,25.06 133.746,21.743 135.775,18.004 137.803,14.319 139.831,12.454 141.859,13.066 143.887,12.947 145.915,12.936 147.944,12.476 149.972,12.618 152,12.908" fill="none" stroke="#111111" stroke-width="1.8" stroke-linecap="round" stroke-linejoin="round"/>
</svg>
