<svg xmlns="http://www.w3.org/2000/svg" width="160" height="48" viewBox="0 0 160 48" role="img" aria-label="Waveform 24 Mellow Square 2">
  <rect x="0" y="0" width="160" height="48" fill="#ffffff"/>
  <polyline points="8,15.627 10.028,15.883 12.056,15.414 14.085,15.692 16.113,15.892 18.141,15.723 20.169,15.387 22.197,15.683 24.225,15.499 26.254,15.612 28.282,15.578 30.31,15.447 32.338,15.815 34.366,15.576 36.394,15.382 38.423,15.349 40.451,15.355 42.479,15.408 44.507,15.362 46.535,15.795 48.563,17.413 50.592,19.838 52.62,22.567 54.648,25.109 56.676,27.935 58.704,29.957 60.732,32.618 62.761,32.162 64.789,32.202 66.817,32.172 68.845,32.081 70.873,32.136 72.901,32.248 74.93,32.293 76.958,32.397 78.986,32.31 81.014,32.339 83.042,32.153 85.07,32.193 87.099,32.067 89.127,32.325 91.155,32.512 93.183,32.177 95.211,32.477 97.239,32.608 99.268,32.524 101.296,30.507 103.324,27.591 105.352,25.296 107.38,22.179 109.408,19.628 111.437,17.021 113.465,15.632 115.493,15.446 117.521,15.825 119.549,15.764 121.577,15.491 123.606,15.94 125.634,15.715 127.662,15.294 129.69,15.884 131.718,15.482 133.746,15.702 135.775,15.652 137.803,15.289 139.831,15.65 141.859,15.876 143.887,15.752 145.915,15.751 147.944,15.447 149.972,15.353 152,15.297" fill="none" stroke="#111111" stroke-width="1.8" stroke-linecap="round" stroke-linejoin="round"/>
</svg>
