<svg xmlns="http://www.w3.org/2000/svg" width="160" height="48" viewBox="0 0 160 48" role="img" aria-label="Waveform 25 Harmonic Square">
  <rect x="0" y="0" width="160" height="48" fill="#ffffff"/>
  <polyline points="8,12.308 10.028,13.104 12.056,12.664 14.085,12.48 16.113,13.197 18.141,13.346 20.169,13.226 22.197,13.385 24.225,12.868 26.254,13.032 28.282,12.581 30.31,12.213 32.338,12.298 34.366,13.119 36.394,12.532 38.423,13.07 40.451,13.551 42.479,12.65 44.507,12.196 46.535,12.35 48.563,14.766 50.592,18.045 52.62,21.631 54.648,25.455 56.676,29.175 58.704,31.645 60.732,34.605 62.761,34.591 64.789,35.14 66.817,35.911 68.845,34.988 70.873,35.498 72.901,34.698 74.93,34.859 76.958,35.242 78.986,34.68 81.014,34.951 83.042,35.131 85.07,35.893 87.099,35.351 89.127,34.716 91.155,35.824 93.183,35.701 95.211,34.533 97.239,35.892 99.268,35.07 101.296,32.241 103.324,28.384 105.352,26.007 107.38,22.55 109.408,18.447 111.437,15.482 113.465,12.293 115.493,12.082 117.521,13.51 119.549,13.024 121.577,12.704 123.606,12.354 125.634,12.116 127.662,12.789 129.69,12.913 131.718,12.554 133.746,13.102 135.775,12.915 137.803,12.619 139.831,12.973 141.859,12.777 143.887,13.179 145.915,13.04 147.944,12.854 149.972,12.281 152,12.799" fill="none" stroke="#111111" stroke-width="1.8" stroke-linecap="round" stroke-linejoin="round"/>
</svg>
