<svg xmlns="http://www.w3.org/2000/svg" width="160" height="48" viewBox="0 0 160 48" role="img" aria-label="Waveform 26 Thin Ramp">
  <defs>
    <filter id="glow">
      <feGaussianBlur stdDeviation="1.5" result="coloredBlur"/>
      <feMerge>
        <feMergeNode in="coloredBlur"/>
        <feMergeNode in="SourceGraphic"/>
      </feMerge>
    </filter>
  </defs>
  <rect x="0" y="0" width="160" height="48" fill="#1f2025"/>
  <polyline points="8,17.123 10.028,17.669 12.056,17.874 14.085,17.755 16.113,18.221 18.141,18.805 20.169,19.027 22.197,18.876 24.225,19.414 26.254,19.726 28.282,19.364 30.31,19.952 32.338,19.728 34.366,19.942 36.394,20.308 38.423,20.64 40.451,21.01 42.479,21.159 44.507,20.95 46.535,21.668 48.563,21.374 50.592,21.693 52.62,22.096 54.648,22.206 56.676,22.75 58.704,23.058 60.732,22.982 62.761,23.555 64.789,23.406 66.817,23.349 68.845,24.111 70.873,24.166 72.901,24.284 74.93,24.623 76.958,25.056 78.986,24.719 81.014,25.328 83.042,25.06 85.07,25.428 87.099,25.786 89.127,26.466 91.155,26.321 93.183,26.364 95.211,27.031 97.239,27.044 99.268,27.359 101.296,27.116 103.324,27.991 105.352,28.002 107.38,27.657 109.408,28.088 111.437,28.083 113.465,29.003 115.493,28.981 117.521,29.08 119.549,29.236 121.577,29.758 123.606,29.559 125.634,29.718 127.662,28.308 129.69,26.801 131.718,24.997 133.746,23.177 135.775,20.641 137.803,18.929 139.831,17.8 141.859,18.368 143.887,18.716 145.915,18.85 147.944,18.38 149.972,18.517 152,19.11" fill="none" stroke="#1fdcf5" stroke-width="1.8" stroke-linecap="round" stroke-linejoin="round" filter="url(#glow)"/>
</svg>
