<svg xmlns="http://www.w3.org/2000/svg" width="160" height="48" viewBox="0 0 160 48" role="img" aria-label="Waveform 27 Xylophone 3">
  <rect x="0" y="0" width="160" height="48" fill="#ffffff"/>
  <polyline points="8,11.968 10.028,13.106 12.056,14.556 14.085,16.155 16.113,17.678 18.141,19.134 20.169,20.452 22.197,20.96 24.225,20.371 26.254,19.641 28.282,19.074 30.31,18.503 32.338,17.667 34.366,17.005 36.394,18.467 38.423,19.288 40.451,19.574 42.479,20.559 44.507,21.603 46.535,22.533 48.563,22.266 50.592,21.8 52.62,21.819 54.648,21.324 56.676,20.353 58.704,20.543 60.732,20.044 62.761,20.197 64.789,21.212 66.817,21.857 68.845,21.924 70.873,22.619 72.901,23.591 74.93,22.976 76.958,23.16 78.986,22.785 81.014,22.778 83.042,21.682 85.07,21.785 87.099,21.801 89.127,22.13 91.155,22.53 93.183,22.765 95.211,22.698 97.239,23.661 99.268,23.426 101.296,23.365 103.324,23.036 105.352,23.199 107.38,22.689 109.408,22.87 111.437,22.89 113.465,22.534 115.493,23.229 117.521,22.792 119.549,23.192 121.577,23.707 123.606,23.425 125.634,24.072 127.662,24.181 129.69,23.647 131.718,23.267 133.746,23.456 135.775,23.003 137.803,22.912 139.831,23.043 141.859,23.341 143.887,23.681 145.915,23.182 147.944,24.041 149.972,23.955 152,23.615" fill="none" stroke="#111111" stroke-width="1.8" stroke-linecap="round" stroke-linejoin="round"/>
</svg>
