<svg xmlns="http://www.w3.org/2000/svg" width="160" height="48" viewBox="0 0 160 48" role="img" aria-label="Waveform 28 Thin Square">
  <defs>
    <filter id="glow">
      <feGaussianBlur stdDeviation="1.5" result="coloredBlur"/>
      <feMerge>
        <feMergeNode in="coloredBlur"/>
        <feMergeNode in="SourceGraphic"/>
      </feMerge>
    </filter>
  </defs>
  <rect x="0" y="0" width="160" height="48" fill="#1f2025"/>
  <polyline points="8,18.028 10.028,17.693 12.056,18.085 14.085,17.572 16.113,17.477 18.141,17.815 20.169,17.438 22.197,17.511 24.225,17.588 26.254,18.24 28.282,17.958 30.31,17.606 32.338,17.507 34.366,17.764 36.394,17.79 38.423,18.046 40.451,17.819 42.479,18.244 44.507,17.677 46.535,18.177 48.563,19.398 50.592,20.663 52.62,23.122 54.648,24.516 56.676,26.626 58.704,28.684 60.732,30.522 62.761,29.947 64.789,30.196 66.817,30.095 68.845,30.3 70.873,30.553 72.901,30.445 74.93,29.827 76.958,30.041 78.986,30.092 81.014,30.12 83.042,29.803 85.07,30.025 87.099,29.845 89.127,30.299 91.155,30.228 93.183,30.396 95.211,30.194 97.239,30.332 99.268,30.155 101.296,28.938 103.324,26.436 105.352,25.089 107.38,22.95 109.408,21.005 111.437,19.063 113.465,17.445 115.493,17.537 117.521,18.254 119.549,17.876 121.577,17.874 123.606,17.689 125.634,17.784 127.662,18.149 129.69,17.609 131.718,17.912 133.746,18.197 135.775,17.851 137.803,17.732 139.831,18.165 141.859,18.12 143.887,18.148 145.915,18.028 147.944,18.191 149.972,17.526 152,17.767" fill="none" stroke="#1fdcf5" stroke-width="1.8" stroke-linecap="round" stroke-linejoin="round" filter="url(#glow)"/>
</svg>
