<svg xmlns="http://www.w3.org/2000/svg" width="160" height="48" viewBox="0 0 160 48" role="img" aria-label="Waveform 29 Harmonic Ramp">
  <defs>
    <filter id="glow">
      <feGaussianBlur stdDeviation="1.5" result="coloredBlur"/>
      <feMerge>
        <feMergeNode in="coloredBlur"/>
        <feMergeNode in="SourceGraphic"/>
      </feMerge>
    </filter>
  </defs>
  <rect x="0" y="0" width="160" height="48" fill="#1f2025"/>
  <polyline points="8,11.793 10.028,12.428 12.056,12.462 14.085,12.855 16.113,13.025 18.141,14.511 20.169,13.763 22.197,15.106 24.225,14.788 26.254,15.521 28.282,15.897 30.31,16.585 32.338,17.384 34.366,17.232 36.394,18.134 38.423,18.484 40.451,17.826 42.479,19.083 44.507,19.507 46.535,19.41 48.563,19.624 50.592,20 52.62,20.656 54.648,20.954 56.676,22.165 58.704,22.597 60.732,22.333 62.761,22.061 64.789,22.932 66.817,23.336 68.845,23.221 70.873,23.907 72.901,25.269 74.93,25.478 76.958,25.856 78.986,26.451 81.014,25.95 83.042,26.443 85.07,26.482 87.099,28.082 89.127,27.585 91.155,28.912 93.183,29.095 95.211,28.506 97.239,28.891 99.268,29.457 101.296,29.936 103.324,30.792 105.352,31.159 107.38,30.795 109.408,31.208 111.437,32.202 113.465,32.931 115.493,33.078 117.521,33.829 119.549,33.421 121.577,33.509 123.606,35.002 125.634,34.125 127.662,32.553 129.69,28.337 131.718,24.663 133.746,21.867 135.775,18.958 137.803,14.818 139.831,13.628 141.859,13.388 143.887,13.725 145.915,14.957 147.944,14.946 149.972,15.436 152,14.704" fill="none" stroke="#1fdcf5" stroke-width="1.8" stroke-linecap="round" stroke-linejoin="round" filter="url(#glow)"/>
</svg>
