<svg xmlns="http://www.w3.org/2000/svg" width="160" height="48" viewBox="0 0 160 48" role="img" aria-label="Waveform 30 Rouse">
  <rect x="0" y="0" width="160" height="48" fill="#ffffff"/>
  <polyline points="8,12.431 10.028,13.183 12.056,14.826 14.085,16.416 16.113,17.921 18.141,18.846 20.169,20.42 22.197,20.798 24.225,20.361 26.254,19.619 28.282,19.243 30.31,18.438 32.338,17.626 34.366,17.38 36.394,18.343 38.423,18.689 40.451,20.258 42.479,21.138 44.507,21.988 46.535,22.128 48.563,22.407 50.592,21.996 52.62,21.31 54.648,21.522 56.676,20.267 58.704,20.501 60.732,19.56 62.761,20.385 64.789,20.947 66.817,21.444 68.845,22.498 70.873,23.079 72.901,23.102 74.93,23.067 76.958,23.184 78.986,22.881 81.014,22.319 83.042,22.003 85.07,22.069 87.099,21.67 89.127,21.665 91.155,22.492 93.183,22.945 95.211,22.627 97.239,23.488 99.268,23.67 101.296,23.628 103.324,23.132 105.352,23.369 107.38,23.109 109.408,22.42 111.437,22.499 113.465,22.897 115.493,22.763 117.521,22.739 119.549,23.324 121.577,23.903 123.606,23.682 125.634,24.271 127.662,23.762 129.69,23.942 131.718,23.621 133.746,23.512 135.775,23.439 137.803,23.421 139.831,23.139 141.859,23.08 143.887,23.776 145.915,23.713 147.944,24.064 149.972,23.708 152,24.197" fill="none" stroke="#111111" stroke-width="1.8" stroke-linecap="round" stroke-linejoin="round"/>
</svg>
