<svg xmlns="http://www.w3.org/2000/svg" width="160" height="48" viewBox="0 0 160 48" role="img" aria-label="Waveform 31 Waken">
  <rect x="0" y="0" width="160" height="48" fill="#ffffff"/>
  <polyline points="8,11.704 10.028,13.091 12.056,14.831 14.085,16.457 16.113,17.794 18.141,18.66 20.169,20.616 22.197,20.483 24.225,19.751 26.254,19.462 28.282,18.902 30.31,18.403 32.338,17.902 34.366,17.357 36.394,18.284 38.423,18.888 40.451,19.619 42.479,20.698 44.507,21.837 46.535,22.359 48.563,22.729 50.592,22.102 52.62,21.991 54.648,20.783 56.676,20.676 58.704,20.424 60.732,19.961 62.761,20.121 64.789,21.424 66.817,21.946 68.845,21.769 70.873,22.915 72.901,22.899 74.93,22.875 76.958,22.894 78.986,22.513 81.014,22.275 83.042,22.075 85.07,22.006 87.099,21.668 89.127,21.912 91.155,22.759 93.183,22.794 95.211,23.01 97.239,23.412 99.268,23.815 101.296,23.14 103.324,23.673 105.352,22.918 107.38,22.86 109.408,22.649 111.437,22.815 113.465,22.376 115.493,22.566 117.521,22.688 119.549,23.437 121.577,23.169 123.606,23.836 125.634,23.758 127.662,23.84 129.69,24.094 131.718,23.966 133.746,23.772 135.775,23.29 137.803,23.296 139.831,22.826 141.859,22.985 143.887,23.539 145.915,23.931 147.944,24.013 149.972,24.247 152,23.99" fill="none" stroke="#111111" stroke-width="1.8" stroke-linecap="round" stroke-linejoin="round"/>
</svg>
