<svg xmlns="http://www.w3.org/2000/svg" width="160" height="48" viewBox="0 0 160 48" role="img" aria-label="Waveform 32 Sine">
  <rect x="0" y="0" width="160" height="48" fill="#ffffff"/>
  <polyline points="8,24.22 10.028,24.159 12.056,23.594 14.085,22.984 16.113,22.429 18.141,21.879 20.169,21.545 22.197,21.355 24.225,20.282 26.254,19.452 28.282,18.79 30.31,18.732 32.338,17.662 34.366,17.204 36.394,16.637 38.423,15.644 40.451,15.672 42.479,15.145 44.507,14.335 46.535,13.673 48.563,13.41 50.592,12.323 52.62,12.139 54.648,12.108 56.676,11.6 58.704,10.624 60.732,10.595 62.761,11.279 64.789,11.148 66.817,11.525 68.845,12.323 70.873,12.71 72.901,13.074 74.93,14.288 76.958,14.587 78.986,15.259 81.014,16.497 83.042,17.303 85.07,18.14 87.099,18.771 89.127,19.659 91.155,20.789 93.183,21.71 95.211,21.896 97.239,23.161 99.268,23.471 101.296,24.814 103.324,25.315 105.352,25.7 107.38,26.756 109.408,27.186 111.437,28.608 113.465,28.712 115.493,29.622 117.521,30.363 119.549,31.413 121.577,31.557 123.606,32.592 125.634,33.023 127.662,34.105 129.69,33.921 131.718,35.126 133.746,35.532 135.775,35.772 137.803,36.314 139.831,36.451 141.859,35.714 143.887,34.911 145.915,34.631 147.944,34.396 149.972,33.214 152,32.716" fill="none" stroke="#111111" stroke-width="1.8" stroke-linecap="round" stroke-linejoin="round"/>
</svg>
