<svg xmlns="http://www.w3.org/2000/svg" width="160" height="48" viewBox="0 0 160 48" role="img" aria-label="Waveform 33 Sawtooth">
  <defs>
    <filter id="glow">
      <feGaussianBlur stdDeviation="1.5" result="coloredBlur"/>
      <feMerge>
        <feMergeNode in="coloredBlur"/>
        <feMergeNode in="SourceGraphic"/>
      </feMerge>
    </filter>
  </defs>
  <rect x="0" y="0" width="160" height="48" fill="#1f2025"/>
  <polyline points="8,36.029 10.028,35.101 12.056,35.021 14.085,34.579 16.113,34.47 18.141,33.814 20.169,33.689 22.197,33.327 24.225,32.547 26.254,32.102 28.282,31.857 30.31,31.489 32.338,31.096 34.366,30.179 36.394,30.508 38.423,29.951 40.451,29.588 42.479,28.537 44.507,28.848 46.535,28.402 48.563,27.764 50.592,26.789 52.62,26.511 54.648,26.464 56.676,25.58 58.704,25.474 60.732,25.352 62.761,24.733 64.789,24.495 66.817,24.171 68.845,23.766 70.873,23.013 72.901,23.001 74.93,22.487 76.958,21.669 78.986,21.353 81.014,20.701 83.042,20.734 85.07,20.204 87.099,20.001 89.127,19.237 91.155,18.951 93.183,18.448 95.211,18.021 97.239,17.389 99.268,16.859 101.296,16.894 103.324,16.178 105.352,15.952 107.38,15.561 109.408,14.799 111.437,14.56 113.465,14.371 115.493,13.494 117.521,13.306 119.549,12.756 121.577,12.405 123.606,12.079 125.634,11.539 127.662,14.699 129.69,18.81 131.718,22.309 133.746,26.332 135.775,29.97 137.803,32.814 139.831,35.304 141.859,35.027 143.887,34.63 145.915,33.601 147.944,33.896 149.972,33.681 152,32.607" fill="none" stroke="#1fdcf5" stroke-width="1.8" stroke-linecap="round" stroke-linejoin="round" filter="url(#glow)"/>
</svg>
