<svg xmlns="http://www.w3.org/2000/svg" width="160" height="48" viewBox="0 0 160 48" role="img" aria-label="Waveform 34 Square">
  <rect x="0" y="0" width="160" height="48" fill="#ffffff"/>
  <polyline points="8,12.413 10.028,12.432 12.056,12.568 14.085,12.879 16.113,13.128 18.141,12.551 20.169,13.088 22.197,13.226 24.225,12.704 26.254,12.734 28.282,13.075 30.31,12.646 32.338,12.59 34.366,12.644 36.394,13.055 38.423,12.807 40.451,13.207 42.479,12.54 44.507,13.067 46.535,12.619 48.563,15.345 50.592,18.796 52.62,22.117 54.648,25.019 56.676,29.184 58.704,32.365 60.732,35.275 62.761,35.276 64.789,34.819 66.817,34.9 68.845,35.176 70.873,35.568 72.901,34.9 74.93,35.251 76.958,34.861 78.986,34.991 81.014,34.991 83.042,35.528 85.07,35.021 87.099,34.822 89.127,35.573 91.155,35.166 93.183,34.984 95.211,34.918 97.239,35.32 99.268,34.913 101.296,32.343 103.324,28.896 105.352,25.456 107.38,22.037 109.408,18.277 111.437,15.048 113.465,12.553 115.493,12.697 117.521,13.034 119.549,12.792 121.577,13.23 123.606,13.134 125.634,13.016 127.662,12.981 129.69,12.409 131.718,12.843 133.746,13.109 135.775,12.762 137.803,12.802 139.831,13.19 141.859,13.233 143.887,12.641 145.915,12.47 147.944,12.68 149.972,12.966 152,12.993" fill="none" stroke="#111111" stroke-width="1.8" stroke-linecap="round" stroke-linejoin="round"/>
</svg>
