<svg xmlns="http://www.w3.org/2000/svg" width="160" height="48" viewBox="0 0 160 48" role="img" aria-label="Waveform 35 Dome 1">
  <defs>
    <filter id="glow">
      <feGaussianBlur stdDeviation="1.5" result="coloredBlur"/>
      <feMerge>
        <feMergeNode in="coloredBlur"/>
        <feMergeNode in="SourceGraphic"/>
      </feMerge>
    </filter>
  </defs>
  <rect x="0" y="0" width="160" height="48" fill="#1f2025"/>
  <polyline points="8,26.287 10.028,25.899 12.056,25.642 14.085,25.125 16.113,23.99 18.141,23.522 20.169,23.171 22.197,22.864 24.225,22.116 26.254,22.206 28.282,21.2 30.31,20.916 32.338,20.094 34.366,19.914 36.394,18.944 38.423,18.904 40.451,18.459 42.479,18.262 44.507,17.62 46.535,16.982 48.563,16.736 50.592,15.983 52.62,16.108 54.648,15.808 56.676,14.978 58.704,15.134 60.732,14.908 62.761,14.501 64.789,14.314 66.817,14.254 68.845,14.485 70.873,14.175 72.901,13.772 74.93,14.076 76.958,14.32 78.986,14.516 81.014,14.663 83.042,14.395 85.07,14.755 87.099,14.452 89.127,14.953 91.155,15.304 93.183,15.325 95.211,16.356 97.239,16.109 99.268,16.73 101.296,17.181 103.324,17.433 105.352,17.228 107.38,17.675 109.408,18.052 111.437,18.462 113.465,18.985 115.493,19.372 117.521,20.184 119.549,20.049 121.577,20.467 123.606,20.838 125.634,21.519 127.662,22.059 129.69,22.269 131.718,22.005 133.746,22.424 135.775,22.821 137.803,23.128 139.831,23.517 141.859,24.13 143.887,24.594 145.915,24.424 147.944,25.028 149.972,25.602 152,25.459" fill="none" stroke="#1fdcf5" stroke-width="1.8" stroke-linecap="round" stroke-linejoin="round" filter="url(#glow)"/>
</svg>
