<svg xmlns="http://www.w3.org/2000/svg" width="160" height="48" viewBox="0 0 160 48" role="img" aria-label="Waveform 36 Dome 2">
  <rect x="0" y="0" width="160" height="48" fill="#ffffff"/>
  <polyline points="8,26.075 10.028,25.605 12.056,25.348 14.085,24.69 16.113,24.531 18.141,24.008 20.169,23.056 22.197,22.861 24.225,21.935 26.254,21.437 28.282,21.11 30.31,21.117 32.338,20.445 34.366,19.513 36.394,19.028 38.423,19.036 40.451,18.297 42.479,17.761 44.507,17.855 46.535,17.426 48.563,16.338 50.592,16.54 52.62,16.102 54.648,15.8 56.676,15.388 58.704,14.722 60.732,14.835 62.761,14.777 64.789,14.633 66.817,14.156 68.845,14.19 70.873,13.978 72.901,14.235 74.93,13.66 76.958,13.988 78.986,14.21 81.014,13.969 83.042,14.613 85.07,14.532 87.099,15.089 89.127,15.366 91.155,15.392 93.183,15.997 95.211,16.015 97.239,15.991 99.268,16.472 101.296,17.184 103.324,16.977 105.352,17.632 107.38,17.568 109.408,17.999 111.437,18.525 113.465,18.948 115.493,19.303 117.521,20.035 119.549,20.429 121.577,20.805 123.606,21.044 125.634,21.141 127.662,21.519 129.69,22.225 131.718,22.153 133.746,22.545 135.775,23.195 137.803,23.54 139.831,23.492 141.859,23.723 143.887,24.741 145.915,24.955 147.944,25.092 149.972,25.369 152,25.371" fill="none" stroke="#111111" stroke-width="1.8" stroke-linecap="round" stroke-linejoin="round"/>
</svg>
