<svg xmlns="http://www.w3.org/2000/svg" width="160" height="48" viewBox="0 0 160 48" role="img" aria-label="Waveform 37 Mellow Dome">
  <rect x="0" y="0" width="160" height="48" fill="#ffffff"/>
  <polyline points="8,25.474 10.028,25.358 12.056,24.91 14.085,24.335 16.113,24.215 18.141,23.965 20.169,23.662 22.197,23.165 24.225,22.696 26.254,22.247 28.282,21.966 30.31,21.913 32.338,21.282 34.366,20.555 36.394,20.609 38.423,19.947 40.451,19.864 42.479,19.64 44.507,19.089 46.535,19.065 48.563,18.631 50.592,18.481 52.62,18.262 54.648,17.852 56.676,17.669 58.704,16.937 60.732,17.195 62.761,17.276 64.789,16.884 66.817,16.51 68.845,16.638 70.873,16.407 72.901,16.345 74.93,16.422 76.958,16.833 78.986,17.006 81.014,16.635 83.042,17.118 85.07,17.136 87.099,16.855 89.127,17.427 91.155,17.638 93.183,17.621 95.211,17.856 97.239,18.064 99.268,18.479 101.296,18.552 103.324,19.16 105.352,18.988 107.38,19.292 109.408,19.571 111.437,19.999 113.465,20.283 115.493,20.616 117.521,20.867 119.549,21.269 121.577,21.131 123.606,21.607 125.634,21.922 127.662,22.517 129.69,22.832 131.718,22.692 133.746,23.002 135.775,23.148 137.803,23.575 139.831,24.075 141.859,23.894 143.887,24.365 145.915,24.463 147.944,24.988 149.972,24.6 152,25.209" fill="none" stroke="#111111" stroke-width="1.8" stroke-linecap="round" stroke-linejoin="round"/>
</svg>
