<svg xmlns="http://www.w3.org/2000/svg" width="160" height="48" viewBox="0 0 160 48" role="img" aria-label="Waveform 38 Dome 3">
  <defs>
    <filter id="glow">
      <feGaussianBlur stdDeviation="1.5" result="coloredBlur"/>
      <feMerge>
        <feMergeNode in="coloredBlur"/>
        <feMergeNode in="SourceGraphic"/>
      </feMerge>
    </filter>
  </defs>
  <rect x="0" y="0" width="160" height="48" fill="#1f2025"/>
  <polyline points="8,26.381 10.028,25.757 12.056,25.137 14.085,24.796 16.113,23.97 18.141,24.076 20.169,23.601 22.197,23.01 24.225,22.102 26.254,22.169 28.282,21.19 30.31,20.54 32.338,20.194 34.366,19.598 36.394,18.962 38.423,18.885 40.451,18.719 42.479,18.173 44.507,17.3 46.535,16.691 48.563,16.747 50.592,16.519 52.62,16.366 54.648,15.521 56.676,15.274 58.704,15.28 60.732,14.859 62.761,14.972 64.789,14.621 66.817,14.367 68.845,14.463 70.873,14.259 72.901,13.51 74.93,13.569 76.958,14.449 78.986,14.239 81.014,14.087 83.042,14.158 85.07,14.974 87.099,15.185 89.127,14.992 91.155,15.487 93.183,15.995 95.211,16.054 97.239,16.611 99.268,16.15 101.296,16.545 103.324,17.231 105.352,17.359 107.38,17.852 109.408,18.354 111.437,18.763 113.465,18.98 115.493,19.624 117.521,20.217 119.549,20.44 121.577,20.446 123.606,21.297 125.634,21.253 127.662,21.401 129.69,22.111 131.718,22.506 133.746,22.678 135.775,22.827 137.803,23.115 139.831,23.758 141.859,23.99 143.887,24.208 145.915,24.274 147.944,24.953 149.972,25.462 152,25.592" fill="none" stroke="#1fdcf5" stroke-width="1.8" stroke-linecap="round" stroke-linejoin="round" filter="url(#glow)"/>
</svg>
