<svg xmlns="http://www.w3.org/2000/svg" width="160" height="48" viewBox="0 0 160 48" role="img" aria-label="Waveform 39 Dome 4">
  <rect x="0" y="0" width="160" height="48" fill="#ffffff"/>
  <polyline points="8,26.132 10.028,25.51 12.056,25.472 14.085,24.472 16.113,24.028 18.141,23.548 20.169,23.636 22.197,23.127 24.225,21.999 26.254,21.702 28.282,20.98 30.31,20.473 32.338,20.066 34.366,19.76 36.394,19.035 38.423,18.945 40.451,18.14 42.479,17.748 44.507,17.24 46.535,17.393 48.563,16.711 50.592,16.002 52.62,15.903 54.648,15.504 56.676,15.652 58.704,15.188 60.732,14.653 62.761,14.58 64.789,14.225 66.817,14.525 68.845,13.875 70.873,14.225 72.901,14.061 74.93,14.188 76.958,13.818 78.986,14.542 81.014,14.571 83.042,14.398 85.07,14.387 87.099,14.934 89.127,14.895 91.155,15.309 93.183,15.568 95.211,15.799 97.239,15.808 99.268,16.519 101.296,17.115 103.324,17.153 105.352,17.951 107.38,18.125 109.408,18.347 111.437,18.931 113.465,19.471 115.493,19.163 117.521,19.76 119.549,19.826 121.577,20.175 123.606,20.869 125.634,21.59 127.662,21.361 129.69,21.634 131.718,22.748 133.746,22.932 135.775,22.767 137.803,23.575 139.831,23.941 141.859,24.117 143.887,24.376 145.915,24.561 147.944,24.672 149.972,25.582 152,25.856" fill="none" stroke="#111111" stroke-width="1.8" stroke-linecap="round" stroke-linejoin="round"/>
</svg>
