<svg xmlns="http://www.w3.org/2000/svg" width="160" height="48" viewBox="0 0 160 48" role="img" aria-label="Waveform 40 Rasp 1">
  <defs>
    <filter id="glow">
      <feGaussianBlur stdDeviation="1.5" result="coloredBlur"/>
      <feMerge>
        <feMergeNode in="coloredBlur"/>
        <feMergeNode in="SourceGraphic"/>
      </feMerge>
    </filter>
  </defs>
  <rect x="0" y="0" width="160" height="48" fill="#1f2025"/>
  <polyline points="8,25.13 10.028,24.329 12.056,24.005 14.085,22.878 16.113,22.796 18.141,21.106 20.169,19.847 22.197,19.821 24.225,21.009 26.254,22.898 28.282,23.667 30.31,25.161 32.338,25.938 34.366,27.862 36.394,26.42 38.423,24.418 40.451,23.309 42.479,22.554 44.507,21.338 46.535,20.629 48.563,20.065 50.592,20.873 52.62,22.871 54.648,23.831 56.676,25.732 58.704,25.971 60.732,27.301 62.761,25.533 64.789,24.969 66.817,23.308 68.845,22.71 70.873,21.437 72.901,19.865 74.93,20.409 76.958,22.623 78.986,23.354 81.014,24.639 83.042,25.52 85.07,26.519 87.099,26.122 89.127,24.685 91.155,24.844 93.183,22.811 95.211,22.564 97.239,22.431 99.268,21.433 101.296,20.365 103.324,22.469 105.352,23.66 107.38,24.134 109.408,23.973 111.437,26.074 113.465,26.615 115.493,25.219 117.521,24.366 119.549,23.769 121.577,22.702 123.606,22.826 125.634,21.364 127.662,20.939 129.69,22.198 131.718,22.921 133.746,24.155 135.775,24.23 137.803,24.464 139.831,24.66 141.859,24.098 143.887,23.929 145.915,23.045 147.944,23.354 149.972,23.209 152,22.162" fill="none" stroke="#1fdcf5" stroke-width="1.8" stroke-linecap="round" stroke-linejoin="round" filter="url(#glow)"/>
</svg>
