<svg xmlns="http://www.w3.org/2000/svg" width="160" height="48" viewBox="0 0 160 48" role="img" aria-label="Waveform 41 Rasp 2">
  <rect x="0" y="0" width="160" height="48" fill="#ffffff"/>
  <polyline points="8,25.008 10.028,24.506 12.056,23.84 14.085,22.258 16.113,21.305 18.141,21.707 20.169,19.913 22.197,20.234 24.225,21.798 26.254,23.041 28.282,23.963 30.31,25.942 32.338,25.445 34.366,27.463 36.394,25.646 38.423,25.479 40.451,23.301 42.479,22.508 44.507,21.518 46.535,19.054 48.563,20.693 50.592,21.21 52.62,22.721 54.648,24.132 56.676,24.54 58.704,25.09 60.732,26.547 62.761,26.577 64.789,24.815 66.817,22.914 68.845,22.843 70.873,21.979 72.901,20.783 74.93,20.356 76.958,21.806 78.986,22.697 81.014,24.471 83.042,25.393 85.07,26.481 87.099,27.222 89.127,25.69 91.155,24.983 93.183,24.009 95.211,22.151 97.239,21.357 99.268,21.058 101.296,20.124 103.324,22.468 105.352,23.115 107.38,24.726 109.408,24.947 111.437,25.361 113.465,26.349 115.493,25.857 117.521,23.912 119.549,24.501 121.577,22.739 123.606,22.157 125.634,22.036 127.662,21.395 129.69,23.09 131.718,23.932 133.746,23.325 135.775,24.953 137.803,24.481 139.831,25.085 141.859,24.954 143.887,24.582 145.915,22.614 147.944,22.146 149.972,22.05 152,21.299" fill="none" stroke="#111111" stroke-width="1.8" stroke-linecap="round" stroke-linejoin="round"/>
</svg>
