<svg xmlns="http://www.w3.org/2000/svg" width="160" height="48" viewBox="0 0 160 48" role="img" aria-label="Waveform 42 Rasp 3">
  <defs>
    <filter id="glow">
      <feGaussianBlur stdDeviation="1.5" result="coloredBlur"/>
      <feMerge>
        <feMergeNode in="coloredBlur"/>
        <feMergeNode in="SourceGraphic"/>
      </feMerge>
    </filter>
  </defs>
  <rect x="0" y="0" width="160" height="48" fill="#1f2025"/>
  <polyline points="8,25.826 10.028,25.396 12.056,24.969 14.085,23.777 16.113,21.694 18.141,20.597 20.169,19.7 22.197,20.888 24.225,22.825 26.254,23.176 28.282,24.123 30.31,25.787 32.338,27.003 34.366,26.335 36.394,25.679 38.423,24.386 40.451,24.183 42.479,21.952 44.507,20.183 46.535,20.14 48.563,19.289 50.592,21.085 52.62,22.902 54.648,24.218 56.676,25.348 58.704,25.178 60.732,26.157 62.761,25.899 64.789,23.825 66.817,22.878 68.845,22.613 70.873,21.244 72.901,20.545 74.93,19.615 76.958,21.855 78.986,22.9 81.014,23.549 83.042,24.592 85.07,25.067 87.099,25.815 89.127,24.688 91.155,24.788 93.183,23.932 95.211,22.736 97.239,21.231 99.268,19.958 101.296,21.069 103.324,21.503 105.352,22.776 107.38,22.993 109.408,23.944 111.437,25.846 113.465,25.907 115.493,25.091 117.521,23.69 119.549,24.057 121.577,22.663 123.606,22.497 125.634,21.944 127.662,21.511 129.69,21.69 131.718,22.768 133.746,24.177 135.775,23.7 137.803,24.743 139.831,24.955 141.859,24.946 143.887,23.38 145.915,22.621 147.944,21.986 149.972,22.367 152,20.623" fill="none" stroke="#1fdcf5" stroke-width="1.8" stroke-linecap="round" stroke-linejoin="round" filter="url(#glow)"/>
</svg>
