<svg xmlns="http://www.w3.org/2000/svg" width="160" height="48" viewBox="0 0 160 48" role="img" aria-label="Waveform 43 Rasp 4">
  <rect x="0" y="0" width="160" height="48" fill="#ffffff"/>
  <polyline points="8,24.831 10.028,25.324 12.056,23.85 14.085,23.122 16.113,21.9 18.141,21.237 20.169,20.014 22.197,19.777 24.225,21.22 26.254,23.687 28.282,23.997 30.31,25.391 32.338,27.215 34.366,26.515 36.394,26.603 38.423,24.225 40.451,23.053 42.479,22.924 44.507,21.092 46.535,19.246 48.563,20.704 50.592,22.199 52.62,23.233 54.648,24.062 56.676,24.499 58.704,26.027 60.732,26.299 62.761,25.374 64.789,23.711 66.817,23.419 68.845,22.02 70.873,20.947 72.901,20.634 74.93,21.244 76.958,21.381 78.986,21.896 81.014,22.981 83.042,25.128 85.07,26.196 87.099,26.238 89.127,25.988 91.155,25.166 93.183,22.655 95.211,22.266 97.239,21.873 99.268,19.964 101.296,20.477 103.324,22.835 105.352,22.36 107.38,23.143 109.408,25.381 111.437,25.614 113.465,25.424 115.493,25.351 117.521,24.085 119.549,22.91 121.577,21.935 123.606,22.788 125.634,21.158 127.662,21.537 129.69,21.875 131.718,22.892 133.746,23.182 135.775,23.472 137.803,25.998 139.831,25.947 141.859,24.954 143.887,24.806 145.915,23.49 147.944,23.342 149.972,22.361 152,20.66" fill="none" stroke="#111111" stroke-width="1.8" stroke-linecap="round" stroke-linejoin="round"/>
</svg>
