<svg xmlns="http://www.w3.org/2000/svg" width="160" height="48" viewBox="0 0 160 48" role="img" aria-label="Waveform 44 Dome 5">
  <rect x="0" y="0" width="160" height="48" fill="#ffffff"/>
  <polyline points="8,26.065 10.028,25.71 12.056,25.493 14.085,24.783 16.113,24.122 18.141,24.174 20.169,23.191 22.197,22.932 24.225,22.542 26.254,21.776 28.282,21.105 30.31,21.134 32.338,20.449 34.366,19.998 36.394,19.028 38.423,19.182 40.451,18.717 42.479,18.21 44.507,17.257 46.535,17.317 48.563,16.339 50.592,16.613 52.62,15.628 54.648,16.062 56.676,15.645 58.704,15.095 60.732,14.333 62.761,14.879 64.789,14.818 66.817,14.635 68.845,14.211 70.873,14.155 72.901,13.534 74.93,13.973 76.958,14.205 78.986,14.059 81.014,14.36 83.042,14.223 85.07,14.711 87.099,14.647 89.127,15.473 91.155,14.983 93.183,15.336 95.211,16.247 97.239,16.286 99.268,16.35 101.296,16.569 103.324,17.299 105.352,17.677 107.38,17.878 109.408,18.293 111.437,19.035 113.465,18.813 115.493,19.761 117.521,19.863 119.549,20.322 121.577,20.453 123.606,20.567 125.634,21.271 127.662,21.246 129.69,21.784 131.718,22.359 133.746,22.514 135.775,23.037 137.803,23.405 139.831,23.702 141.859,23.891 143.887,24.495 145.915,24.469 147.944,24.771 149.972,25.227 152,25.489" fill="none" stroke="#111111" stroke-width="1.8" stroke-linecap="round" stroke-linejoin="round"/>
</svg>
