<svg xmlns="http://www.w3.org/2000/svg" width="160" height="48" viewBox="0 0 160 48" role="img" aria-label="Waveform 45 HP Saw">
  <rect x="0" y="0" width="160" height="48" fill="#ffffff"/>
  <polyline points="8,35.902 10.028,35.365 12.056,35.433 14.085,34.414 16.113,34.327 18.141,33.881 20.169,33.188 22.197,33.367 24.225,32.667 26.254,32.123 28.282,31.434 30.31,31.339 32.338,30.855 34.366,30.232 36.394,29.922 38.423,29.656 40.451,28.992 42.479,28.486 44.507,28.749 46.535,27.918 48.563,27.733 50.592,27.206 52.62,27.059 54.648,26.489 56.676,25.59 58.704,25.134 60.732,24.794 62.761,24.431 64.789,24.605 66.817,23.881 68.845,23.504 70.873,22.987 72.901,23.025 74.93,22.301 76.958,22.171 78.986,21.222 81.014,21.14 83.042,20.443 85.07,19.886 87.099,19.777 89.127,19.518 91.155,18.968 93.183,18.619 95.211,17.999 97.239,17.399 99.268,17.538 101.296,16.862 103.324,16.686 105.352,16.045 107.38,15.676 109.408,15.403 111.437,15.034 113.465,14.652 115.493,13.781 117.521,13.12 119.549,12.799 121.577,12.744 123.606,12.32 125.634,12.147 127.662,15.428 129.69,18.926 131.718,22.606 133.746,25.791 135.775,29.705 137.803,33.545 139.831,35.129 141.859,34.787 143.887,34.224 145.915,33.763 147.944,34.039 149.972,33.43 152,33.02" fill="none" stroke="#111111" stroke-width="1.8" stroke-linecap="round" stroke-linejoin="round"/>
</svg>
