<svg xmlns="http://www.w3.org/2000/svg" width="160" height="48" viewBox="0 0 160 48" role="img" aria-label="Waveform 46 High BP Saw">
  <defs>
    <filter id="glow">
      <feGaussianBlur stdDeviation="1.5" result="coloredBlur"/>
      <feMerge>
        <feMergeNode in="coloredBlur"/>
        <feMergeNode in="SourceGraphic"/>
      </feMerge>
    </filter>
  </defs>
  <rect x="0" y="0" width="160" height="48" fill="#1f2025"/>
  <polyline points="8,35.709 10.028,35.388 12.056,34.866 14.085,34.721 16.113,33.714 18.141,33.592 20.169,34.171 22.197,32.97 24.225,32.11 26.254,31.807 28.282,32.106 30.31,31.61 32.338,30.684 34.366,30.351 36.394,30.607 38.423,30.374 40.451,28.616 42.479,28.432 44.507,28.299 46.535,28.482 48.563,27.219 50.592,27.458 52.62,27.025 54.648,25.888 56.676,25.475 58.704,25.831 60.732,24.965 62.761,24.702 64.789,23.644 66.817,23.99 68.845,22.725 70.873,23.17 72.901,22.817 74.93,22.266 76.958,21.588 78.986,21.986 81.014,20.542 83.042,21.189 85.07,19.752 87.099,20.136 89.127,19.701 91.155,18.827 93.183,19.053 95.211,17.346 97.239,18.268 99.268,16.848 101.296,17.251 103.324,16.806 105.352,15.89 107.38,16.034 109.408,15.835 111.437,14.127 113.465,14.579 115.493,14.057 117.521,13.169 119.549,12.431 121.577,12.984 123.606,12.151 125.634,11.579 127.662,14.971 129.69,19.442 131.718,22.061 133.746,25.385 135.775,28.902 137.803,32.689 139.831,35.214 141.859,34.29 143.887,34.969 145.915,33.476 147.944,33.529 149.972,33.981 152,33.102" fill="none" stroke="#1fdcf5" stroke-width="1.8" stroke-linecap="round" stroke-linejoin="round" filter="url(#glow)"/>
</svg>
