<svg xmlns="http://www.w3.org/2000/svg" width="160" height="48" viewBox="0 0 160 48" role="img" aria-label="Waveform 47 High BP Square">
  <rect x="0" y="0" width="160" height="48" fill="#ffffff"/>
  <polyline points="8,13.303 10.028,13.079 12.056,12.9 14.085,13.245 16.113,12.913 18.141,12.508 20.169,13.048 22.197,13.24 24.225,12.473 26.254,12.841 28.282,12.964 30.31,12.477 32.338,13.564 34.366,13.428 36.394,12.805 38.423,13.133 40.451,13.554 42.479,12.733 44.507,12.502 46.535,12.517 48.563,15.685 50.592,17.763 52.62,21.816 54.648,25.233 56.676,28.319 58.704,31.715 60.732,34.56 62.761,35.729 64.789,35.777 66.817,35.329 68.845,35.395 70.873,35.001 72.901,35.243 74.93,34.958 76.958,35.314 78.986,35.311 81.014,35.901 83.042,35.258 85.07,34.826 87.099,35.513 89.127,34.632 91.155,35.303 93.183,35.703 95.211,34.553 97.239,34.945 99.268,34.945 101.296,32.197 103.324,29.534 105.352,24.798 107.38,22.648 109.408,17.887 111.437,14.395 113.465,12.214 115.493,13.193 117.521,13.044 119.549,12.973 121.577,13.003 123.606,12.931 125.634,12.331 127.662,13.095 129.69,12.788 131.718,12.332 133.746,12.384 135.775,12.968 137.803,12.559 139.831,12.527 141.859,12.141 143.887,12.123 145.915,13.502 147.944,12.828 149.972,13.361 152,12.262" fill="none" stroke="#111111" stroke-width="1.8" stroke-linecap="round" stroke-linejoin="round"/>
</svg>
