<svg xmlns="http://www.w3.org/2000/svg" width="160" height="48" viewBox="0 0 160 48" role="img" aria-label="Waveform 48 Vocal">
  <rect x="0" y="0" width="160" height="48" fill="#ffffff"/>
  <polyline points="8,29.217 10.028,28.929 12.056,28.165 14.085,27.205 16.113,26.98 18.141,26.482 20.169,25.756 22.197,25.038 24.225,24.059 26.254,22.894 28.282,22.074 30.31,21.832 32.338,20.625 34.366,20.054 36.394,19.957 38.423,20.803 40.451,21.118 42.479,21.534 44.507,21.812 46.535,22.985 48.563,23.133 50.592,23.584 52.62,24.085 54.648,24.963 56.676,25.616 58.704,26.252 60.732,26.545 62.761,25.648 64.789,24.372 66.817,23.153 68.845,21.463 70.873,20.363 72.901,19.79 74.93,19.095 76.958,18.762 78.986,18.206 81.014,18.773 83.042,17.872 85.07,17.557 87.099,17.809 89.127,18.66 91.155,19.106 93.183,19.283 95.211,19.319 97.239,20.003 99.268,20.822 101.296,21.433 103.324,21.517 105.352,22.117 107.38,23.393 109.408,23.779 111.437,24.373 113.465,24.593 115.493,23.69 117.521,23.492 119.549,23.37 121.577,22.162 123.606,21.915 125.634,21.161 127.662,21.043 129.69,20.46 131.718,19.671 133.746,19.238 135.775,19.226 137.803,18.579 139.831,18.85 141.859,19.124 143.887,19.741 145.915,20.022 147.944,21.064 149.972,21.95 152,21.981" fill="none" stroke="#111111" stroke-width="1.8" stroke-linecap="round" stroke-linejoin="round"/>
</svg>
