<svg xmlns="http://www.w3.org/2000/svg" width="160" height="48" viewBox="0 0 160 48" role="img" aria-label="Waveform 49 Squeeze box">
  <rect x="0" y="0" width="160" height="48" fill="#ffffff"/>
  <polyline points="8,21.075 10.028,21.029 12.056,20.278 14.085,20.272 16.113,19.773 18.141,19.151 20.169,19.079 22.197,19.093 24.225,19.84 26.254,20.374 28.282,21.028 30.31,21.244 32.338,21.681 34.366,22.268 36.394,21.6 38.423,21.3 40.451,20.854 42.479,20.395 44.507,19.979 46.535,19.469 48.563,19.839 50.592,20.791 52.62,21.241 54.648,21.59 56.676,22.131 58.704,22.695 60.732,23.004 62.761,22.375 64.789,22.35 66.817,21.985 68.845,21.243 70.873,20.962 72.901,20.247 74.93,20.474 76.958,21.684 78.986,21.763 81.014,22.123 83.042,23.367 85.07,23.234 87.099,24.229 89.127,23.316 91.155,23.117 93.183,22.742 95.211,21.608 97.239,20.954 99.268,20.818 101.296,21.003 103.324,21.863 105.352,22.186 107.38,22.915 109.408,24.107 111.437,24.511 113.465,24.904 115.493,23.931 117.521,23.72 119.549,23.225 121.577,23.026 123.606,21.999 125.634,21.845 127.662,22.655 129.69,22.976 131.718,23.116 133.746,23.956 135.775,24.343 137.803,25.162 139.831,25.398 141.859,24.421 143.887,24.494 145.915,23.645 147.944,23.474 149.972,23.142 152,22.775" fill="none" stroke="#111111" stroke-width="1.8" stroke-linecap="round" stroke-linejoin="round"/>
</svg>
