<svg xmlns="http://www.w3.org/2000/svg" width="160" height="48" viewBox="0 0 160 48" role="img" aria-label="Waveform 50 Pulse">
  <rect x="0" y="0" width="160" height="48" fill="#ffffff"/>
  <polyline points="8,12.508 10.028,12.74 12.056,12.802 14.085,12.572 16.113,12.565 18.141,12.995 20.169,12.674 22.197,14.64 24.225,18.272 26.254,21.376 28.282,24.932 30.31,28.908 32.338,32.167 34.366,35.275 36.394,34.826 38.423,35.052 40.451,34.928 42.479,35.246 44.507,34.78 46.535,34.905 48.563,34.879 50.592,35.479 52.62,35.48 54.648,35.12 56.676,34.827 58.704,35.535 60.732,34.165 62.761,30.815 64.789,27.604 66.817,24.366 68.845,20.35 70.873,17.458 72.901,13.993 74.93,12.958 76.958,12.673 78.986,12.721 81.014,12.571 83.042,12.968 85.07,12.699 87.099,13.876 89.127,16.965 91.155,20.379 93.183,23.954 95.211,27.273 97.239,31.495 99.268,34.661 101.296,34.944 103.324,35.203 105.352,35.441 107.38,35.512 109.408,35.169 111.437,35.58 113.465,35.535 115.493,34.993 117.521,34.8 119.549,35.228 121.577,35.49 123.606,35.558 125.634,35.394 127.662,32.371 129.69,28.965 131.718,25.191 133.746,21.721 135.775,18.567 137.803,14.432 139.831,13.213 141.859,12.723 143.887,12.869 145.915,12.766 147.944,12.708 149.972,13.108 152,12.691" fill="none" stroke="#111111" stroke-width="1.8" stroke-linecap="round" stroke-linejoin="round"/>
</svg>
