<svg xmlns="http://www.w3.org/2000/svg" width="160" height="48" viewBox="0 0 160 48" role="img" aria-label="Waveform 51 Limp Saw">
  <rect x="0" y="0" width="160" height="48" fill="#ffffff"/>
  <polyline points="8,32.975 10.028,32.319 12.056,32.092 14.085,31.832 16.113,31.773 18.141,31.269 20.169,31.259 22.197,30.948 24.225,30.521 26.254,30.144 28.282,29.551 30.31,29.299 32.338,28.972 34.366,29.116 36.394,28.626 38.423,28.192 40.451,27.908 42.479,27.592 44.507,27.321 46.535,26.949 48.563,26.598 50.592,26.371 52.62,26.338 54.648,25.606 56.676,25.609 58.704,25.454 60.732,24.92 62.761,24.503 64.789,24.411 66.817,24.183 68.845,23.767 70.873,23.076 72.901,23.232 74.93,22.454 76.958,22.06 78.986,21.954 81.014,21.68 83.042,21.18 85.07,20.916 87.099,20.902 89.127,20.29 91.155,19.876 93.183,19.66 95.211,19.506 97.239,19.476 99.268,18.836 101.296,18.493 103.324,18.305 105.352,18.184 107.38,17.614 109.408,17.222 111.437,16.838 113.465,16.916 115.493,16.285 117.521,15.949 119.549,15.605 121.577,15.2 123.606,15.363 125.634,14.68 127.662,17.06 129.69,20.051 131.718,22.892 133.746,25.685 135.775,27.866 137.803,31.013 139.831,32.021 141.859,31.828 143.887,31.471 145.915,31.223 147.944,31.351 149.972,31.27 152,30.843" fill="none" stroke="#111111" stroke-width="1.8" stroke-linecap="round" stroke-linejoin="round"/>
</svg>
