<svg xmlns="http://www.w3.org/2000/svg" width="160" height="48" viewBox="0 0 160 48" role="img" aria-label="Waveform 52 Spark Wave 1">
  <rect x="0" y="0" width="160" height="48" fill="#ffffff"/>
  <polyline points="8,25.358 10.028,24.86 12.056,24.379 14.085,24.602 16.113,24.312 18.141,23.386 20.169,23.655 22.197,22.802 24.225,23.623 26.254,23.236 28.282,23.035 30.31,23.805 32.338,23.26 34.366,23.832 36.394,23.665 38.423,23.268 40.451,22.176 42.479,22.333 44.507,22.031 46.535,21.614 48.563,21.708 50.592,22.347 52.62,22.568 54.648,23.215 56.676,23.52 58.704,23.868 60.732,24.916 62.761,23.882 64.789,23.269 66.817,23.408 68.845,22.916 70.873,21.873 72.901,21.548 74.93,22.236 76.958,22.435 78.986,22.581 81.014,22.958 83.042,23.663 85.07,24.083 87.099,23.508 89.127,23.643 91.155,22.588 93.183,22.307 95.211,21.588 97.239,21.413 99.268,20.978 101.296,21.256 103.324,21.574 105.352,22.363 107.38,23.248 109.408,23.683 111.437,24.487 113.465,24.998 115.493,23.851 117.521,23.851 119.549,23.663 121.577,23.444 123.606,22.735 125.634,22.502 127.662,22.246 129.69,22.532 131.718,22.787 133.746,22.883 135.775,23.059 137.803,23.809 139.831,23.307 141.859,22.748 143.887,22.868 145.915,22.208 147.944,21.54 149.972,21.761 152,21.47" fill="none" stroke="#111111" stroke-width="1.8" stroke-linecap="round" stroke-linejoin="round"/>
</svg>
