<svg xmlns="http://www.w3.org/2000/svg" width="160" height="48" viewBox="0 0 160 48" role="img" aria-label="Waveform 53 Spark Wave 2">
  <defs>
    <filter id="glow">
      <feGaussianBlur stdDeviation="1.5" result="coloredBlur"/>
      <feMerge>
        <feMergeNode in="coloredBlur"/>
        <feMergeNode in="SourceGraphic"/>
      </feMerge>
    </filter>
  </defs>
  <rect x="0" y="0" width="160" height="48" fill="#1f2025"/>
  <polyline points="8,25.256 10.028,24.724 12.056,24.735 14.085,24.316 16.113,24.296 18.141,23.704 20.169,23.111 22.197,23.295 24.225,22.856 26.254,23.683 28.282,23.305 30.31,23.489 32.338,23.347 34.366,23.67 36.394,22.886 38.423,22.748 40.451,22.259 42.479,22.318 44.507,21.622 46.535,21.839 48.563,22.008 50.592,21.959 52.62,22.842 54.648,23.354 56.676,23.776 58.704,23.99 60.732,24.314 62.761,24.033 64.789,23.565 66.817,23.38 68.845,22.548 70.873,21.945 72.901,21.535 74.93,21.508 76.958,22.048 78.986,22.885 81.014,22.946 83.042,23.052 85.07,23.865 87.099,24.176 89.127,23.302 91.155,23.244 93.183,22.104 95.211,21.644 97.239,21.14 99.268,20.43 101.296,20.977 103.324,21.552 105.352,22.296 107.38,22.697 109.408,23.594 111.437,24.606 113.465,24.649 115.493,24.327 117.521,23.581 119.549,23.855 121.577,23.429 123.606,23.176 125.634,22.354 127.662,22.74 129.69,22.701 131.718,22.71 133.746,23.267 135.775,23.42 137.803,23.509 139.831,23.358 141.859,22.993 143.887,22.477 145.915,22.402 147.944,22.235 149.972,21.686 152,21.224" fill="none" stroke="#1fdcf5" stroke-width="1.8" stroke-linecap="round" stroke-linejoin="round" filter="url(#glow)"/>
</svg>
