<svg xmlns="http://www.w3.org/2000/svg" width="160" height="48" viewBox="0 0 160 48" role="img" aria-label="Waveform 54 Spark Wave 3">
  <rect x="0" y="0" width="160" height="48" fill="#ffffff"/>
  <polyline points="8,25.26 10.028,24.523 12.056,24.436 14.085,24.095 16.113,23.522 18.141,23.903 20.169,22.897 22.197,23.215 24.225,23.661 26.254,23.071 28.282,23.401 30.31,23.724 32.338,23.533 34.366,23.871 36.394,23.065 38.423,22.551 40.451,22.16 42.479,21.82 44.507,21.624 46.535,21.487 48.563,21.553 50.592,22.13 52.62,22.75 54.648,23.228 56.676,23.886 58.704,24.048 60.732,24.1 62.761,23.994 64.789,23.708 66.817,22.831 68.845,22.765 70.873,22.427 72.901,21.912 74.93,21.96 76.958,21.918 78.986,22.462 81.014,22.799 83.042,23.026 85.07,23.97 87.099,24.167 89.127,23.217 91.155,22.718 93.183,22.685 95.211,22.11 97.239,21.258 99.268,20.685 101.296,21.004 103.324,21.544 105.352,22.294 107.38,23.027 109.408,23.513 111.437,24.024 113.465,24.306 115.493,24.501 117.521,23.656 119.549,23.402 121.577,23.496 123.606,23.102 125.634,22.054 127.662,22.247 129.69,22.728 131.718,22.929 133.746,23.444 135.775,23.287 137.803,23.783 139.831,22.975 141.859,23.294 143.887,22.614 145.915,22.573 147.944,21.911 149.972,21.639 152,20.965" fill="none" stroke="#111111" stroke-width="1.8" stroke-linecap="round" stroke-linejoin="round"/>
</svg>
