<svg xmlns="http://www.w3.org/2000/svg" width="160" height="48" viewBox="0 0 160 48" role="img" aria-label="Waveform 55 Mid Wave 1">
  <rect x="0" y="0" width="160" height="48" fill="#ffffff"/>
  <polyline points="8,21.216 10.028,20.819 12.056,20.208 14.085,20.333 16.113,19.987 18.141,19.094 20.169,19.074 22.197,19.035 24.225,19.539 26.254,19.833 28.282,21.001 30.31,20.915 32.338,21.614 34.366,22.524 36.394,21.881 38.423,21.102 40.451,21.078 42.479,20.475 44.507,20.457 46.535,19.746 48.563,19.868 50.592,20.851 52.62,20.719 54.648,22.036 56.676,22.412 58.704,23.061 60.732,22.897 62.761,22.362 64.789,21.902 66.817,21.838 68.845,21.054 70.873,21.178 72.901,20.866 74.93,20.787 76.958,21.687 78.986,21.879 81.014,22.675 83.042,23.34 85.07,23.703 87.099,23.62 89.127,23.155 91.155,22.436 93.183,22.362 95.211,22.017 97.239,21.042 99.268,20.579 101.296,21.419 103.324,21.741 105.352,22.848 107.38,22.766 109.408,24.135 111.437,24.096 113.465,24.444 115.493,23.917 117.521,23.872 119.549,22.998 121.577,22.412 123.606,22.527 125.634,21.948 127.662,22.256 129.69,22.924 131.718,23.417 133.746,23.959 135.775,24.451 137.803,24.59 139.831,24.854 141.859,24.461 143.887,24.108 145.915,23.504 147.944,23.1 149.972,22.936 152,22.294" fill="none" stroke="#111111" stroke-width="1.8" stroke-linecap="round" stroke-linejoin="round"/>
</svg>
