<svg xmlns="http://www.w3.org/2000/svg" width="160" height="48" viewBox="0 0 160 48" role="img" aria-label="Waveform 56 Cacophonous Buzz 1">
  <defs>
    <filter id="glow">
      <feGaussianBlur stdDeviation="1.5" result="coloredBlur"/>
      <feMerge>
        <feMergeNode in="coloredBlur"/>
        <feMergeNode in="SourceGraphic"/>
      </feMerge>
    </filter>
  </defs>
  <rect x="0" y="0" width="160" height="48" fill="#1f2025"/>
  <polyline points="8,26.366 10.028,25.377 12.056,24.619 14.085,22.65 16.113,23.204 18.141,20.852 20.169,19.906 22.197,19.827 24.225,22.245 26.254,23.565 28.282,24.874 30.31,24.685 32.338,25.913 34.366,28.122 36.394,25.358 38.423,24.194 40.451,24.46 42.479,21.659 44.507,20.27 46.535,19.104 48.563,20.883 50.592,21.925 52.62,22.78 54.648,23.742 56.676,24.679 58.704,26.002 60.732,27.761 62.761,26.335 64.789,25.546 66.817,23.456 68.845,22.666 70.873,21.412 72.901,20.204 74.93,20.22 76.958,20.881 78.986,23.382 81.014,23.795 83.042,24.822 85.07,25.685 87.099,25.688 89.127,25.784 91.155,24.718 93.183,23.445 95.211,22.006 97.239,20.907 99.268,20.266 101.296,20.675 103.324,22.03 105.352,22.417 107.38,24.107 109.408,24.111 111.437,25.756 113.465,25.876 115.493,25.637 117.521,25.092 119.549,23.061 121.577,21.788 123.606,21.183 125.634,20.638 127.662,21.695 129.69,21.394 131.718,22.287 133.746,24.664 135.775,24.033 137.803,24.308 139.831,26.152 141.859,25.243 143.887,23.649 145.915,24.382 147.944,22.784 149.972,22.638 152,21.506" fill="none" stroke="#1fdcf5" stroke-width="1.8" stroke-linecap="round" stroke-linejoin="round" filter="url(#glow)"/>
</svg>
