<svg xmlns="http://www.w3.org/2000/svg" width="160" height="48" viewBox="0 0 160 48" role="img" aria-label="Waveform 57 Mid Buzz 1">
  <defs>
    <filter id="glow">
      <feGaussianBlur stdDeviation="1.5" result="coloredBlur"/>
      <feMerge>
        <feMergeNode in="coloredBlur"/>
        <feMergeNode in="SourceGraphic"/>
      </feMerge>
    </filter>
  </defs>
  <rect x="0" y="0" width="160" height="48" fill="#1f2025"/>
  <polyline points="8,25.914 10.028,25.811 12.056,24.456 14.085,23.885 16.113,21.424 18.141,20.893 20.169,20.912 22.197,19.852 24.225,22.2 26.254,23.771 28.282,24.335 30.31,24.706 32.338,26.967 34.366,26.613 36.394,25.799 38.423,24.632 40.451,23.506 42.479,22.055 44.507,21.782 46.535,19.564 48.563,19.387 50.592,21.518 52.62,23.012 54.648,24.468 56.676,23.916 58.704,25.795 60.732,27.219 62.761,26.424 64.789,24.29 66.817,23.69 68.845,22.129 70.873,20.709 72.901,20.792 74.93,20.361 76.958,22.043 78.986,21.848 81.014,24.304 83.042,24.398 85.07,25.888 87.099,27.012 89.127,25.244 91.155,24.465 93.183,23.348 95.211,22.086 97.239,21.63 99.268,19.661 101.296,20.955 103.324,21.377 105.352,22.311 107.38,24.6 109.408,24.052 111.437,24.976 113.465,25.331 115.493,25.224 117.521,24.424 119.549,23.24 121.577,22.353 123.606,21.041 125.634,20.786 127.662,20.657 129.69,22.148 131.718,22.515 133.746,23.006 135.775,24.946 137.803,24.902 139.831,24.943 141.859,25.206 143.887,23.77 145.915,22.991 147.944,21.974 149.972,22.022 152,21.763" fill="none" stroke="#1fdcf5" stroke-width="1.8" stroke-linecap="round" stroke-linejoin="round" filter="url(#glow)"/>
</svg>
