<svg xmlns="http://www.w3.org/2000/svg" width="160" height="48" viewBox="0 0 160 48" role="img" aria-label="Waveform 58 Dome 6">
  <defs>
    <filter id="glow">
      <feGaussianBlur stdDeviation="1.5" result="coloredBlur"/>
      <feMerge>
        <feMergeNode in="coloredBlur"/>
        <feMergeNode in="SourceGraphic"/>
      </feMerge>
    </filter>
  </defs>
  <rect x="0" y="0" width="160" height="48" fill="#1f2025"/>
  <polyline points="8,26.082 10.028,25.713 12.056,25.194 14.085,24.427 16.113,23.97 18.141,24.196 20.169,23.242 22.197,23.165 24.225,22.081 26.254,22.062 28.282,21.25 30.31,20.52 32.338,19.96 34.366,19.401 36.394,19.261 38.423,18.72 40.451,18.498 42.479,17.899 44.507,17.837 46.535,17.085 48.563,16.598 50.592,16.185 52.62,16.325 54.648,15.541 56.676,15.453 58.704,14.66 60.732,14.973 62.761,14.599 64.789,14.85 66.817,14.2 68.845,14.22 70.873,13.677 72.901,13.727 74.93,14.176 76.958,14.355 78.986,14.296 81.014,14.196 83.042,14.666 85.07,15.048 87.099,14.828 89.127,15.416 91.155,15.656 93.183,15.392 95.211,15.87 97.239,15.918 99.268,16.101 101.296,17.079 103.324,17.108 105.352,17.959 107.38,18.098 109.408,18.343 111.437,18.558 113.465,19.025 115.493,19.736 117.521,19.801 119.549,20.069 121.577,20.629 123.606,21.081 125.634,21.537 127.662,22.027 129.69,22.19 131.718,22.374 133.746,22.441 135.775,23.086 137.803,23.555 139.831,24.023 141.859,24.146 143.887,24.473 145.915,24.825 147.944,25.136 149.972,24.844 152,25.294" fill="none" stroke="#1fdcf5" stroke-width="1.8" stroke-linecap="round" stroke-linejoin="round" filter="url(#glow)"/>
</svg>
