<svg xmlns="http://www.w3.org/2000/svg" width="160" height="48" viewBox="0 0 160 48" role="img" aria-label="Waveform 59 Soft Dome 3">
  <rect x="0" y="0" width="160" height="48" fill="#ffffff"/>
  <polyline points="8,25.996 10.028,25.002 12.056,25.013 14.085,24.687 16.113,24.084 18.141,23.917 20.169,23.387 22.197,22.834 24.225,23.035 26.254,22.324 28.282,21.872 30.31,21.605 32.338,21.306 34.366,20.893 36.394,20.623 38.423,20.379 40.451,19.622 42.479,19.198 44.507,19.161 46.535,18.523 48.563,18.696 50.592,18.185 52.62,18.001 54.648,17.784 56.676,17.655 58.704,17.269 60.732,17.304 62.761,17.162 64.789,17.159 66.817,17.05 68.845,16.74 70.873,16.398 72.901,16.135 74.93,16.708 76.958,16.315 78.986,16.945 81.014,16.856 83.042,16.814 85.07,16.914 87.099,17.454 89.127,17.128 91.155,17.306 93.183,17.543 95.211,17.796 97.239,18.373 99.268,18.276 101.296,18.907 103.324,18.908 105.352,18.902 107.38,19.419 109.408,19.882 111.437,20.131 113.465,20.085 115.493,20.441 117.521,20.848 119.549,20.855 121.577,21.571 123.606,21.683 125.634,21.804 127.662,22.327 129.69,22.336 131.718,22.502 133.746,22.745 135.775,23.308 137.803,23.593 139.831,23.927 141.859,24.355 143.887,24.59 145.915,24.698 147.944,24.927 149.972,24.648 152,25.204" fill="none" stroke="#111111" stroke-width="1.8" stroke-linecap="round" stroke-linejoin="round"/>
</svg>
