<svg xmlns="http://www.w3.org/2000/svg" width="160" height="48" viewBox="0 0 160 48" role="img" aria-label="Waveform 60 Dome 7">
  <rect x="0" y="0" width="160" height="48" fill="#ffffff"/>
  <polyline points="8,26.236 10.028,25.357 12.056,24.973 14.085,24.58 16.113,23.947 18.141,24.181 20.169,22.952 22.197,22.437 24.225,22.374 26.254,21.513 28.282,21.486 30.31,20.84 32.338,19.946 34.366,20.073 36.394,18.981 38.423,19.224 40.451,18.112 42.479,17.627 44.507,17.109 46.535,16.674 48.563,16.877 50.592,16.254 52.62,15.895 54.648,15.531 56.676,15.652 58.704,15.381 60.732,14.942 62.761,14.463 64.789,14.218 66.817,14.419 68.845,14.279 70.873,13.831 72.901,13.606 74.93,13.885 76.958,14.289 78.986,13.997 81.014,14.032 83.042,14.232 85.07,14.939 87.099,14.433 89.127,14.711 91.155,15.784 93.183,15.336 95.211,16.268 97.239,16.001 99.268,16.392 101.296,17.239 103.324,16.995 105.352,17.959 107.38,17.767 109.408,18.16 111.437,18.717 113.465,19.323 115.493,19.509 117.521,19.668 119.549,20.35 121.577,20.622 123.606,21.116 125.634,21.354 127.662,21.705 129.69,21.796 131.718,22.683 133.746,23.175 135.775,22.787 137.803,23.429 139.831,24.028 141.859,24.294 143.887,24.425 145.915,24.435 147.944,25.152 149.972,25.132 152,25.238" fill="none" stroke="#111111" stroke-width="1.8" stroke-linecap="round" stroke-linejoin="round"/>
</svg>
