<svg xmlns="http://www.w3.org/2000/svg" width="160" height="48" viewBox="0 0 160 48" role="img" aria-label="Waveform 61 Spark Wave 4">
  <defs>
    <filter id="glow">
      <feGaussianBlur stdDeviation="1.5" result="coloredBlur"/>
      <feMerge>
        <feMergeNode in="coloredBlur"/>
        <feMergeNode in="SourceGraphic"/>
      </feMerge>
    </filter>
  </defs>
  <rect x="0" y="0" width="160" height="48" fill="#1f2025"/>
  <polyline points="8,25.44 10.028,25.048 12.056,24.592 14.085,24.329 16.113,24.235 18.141,23.853 20.169,23.096 22.197,23.146 24.225,23.148 26.254,23.487 28.282,23.565 30.31,23.514 32.338,23.704 34.366,23.428 36.394,23.069 38.423,23.008 40.451,22.157 42.479,21.868 44.507,21.664 46.535,21.613 48.563,21.77 50.592,22.218 52.62,22.346 54.648,23.444 56.676,23.544 58.704,24.245 60.732,24.627 62.761,23.835 64.789,23.388 66.817,23.296 68.845,22.922 70.873,22.248 72.901,21.837 74.93,22.112 76.958,22.535 78.986,22.531 81.014,22.582 83.042,23.601 85.07,23.537 87.099,23.891 89.127,23.267 91.155,22.846 93.183,22 95.211,21.801 97.239,21.556 99.268,20.521 101.296,21.421 103.324,22.239 105.352,22.078 107.38,23.129 109.408,23.684 111.437,24.345 113.465,24.303 115.493,24.025 117.521,23.629 119.549,23.523 121.577,23.069 123.606,22.782 125.634,22.679 127.662,22.47 129.69,22.441 131.718,22.905 133.746,22.809 135.775,23.455 137.803,23.554 139.831,23.184 141.859,22.872 143.887,22.393 145.915,22.207 147.944,21.74 149.972,21.366 152,21.568" fill="none" stroke="#1fdcf5" stroke-width="1.8" stroke-linecap="round" stroke-linejoin="round" filter="url(#glow)"/>
</svg>
