<svg xmlns="http://www.w3.org/2000/svg" width="160" height="48" viewBox="0 0 160 48" role="img" aria-label="Waveform 62 Spark Wave 5">
  <rect x="0" y="0" width="160" height="48" fill="#ffffff"/>
  <polyline points="8,25.184 10.028,24.597 12.056,24.275 14.085,24.41 16.113,23.968 18.141,23.468 20.169,23.397 22.197,22.991 24.225,23.376 26.254,23.217 28.282,23.309 30.31,23.787 32.338,23.777 34.366,23.348 36.394,23.158 38.423,23.002 40.451,22.719 42.479,22.232 44.507,21.41 46.535,21.863 48.563,21.659 50.592,22.341 52.62,22.645 54.648,23.272 56.676,23.865 58.704,24.398 60.732,24.895 62.761,24.061 64.789,23.919 66.817,23.238 68.845,22.601 70.873,21.922 72.901,22.014 74.93,21.865 76.958,22.054 78.986,23.034 81.014,23.347 83.042,23.655 85.07,23.715 87.099,23.732 89.127,23.434 91.155,22.833 93.183,22.087 95.211,22.176 97.239,21.545 99.268,20.64 101.296,21.369 103.324,21.761 105.352,22.129 107.38,22.898 109.408,23.436 111.437,24.159 113.465,24.587 115.493,24.167 117.521,23.981 119.549,23.215 121.577,23.274 123.606,22.527 125.634,22.468 127.662,22.429 129.69,22.372 131.718,23.015 133.746,22.712 135.775,23.657 137.803,23.149 139.831,23.502 141.859,22.886 143.887,22.279 145.915,22.458 147.944,21.523 149.972,21.241 152,21.453" fill="none" stroke="#111111" stroke-width="1.8" stroke-linecap="round" stroke-linejoin="round"/>
</svg>
