<svg xmlns="http://www.w3.org/2000/svg" width="160" height="48" viewBox="0 0 160 48" role="img" aria-label="Waveform 63 Soft Dome 4">
  <rect x="0" y="0" width="160" height="48" fill="#ffffff"/>
  <polyline points="8,25.999 10.028,25.217 12.056,24.731 14.085,24.486 16.113,24.018 18.141,23.783 20.169,23.217 22.197,22.939 24.225,22.666 26.254,22.076 28.282,21.863 30.31,21.55 32.338,21.304 34.366,20.682 36.394,20.401 38.423,19.861 40.451,19.902 42.479,19.566 44.507,19.404 46.535,19.062 48.563,18.204 50.592,18.151 52.62,17.971 54.648,17.518 56.676,17.548 58.704,17.308 60.732,17.06 62.761,16.655 64.789,17.089 66.817,16.667 68.845,16.602 70.873,16.693 72.901,16.715 74.93,16.281 76.958,16.488 78.986,16.653 81.014,17.016 83.042,17.022 85.07,17.07 87.099,17.294 89.127,17.047 91.155,17.822 93.183,17.885 95.211,17.942 97.239,17.861 99.268,18.545 101.296,18.343 103.324,18.602 105.352,18.96 107.38,19.405 109.408,19.609 111.437,20.174 113.465,20.175 115.493,20.784 117.521,20.686 119.549,21.167 121.577,21.68 123.606,21.687 125.634,22.12 127.662,22.053 129.69,22.83 131.718,22.643 133.746,22.946 135.775,23.518 137.803,23.824 139.831,23.903 141.859,24.183 143.887,23.994 145.915,24.734 147.944,24.462 149.972,25.084 152,24.844" fill="none" stroke="#111111" stroke-width="1.8" stroke-linecap="round" stroke-linejoin="round"/>
</svg>
