<svg xmlns="http://www.w3.org/2000/svg" width="160" height="48" viewBox="0 0 160 48" role="img" aria-label="Waveform 64 Dome 8">
  <rect x="0" y="0" width="160" height="48" fill="#ffffff"/>
  <polyline points="8,25.979 10.028,25.593 12.056,24.958 14.085,24.533 16.113,23.957 18.141,23.904 20.169,22.951 22.197,22.687 24.225,22.207 26.254,21.873 28.282,21.43 30.31,20.541 32.338,20.126 34.366,20.196 36.394,19.111 38.423,18.98 40.451,18.361 42.479,17.903 44.507,17.134 46.535,17.096 48.563,16.764 50.592,16.718 52.62,16.024 54.648,15.837 56.676,15.355 58.704,14.834 60.732,14.722 62.761,14.625 64.789,14.438 66.817,13.976 68.845,14.349 70.873,13.846 72.901,13.787 74.93,13.864 76.958,14.437 78.986,14.227 81.014,14.571 83.042,14.61 85.07,14.318 87.099,15.181 89.127,15.304 91.155,15.478 93.183,16.057 95.211,15.927 97.239,16.193 99.268,16.487 101.296,16.688 103.324,17.01 105.352,17.246 107.38,17.95 109.408,18.602 111.437,18.294 113.465,18.776 115.493,19.404 117.521,19.923 119.549,20.482 121.577,20.26 123.606,21.046 125.634,20.943 127.662,21.591 129.69,21.781 131.718,22.026 133.746,22.733 135.775,22.741 137.803,23.588 139.831,23.759 141.859,23.769 143.887,24.028 145.915,24.898 147.944,24.737 149.972,25.107 152,25.472" fill="none" stroke="#111111" stroke-width="1.8" stroke-linecap="round" stroke-linejoin="round"/>
</svg>
