<svg xmlns="http://www.w3.org/2000/svg" width="160" height="48" viewBox="0 0 160 48" role="img" aria-label="Waveform 65 Organ">
  <defs>
    <filter id="glow">
      <feGaussianBlur stdDeviation="1.5" result="coloredBlur"/>
      <feMerge>
        <feMergeNode in="coloredBlur"/>
        <feMergeNode in="SourceGraphic"/>
      </feMerge>
    </filter>
  </defs>
  <rect x="0" y="0" width="160" height="48" fill="#1f2025"/>
  <polyline points="8,29.289 10.028,28.96 12.056,28.112 14.085,27.167 16.113,26.662 18.141,26.166 20.169,25.956 22.197,25.078 24.225,24.173 26.254,23.391 28.282,22.018 30.31,21.555 32.338,20.808 34.366,19.795 36.394,20.655 38.423,21.173 40.451,21.116 42.479,21.632 44.507,22.425 46.535,22.266 48.563,23.471 50.592,23.694 52.62,24.59 54.648,24.952 56.676,25.442 58.704,26.531 60.732,26.221 62.761,25.414 64.789,23.844 66.817,22.812 68.845,21.498 70.873,20.603 72.901,19.685 74.93,18.847 76.958,19.125 78.986,18.509 81.014,18.56 83.042,18.169 85.07,18.07 87.099,18.079 89.127,18.336 91.155,18.562 93.183,18.942 95.211,19.887 97.239,20.114 99.268,20.844 101.296,21.314 103.324,22.263 105.352,22.425 107.38,22.929 109.408,23.99 111.437,24.25 113.465,24.155 115.493,24.237 117.521,23.306 119.549,23.04 121.577,22.016 123.606,21.568 125.634,21.686 127.662,20.614 129.69,20.356 131.718,19.836 133.746,19.799 135.775,19.394 137.803,18.862 139.831,18.658 141.859,19.431 143.887,19.762 145.915,20.785 147.944,21.083 149.972,21.362 152,21.913" fill="none" stroke="#1fdcf5" stroke-width="1.8" stroke-linecap="round" stroke-linejoin="round" filter="url(#glow)"/>
</svg>
