<svg xmlns="http://www.w3.org/2000/svg" width="160" height="48" viewBox="0 0 160 48" role="img" aria-label="Waveform 66 Spark Wave 5">
  <defs>
    <filter id="glow">
      <feGaussianBlur stdDeviation="1.5" result="coloredBlur"/>
      <feMerge>
        <feMergeNode in="coloredBlur"/>
        <feMergeNode in="SourceGraphic"/>
      </feMerge>
    </filter>
  </defs>
  <rect x="0" y="0" width="160" height="48" fill="#1f2025"/>
  <polyline points="8,24.844 10.028,24.892 12.056,24.706 14.085,24.146 16.113,23.765 18.141,23.816 20.169,23.318 22.197,23.568 24.225,23.131 26.254,23.739 28.282,23.518 30.31,23.565 32.338,23.308 34.366,23.788 36.394,23.653 38.423,22.699 40.451,22.684 42.479,21.967 44.507,21.413 46.535,21.374 48.563,21.818 50.592,22.365 52.62,22.56 54.648,23.499 56.676,23.887 58.704,24.003 60.732,24.71 62.761,24.031 64.789,23.612 66.817,23.253 68.845,22.97 70.873,22.571 72.901,21.691 74.93,21.741 76.958,22.604 78.986,22.797 81.014,23.154 83.042,23.412 85.07,23.994 87.099,24.27 89.127,23.533 91.155,22.634 93.183,21.987 95.211,21.89 97.239,21.717 99.268,21.198 101.296,20.904 103.324,21.99 105.352,22.631 107.38,22.772 109.408,23.333 111.437,24.07 113.465,24.389 115.493,24.148 117.521,23.937 119.549,23.72 121.577,23.25 123.606,22.754 125.634,22.394 127.662,22.513 129.69,22.924 131.718,23.22 133.746,23.325 135.775,23.534 137.803,23.156 139.831,23.139 141.859,23.386 143.887,22.497 145.915,22.109 147.944,21.516 149.972,21.558 152,20.803" fill="none" stroke="#1fdcf5" stroke-width="1.8" stroke-linecap="round" stroke-linejoin="round" filter="url(#glow)"/>
</svg>
