<svg xmlns="http://www.w3.org/2000/svg" width="160" height="48" viewBox="0 0 160 48" role="img" aria-label="Waveform 67 Soft Wave 1">
  <rect x="0" y="0" width="160" height="48" fill="#ffffff"/>
  <polyline points="8,22.191 10.028,21.438 12.056,21.322 14.085,21.18 16.113,20.993 18.141,20.633 20.169,20.131 22.197,20.573 24.225,21.01 26.254,21.147 28.282,21.526 30.31,21.841 32.338,22.332 34.366,22.386 36.394,22.481 38.423,21.947 40.451,21.943 42.479,21.47 44.507,21.122 46.535,20.449 48.563,20.892 50.592,21.627 52.62,22.087 54.648,22.3 56.676,22.685 58.704,23.094 60.732,23.289 62.761,22.794 64.789,22.688 66.817,22.387 68.845,22.302 70.873,22.021 72.901,21.542 74.93,21.501 76.958,21.879 78.986,22.622 81.014,22.841 83.042,23.372 85.07,23.706 87.099,23.932 89.127,23.693 91.155,23.065 93.183,22.607 95.211,22.43 97.239,21.94 99.268,21.894 101.296,21.883 103.324,22.41 105.352,22.629 107.38,23.112 109.408,23.525 111.437,24.571 113.465,24.721 115.493,24.386 117.521,23.948 119.549,23.516 121.577,23.081 123.606,22.899 125.634,22.6 127.662,22.477 129.69,23.374 131.718,23.658 133.746,24.17 135.775,24.234 137.803,24.474 139.831,24.822 141.859,24.523 143.887,24.179 145.915,23.523 147.944,23.666 149.972,23.218 152,23.189" fill="none" stroke="#111111" stroke-width="1.8" stroke-linecap="round" stroke-linejoin="round"/>
</svg>
