<svg xmlns="http://www.w3.org/2000/svg" width="160" height="48" viewBox="0 0 160 48" role="img" aria-label="Waveform 68 Soft Wave 2">
  <defs>
    <filter id="glow">
      <feGaussianBlur stdDeviation="1.5" result="coloredBlur"/>
      <feMerge>
        <feMergeNode in="coloredBlur"/>
        <feMergeNode in="SourceGraphic"/>
      </feMerge>
    </filter>
  </defs>
  <rect x="0" y="0" width="160" height="48" fill="#1f2025"/>
  <polyline points="8,21.784 10.028,21.991 12.056,21.399 14.085,21.033 16.113,20.781 18.141,20.767 20.169,20.172 22.197,20.571 24.225,20.465 26.254,20.912 28.282,21.653 30.31,22.151 32.338,22.198 34.366,22.59 36.394,22.234 38.423,22.146 40.451,21.803 42.479,21.091 44.507,20.944 46.535,20.798 48.563,20.897 50.592,21.267 52.62,21.992 54.648,22.542 56.676,22.325 58.704,23.276 60.732,23.652 62.761,22.768 64.789,22.978 66.817,22.587 68.845,22.287 70.873,21.585 72.901,21.653 74.93,21.492 76.958,21.777 78.986,22.774 81.014,22.604 83.042,23.061 85.07,23.639 87.099,23.669 89.127,23.535 91.155,22.933 93.183,22.83 95.211,22.364 97.239,22.047 99.268,21.29 101.296,22.156 103.324,22.635 105.352,23.015 107.38,23.177 109.408,23.549 111.437,24.534 113.465,24.618 115.493,24.404 117.521,23.686 119.549,23.321 121.577,23.184 123.606,23.023 125.634,22.151 127.662,22.921 129.69,22.862 131.718,23.716 133.746,23.843 135.775,24.561 137.803,24.498 139.831,24.731 141.859,24.32 143.887,24.433 145.915,23.86 147.944,23.401 149.972,23.253 152,22.711" fill="none" stroke="#1fdcf5" stroke-width="1.8" stroke-linecap="round" stroke-linejoin="round" filter="url(#glow)"/>
</svg>
