<svg xmlns="http://www.w3.org/2000/svg" width="160" height="48" viewBox="0 0 160 48" role="img" aria-label="Waveform 69 Spark Wave 7">
  <rect x="0" y="0" width="160" height="48" fill="#ffffff"/>
  <polyline points="8,25.207 10.028,25.142 12.056,24.471 14.085,23.951 16.113,24.088 18.141,23.868 20.169,23.651 22.197,23.288 24.225,22.885 26.254,22.95 28.282,23.201 30.31,23.563 32.338,23.607 34.366,23.836 36.394,22.901 38.423,22.701 40.451,22.859 42.479,22.45 44.507,21.715 46.535,21.534 48.563,21.532 50.592,22.381 52.62,22.35 54.648,23.205 56.676,23.968 58.704,24.173 60.732,24.563 62.761,23.963 64.789,23.976 66.817,22.742 68.845,22.878 70.873,22.123 72.901,22.147 74.93,21.746 76.958,21.961 78.986,22.711 81.014,23.347 83.042,23.227 85.07,23.891 87.099,23.556 89.127,23.699 91.155,23.168 93.183,22.015 95.211,21.763 97.239,21.122 99.268,21.06 101.296,21.419 103.324,21.835 105.352,22.581 107.38,22.735 109.408,23.975 111.437,24.469 113.465,24.942 115.493,24.519 117.521,24.137 119.549,23.227 121.577,23.146 123.606,23.151 125.634,22.15 127.662,22.345 129.69,22.628 131.718,22.626 133.746,23.216 135.775,23.515 137.803,23.617 139.831,23.738 141.859,23.345 143.887,22.839 145.915,22.59 147.944,22.174 149.972,21.796 152,20.809" fill="none" stroke="#111111" stroke-width="1.8" stroke-linecap="round" stroke-linejoin="round"/>
</svg>
