<svg xmlns="http://www.w3.org/2000/svg" width="160" height="48" viewBox="0 0 160 48" role="img" aria-label="Waveform 70 Reed">
  <rect x="0" y="0" width="160" height="48" fill="#ffffff"/>
  <polyline points="8,29.508 10.028,28.66 12.056,27.936 14.085,27.83 16.113,27.134 18.141,26.542 20.169,25.72 22.197,24.946 24.225,24.001 26.254,23.45 28.282,22.311 30.31,21.886 32.338,20.224 34.366,19.857 36.394,20.5 38.423,20.94 40.451,20.849 42.479,21.871 44.507,22.084 46.535,22.874 48.563,23.001 50.592,23.4 52.62,24.449 54.648,25.124 56.676,25.182 58.704,25.781 60.732,26.116 62.761,25.125 64.789,23.887 66.817,23.156 68.845,21.981 70.873,20.447 72.901,19.639 74.93,18.899 76.958,18.985 78.986,18.265 81.014,18.636 83.042,17.818 85.07,17.981 87.099,17.928 89.127,18.358 91.155,18.82 93.183,19.194 95.211,19.571 97.239,20.074 99.268,20.637 101.296,20.952 103.324,21.785 105.352,22.457 107.38,23.338 109.408,23.639 111.437,24.157 113.465,24.305 115.493,24.055 117.521,23.694 119.549,23.257 121.577,22.494 123.606,21.505 125.634,21.065 127.662,20.609 129.69,20.602 131.718,20.028 133.746,19.273 135.775,18.639 137.803,18.79 139.831,18.611 141.859,19.539 143.887,20.055 145.915,20.615 147.944,21.113 149.972,21.752 152,21.815" fill="none" stroke="#111111" stroke-width="1.8" stroke-linecap="round" stroke-linejoin="round"/>
</svg>
