<svg xmlns="http://www.w3.org/2000/svg" width="160" height="48" viewBox="0 0 160 48" role="img" aria-label="Waveform 71 Soft Wave 3">
  <rect x="0" y="0" width="160" height="48" fill="#ffffff"/>
  <polyline points="8,21.897 10.028,21.576 12.056,21.208 14.085,21.156 16.113,20.594 18.141,20.6 20.169,19.987 22.197,20.445 24.225,20.661 26.254,20.828 28.282,21.221 30.31,22.038 32.338,22.29 34.366,22.493 36.394,22.189 38.423,22.247 40.451,22.003 42.479,21.205 44.507,21.274 46.535,20.938 48.563,21.069 50.592,21.347 52.62,21.492 54.648,21.957 56.676,22.561 58.704,23.22 60.732,23.336 62.761,23.076 64.789,22.745 66.817,22.7 68.845,22.369 70.873,21.406 72.901,21.389 74.93,21.439 76.958,21.859 78.986,22.689 81.014,22.736 83.042,23.284 85.07,23.471 87.099,23.754 89.127,23.644 91.155,23.385 93.183,22.457 95.211,22.628 97.239,21.874 99.268,21.375 101.296,22.121 103.324,22.088 105.352,23.087 107.38,23.448 109.408,23.977 111.437,24.205 113.465,24.755 115.493,24.168 117.521,23.48 119.549,23.415 121.577,22.957 123.606,22.377 125.634,22.375 127.662,22.769 129.69,23.345 131.718,23.727 133.746,23.914 135.775,24.111 137.803,24.879 139.831,24.996 141.859,24.205 143.887,24.324 145.915,24.074 147.944,23.215 149.972,23.444 152,23.139" fill="none" stroke="#111111" stroke-width="1.8" stroke-linecap="round" stroke-linejoin="round"/>
</svg>
