<svg xmlns="http://www.w3.org/2000/svg" width="160" height="48" viewBox="0 0 160 48" role="img" aria-label="Waveform 72 Soft Wave 4">
  <defs>
    <filter id="glow">
      <feGaussianBlur stdDeviation="1.5" result="coloredBlur"/>
      <feMerge>
        <feMergeNode in="coloredBlur"/>
        <feMergeNode in="SourceGraphic"/>
      </feMerge>
    </filter>
  </defs>
  <rect x="0" y="0" width="160" height="48" fill="#1f2025"/>
  <polyline points="8,22.075 10.028,21.907 12.056,21.729 14.085,21.347 16.113,20.497 18.141,20.42 20.169,19.932 22.197,20.19 24.225,20.651 26.254,21.346 28.282,21.246 30.31,21.865 32.338,22.104 34.366,22.717 36.394,22.408 38.423,21.724 40.451,21.969 42.479,21.094 44.507,21.304 46.535,20.928 48.563,20.806 50.592,21.155 52.62,21.601 54.648,22.419 56.676,22.944 58.704,23.36 60.732,23.481 62.761,22.8 64.789,22.488 66.817,22.266 68.845,21.745 70.873,21.906 72.901,21.554 74.93,21.903 76.958,22.328 78.986,22.537 81.014,22.679 83.042,23.417 85.07,23.414 87.099,24.134 89.127,23.322 91.155,22.99 93.183,22.624 95.211,22.455 97.239,21.954 99.268,21.731 101.296,22.157 103.324,22.251 105.352,23.142 107.38,23.341 109.408,23.71 111.437,24.145 113.465,24.494 115.493,24.109 117.521,23.448 119.549,23.072 121.577,23.128 123.606,22.656 125.634,22.448 127.662,22.947 129.69,22.906 131.718,23.469 133.746,23.773 135.775,24.533 137.803,24.754 139.831,24.9 141.859,24.503 143.887,24.124 145.915,23.988 147.944,23.35 149.972,23.481 152,22.744" fill="none" stroke="#1fdcf5" stroke-width="1.8" stroke-linecap="round" stroke-linejoin="round" filter="url(#glow)"/>
</svg>
