<svg xmlns="http://www.w3.org/2000/svg" width="160" height="48" viewBox="0 0 160 48" role="img" aria-label="Waveform 73 Saxophone">
  <rect x="0" y="0" width="160" height="48" fill="#ffffff"/>
  <polyline points="8,28.82 10.028,28.772 12.056,28.371 14.085,27.448 16.113,27.08 18.141,26.562 20.169,25.95 22.197,24.687 24.225,23.744 26.254,23.493 28.282,22.465 30.31,21.697 32.338,20.518 34.366,20.274 36.394,20.721 38.423,20.61 40.451,21.595 42.479,21.409 44.507,22.347 46.535,22.73 48.563,23.025 50.592,23.548 52.62,24.077 54.648,24.812 56.676,25.849 58.704,26.463 60.732,26.297 62.761,25.651 64.789,24.089 66.817,23.383 68.845,21.87 70.873,20.753 72.901,19.382 74.93,19.194 76.958,18.965 78.986,18.64 81.014,18.366 83.042,18.343 85.07,17.543 87.099,18.164 89.127,18.556 91.155,18.876 93.183,18.966 95.211,19.47 97.239,20.557 99.268,20.71 101.296,21.12 103.324,22.262 105.352,22.721 107.38,22.866 109.408,23.944 111.437,24.464 113.465,24.344 115.493,24.097 117.521,23.307 119.549,22.565 121.577,22.107 123.606,22.213 125.634,21.237 127.662,20.777 129.69,20.402 131.718,20.028 133.746,19.521 135.775,19.176 137.803,18.578 139.831,18.837 141.859,19.369 143.887,19.913 145.915,20.777 147.944,21.397 149.972,21.964 152,22.462" fill="none" stroke="#111111" stroke-width="1.8" stroke-linecap="round" stroke-linejoin="round"/>
</svg>
