<svg xmlns="http://www.w3.org/2000/svg" width="160" height="48" viewBox="0 0 160 48" role="img" aria-label="Waveform 74 Soft Wave 5">
  <rect x="0" y="0" width="160" height="48" fill="#ffffff"/>
  <polyline points="8,21.96 10.028,21.67 12.056,21.615 14.085,20.915 16.113,21.119 18.141,20.355 20.169,20.257 22.197,20.407 24.225,20.614 26.254,21.085 28.282,21.485 30.31,21.73 32.338,22.246 34.366,22.931 36.394,22.255 38.423,21.933 40.451,21.653 42.479,21.576 44.507,21.07 46.535,20.695 48.563,20.996 50.592,21.397 52.62,21.871 54.648,22.443 56.676,22.34 58.704,23.336 60.732,23.558 62.761,23.344 64.789,22.996 66.817,22.144 68.845,22.123 70.873,21.981 72.901,21.612 74.93,21.351 76.958,21.981 78.986,22.674 81.014,22.686 83.042,23.396 85.07,24.018 87.099,23.856 89.127,23.57 91.155,23.183 93.183,22.573 95.211,22.372 97.239,22.016 99.268,21.798 101.296,21.817 103.324,22.334 105.352,22.564 107.38,23.44 109.408,23.708 111.437,23.974 113.465,24.471 115.493,24.028 117.521,23.436 119.549,23.437 121.577,23.139 123.606,22.606 125.634,22.06 127.662,22.639 129.69,22.923 131.718,23.167 133.746,24.21 135.775,24.233 137.803,25.006 139.831,25.011 141.859,24.281 143.887,24.233 145.915,24.134 147.944,23.474 149.972,23.081 152,23.104" fill="none" stroke="#111111" stroke-width="1.8" stroke-linecap="round" stroke-linejoin="round"/>
</svg>
