<svg xmlns="http://www.w3.org/2000/svg" width="160" height="48" viewBox="0 0 160 48" role="img" aria-label="Waveform 75 Trashy Wave 1">
  <rect x="0" y="0" width="160" height="48" fill="#ffffff"/>
  <polyline points="8,31.273 10.028,28.769 12.056,28.443 14.085,24.04 16.113,24.24 18.141,20.638 20.169,18.202 22.197,17.63 24.225,19.795 26.254,20.997 28.282,22.881 30.31,25.863 32.338,26.963 34.366,29.459 36.394,25.937 38.423,25.5 40.451,23.38 42.479,21.192 44.507,17.864 46.535,15.077 48.563,15.905 50.592,20.151 52.62,21.796 54.648,23.183 56.676,27.236 58.704,28.427 60.732,30.767 62.761,27.181 64.789,28.094 66.817,25.68 68.845,23.256 70.873,21.92 72.901,18.942 74.93,20.234 76.958,20.955 78.986,21.868 81.014,25.444 83.042,26.549 85.07,27.388 87.099,28.32 89.127,25.669 91.155,24.464 93.183,23.259 95.211,21.234 97.239,19.165 99.268,18.561 101.296,21.396 103.324,21.732 105.352,25.611 107.38,25.922 109.408,28.304 111.437,32.333 113.465,33.25 115.493,28.42 117.521,28.464 119.549,25.986 121.577,22.204 123.606,19.413 125.634,17.905 127.662,19.43 129.69,21.129 131.718,22.497 133.746,24.036 135.775,25.729 137.803,25.105 139.831,27.731 141.859,27.142 143.887,25.403 145.915,24.832 147.944,23.461 149.972,21.257 152,20.486" fill="none" stroke="#111111" stroke-width="1.8" stroke-linecap="round" stroke-linejoin="round"/>
</svg>
