<svg xmlns="http://www.w3.org/2000/svg" width="160" height="48" viewBox="0 0 160 48" role="img" aria-label="Waveform 76 Trashy Wave 2">
  <defs>
    <filter id="glow">
      <feGaussianBlur stdDeviation="1.5" result="coloredBlur"/>
      <feMerge>
        <feMergeNode in="coloredBlur"/>
        <feMergeNode in="SourceGraphic"/>
      </feMerge>
    </filter>
  </defs>
  <rect x="0" y="0" width="160" height="48" fill="#1f2025"/>
  <polyline points="8,30.379 10.028,29.23 12.056,26.583 14.085,25.947 16.113,21.997 18.141,20.719 20.169,18.053 22.197,17.328 24.225,21.304 26.254,23.304 28.282,23.894 30.31,27.471 32.338,26.847 34.366,28.292 36.394,27.398 38.423,24.54 40.451,23.448 42.479,19.753 44.507,19.636 46.535,16.519 48.563,16.94 50.592,17.782 52.62,22.422 54.648,25.114 56.676,27.171 58.704,27.923 60.732,31.27 62.761,27.412 64.789,26.391 66.817,26.211 68.845,22.706 70.873,21.088 72.901,18.347 74.93,21.717 76.958,20.37 78.986,24.218 81.014,25.813 83.042,26.646 85.07,28.578 87.099,29.048 89.127,25.082 91.155,25.204 93.183,22.93 95.211,22.462 97.239,21.308 99.268,17.427 101.296,18.919 103.324,22.817 105.352,25.475 107.38,26.266 109.408,29.174 111.437,31.776 113.465,30.619 115.493,29.361 117.521,26.779 119.549,25.168 121.577,23.433 123.606,20.66 125.634,15.846 127.662,17.139 129.69,20.923 131.718,20.621 133.746,23.878 135.775,24.015 137.803,26.908 139.831,27.345 141.859,24.514 143.887,25.496 145.915,22.948 147.944,23.201 149.972,23.085 152,20.469" fill="none" stroke="#1fdcf5" stroke-width="1.8" stroke-linecap="round" stroke-linejoin="round" filter="url(#glow)"/>
</svg>
