<svg xmlns="http://www.w3.org/2000/svg" width="160" height="48" viewBox="0 0 160 48" role="img" aria-label="Waveform 77 Trashy Wave 3">
  <defs>
    <filter id="glow">
      <feGaussianBlur stdDeviation="1.5" result="coloredBlur"/>
      <feMerge>
        <feMergeNode in="coloredBlur"/>
        <feMergeNode in="SourceGraphic"/>
      </feMerge>
    </filter>
  </defs>
  <rect x="0" y="0" width="160" height="48" fill="#1f2025"/>
  <polyline points="8,30.913 10.028,29.601 12.056,27.945 14.085,26.073 16.113,21.745 18.141,20.32 20.169,18.796 22.197,20.003 24.225,21.648 26.254,23.698 28.282,24.51 30.31,26.721 32.338,28.653 34.366,29.932 36.394,27.703 38.423,25.563 40.451,21.982 42.479,21.54 44.507,18.448 46.535,15.096 48.563,15.484 50.592,19.069 52.62,21.084 54.648,23.866 56.676,25.088 58.704,27.68 60.732,31.193 62.761,28.265 64.789,27.653 66.817,24.03 68.845,23.263 70.873,21.151 72.901,19.662 74.93,21.007 76.958,22.376 78.986,22.964 81.014,25.475 83.042,24.421 85.07,27.238 87.099,27.635 89.127,25.318 91.155,24.62 93.183,24.047 95.211,20.394 97.239,20.585 99.268,17.73 101.296,19.971 103.324,22.52 105.352,25.741 107.38,25.847 109.408,28.512 111.437,31.193 113.465,31.64 115.493,28.939 117.521,25.681 119.549,25.337 121.577,23.043 123.606,19.183 125.634,17.37 127.662,18.493 129.69,20.115 131.718,21.505 133.746,24.585 135.775,24.537 137.803,26 139.831,27.398 141.859,25.665 143.887,26.087 145.915,22.68 147.944,22.721 149.972,22.106 152,21.229" fill="none" stroke="#1fdcf5" stroke-width="1.8" stroke-linecap="round" stroke-linejoin="round" filter="url(#glow)"/>
</svg>
