<svg xmlns="http://www.w3.org/2000/svg" width="160" height="48" viewBox="0 0 160 48" role="img" aria-label="Waveform 78 Trashy Wave 4">
  <rect x="0" y="0" width="160" height="48" fill="#ffffff"/>
  <polyline points="8,31.234 10.028,30.759 12.056,26.449 14.085,26.126 16.113,22.878 18.141,19.722 20.169,20.086 22.197,19.132 24.225,19.185 26.254,22.143 28.282,22.804 30.31,26.67 32.338,27.187 34.366,30.59 36.394,27.482 38.423,25.715 40.451,23.28 42.479,20.587 44.507,17.144 46.535,17.222 48.563,16.982 50.592,19.984 52.62,22.976 54.648,22.867 56.676,26.629 58.704,28.682 60.732,30.249 62.761,28.944 64.789,26.469 66.817,25.568 68.845,23.486 70.873,20.922 72.901,18.685 74.93,18.905 76.958,21.661 78.986,23.14 81.014,23.554 83.042,25.74 85.07,25.724 87.099,29.022 89.127,26.467 91.155,23.457 93.183,23.571 95.211,20.604 97.239,19.6 99.268,17.264 101.296,18.671 103.324,22.248 105.352,23.142 107.38,26.809 109.408,28.943 111.437,29.996 113.465,30.578 115.493,30.015 117.521,27.482 119.549,23.206 121.577,20.823 123.606,18.307 125.634,17.477 127.662,18.336 129.69,20.132 131.718,21.113 133.746,24.48 135.775,26.221 137.803,25.735 139.831,27.491 141.859,25.177 143.887,25.574 145.915,24.746 147.944,24.181 149.972,22.546 152,22.118" fill="none" stroke="#111111" stroke-width="1.8" stroke-linecap="round" stroke-linejoin="round"/>
</svg>
