<svg xmlns="http://www.w3.org/2000/svg" width="160" height="48" viewBox="0 0 160 48" role="img" aria-label="Waveform 79 Trashy Wave 5">
  <defs>
    <filter id="glow">
      <feGaussianBlur stdDeviation="1.5" result="coloredBlur"/>
      <feMerge>
        <feMergeNode in="coloredBlur"/>
        <feMergeNode in="SourceGraphic"/>
      </feMerge>
    </filter>
  </defs>
  <rect x="0" y="0" width="160" height="48" fill="#1f2025"/>
  <polyline points="8,32.089 10.028,29.113 12.056,28.038 14.085,23.848 16.113,22.219 18.141,20.706 20.169,18.11 22.197,17.492 24.225,21.884 26.254,21.124 28.282,24.281 30.31,27.33 32.338,27.878 34.366,28.036 36.394,26.793 38.423,25.526 40.451,21.541 42.479,21.944 44.507,17.802 46.535,16.792 48.563,15.887 50.592,19.29 52.62,22.868 54.648,24.35 56.676,27.234 58.704,29.33 60.732,31.269 62.761,29.884 64.789,26.669 66.817,23.819 68.845,23.396 70.873,21.977 72.901,19.207 74.93,20.887 76.958,22.254 78.986,23.931 81.014,24.388 83.042,24.777 85.07,26.305 87.099,28.97 89.127,24.715 91.155,24.87 93.183,23.098 95.211,22.733 97.239,19.375 99.268,18.592 101.296,19.395 103.324,21.049 105.352,26.014 107.38,27.468 109.408,29.18 111.437,30.712 113.465,30.94 115.493,30.068 117.521,27.901 119.549,24.193 121.577,21.507 123.606,18.561 125.634,17.027 127.662,17.416 129.69,21.2 131.718,20.477 133.746,22.221 135.775,25.291 137.803,27.274 139.831,26.548 141.859,26.774 143.887,23.631 145.915,24.816 147.944,23.233 149.972,22.785 152,20.012" fill="none" stroke="#1fdcf5" stroke-width="1.8" stroke-linecap="round" stroke-linejoin="round" filter="url(#glow)"/>
</svg>
