<svg xmlns="http://www.w3.org/2000/svg" width="160" height="48" viewBox="0 0 160 48" role="img" aria-label="Waveform 80 Trashy Wave 6">
  <defs>
    <filter id="glow">
      <feGaussianBlur stdDeviation="1.5" result="coloredBlur"/>
      <feMerge>
        <feMergeNode in="coloredBlur"/>
        <feMergeNode in="SourceGraphic"/>
      </feMerge>
    </filter>
  </defs>
  <rect x="0" y="0" width="160" height="48" fill="#1f2025"/>
  <polyline points="8,30.279 10.028,30.654 12.056,26.684 14.085,23.853 16.113,24.432 18.141,20.212 20.169,19.921 22.197,19.606 24.225,19.792 26.254,21.907 28.282,23.536 30.31,26.949 32.338,29.141 34.366,30.834 36.394,28.579 38.423,25.275 40.451,23.401 42.479,21.889 44.507,17.641 46.535,17.256 48.563,17.564 50.592,20.18 52.62,22.277 54.648,25.39 56.676,27.129 58.704,28.823 60.732,31.461 62.761,29.231 64.789,27.29 66.817,24.615 68.845,23.175 70.873,21.964 72.901,20.796 74.93,21.262 76.958,22.79 78.986,22.299 81.014,24.658 83.042,25.948 85.07,28.189 87.099,27.799 89.127,25.283 91.155,23.653 93.183,22.448 95.211,21.276 97.239,19.576 99.268,19.145 101.296,20.003 103.324,21.934 105.352,24.954 107.38,27.646 109.408,29.049 111.437,31.697 113.465,32.867 115.493,29.609 117.521,25.999 119.549,24.635 121.577,21.192 123.606,19.577 125.634,17.862 127.662,17.559 129.69,18.758 131.718,21.65 133.746,24.429 135.775,24.998 137.803,26.506 139.831,26.698 141.859,26.777 143.887,25.222 145.915,22.673 147.944,22.502 149.972,21.431 152,22.155" fill="none" stroke="#1fdcf5" stroke-width="1.8" stroke-linecap="round" stroke-linejoin="round" filter="url(#glow)"/>
</svg>
