<svg xmlns="http://www.w3.org/2000/svg" width="160" height="48" viewBox="0 0 160 48" role="img" aria-label="Waveform 81 Jaw Harp 1">
  <rect x="0" y="0" width="160" height="48" fill="#ffffff"/>
  <polyline points="8,31.105 10.028,29.215 12.056,27.224 14.085,24.877 16.113,23.021 18.141,21.654 20.169,19.796 22.197,19.442 24.225,20.211 26.254,21.684 28.282,22.674 30.31,24.379 32.338,25.457 34.366,25.716 36.394,24.692 38.423,23.194 40.451,22.475 42.479,21.176 44.507,19.722 46.535,18.602 48.563,18.292 50.592,19.385 52.62,20.7 54.648,22.242 56.676,23.398 58.704,24.314 60.732,24.963 62.761,24.007 64.789,23.472 66.817,22.301 68.845,21.329 70.873,20.795 72.901,19.859 74.93,20.428 76.958,21.351 78.986,21.333 81.014,22.238 83.042,23.101 85.07,23.169 87.099,23.413 89.127,22.68 91.155,22.304 93.183,21.285 95.211,20.59 97.239,20.132 99.268,19.427 101.296,20.433 103.324,21.198 105.352,23.175 107.38,24.289 109.408,25.848 111.437,27.008 113.465,27.134 115.493,26.708 117.521,25.778 119.549,24.613 121.577,23.085 123.606,22.457 125.634,21.201 127.662,21.69 129.69,22.592 131.718,23.337 133.746,23.446 135.775,24.182 137.803,25.334 139.831,24.934 141.859,24.757 143.887,24.615 145.915,23.789 147.944,23.445 149.972,22.368 152,22.428" fill="none" stroke="#111111" stroke-width="1.8" stroke-linecap="round" stroke-linejoin="round"/>
</svg>
