<svg xmlns="http://www.w3.org/2000/svg" width="160" height="48" viewBox="0 0 160 48" role="img" aria-label="Waveform 82 Jaw Harp 2">
  <defs>
    <filter id="glow">
      <feGaussianBlur stdDeviation="1.5" result="coloredBlur"/>
      <feMerge>
        <feMergeNode in="coloredBlur"/>
        <feMergeNode in="SourceGraphic"/>
      </feMerge>
    </filter>
  </defs>
  <rect x="0" y="0" width="160" height="48" fill="#1f2025"/>
  <polyline points="8,30.643 10.028,28.851 12.056,27.236 14.085,25.261 16.113,22.964 18.141,21.329 20.169,19.727 22.197,19.667 24.225,20.627 26.254,21.725 28.282,23.013 30.31,23.734 32.338,24.98 34.366,26.092 36.394,25.036 38.423,23.111 40.451,21.875 42.479,20.72 44.507,19.715 46.535,18.323 48.563,18.093 50.592,19.482 52.62,20.761 54.648,21.882 56.676,23.34 58.704,23.928 60.732,25.013 62.761,23.808 64.789,23.441 66.817,22.245 68.845,21.508 70.873,20.983 72.901,20.23 74.93,20.293 76.958,21.335 78.986,21.86 81.014,22.12 83.042,23.053 85.07,23.203 87.099,23.742 89.127,22.959 91.155,21.865 93.183,21.643 95.211,21.054 97.239,19.689 99.268,19.257 101.296,19.799 103.324,21.52 105.352,22.628 107.38,24.144 109.408,25.885 111.437,26.61 113.465,27.329 115.493,26.56 117.521,25.03 119.549,24.165 121.577,23.321 123.606,22.231 125.634,21.28 127.662,22.189 129.69,22.491 131.718,23.32 133.746,24.244 135.775,24.429 137.803,25.525 139.831,24.961 141.859,24.961 143.887,24.243 145.915,23.446 147.944,22.85 149.972,23.02 152,22.541" fill="none" stroke="#1fdcf5" stroke-width="1.8" stroke-linecap="round" stroke-linejoin="round" filter="url(#glow)"/>
</svg>
