<svg xmlns="http://www.w3.org/2000/svg" width="160" height="48" viewBox="0 0 160 48" role="img" aria-label="Waveform 83 Soft Wave 6">
  <defs>
    <filter id="glow">
      <feGaussianBlur stdDeviation="1.5" result="coloredBlur"/>
      <feMerge>
        <feMergeNode in="coloredBlur"/>
        <feMergeNode in="SourceGraphic"/>
      </feMerge>
    </filter>
  </defs>
  <rect x="0" y="0" width="160" height="48" fill="#1f2025"/>
  <polyline points="8,22.09 10.028,21.812 12.056,21.174 14.085,21.425 16.113,20.822 18.141,20.726 20.169,19.996 22.197,20.531 24.225,20.677 26.254,21.429 28.282,21.503 30.31,21.619 32.338,22.013 34.366,22.695 36.394,22.093 38.423,22.129 40.451,21.461 42.479,21.694 44.507,20.747 46.535,20.507 48.563,20.784 50.592,21.581 52.62,21.858 54.648,22.19 56.676,22.396 58.704,23.068 60.732,23.363 62.761,22.891 64.789,22.987 66.817,22.415 68.845,22.006 70.873,21.788 72.901,21.414 74.93,21.79 76.958,21.97 78.986,22.402 81.014,22.726 83.042,23.102 85.07,23.716 87.099,24.172 89.127,23.542 91.155,22.902 93.183,23.044 95.211,22.389 97.239,21.851 99.268,21.711 101.296,21.921 103.324,22.719 105.352,22.857 107.38,23.333 109.408,23.595 111.437,24.569 113.465,24.393 115.493,24.097 117.521,24.005 119.549,23.127 121.577,23.145 123.606,22.571 125.634,22.349 127.662,22.685 129.69,22.837 131.718,23.644 133.746,23.919 135.775,24.33 137.803,24.631 139.831,24.543 141.859,24.44 143.887,24.115 145.915,24.08 147.944,23.653 149.972,22.893 152,23.128" fill="none" stroke="#1fdcf5" stroke-width="1.8" stroke-linecap="round" stroke-linejoin="round" filter="url(#glow)"/>
</svg>
