<svg xmlns="http://www.w3.org/2000/svg" width="160" height="48" viewBox="0 0 160 48" role="img" aria-label="Waveform 84 Thin 1">
  <defs>
    <filter id="glow">
      <feGaussianBlur stdDeviation="1.5" result="coloredBlur"/>
      <feMerge>
        <feMergeNode in="coloredBlur"/>
        <feMergeNode in="SourceGraphic"/>
      </feMerge>
    </filter>
  </defs>
  <rect x="0" y="0" width="160" height="48" fill="#1f2025"/>
  <polyline points="8,22.45 10.028,22.075 12.056,22.377 14.085,21.852 16.113,21.836 18.141,21.072 20.169,20.922 22.197,21.172 24.225,21.326 26.254,22.11 28.282,21.951 30.31,22.209 32.338,22.675 34.366,22.642 36.394,22.386 38.423,22.753 40.451,22.463 42.479,22.389 44.507,21.657 46.535,21.429 48.563,21.875 50.592,21.825 52.62,22.245 54.648,22.901 56.676,22.966 58.704,23.058 60.732,23.613 62.761,22.921 64.789,23.454 66.817,22.939 68.845,22.526 70.873,22.717 72.901,22.339 74.93,22.219 76.958,22.71 78.986,22.692 81.014,22.985 83.042,23.101 85.07,23.818 87.099,24.011 89.127,23.54 91.155,23.594 93.183,22.742 95.211,22.452 97.239,22.938 99.268,21.965 101.296,22.226 103.324,23.058 105.352,22.979 107.38,23.129 109.408,23.691 111.437,24.29 113.465,24.06 115.493,24.22 117.521,24.089 119.549,23.236 121.577,23.512 123.606,23.459 125.634,22.731 127.662,23.442 129.69,23.21 131.718,23.925 133.746,23.81 135.775,24.174 137.803,24.509 139.831,24.838 141.859,24.166 143.887,24.481 145.915,23.793 147.944,23.728 149.972,23.771 152,22.83" fill="none" stroke="#1fdcf5" stroke-width="1.8" stroke-linecap="round" stroke-linejoin="round" filter="url(#glow)"/>
</svg>
