<svg xmlns="http://www.w3.org/2000/svg" width="160" height="48" viewBox="0 0 160 48" role="img" aria-label="Waveform 85 Thin 2">
  <rect x="0" y="0" width="160" height="48" fill="#ffffff"/>
  <polyline points="8,22.359 10.028,22.081 12.056,21.988 14.085,22.225 16.113,21.693 18.141,21.193 20.169,21.337 22.197,21.213 24.225,21.421 26.254,22.074 28.282,22.354 30.31,22.841 32.338,22.794 34.366,22.804 36.394,22.975 38.423,22.41 40.451,22.17 42.479,22.07 44.507,21.917 46.535,21.286 48.563,21.685 50.592,21.783 52.62,22.503 54.648,22.876 56.676,22.945 58.704,23.73 60.732,23.283 62.761,23.055 64.789,22.686 66.817,23.168 68.845,22.812 70.873,22.35 72.901,22.02 74.93,22.205 76.958,22.822 78.986,23.228 81.014,23.578 83.042,23.303 85.07,23.836 87.099,23.843 89.127,23.798 91.155,23.046 93.183,22.682 95.211,22.631 97.239,22.367 99.268,22.134 101.296,22.518 103.324,22.857 105.352,22.78 107.38,23.105 109.408,23.552 111.437,24.388 113.465,24.606 115.493,24.338 117.521,23.98 119.549,23.561 121.577,22.893 123.606,23.19 125.634,22.674 127.662,23.26 129.69,23.097 131.718,23.992 133.746,23.543 135.775,24.147 137.803,24.792 139.831,24.248 141.859,24.146 143.887,24.151 145.915,23.684 147.944,23.288 149.972,23.026 152,23.196" fill="none" stroke="#111111" stroke-width="1.8" stroke-linecap="round" stroke-linejoin="round"/>
</svg>
