<svg xmlns="http://www.w3.org/2000/svg" width="160" height="48" viewBox="0 0 160 48" role="img" aria-label="Waveform 86 Spark Wave 8">
  <rect x="0" y="0" width="160" height="48" fill="#ffffff"/>
  <polyline points="8,24.779 10.028,24.768 12.056,24.605 14.085,24.526 16.113,23.926 18.141,23.375 20.169,23.018 22.197,22.842 24.225,23.623 26.254,23.62 28.282,23.453 30.31,23.835 32.338,23.434 34.366,23.348 36.394,23.603 38.423,23.161 40.451,22.299 42.479,22.133 44.507,21.546 46.535,21.398 48.563,21.485 50.592,21.993 52.62,22.9 54.648,23.56 56.676,23.492 58.704,23.969 60.732,24.497 62.761,24.205 64.789,23.603 66.817,23.069 68.845,22.598 70.873,21.939 72.901,22.052 74.93,21.945 76.958,22.082 78.986,22.431 81.014,22.656 83.042,23.09 85.07,23.96 87.099,23.492 89.127,23.663 91.155,23.143 93.183,22.331 95.211,21.691 97.239,21.689 99.268,20.48 101.296,21.472 103.324,22.182 105.352,22.618 107.38,23.077 109.408,23.504 111.437,24.656 113.465,24.509 115.493,24.367 117.521,23.8 119.549,23.724 121.577,23 123.606,22.948 125.634,22.445 127.662,22.371 129.69,22.74 131.718,22.857 133.746,23.104 135.775,23.489 137.803,23.441 139.831,23.518 141.859,23.157 143.887,22.84 145.915,22.199 147.944,21.731 149.972,21.609 152,21.327" fill="none" stroke="#111111" stroke-width="1.8" stroke-linecap="round" stroke-linejoin="round"/>
</svg>
