<svg xmlns="http://www.w3.org/2000/svg" width="160" height="48" viewBox="0 0 160 48" role="img" aria-label="Waveform 87 Spark Wave 9">
  <defs>
    <filter id="glow">
      <feGaussianBlur stdDeviation="1.5" result="coloredBlur"/>
      <feMerge>
        <feMergeNode in="coloredBlur"/>
        <feMergeNode in="SourceGraphic"/>
      </feMerge>
    </filter>
  </defs>
  <rect x="0" y="0" width="160" height="48" fill="#1f2025"/>
  <polyline points="8,25.01 10.028,25.104 12.056,24.223 14.085,23.863 16.113,24.298 18.141,23.759 20.169,22.988 22.197,23.035 24.225,22.99 26.254,23.481 28.282,23.185 30.31,23.418 32.338,23.793 34.366,23.57 36.394,23.538 38.423,23.09 40.451,22.601 42.479,21.977 44.507,21.798 46.535,21.636 48.563,21.755 50.592,22.342 52.62,22.808 54.648,23.218 56.676,23.809 58.704,24.211 60.732,24.686 62.761,23.966 64.789,23.592 66.817,23.472 68.845,23.057 70.873,21.943 72.901,21.866 74.93,21.921 76.958,22.551 78.986,23.03 81.014,22.701 83.042,23.532 85.07,23.485 87.099,23.679 89.127,23.087 91.155,22.97 93.183,22.574 95.211,21.468 97.239,21.315 99.268,20.742 101.296,21.232 103.324,21.835 105.352,22.488 107.38,23.467 109.408,23.459 111.437,24.627 113.465,24.77 115.493,24.343 117.521,24.189 119.549,23.146 121.577,23.309 123.606,22.797 125.634,22.6 127.662,22.818 129.69,22.42 131.718,22.722 133.746,23.328 135.775,23.046 137.803,23.537 139.831,23.695 141.859,22.801 143.887,22.949 145.915,22.101 147.944,21.623 149.972,21.446 152,21.111" fill="none" stroke="#1fdcf5" stroke-width="1.8" stroke-linecap="round" stroke-linejoin="round" filter="url(#glow)"/>
</svg>
