<svg xmlns="http://www.w3.org/2000/svg" width="160" height="48" viewBox="0 0 160 48" role="img" aria-label="Waveform 88 Spark Wave 10">
  <defs>
    <filter id="glow">
      <feGaussianBlur stdDeviation="1.5" result="coloredBlur"/>
      <feMerge>
        <feMergeNode in="coloredBlur"/>
        <feMergeNode in="SourceGraphic"/>
      </feMerge>
    </filter>
  </defs>
  <rect x="0" y="0" width="160" height="48" fill="#1f2025"/>
  <polyline points="8,25.55 10.028,24.863 12.056,24.653 14.085,24.227 16.113,23.738 18.141,23.678 20.169,22.979 22.197,23.509 24.225,23.355 26.254,23.689 28.282,23.836 30.31,23.314 32.338,23.768 34.366,23.764 36.394,22.936 38.423,22.991 40.451,22.846 42.479,22.172 44.507,21.674 46.535,21.772 48.563,21.396 50.592,22.003 52.62,22.981 54.648,22.912 56.676,24.06 58.704,24.258 60.732,24.131 62.761,24.078 64.789,23.788 66.817,23.513 68.845,22.276 70.873,22.151 72.901,22.036 74.93,21.768 76.958,22.102 78.986,22.231 81.014,23.363 83.042,23.029 85.07,24.132 87.099,23.775 89.127,23.403 91.155,23.152 93.183,22.561 95.211,21.545 97.239,21.039 99.268,21.187 101.296,21.239 103.324,22.033 105.352,22.069 107.38,23.164 109.408,23.356 111.437,24.123 113.465,24.394 115.493,23.964 117.521,24.223 119.549,23.527 121.577,23.231 123.606,22.721 125.634,22.649 127.662,22.293 129.69,22.939 131.718,23.047 133.746,23.318 135.775,23.055 137.803,23.63 139.831,23.096 141.859,22.851 143.887,22.719 145.915,21.987 147.944,21.869 149.972,21.615 152,21.385" fill="none" stroke="#1fdcf5" stroke-width="1.8" stroke-linecap="round" stroke-linejoin="round" filter="url(#glow)"/>
</svg>
