<svg xmlns="http://www.w3.org/2000/svg" width="160" height="48" viewBox="0 0 160 48" role="img" aria-label="Waveform 89 Soft Dome 5">
  <defs>
    <filter id="glow">
      <feGaussianBlur stdDeviation="1.5" result="coloredBlur"/>
      <feMerge>
        <feMergeNode in="coloredBlur"/>
        <feMergeNode in="SourceGraphic"/>
      </feMerge>
    </filter>
  </defs>
  <rect x="0" y="0" width="160" height="48" fill="#1f2025"/>
  <polyline points="8,25.845 10.028,25.112 12.056,25.05 14.085,24.793 16.113,24.173 18.141,23.964 20.169,23.358 22.197,23.085 24.225,22.907 26.254,22.271 28.282,21.727 30.31,21.781 32.338,21.441 34.366,21.044 36.394,20.777 38.423,20.042 40.451,19.952 42.479,19.283 44.507,18.998 46.535,18.464 48.563,18.168 50.592,18.065 52.62,17.841 54.648,17.675 56.676,17.482 58.704,16.984 60.732,16.968 62.761,17.163 64.789,17.162 66.817,16.581 68.845,16.502 70.873,16.467 72.901,16.406 74.93,16.26 76.958,16.829 78.986,16.905 81.014,16.468 83.042,17.145 85.07,16.888 87.099,16.991 89.127,17.556 91.155,17.63 93.183,17.447 95.211,18 97.239,18.038 99.268,18.108 101.296,18.79 103.324,18.675 105.352,19.19 107.38,19.259 109.408,19.629 111.437,20.09 113.465,20.33 115.493,20.552 117.521,20.698 119.549,21.114 121.577,21.436 123.606,21.464 125.634,21.68 127.662,22.559 129.69,22.444 131.718,22.623 133.746,23.381 135.775,23.491 137.803,23.336 139.831,23.834 141.859,24.111 143.887,24.046 145.915,24.196 147.944,25 149.972,24.632 152,25.109" fill="none" stroke="#1fdcf5" stroke-width="1.8" stroke-linecap="round" stroke-linejoin="round" filter="url(#glow)"/>
</svg>
