<svg xmlns="http://www.w3.org/2000/svg" width="160" height="48" viewBox="0 0 160 48" role="img" aria-label="Waveform 90 Soft Dome 6">
  <rect x="0" y="0" width="160" height="48" fill="#ffffff"/>
  <polyline points="8,25.582 10.028,25.545 12.056,24.861 14.085,24.544 16.113,24.544 18.141,23.713 20.169,23.43 22.197,23.029 24.225,22.441 26.254,22.608 28.282,22.197 30.31,21.345 32.338,21.019 34.366,21.104 36.394,20.177 38.423,19.924 40.451,20.113 42.479,19.758 44.507,18.825 46.535,19.015 48.563,18.607 50.592,18.185 52.62,17.823 54.648,17.935 56.676,17.834 58.704,17.494 60.732,16.924 62.761,16.951 64.789,16.823 66.817,16.855 68.845,16.573 70.873,16.745 72.901,16.468 74.93,16.146 76.958,16.704 78.986,16.666 81.014,16.935 83.042,16.588 85.07,17.096 87.099,17.112 89.127,17.308 91.155,17.488 93.183,17.641 95.211,17.796 97.239,18.391 99.268,18.229 101.296,18.351 103.324,18.725 105.352,19.501 107.38,19.77 109.408,19.673 111.437,19.755 113.465,20.154 115.493,20.759 117.521,21.013 119.549,21.461 121.577,21.692 123.606,21.49 125.634,21.695 127.662,22.263 129.69,22.441 131.718,22.802 133.746,23.166 135.775,23.452 137.803,23.49 139.831,23.786 141.859,24.101 143.887,24.399 145.915,24.77 147.944,24.57 149.972,25.05 152,25.321" fill="none" stroke="#111111" stroke-width="1.8" stroke-linecap="round" stroke-linejoin="round"/>
</svg>
