<svg xmlns="http://www.w3.org/2000/svg" width="160" height="48" viewBox="0 0 160 48" role="img" aria-label="Waveform 91 Cacophonous Buzz 2">
  <defs>
    <filter id="glow">
      <feGaussianBlur stdDeviation="1.5" result="coloredBlur"/>
      <feMerge>
        <feMergeNode in="coloredBlur"/>
        <feMergeNode in="SourceGraphic"/>
      </feMerge>
    </filter>
  </defs>
  <rect x="0" y="0" width="160" height="48" fill="#1f2025"/>
  <polyline points="8,25.239 10.028,25.134 12.056,24.896 14.085,22.344 16.113,22.701 18.141,20.928 20.169,19.814 22.197,21.25 24.225,21.045 26.254,23.551 28.282,24.695 30.31,24.835 32.338,26.819 34.366,27.968 36.394,26.961 38.423,25.151 40.451,22.901 42.479,23.255 44.507,20.907 46.535,20.823 48.563,20.39 50.592,22.23 52.62,23.552 54.648,22.868 56.676,25.789 58.704,26.443 60.732,26.988 62.761,26.447 64.789,25.178 66.817,24.232 68.845,21.565 70.873,21.103 72.901,19.152 74.93,20.299 76.958,20.785 78.986,22.262 81.014,23.445 83.042,24.525 85.07,26.073 87.099,27.398 89.127,25.747 91.155,24.153 93.183,23.015 95.211,23.232 97.239,20.724 99.268,20.723 101.296,20.842 103.324,22.73 105.352,22.291 107.38,23.067 109.408,25.064 111.437,25.056 113.465,26.706 115.493,24.976 117.521,24.824 119.549,24.339 121.577,21.842 123.606,21.642 125.634,20.634 127.662,21.596 129.69,22.369 131.718,23.382 133.746,23.411 135.775,24.633 137.803,25.652 139.831,24.898 141.859,23.888 143.887,24.045 145.915,23.036 147.944,23.125 149.972,23.047 152,20.869" fill="none" stroke="#1fdcf5" stroke-width="1.8" stroke-linecap="round" stroke-linejoin="round" filter="url(#glow)"/>
</svg>
