<svg xmlns="http://www.w3.org/2000/svg" width="160" height="48" viewBox="0 0 160 48" role="img" aria-label="Waveform 92 Thin 3">
  <defs>
    <filter id="glow">
      <feGaussianBlur stdDeviation="1.5" result="coloredBlur"/>
      <feMerge>
        <feMergeNode in="coloredBlur"/>
        <feMergeNode in="SourceGraphic"/>
      </feMerge>
    </filter>
  </defs>
  <rect x="0" y="0" width="160" height="48" fill="#1f2025"/>
  <polyline points="8,22.436 10.028,22.288 12.056,22.401 14.085,22.004 16.113,21.631 18.141,21.042 20.169,21.503 22.197,21.32 24.225,21.73 26.254,22.211 28.282,22.386 30.31,22.771 32.338,22.839 34.366,23.066 36.394,23.168 38.423,22.523 40.451,22.688 42.479,21.686 44.507,21.625 46.535,21.39 48.563,22.026 50.592,22.217 52.62,22.593 54.648,22.465 56.676,23.387 58.704,23.269 60.732,23.865 62.761,23.562 64.789,22.993 66.817,22.483 68.845,22.753 70.873,21.952 72.901,22.384 74.93,22.654 76.958,22.408 78.986,23.131 81.014,22.855 83.042,23.835 85.07,24.155 87.099,23.89 89.127,23.605 91.155,23.745 93.183,22.936 95.211,23.219 97.239,22.438 99.268,22.343 101.296,22.36 103.324,23.047 105.352,23.352 107.38,23.16 109.408,23.981 111.437,24.373 113.465,24.592 115.493,23.782 117.521,24.02 119.549,23.349 121.577,23.629 123.606,22.877 125.634,23.203 127.662,22.652 129.69,23.698 131.718,23.35 133.746,24.069 135.775,24.618 137.803,24.234 139.831,24.693 141.859,24.676 143.887,23.905 145.915,23.589 147.944,23.865 149.972,23.305 152,23.223" fill="none" stroke="#1fdcf5" stroke-width="1.8" stroke-linecap="round" stroke-linejoin="round" filter="url(#glow)"/>
</svg>
