<svg xmlns="http://www.w3.org/2000/svg" width="160" height="48" viewBox="0 0 160 48" role="img" aria-label="Waveform 93 Spark Wave 11">
  <defs>
    <filter id="glow">
      <feGaussianBlur stdDeviation="1.5" result="coloredBlur"/>
      <feMerge>
        <feMergeNode in="coloredBlur"/>
        <feMergeNode in="SourceGraphic"/>
      </feMerge>
    </filter>
  </defs>
  <rect x="0" y="0" width="160" height="48" fill="#1f2025"/>
  <polyline points="8,25.046 10.028,24.899 12.056,24.21 14.085,23.973 16.113,23.806 18.141,23.945 20.169,23.207 22.197,22.83 24.225,23.133 26.254,23.144 28.282,23.046 30.31,23.182 32.338,23.583 34.366,23.783 36.394,23.56 38.423,23.3 40.451,22.394 42.479,22.178 44.507,22.15 46.535,21.689 48.563,21.983 50.592,22.011 52.62,22.645 54.648,22.806 56.676,23.313 58.704,24.278 60.732,24.511 62.761,23.731 64.789,23.223 66.817,22.886 68.845,22.473 70.873,22.178 72.901,21.428 74.93,21.856 76.958,22.061 78.986,22.495 81.014,23.25 83.042,23.029 85.07,23.819 87.099,24.028 89.127,23.048 91.155,22.766 93.183,22.593 95.211,21.799 97.239,21.705 99.268,21.137 101.296,20.938 103.324,22.054 105.352,22.12 107.38,22.694 109.408,23.597 111.437,24.55 113.465,24.555 115.493,24.055 117.521,23.684 119.549,23.45 121.577,22.936 123.606,23.014 125.634,22.511 127.662,22.428 129.69,23.06 131.718,22.82 133.746,22.831 135.775,23.582 137.803,23.197 139.831,23.651 141.859,22.877 143.887,22.705 145.915,22.641 147.944,22.298 149.972,21.643 152,21.279" fill="none" stroke="#1fdcf5" stroke-width="1.8" stroke-linecap="round" stroke-linejoin="round" filter="url(#glow)"/>
</svg>
