<svg xmlns="http://www.w3.org/2000/svg" width="160" height="48" viewBox="0 0 160 48" role="img" aria-label="Waveform 94 Soft Dome 7">
  <defs>
    <filter id="glow">
      <feGaussianBlur stdDeviation="1.5" result="coloredBlur"/>
      <feMerge>
        <feMergeNode in="coloredBlur"/>
        <feMergeNode in="SourceGraphic"/>
      </feMerge>
    </filter>
  </defs>
  <rect x="0" y="0" width="160" height="48" fill="#1f2025"/>
  <polyline points="8,25.454 10.028,25.563 12.056,25.222 14.085,24.782 16.113,24.111 18.141,24.116 20.169,23.81 22.197,23.155 24.225,22.643 26.254,22.646 28.282,22.269 30.31,21.547 32.338,21.134 34.366,21.061 36.394,20.748 38.423,20.399 40.451,20.063 42.479,19.198 44.507,18.905 46.535,18.75 48.563,18.646 50.592,17.961 52.62,18.186 54.648,17.614 56.676,17.466 58.704,16.971 60.732,17.301 62.761,16.964 64.789,17.074 66.817,16.859 68.845,16.948 70.873,16.392 72.901,16.661 74.93,16.801 76.958,16.629 78.986,16.42 81.014,16.786 83.042,16.808 85.07,17.324 87.099,16.871 89.127,17.291 91.155,17.432 93.183,18.029 95.211,17.651 97.239,18.001 99.268,18.495 101.296,18.582 103.324,18.897 105.352,19.249 107.38,19.338 109.408,19.75 111.437,20.069 113.465,20.631 115.493,20.764 117.521,20.951 119.549,21.015 121.577,21.655 123.606,21.67 125.634,22.27 127.662,22.006 129.69,22.372 131.718,22.487 133.746,22.842 135.775,23.645 137.803,23.602 139.831,24.168 141.859,24.331 143.887,24.273 145.915,24.191 147.944,24.634 149.972,25.059 152,25.336" fill="none" stroke="#1fdcf5" stroke-width="1.8" stroke-linecap="round" stroke-linejoin="round" filter="url(#glow)"/>
</svg>
