<svg xmlns="http://www.w3.org/2000/svg" width="160" height="48" viewBox="0 0 160 48" role="img" aria-label="Waveform 95 Soft Wave 7">
  <rect x="0" y="0" width="160" height="48" fill="#ffffff"/>
  <polyline points="8,22.161 10.028,21.925 12.056,21.705 14.085,21.296 16.113,20.842 18.141,20.511 20.169,19.987 22.197,20.409 24.225,20.755 26.254,20.794 28.282,21.284 30.31,21.854 32.338,22.214 34.366,22.837 36.394,22.155 38.423,21.805 40.451,21.514 42.479,21.348 44.507,21.39 46.535,20.921 48.563,20.743 50.592,21.569 52.62,21.546 54.648,21.951 56.676,22.789 58.704,23.148 60.732,23.538 62.761,23.276 64.789,22.521 66.817,22.584 68.845,22.177 70.873,22.03 72.901,21.515 74.93,21.881 76.958,22.156 78.986,22.358 81.014,23.096 83.042,23.065 85.07,23.723 87.099,23.866 89.127,23.629 91.155,23.211 93.183,23.081 95.211,22.318 97.239,21.817 99.268,21.433 101.296,21.808 103.324,22.668 105.352,23.004 107.38,23.495 109.408,23.854 111.437,24.094 113.465,24.571 115.493,23.955 117.521,23.551 119.549,23.268 121.577,22.948 123.606,22.371 125.634,22.44 127.662,22.502 129.69,23.346 131.718,23.45 133.746,23.877 135.775,23.95 137.803,24.87 139.831,24.593 141.859,24.669 143.887,24.287 145.915,23.582 147.944,23.305 149.972,23.22 152,23.059" fill="none" stroke="#111111" stroke-width="1.8" stroke-linecap="round" stroke-linejoin="round"/>
</svg>
