<svg xmlns="http://www.w3.org/2000/svg" width="160" height="48" viewBox="0 0 160 48" role="img" aria-label="Waveform 96 Sine 2">
  <rect x="0" y="0" width="160" height="48" fill="#ffffff"/>
  <polyline points="8,24.522 10.028,24.237 12.056,23.307 14.085,23.216 16.113,22.4 18.141,22.342 20.169,21.662 22.197,20.61 24.225,20.687 26.254,19.923 28.282,19.142 30.31,18.55 32.338,17.599 34.366,16.926 36.394,16.422 38.423,16.301 40.451,15.317 42.479,15.064 44.507,14.303 46.535,13.557 48.563,13.39 50.592,12.267 52.62,12.443 54.648,12.038 56.676,11.092 58.704,10.979 60.732,10.46 62.761,10.733 64.789,11.787 66.817,12.031 68.845,12.513 70.873,12.58 72.901,13.559 74.93,13.62 76.958,15.025 78.986,15.598 81.014,16.095 83.042,16.913 85.07,18.206 87.099,18.539 89.127,19.563 91.155,20.164 93.183,21.301 95.211,22.492 97.239,22.942 99.268,23.721 101.296,24.381 103.324,25.137 105.352,25.939 107.38,27.002 109.408,27.488 111.437,28.294 113.465,29.412 115.493,29.562 117.521,30.799 119.549,31.375 121.577,31.684 123.606,32.426 125.634,32.951 127.662,33.612 129.69,34.626 131.718,34.913 133.746,35.613 135.775,35.786 137.803,36.548 139.831,36.14 141.859,35.799 143.887,35.39 145.915,34.466 147.944,34 149.972,33.415 152,33.014" fill="none" stroke="#111111" stroke-width="1.8" stroke-linecap="round" stroke-linejoin="round"/>
</svg>
