<svg xmlns="http://www.w3.org/2000/svg" width="160" height="48" viewBox="0 0 160 48" role="img" aria-label="Waveform 97 Sync'd Sine">
  <defs>
    <filter id="glow">
      <feGaussianBlur stdDeviation="1.5" result="coloredBlur"/>
      <feMerge>
        <feMergeNode in="coloredBlur"/>
        <feMergeNode in="SourceGraphic"/>
      </feMerge>
    </filter>
  </defs>
  <rect x="0" y="0" width="160" height="48" fill="#1f2025"/>
  <polyline points="8,24.755 10.028,24.324 12.056,23.49 14.085,23.174 16.113,22.522 18.141,21.312 20.169,21.525 22.197,20.699 24.225,20.205 26.254,19.758 28.282,19.32 30.31,18.216 32.338,17.743 34.366,17.534 36.394,16.605 38.423,15.775 40.451,14.868 42.479,14.24 44.507,14.711 46.535,13.469 48.563,12.535 50.592,13.206 52.62,11.984 54.648,12.148 56.676,11.926 58.704,10.631 60.732,10.234 62.761,11.21 64.789,11.905 66.817,12.225 68.845,12.454 70.873,12.311 72.901,12.535 74.93,13.157 76.958,14.93 78.986,15.945 81.014,15.994 83.042,17.877 85.07,17.941 87.099,19.424 89.127,20.222 91.155,20.826 93.183,21.565 95.211,21.666 97.239,22.361 99.268,23.906 101.296,24.52 103.324,25.955 105.352,25.675 107.38,27.468 109.408,28.115 111.437,28.525 113.465,29.392 115.493,29.376 117.521,29.846 119.549,31.339 121.577,32.035 123.606,31.853 125.634,32.542 127.662,34.248 129.69,34.902 131.718,34.641 133.746,35.482 135.775,36.116 137.803,35.67 139.831,36.018 141.859,36.384 143.887,35.841 145.915,35.288 147.944,33.894 149.972,32.896 152,32.582" fill="none" stroke="#1fdcf5" stroke-width="1.8" stroke-linecap="round" stroke-linejoin="round" filter="url(#glow)"/>
</svg>
