<svg xmlns="http://www.w3.org/2000/svg" width="160" height="48" viewBox="0 0 160 48" role="img" aria-label="Waveform 98 Trashy Wave 7">
  <rect x="0" y="0" width="160" height="48" fill="#ffffff"/>
  <polyline points="8,30.366 10.028,29.702 12.056,26.095 14.085,25.048 16.113,24.27 18.141,20.006 20.169,19.943 22.197,20.023 24.225,21.048 26.254,21.21 28.282,24.133 30.31,25.95 32.338,27.061 34.366,29.789 36.394,26.237 38.423,23.826 40.451,22.915 42.479,22.014 44.507,17.629 46.535,16.761 48.563,17.029 50.592,19.511 52.62,20.454 54.648,24.117 56.676,27.162 58.704,29.744 60.732,29.617 62.761,27.963 64.789,26.503 66.817,24.982 68.845,23.004 70.873,22.206 72.901,20.912 74.93,19.832 76.958,21.251 78.986,23.95 81.014,25.727 83.042,26.13 85.07,26.472 87.099,27.584 89.127,27.198 91.155,25.584 93.183,22.625 95.211,22.147 97.239,18.598 99.268,19.761 101.296,19.895 103.324,23.645 105.352,24.525 107.38,27.6 109.408,30.357 111.437,30.63 113.465,31.881 115.493,29.145 117.521,25.935 119.549,23.438 121.577,22.455 123.606,19.147 125.634,17.915 127.662,18.914 129.69,19.59 131.718,20.314 133.746,21.979 135.775,23.614 137.803,26.861 139.831,26.169 141.859,26.946 143.887,24.173 145.915,24.879 147.944,22.436 149.972,21.076 152,21.493" fill="none" stroke="#111111" stroke-width="1.8" stroke-linecap="round" stroke-linejoin="round"/>
</svg>
