<svg xmlns="http://www.w3.org/2000/svg" width="160" height="48" viewBox="0 0 160 48" role="img" aria-label="Waveform 99 Twingle Pad">
  <defs>
    <filter id="glow">
      <feGaussianBlur stdDeviation="1.5" result="coloredBlur"/>
      <feMerge>
        <feMergeNode in="coloredBlur"/>
        <feMergeNode in="SourceGraphic"/>
      </feMerge>
    </filter>
  </defs>
  <rect x="0" y="0" width="160" height="48" fill="#1f2025"/>
  <polyline points="8,21.404 10.028,21.225 12.056,20.182 14.085,19.902 16.113,19.904 18.141,19.456 20.169,18.613 22.197,18.76 24.225,19.715 26.254,20.452 28.282,20.732 30.31,21.123 32.338,22.026 34.366,21.859 36.394,21.817 38.423,21.511 40.451,20.757 42.479,20.855 44.507,20.406 46.535,19.829 48.563,19.637 50.592,20.435 52.62,21.257 54.648,21.259 56.676,22.206 58.704,22.459 60.732,23.556 62.761,22.328 64.789,22.468 66.817,22.145 68.845,21.529 70.873,21.253 72.901,20.932 74.93,20.758 76.958,21.605 78.986,21.878 81.014,22.656 83.042,22.791 85.07,23.869 87.099,23.464 89.127,23.446 91.155,22.601 93.183,22.259 95.211,21.813 97.239,20.911 99.268,20.714 101.296,21.391 103.324,21.922 105.352,22.264 107.38,22.992 109.408,23.839 111.437,24.29 113.465,24.517 115.493,23.995 117.521,23.614 119.549,23.389 121.577,22.771 123.606,22.611 125.634,21.698 127.662,21.946 129.69,22.747 131.718,23.55 133.746,23.567 135.775,24.23 137.803,25.213 139.831,24.742 141.859,24.709 143.887,24.502 145.915,23.806 147.944,23.333 149.972,23.127 152,22.214" fill="none" stroke="#1fdcf5" stroke-width="1.8" stroke-linecap="round" stroke-linejoin="round" filter="url(#glow)"/>
</svg>
