<svg xmlns="http://www.w3.org/2000/svg" width="160" height="48" viewBox="0 0 160 48" role="img" aria-label="Waveform 100 Dome 9">
  <defs>
    <filter id="glow">
      <feGaussianBlur stdDeviation="1.5" result="coloredBlur"/>
      <feMerge>
        <feMergeNode in="coloredBlur"/>
        <feMergeNode in="SourceGraphic"/>
      </feMerge>
    </filter>
  </defs>
  <rect x="0" y="0" width="160" height="48" fill="#1f2025"/>
  <polyline points="8,26.184 10.028,25.575 12.056,25.593 14.085,24.685 16.113,24.191 18.141,24.061 20.169,23.111 22.197,22.524 24.225,22.011 26.254,21.642 28.282,21.659 30.31,20.491 32.338,20.168 34.366,20.178 36.394,19.718 38.423,18.739 40.451,18.572 42.479,18.194 44.507,17.597 46.535,16.942 48.563,16.775 50.592,16.452 52.62,15.835 54.648,15.559 56.676,15.305 58.704,15.285 60.732,15.12 62.761,14.678 64.789,14.702 66.817,14.14 68.845,14.299 70.873,14.415 72.901,13.842 74.93,13.624 76.958,14.372 78.986,14.109 81.014,14.19 83.042,14.204 85.07,14.908 87.099,14.936 89.127,15.102 91.155,15.488 93.183,15.934 95.211,15.622 97.239,16.351 99.268,16.728 101.296,16.778 103.324,16.827 105.352,17.935 107.38,17.964 109.408,18.247 111.437,18.455 113.465,18.709 115.493,19.558 117.521,19.611 119.549,20.345 121.577,20.777 123.606,21.197 125.634,21.363 127.662,21.43 129.69,22.262 131.718,22.044 133.746,22.365 135.775,23.438 137.803,23.09 139.831,24.156 141.859,24.269 143.887,24.263 145.915,24.708 147.944,24.62 149.972,25.25 152,25.483" fill="none" stroke="#1fdcf5" stroke-width="1.8" stroke-linecap="round" stroke-linejoin="round" filter="url(#glow)"/>
</svg>
