<svg xmlns="http://www.w3.org/2000/svg" width="160" height="48" viewBox="0 0 160 48" role="img" aria-label="Waveform 101 Thin 4">
  <rect x="0" y="0" width="160" height="48" fill="#ffffff"/>
  <polyline points="8,22.731 10.028,22.332 12.056,21.714 14.085,21.479 16.113,21.826 18.141,21.486 20.169,20.931 22.197,20.94 24.225,21.935 26.254,21.674 28.282,22.222 30.31,22.26 32.338,22.376 34.366,22.998 36.394,22.996 38.423,22.358 40.451,22.214 42.479,21.804 44.507,21.781 46.535,21.835 48.563,22.022 50.592,22.208 52.62,22.519 54.648,22.358 56.676,22.924 58.704,23.678 60.732,23.315 62.761,23.519 64.789,23.092 66.817,22.738 68.845,22.311 70.873,21.997 72.901,22.063 74.93,22.392 76.958,22.445 78.986,22.87 81.014,23.444 83.042,23.35 85.07,23.83 87.099,24.177 89.127,23.744 91.155,23.647 93.183,22.909 95.211,22.717 97.239,22.474 99.268,21.983 101.296,22.606 103.324,23.188 105.352,23.454 107.38,23.206 109.408,23.62 111.437,24.133 113.465,24.485 115.493,23.993 117.521,23.682 119.549,23.884 121.577,23.012 123.606,23.129 125.634,22.784 127.662,23.115 129.69,23.129 131.718,24.025 133.746,24.198 135.775,24.515 137.803,24.52 139.831,24.786 141.859,24.191 143.887,24.109 145.915,24.245 147.944,23.996 149.972,23.79 152,22.868" fill="none" stroke="#111111" stroke-width="1.8" stroke-linecap="round" stroke-linejoin="round"/>
</svg>
