<svg xmlns="http://www.w3.org/2000/svg" width="160" height="48" viewBox="0 0 160 48" role="img" aria-label="Waveform 102 Thin 5">
  <rect x="0" y="0" width="160" height="48" fill="#ffffff"/>
  <polyline points="8,22.827 10.028,22.629 12.056,22.344 14.085,21.804 16.113,21.77 18.141,21.068 20.169,21.354 22.197,21.434 24.225,21.584 26.254,22.231 28.282,21.797 30.31,22.798 32.338,22.802 34.366,23.387 36.394,22.794 38.423,22.476 40.451,22.087 42.479,21.852 44.507,22.201 46.535,21.369 48.563,22.061 50.592,22.284 52.62,22.182 54.648,22.526 56.676,22.871 58.704,23.614 60.732,23.741 62.761,23.613 64.789,22.742 66.817,22.451 68.845,22.683 70.873,22.722 72.901,22.416 74.93,22.458 76.958,22.34 78.986,22.589 81.014,23.426 83.042,23.581 85.07,23.963 87.099,24.097 89.127,23.664 91.155,23.656 93.183,22.724 95.211,22.499 97.239,22.661 99.268,22.458 101.296,22.539 103.324,22.577 105.352,23.267 107.38,23.428 109.408,24.051 111.437,24.336 113.465,24.096 115.493,23.954 117.521,23.984 119.549,23.791 121.577,23.552 123.606,23.437 125.634,22.431 127.662,22.714 129.69,23.725 131.718,23.415 133.746,23.867 135.775,24.349 137.803,24.17 139.831,24.802 141.859,24.198 143.887,24.461 145.915,23.863 147.944,23.539 149.972,23.724 152,22.818" fill="none" stroke="#111111" stroke-width="1.8" stroke-linecap="round" stroke-linejoin="round"/>
</svg>
