<svg xmlns="http://www.w3.org/2000/svg" width="160" height="48" viewBox="0 0 160 48" role="img" aria-label="Waveform 103 Trashy Wave 8">
  <rect x="0" y="0" width="160" height="48" fill="#ffffff"/>
  <polyline points="8,32.717 10.028,29.727 12.056,26.023 14.085,24.757 16.113,22.963 18.141,20.409 20.169,18.575 22.197,18.813 24.225,20.489 26.254,23.042 28.282,23.962 30.31,25.581 32.338,28.63 34.366,28.466 36.394,28.635 38.423,26.317 40.451,21.583 42.479,20.586 44.507,18.195 46.535,17.61 48.563,17.223 50.592,18.549 52.62,22.808 54.648,25.11 56.676,25.277 58.704,27.667 60.732,31.826 62.761,28.557 64.789,28.178 66.817,24.235 68.845,24.323 70.873,21.891 72.901,18.909 74.93,20.917 76.958,20.332 78.986,22.919 81.014,23.759 83.042,26.977 85.07,26.93 87.099,27.25 89.127,25.763 91.155,23.742 93.183,22.804 95.211,20.845 97.239,19.891 99.268,17.726 101.296,19.736 103.324,22.214 105.352,24.714 107.38,25.599 109.408,30.578 111.437,32.716 113.465,31.167 115.493,29.894 117.521,28.467 119.549,23.528 121.577,22.777 123.606,19.143 125.634,17.937 127.662,18.826 129.69,21.19 131.718,20.684 133.746,22.796 135.775,25.59 137.803,26.864 139.831,26.753 141.859,26.066 143.887,24.936 145.915,23.756 147.944,21.933 149.972,22.54 152,20.494" fill="none" stroke="#111111" stroke-width="1.8" stroke-linecap="round" stroke-linejoin="round"/>
</svg>
