<svg xmlns="http://www.w3.org/2000/svg" width="160" height="48" viewBox="0 0 160 48" role="img" aria-label="Waveform 104 Trashy Wave 9">
  <defs>
    <filter id="glow">
      <feGaussianBlur stdDeviation="1.5" result="coloredBlur"/>
      <feMerge>
        <feMergeNode in="coloredBlur"/>
        <feMergeNode in="SourceGraphic"/>
      </feMerge>
    </filter>
  </defs>
  <rect x="0" y="0" width="160" height="48" fill="#1f2025"/>
  <polyline points="8,31.878 10.028,29.728 12.056,27.624 14.085,24.606 16.113,23.159 18.141,21.58 20.169,19.269 22.197,18.792 24.225,21.041 26.254,21.332 28.282,24.698 30.31,25.228 32.338,29.397 34.366,28.728 36.394,27.745 38.423,24.833 40.451,24.053 42.479,19.818 44.507,18.028 46.535,14.984 48.563,16.018 50.592,18.778 52.62,21.726 54.648,23.564 56.676,27.276 58.704,28.233 60.732,31.362 62.761,27.509 64.789,26.125 66.817,24.226 68.845,24.315 70.873,22.744 72.901,18.745 74.93,20.214 76.958,22.757 78.986,22.793 81.014,23.529 83.042,25.533 85.07,28.12 87.099,29.088 89.127,27.543 91.155,24.694 93.183,22.193 95.211,22.191 97.239,18.516 99.268,18.2 101.296,20.996 103.324,22.555 105.352,23.346 107.38,25.956 109.408,30.123 111.437,31.995 113.465,30.782 115.493,29.987 117.521,27.735 119.549,25.672 121.577,21.139 123.606,20.285 125.634,16.122 127.662,18.184 129.69,20.098 131.718,20.241 133.746,22.398 135.775,25.938 137.803,27.129 139.831,25.901 141.859,25.361 143.887,24.75 145.915,24.952 147.944,23.086 149.972,23.104 152,21.88" fill="none" stroke="#1fdcf5" stroke-width="1.8" stroke-linecap="round" stroke-linejoin="round" filter="url(#glow)"/>
</svg>
