<svg xmlns="http://www.w3.org/2000/svg" width="160" height="48" viewBox="0 0 160 48" role="img" aria-label="Waveform 105 Trashy Wave 10">
  <defs>
    <filter id="glow">
      <feGaussianBlur stdDeviation="1.5" result="coloredBlur"/>
      <feMerge>
        <feMergeNode in="coloredBlur"/>
        <feMergeNode in="SourceGraphic"/>
      </feMerge>
    </filter>
  </defs>
  <rect x="0" y="0" width="160" height="48" fill="#1f2025"/>
  <polyline points="8,30.879 10.028,30.446 12.056,26.157 14.085,25.633 16.113,23.164 18.141,20.596 20.169,18.41 22.197,18.188 24.225,21.015 26.254,23.036 28.282,22.817 30.31,26.777 32.338,28.641 34.366,28.368 36.394,26.463 38.423,24.569 40.451,21.459 42.479,19.335 44.507,17.864 46.535,16.738 48.563,16.278 50.592,20.156 52.62,21.002 54.648,23.388 56.676,26.175 58.704,28.774 60.732,30.512 62.761,29.199 64.789,25.758 66.817,25.622 68.845,24.397 70.873,20.505 72.901,19.018 74.93,18.89 76.958,20.827 78.986,22.985 81.014,24.146 83.042,26.214 85.07,27.842 87.099,29.06 89.127,27.428 91.155,25.686 93.183,23.314 95.211,22.296 97.239,19.532 99.268,17.062 101.296,19.959 103.324,21.458 105.352,23.081 107.38,27.427 109.408,30.057 111.437,31.352 113.465,32.612 115.493,30.016 117.521,26.364 119.549,23.204 121.577,20.717 123.606,18.379 125.634,17.422 127.662,19.209 129.69,18.53 131.718,21.631 133.746,24.032 135.775,25.039 137.803,26.617 139.831,28.246 141.859,25.133 143.887,25.858 145.915,24.211 147.944,23.507 149.972,22.991 152,20.222" fill="none" stroke="#1fdcf5" stroke-width="1.8" stroke-linecap="round" stroke-linejoin="round" filter="url(#glow)"/>
</svg>
