<svg xmlns="http://www.w3.org/2000/svg" width="160" height="48" viewBox="0 0 160 48" role="img" aria-label="Waveform 106 Trashy Wave 11">
  <rect x="0" y="0" width="160" height="48" fill="#ffffff"/>
  <polyline points="8,33.148 10.028,28.494 12.056,27.879 14.085,26.328 16.113,24.331 18.141,19.565 20.169,19.754 22.197,17.929 24.225,20.827 26.254,23.49 28.282,23.32 30.31,27.217 32.338,28.498 34.366,28.027 36.394,26.61 38.423,24.365 40.451,22.717 42.479,20.59 44.507,18.7 46.535,17.534 48.563,16.808 50.592,18.691 52.62,21.593 54.648,24.516 56.676,27.736 58.704,29.425 60.732,30.834 62.761,28.714 64.789,25.615 66.817,26.43 68.845,22.779 70.873,22.193 72.901,20.936 74.93,18.854 76.958,23.066 78.986,24.156 81.014,25.668 83.042,24.823 85.07,27.953 87.099,27.092 89.127,25.163 91.155,25.182 93.183,23.61 95.211,20.677 97.239,18.576 99.268,17.018 101.296,20.908 103.324,21.739 105.352,25.129 107.38,25.888 109.408,29.794 111.437,30.3 113.465,31.896 115.493,28.165 117.521,26.199 119.549,25.029 121.577,20.916 123.606,18.437 125.634,16.161 127.662,18.737 129.69,19.83 131.718,21.847 133.746,23.77 135.775,25.237 137.803,25.778 139.831,27.012 141.859,24.671 143.887,25.299 145.915,22.903 147.944,24.357 149.972,22.381 152,22.331" fill="none" stroke="#111111" stroke-width="1.8" stroke-linecap="round" stroke-linejoin="round"/>
</svg>
