<svg xmlns="http://www.w3.org/2000/svg" width="160" height="48" viewBox="0 0 160 48" role="img" aria-label="Waveform 107 Trashy Wave 12">
  <rect x="0" y="0" width="160" height="48" fill="#ffffff"/>
  <polyline points="8,31.443 10.028,29.287 12.056,28.674 14.085,25.208 16.113,23.426 18.141,20.106 20.169,19.978 22.197,17.944 24.225,20.891 26.254,21.752 28.282,25.586 30.31,25.701 32.338,28.002 34.366,28.044 36.394,27.589 38.423,24.092 40.451,22.882 42.479,19.851 44.507,17.119 46.535,15.199 48.563,17.679 50.592,18.759 52.62,20.637 54.648,24.803 56.676,26.232 58.704,28.98 60.732,28.907 62.761,27.489 64.789,28.209 66.817,24.117 68.845,22.166 70.873,22.282 72.901,18.48 74.93,19.522 76.958,22.624 78.986,22.878 81.014,25.051 83.042,24.65 85.07,27.518 87.099,26.325 89.127,26.273 91.155,25.961 93.183,22.044 95.211,22.26 97.239,18.982 99.268,17.363 101.296,19.826 103.324,21.025 105.352,23.5 107.38,25.967 109.408,29.934 111.437,32.15 113.465,33.007 115.493,30.445 117.521,28.004 119.549,25.468 121.577,22.513 123.606,19.938 125.634,17.098 127.662,19.423 129.69,19.913 131.718,21.463 133.746,24.249 135.775,26.209 137.803,27.713 139.831,26.367 141.859,26.048 143.887,23.994 145.915,24.42 147.944,21.547 149.972,20.984 152,22.369" fill="none" stroke="#111111" stroke-width="1.8" stroke-linecap="round" stroke-linejoin="round"/>
</svg>
