<svg xmlns="http://www.w3.org/2000/svg" width="160" height="48" viewBox="0 0 160 48" role="img" aria-label="Waveform 108 Trashy Wave 13">
  <rect x="0" y="0" width="160" height="48" fill="#ffffff"/>
  <polyline points="8,31.498 10.028,29.937 12.056,26.522 14.085,26.224 16.113,23.466 18.141,19.601 20.169,19.414 22.197,19.323 24.225,21.544 26.254,23.433 28.282,24.325 30.31,27.43 32.338,26.775 34.366,29.768 36.394,28.495 38.423,25.442 40.451,23.903 42.479,20.976 44.507,17.956 46.535,16.286 48.563,17.678 50.592,18.88 52.62,20.855 54.648,23.35 56.676,26.517 58.704,27.371 60.732,29.102 62.761,28.911 64.789,25.816 66.817,24.332 68.845,22.035 70.873,20.715 72.901,19.195 74.93,20.025 76.958,20.312 78.986,22.78 81.014,23.438 83.042,26.724 85.07,28.477 87.099,28.138 89.127,25.51 91.155,23.827 93.183,22.309 95.211,22.412 97.239,21.252 99.268,18.943 101.296,21.285 103.324,21.804 105.352,24.346 107.38,25.457 109.408,28.32 111.437,32.929 113.465,31.117 115.493,30.818 117.521,27.986 119.549,23.123 121.577,20.705 123.606,20.789 125.634,16.086 127.662,18.205 129.69,20.146 131.718,20.281 133.746,23.446 135.775,23.681 137.803,26.249 139.831,26.99 141.859,25.829 143.887,24.455 145.915,23.006 147.944,24.285 149.972,21.6 152,20.117" fill="none" stroke="#111111" stroke-width="1.8" stroke-linecap="round" stroke-linejoin="round"/>
</svg>
