<svg xmlns="http://www.w3.org/2000/svg" width="160" height="48" viewBox="0 0 160 48" role="img" aria-label="Waveform 109 Spark Wave 12">
  <rect x="0" y="0" width="160" height="48" fill="#ffffff"/>
  <polyline points="8,25.373 10.028,24.687 12.056,24.885 14.085,24.518 16.113,24.072 18.141,23.506 20.169,23.11 22.197,23.128 24.225,23.08 26.254,23.55 28.282,23.058 30.31,23.729 32.338,23.26 34.366,23.7 36.394,22.927 38.423,23.048 40.451,22.237 42.479,22.604 44.507,21.595 46.535,21.717 48.563,21.748 50.592,22.199 52.62,22.878 54.648,23.547 56.676,23.629 58.704,23.936 60.732,24.461 62.761,24.434 64.789,23.692 66.817,23.288 68.845,22.303 70.873,22.435 72.901,21.908 74.93,21.632 76.958,22.117 78.986,22.982 81.014,23.219 83.042,23.36 85.07,23.37 87.099,23.7 89.127,23.728 91.155,23.115 93.183,22.212 95.211,21.486 97.239,21.58 99.268,20.779 101.296,21.215 103.324,22.144 105.352,22.089 107.38,23.233 109.408,24.048 111.437,24.236 113.465,24.224 115.493,24.166 117.521,24.131 119.549,23.609 121.577,22.849 123.606,23.168 125.634,22.2 127.662,22.492 129.69,22.881 131.718,23.106 133.746,22.722 135.775,23.366 137.803,23.045 139.831,23.037 141.859,23.377 143.887,22.342 145.915,21.935 147.944,22.177 149.972,21.795 152,20.859" fill="none" stroke="#111111" stroke-width="1.8" stroke-linecap="round" stroke-linejoin="round"/>
</svg>
