<svg xmlns="http://www.w3.org/2000/svg" width="160" height="48" viewBox="0 0 160 48" role="img" aria-label="Waveform 110 Spark Wave 13">
  <rect x="0" y="0" width="160" height="48" fill="#ffffff"/>
  <polyline points="8,24.816 10.028,25.019 12.056,24.197 14.085,23.989 16.113,24.158 18.141,23.305 20.169,23.521 22.197,23.366 24.225,23.274 26.254,23.577 28.282,23.16 30.31,23.563 32.338,23.324 34.366,23.683 36.394,23.478 38.423,23.24 40.451,22.434 42.479,22.433 44.507,21.725 46.535,21.065 48.563,21.795 50.592,21.933 52.62,22.257 54.648,22.932 56.676,23.846 58.704,23.78 60.732,24.229 62.761,23.876 64.789,23.848 66.817,23.471 68.845,22.401 70.873,22.205 72.901,21.86 74.93,21.638 76.958,21.858 78.986,22.416 81.014,23.36 83.042,22.99 85.07,23.857 87.099,23.976 89.127,23.082 91.155,23.211 93.183,22.128 95.211,21.931 97.239,21.485 99.268,21.054 101.296,21.056 103.324,21.705 105.352,22.293 107.38,22.885 109.408,23.356 111.437,24.548 113.465,24.249 115.493,23.939 117.521,23.679 119.549,23.14 121.577,23.005 123.606,22.972 125.634,22.741 127.662,22.872 129.69,22.79 131.718,22.968 133.746,22.838 135.775,23.523 137.803,23.796 139.831,23.103 141.859,23.193 143.887,22.596 145.915,22.232 147.944,22.091 149.972,21.468 152,21.214" fill="none" stroke="#111111" stroke-width="1.8" stroke-linecap="round" stroke-linejoin="round"/>
</svg>
