<svg xmlns="http://www.w3.org/2000/svg" width="160" height="48" viewBox="0 0 160 48" role="img" aria-label="Waveform 111 Trashy Wave 14">
  <defs>
    <filter id="glow">
      <feGaussianBlur stdDeviation="1.5" result="coloredBlur"/>
      <feMerge>
        <feMergeNode in="coloredBlur"/>
        <feMergeNode in="SourceGraphic"/>
      </feMerge>
    </filter>
  </defs>
  <rect x="0" y="0" width="160" height="48" fill="#1f2025"/>
  <polyline points="8,32.363 10.028,29.367 12.056,28.608 14.085,25.073 16.113,24.374 18.141,21.798 20.169,19.158 22.197,18.257 24.225,20.531 26.254,23.475 28.282,24.147 30.31,25.225 32.338,28.654 34.366,30.32 36.394,26.689 38.423,24.228 40.451,23.513 42.479,21.269 44.507,17.003 46.535,16.853 48.563,16.368 50.592,17.806 52.62,20.726 54.648,22.65 56.676,26.693 58.704,28.425 60.732,31.662 62.761,28.078 64.789,26.485 66.817,23.72 68.845,23.85 70.873,22.164 72.901,19.592 74.93,19.767 76.958,21.992 78.986,24.152 81.014,25.14 83.042,25.839 85.07,25.994 87.099,26.633 89.127,27.45 91.155,23.148 93.183,21.606 95.211,22.305 97.239,19.53 99.268,17.969 101.296,19.133 103.324,21.479 105.352,25.075 107.38,26.467 109.408,28.165 111.437,30.617 113.465,31.166 115.493,28.619 117.521,26.412 119.549,24.894 121.577,21.269 123.606,20.17 125.634,17.418 127.662,17.956 129.69,19.889 131.718,20.814 133.746,21.948 135.775,24.921 137.803,27.113 139.831,27.868 141.859,26.023 143.887,24.11 145.915,22.781 147.944,22.673 149.972,21.323 152,22.043" fill="none" stroke="#1fdcf5" stroke-width="1.8" stroke-linecap="round" stroke-linejoin="round" filter="url(#glow)"/>
</svg>
