<svg xmlns="http://www.w3.org/2000/svg" width="160" height="48" viewBox="0 0 160 48" role="img" aria-label="Waveform 112 Trashy Wave 15">
  <rect x="0" y="0" width="160" height="48" fill="#ffffff"/>
  <polyline points="8,31.539 10.028,29.076 12.056,27.562 14.085,26.097 16.113,23.041 18.141,20.548 20.169,19.68 22.197,19.248 24.225,20.694 26.254,22.448 28.282,22.961 30.31,26.516 32.338,28.912 34.366,29.76 36.394,28.674 38.423,26.22 40.451,23.365 42.479,21.633 44.507,17.53 46.535,15.023 48.563,16.427 50.592,20.558 52.62,21.931 54.648,23.018 56.676,26.3 58.704,27.882 60.732,29.428 62.761,27.443 64.789,28.15 66.817,24.724 68.845,22.911 70.873,21.329 72.901,20.75 74.93,21.099 76.958,22.696 78.986,24.4 81.014,25.067 83.042,27.142 85.07,26.881 87.099,27.281 89.127,24.873 91.155,25.851 93.183,21.816 95.211,20.834 97.239,20.33 99.268,18.628 101.296,20.188 103.324,20.881 105.352,23.233 107.38,26.51 109.408,28.561 111.437,31.811 113.465,30.953 115.493,29.994 117.521,26.39 119.549,23.86 121.577,23.43 123.606,20.333 125.634,16.547 127.662,19.539 129.69,20.172 131.718,20.226 133.746,22.904 135.775,24.174 137.803,26.197 139.831,27.694 141.859,26.4 143.887,25.756 145.915,24.499 147.944,22.089 149.972,22.604 152,20.587" fill="none" stroke="#111111" stroke-width="1.8" stroke-linecap="round" stroke-linejoin="round"/>
</svg>
