<svg xmlns="http://www.w3.org/2000/svg" width="160" height="48" viewBox="0 0 160 48" role="img" aria-label="Waveform 113 Rainbow">
  <defs>
    <filter id="glow">
      <feGaussianBlur stdDeviation="1.5" result="coloredBlur"/>
      <feMerge>
        <feMergeNode in="coloredBlur"/>
        <feMergeNode in="SourceGraphic"/>
      </feMerge>
    </filter>
  </defs>
  <rect x="0" y="0" width="160" height="48" fill="#1f2025"/>
  <polyline points="8,31.852 10.028,29.665 12.056,27.027 14.085,25.355 16.113,23.096 18.141,20.852 20.169,18.877 22.197,18.636 24.225,20.899 26.254,22.161 28.282,24.11 30.31,26.341 32.338,28.034 34.366,29.393 36.394,27.582 38.423,25.121 40.451,23.132 42.479,20.663 44.507,18.078 46.535,16.073 48.563,16.507 50.592,19.107 52.62,21.424 54.648,23.987 56.676,26.24 58.704,28.375 60.732,30.363 62.761,28.734 64.789,26.98 66.817,24.928 68.845,23.283 70.873,21.505 72.901,19.91 74.93,19.968 76.958,21.697 78.986,23.104 81.014,24.649 83.042,26.127 85.07,27.561 87.099,27.888 89.127,26.298 91.155,24.392 93.183,23.032 95.211,21.319 97.239,19.542 99.268,18.468 101.296,20.23 103.324,22.061 105.352,24.444 107.38,26.542 109.408,29.223 111.437,31.602 113.465,31.627 115.493,29.91 117.521,26.906 119.549,24.39 121.577,22.168 123.606,19.316 125.634,16.985 127.662,18.134 129.69,19.527 131.718,21.457 133.746,23.014 135.775,25.056 137.803,25.994 139.831,26.708 141.859,26.04 143.887,25.249 145.915,24.288 147.944,23.315 149.972,21.76 152,20.857" fill="none" stroke="#1fdcf5" stroke-width="1.8" stroke-linecap="round" stroke-linejoin="round" filter="url(#glow)"/>
</svg>
