<svg xmlns="http://www.w3.org/2000/svg" width="160" height="48" viewBox="0 0 160 48" role="img" aria-label="Waveform 114 Soft Dome 8">
  <rect x="0" y="0" width="160" height="48" fill="#ffffff"/>
  <polyline points="8,25.532 10.028,25.2 12.056,25.115 14.085,24.626 16.113,24.452 18.141,23.612 20.169,23.613 22.197,23.181 24.225,22.44 26.254,22.248 28.282,22.121 30.31,21.662 32.338,20.966 34.366,20.967 36.394,20.399 38.423,20.141 40.451,19.97 42.479,19.407 44.507,19.041 46.535,18.57 48.563,18.734 50.592,18.229 52.62,18.308 54.648,17.74 56.676,17.328 58.704,17.363 60.732,16.89 62.761,17.222 64.789,16.827 66.817,16.957 68.845,16.69 70.873,16.59 72.901,16.579 74.93,16.485 76.958,16.7 78.986,16.397 81.014,16.659 83.042,16.661 85.07,17.103 87.099,17.016 89.127,17.314 91.155,17.432 93.183,17.429 95.211,17.831 97.239,18.102 99.268,18.05 101.296,18.896 103.324,18.998 105.352,19.289 107.38,19.497 109.408,19.756 111.437,19.945 113.465,20.596 115.493,20.777 117.521,20.832 119.549,21.011 121.577,21.713 123.606,21.635 125.634,22.127 127.662,22.229 129.69,22.368 131.718,22.477 133.746,23.272 135.775,23.09 137.803,23.341 139.831,24.15 141.859,24.116 143.887,23.982 145.915,24.454 147.944,24.613 149.972,25.209 152,25.414" fill="none" stroke="#111111" stroke-width="1.8" stroke-linecap="round" stroke-linejoin="round"/>
</svg>
