<svg xmlns="http://www.w3.org/2000/svg" width="160" height="48" viewBox="0 0 160 48" role="img" aria-label="Waveform 115 Trashy Wave 15">
  <defs>
    <filter id="glow">
      <feGaussianBlur stdDeviation="1.5" result="coloredBlur"/>
      <feMerge>
        <feMergeNode in="coloredBlur"/>
        <feMergeNode in="SourceGraphic"/>
      </feMerge>
    </filter>
  </defs>
  <rect x="0" y="0" width="160" height="48" fill="#1f2025"/>
  <polyline points="8,32.822 10.028,28.24 12.056,27.98 14.085,24.968 16.113,22.032 18.141,21.43 20.169,19.031 22.197,18.115 24.225,20.12 26.254,21.748 28.282,23.211 30.31,26.276 32.338,29.007 34.366,29.175 36.394,28.733 38.423,26.109 40.451,23.324 42.479,19.927 44.507,19.008 46.535,15.914 48.563,17.022 50.592,20.654 52.62,20.372 54.648,24.477 56.676,26.07 58.704,28.303 60.732,31.562 62.761,29.971 64.789,26.059 66.817,24.37 68.845,22.542 70.873,22.232 72.901,18.256 74.93,21.635 76.958,21.307 78.986,22.337 81.014,25.233 83.042,27.159 85.07,26.505 87.099,26.715 89.127,27.582 91.155,24.347 93.183,22.564 95.211,22.676 97.239,19.835 99.268,19.708 101.296,21.181 103.324,21.177 105.352,23.44 107.38,26.301 109.408,28.371 111.437,30.778 113.465,33.489 115.493,29.743 117.521,26.449 119.549,24.407 121.577,21.903 123.606,19.98 125.634,16.571 127.662,19.339 129.69,19.888 131.718,22.29 133.746,23.413 135.775,25.038 137.803,27.534 139.831,27.639 141.859,24.802 143.887,25.137 145.915,24.285 147.944,23.651 149.972,21.431 152,21.208" fill="none" stroke="#1fdcf5" stroke-width="1.8" stroke-linecap="round" stroke-linejoin="round" filter="url(#glow)"/>
</svg>
