<svg xmlns="http://www.w3.org/2000/svg" width="160" height="48" viewBox="0 0 160 48" role="img" aria-label="Waveform 116 Soothing 1">
  <rect x="0" y="0" width="160" height="48" fill="#ffffff"/>
  <polyline points="8,24.979 10.028,24.981 12.056,24.438 14.085,24.642 16.113,24.358 18.141,23.511 20.169,23.854 22.197,23.696 24.225,22.76 26.254,22.406 28.282,22.712 30.31,21.864 32.338,22.042 34.366,21.887 36.394,21.604 38.423,21.517 40.451,21.155 42.479,20.493 44.507,20.34 46.535,20.36 48.563,20.031 50.592,19.971 52.62,19.204 54.648,19.617 56.676,19.218 58.704,18.951 60.732,18.989 62.761,19.241 64.789,18.987 66.817,18.876 68.845,18.262 70.873,18.766 72.901,18.668 74.93,18.79 76.958,18.3 78.986,18.625 81.014,18.647 83.042,18.454 85.07,18.774 87.099,19.045 89.127,18.918 91.155,19.228 93.183,19.451 95.211,19.818 97.239,19.631 99.268,19.725 101.296,20.431 103.324,20.224 105.352,20.241 107.38,20.798 109.408,20.858 111.437,21.414 113.465,21.485 115.493,21.698 117.521,21.54 119.549,21.949 121.577,22.33 123.606,22.628 125.634,22.202 127.662,22.702 129.69,22.8 131.718,23.153 133.746,22.917 135.775,23.131 137.803,23.511 139.831,23.716 141.859,24.135 143.887,24.551 145.915,24.108 147.944,24.389 149.972,24.884 152,24.928" fill="none" stroke="#111111" stroke-width="1.8" stroke-linecap="round" stroke-linejoin="round"/>
</svg>
