<svg xmlns="http://www.w3.org/2000/svg" width="160" height="48" viewBox="0 0 160 48" role="img" aria-label="Waveform 117 Soothing 2">
  <rect x="0" y="0" width="160" height="48" fill="#ffffff"/>
  <polyline points="8,25.643 10.028,24.778 12.056,24.546 14.085,24.034 16.113,24.341 18.141,23.747 20.169,23.509 22.197,23.273 24.225,22.775 26.254,22.71 28.282,22.887 30.31,22.227 32.338,22.341 34.366,21.53 36.394,21.632 38.423,21.252 40.451,20.932 42.479,20.511 44.507,20.451 46.535,19.804 48.563,19.609 50.592,19.883 52.62,19.866 54.648,19.063 56.676,19.045 58.704,19.006 60.732,19.264 62.761,19.079 64.789,18.525 66.817,18.739 68.845,18.676 70.873,18.611 72.901,18.07 74.93,18.445 76.958,18.315 78.986,18.874 81.014,18.708 83.042,19.188 85.07,18.797 87.099,18.881 89.127,18.72 91.155,19.196 93.183,19.238 95.211,19.896 97.239,19.867 99.268,20.258 101.296,20.422 103.324,19.921 105.352,20.58 107.38,20.647 109.408,21.232 111.437,21.387 113.465,21.315 115.493,21.406 117.521,21.714 119.549,22.013 121.577,21.688 123.606,22.56 125.634,22.338 127.662,22.54 129.69,22.77 131.718,22.829 133.746,23.546 135.775,23.52 137.803,23.899 139.831,24.033 141.859,24.064 143.887,24.553 145.915,24.158 147.944,24.77 149.972,24.895 152,24.926" fill="none" stroke="#111111" stroke-width="1.8" stroke-linecap="round" stroke-linejoin="round"/>
</svg>
