<svg xmlns="http://www.w3.org/2000/svg" width="160" height="48" viewBox="0 0 160 48" role="img" aria-label="Waveform 118 Space Wave">
  <defs>
    <filter id="glow">
      <feGaussianBlur stdDeviation="1.5" result="coloredBlur"/>
      <feMerge>
        <feMergeNode in="coloredBlur"/>
        <feMergeNode in="SourceGraphic"/>
      </feMerge>
    </filter>
  </defs>
  <rect x="0" y="0" width="160" height="48" fill="#1f2025"/>
  <polyline points="8,26.634 10.028,25.432 12.056,25.446 14.085,24.899 16.113,24.088 18.141,24.123 20.169,23.081 22.197,22.561 24.225,22.023 26.254,21.514 28.282,20.957 30.31,20.669 32.338,19.9 34.366,20.104 36.394,18.997 38.423,18.766 40.451,18.454 42.479,17.94 44.507,17.454 46.535,17.088 48.563,16.354 50.592,15.935 52.62,15.842 54.648,15.617 56.676,15.375 58.704,15.269 60.732,14.721 62.761,14.375 64.789,14.491 66.817,13.975 68.845,14.491 70.873,13.8 72.901,13.728 74.93,13.711 76.958,13.944 78.986,14.419 81.014,14.524 83.042,14.787 85.07,14.32 87.099,15.034 89.127,14.889 91.155,15.043 93.183,15.999 95.211,15.979 97.239,16.477 99.268,16.131 101.296,16.697 103.324,16.919 105.352,17.858 107.38,17.595 109.408,18.105 111.437,18.452 113.465,19.443 115.493,19.35 117.521,19.94 119.549,20.494 121.577,20.291 123.606,20.757 125.634,21.19 127.662,21.359 129.69,22.138 131.718,22.794 133.746,22.414 135.775,23.351 137.803,23.413 139.831,23.618 141.859,23.996 143.887,24.713 145.915,24.436 147.944,25.149 149.972,24.875 152,25.466" fill="none" stroke="#1fdcf5" stroke-width="1.8" stroke-linecap="round" stroke-linejoin="round" filter="url(#glow)"/>
</svg>
