<svg xmlns="http://www.w3.org/2000/svg" width="160" height="48" viewBox="0 0 160 48" role="img" aria-label="Waveform 119 5th Rasp">
  <rect x="0" y="0" width="160" height="48" fill="#ffffff"/>
  <polyline points="8,25.997 10.028,24.23 12.056,23.605 14.085,22.609 16.113,22.458 18.141,21.164 20.169,20.884 22.197,21.598 24.225,22.771 26.254,23.901 28.282,23.536 30.31,25.752 32.338,25.324 34.366,27.32 36.394,26.375 38.423,24.083 40.451,23.13 42.479,23.126 44.507,20.428 46.535,19.946 48.563,19.937 50.592,21.051 52.62,21.698 54.648,23.962 56.676,24.924 58.704,26.5 60.732,26.649 62.761,25.925 64.789,24.305 66.817,23.374 68.845,22.291 70.873,21.803 72.901,19.607 74.93,21.243 76.958,20.867 78.986,23.625 81.014,22.913 83.042,24.527 85.07,26.354 87.099,27.156 89.127,25.383 91.155,24.792 93.183,22.631 95.211,21.828 97.239,21.963 99.268,19.488 101.296,21.729 103.324,22.309 105.352,23.682 107.38,24.549 109.408,23.917 111.437,25.377 113.465,26.597 115.493,24.466 117.521,23.487 119.549,23.252 121.577,23.457 123.606,22.805 125.634,21.461 127.662,21.866 129.69,22.617 131.718,23.721 133.746,23.671 135.775,25.117 137.803,24.791 139.831,25.942 141.859,24.456 143.887,24.249 145.915,23.185 147.944,23.662 149.972,21.377 152,22.569" fill="none" stroke="#111111" stroke-width="1.8" stroke-linecap="round" stroke-linejoin="round"/>
</svg>
