<svg xmlns="http://www.w3.org/2000/svg" width="160" height="48" viewBox="0 0 160 48" role="img" aria-label="Waveform 120 Octave Wave">
  <rect x="0" y="0" width="160" height="48" fill="#ffffff"/>
  <polyline points="8,20.6 10.028,20.778 12.056,20.965 14.085,20.703 16.113,20.013 18.141,18.656 20.169,18.656 22.197,19.199 24.225,20.033 26.254,20.661 28.282,20.877 30.31,20.623 32.338,21.865 34.366,21.564 36.394,21.517 38.423,20.638 40.451,21.652 42.479,19.891 44.507,19.445 46.535,20.387 48.563,19.73 50.592,20.572 52.62,20.721 54.648,22.19 56.676,21.919 58.704,22.647 60.732,22.757 62.761,22.785 64.789,22.089 66.817,22.317 68.845,21.385 70.873,21.216 72.901,20.082 74.93,20.952 76.958,21.339 78.986,21.881 81.014,21.944 83.042,23.44 85.07,23.68 87.099,23.124 89.127,23.561 91.155,23.325 93.183,22.045 95.211,22.261 97.239,20.719 99.268,21.159 101.296,20.745 103.324,22.316 105.352,22.99 107.38,23.298 109.408,23.447 111.437,24.97 113.465,25.277 115.493,23.968 117.521,23.173 119.549,23.297 121.577,23.081 123.606,22.548 125.634,21.117 127.662,21.818 129.69,23.34 131.718,23.482 133.746,24.097 135.775,24.099 137.803,25.584 139.831,24.989 141.859,24.206 143.887,23.804 145.915,23.108 147.944,23.545 149.972,22.665 152,22.081" fill="none" stroke="#111111" stroke-width="1.8" stroke-linecap="round" stroke-linejoin="round"/>
</svg>
