<svg xmlns="http://www.w3.org/2000/svg" width="160" height="48" viewBox="0 0 160 48" role="img" aria-label="Waveform 121 Triangle + Overtones">
  <rect x="0" y="0" width="160" height="48" fill="#ffffff"/>
  <polyline points="8,35.65 10.028,33.846 12.056,33.836 14.085,32.648 16.113,32.306 18.141,31.075 20.169,30.735 22.197,29.118 24.225,29.12 26.254,28.347 28.282,26.098 30.31,25.945 32.338,24.585 34.366,23.793 36.394,22.888 38.423,22.446 40.451,21.593 42.479,20.939 44.507,18.668 46.535,18.192 48.563,17.753 50.592,16.431 52.62,16.461 54.648,14.89 56.676,14.339 58.704,13.467 60.732,13.368 62.761,13.948 64.789,14.869 66.817,15.254 68.845,16.083 70.873,17.211 72.901,18.197 74.93,20.093 76.958,20.607 78.986,21.749 81.014,22.658 83.042,22.533 85.07,24.118 87.099,24.866 89.127,26.134 91.155,26.389 93.183,28.165 95.211,28.841 97.239,29.933 99.268,30.289 101.296,31.548 103.324,31.664 105.352,33.68 107.38,33.418 109.408,34.042 111.437,35.983 113.465,35.781 115.493,34.059 117.521,33.896 119.549,33.073 121.577,31.799 123.606,30.917 125.634,29.614 127.662,28.474 129.69,27.647 131.718,26.583 133.746,26.42 135.775,24.77 137.803,24.93 139.831,24.043 141.859,22.978 143.887,22.308 145.915,20.465 147.944,20.184 149.972,18.999 152,19.05" fill="none" stroke="#111111" stroke-width="1.8" stroke-linecap="round" stroke-linejoin="round"/>
</svg>
