<svg xmlns="http://www.w3.org/2000/svg" width="160" height="48" viewBox="0 0 160 48" role="img" aria-label="Waveform 122 Pulse + Overtones">
  <rect x="0" y="0" width="160" height="48" fill="#ffffff"/>
  <polyline points="8,12.888 10.028,12.173 12.056,12.85 14.085,13.462 16.113,12.823 18.141,12.496 20.169,13.343 22.197,15.023 24.225,18.824 26.254,21.288 28.282,25.619 30.31,28.504 32.338,32.184 34.366,35.557 36.394,35.169 38.423,34.924 40.451,35.385 42.479,35.248 44.507,34.459 46.535,35.754 48.563,34.645 50.592,35.502 52.62,35.188 54.648,35.882 56.676,34.757 58.704,35.69 60.732,34.114 62.761,31.5 64.789,27.416 66.817,23.796 68.845,20.963 70.873,16.934 72.901,13.266 74.93,12.263 76.958,12.981 78.986,13.238 81.014,12.869 83.042,12.741 85.07,12.819 87.099,14.358 89.127,17.504 91.155,20.728 93.183,24.39 95.211,27.203 97.239,30.497 99.268,34.211 101.296,34.874 103.324,35.278 105.352,35.574 107.38,34.73 109.408,35.179 111.437,35.047 113.465,35.892 115.493,34.474 117.521,34.446 119.549,34.531 121.577,34.691 123.606,35.449 125.634,35.025 127.662,32.11 129.69,29.293 131.718,24.643 133.746,21.45 135.775,18.552 137.803,15.302 139.831,12.13 141.859,12.127 143.887,13.311 145.915,12.284 147.944,13.529 149.972,12.333 152,13.513" fill="none" stroke="#111111" stroke-width="1.8" stroke-linecap="round" stroke-linejoin="round"/>
</svg>
