<svg xmlns="http://www.w3.org/2000/svg" width="160" height="48" viewBox="0 0 160 48" role="img" aria-label="Waveform 123 Rising Square">
  <rect x="0" y="0" width="160" height="48" fill="#ffffff"/>
  <polyline points="8,15.971 10.028,15.729 12.056,15.8 14.085,15.79 16.113,15.759 18.141,15.566 20.169,15.368 22.197,15.526 24.225,15.184 26.254,14.623 28.282,15.031 30.31,15.179 32.338,14.506 34.366,14.666 36.394,14.935 38.423,14.61 40.451,14.76 42.479,14.524 44.507,14.601 46.535,14.091 48.563,16.463 50.592,19.71 52.62,22.702 54.648,26.494 56.676,29.63 58.704,33.541 60.732,36.298 62.761,36.231 64.789,35.589 66.817,35.989 68.845,35.219 70.873,35.668 72.901,35.505 74.93,35.689 76.958,35.323 78.986,35.344 81.014,35.254 83.042,35.142 85.07,34.587 87.099,35.109 89.127,34.59 91.155,34.908 93.183,34.837 95.211,34.46 97.239,34.392 99.268,34.478 101.296,31.775 103.324,28.345 105.352,24.788 107.38,21.117 109.408,17.653 111.437,13.46 113.465,11.105 115.493,11.459 117.521,11.17 119.549,11.143 121.577,11.061 123.606,11.325 125.634,10.897 127.662,10.507 129.69,10.715 131.718,10.477 133.746,10.801 135.775,10.493 137.803,10.624 139.831,10.778 141.859,10.302 143.887,10.6 145.915,10.494 147.944,10.257 149.972,9.903 152,9.604" fill="none" stroke="#111111" stroke-width="1.8" stroke-linecap="round" stroke-linejoin="round"/>
</svg>
