<svg xmlns="http://www.w3.org/2000/svg" width="160" height="48" viewBox="0 0 160 48" role="img" aria-label="Waveform 124 Soft Wave 8">
  <rect x="0" y="0" width="160" height="48" fill="#ffffff"/>
  <polyline points="8,21.85 10.028,21.904 12.056,21.302 14.085,21.253 16.113,21.117 18.141,20.442 20.169,20.547 22.197,20.527 24.225,20.412 26.254,20.781 28.282,21.275 30.31,21.799 32.338,22.462 34.366,22.832 36.394,22.623 38.423,21.847 40.451,21.698 42.479,21.164 44.507,20.927 46.535,20.926 48.563,20.883 50.592,21.384 52.62,21.877 54.648,22.098 56.676,22.494 58.704,23.414 60.732,23.227 62.761,22.888 64.789,22.582 66.817,22.08 68.845,22.165 70.873,22.002 72.901,21.11 74.93,21.478 76.958,21.798 78.986,22.355 81.014,22.59 83.042,23.265 85.07,23.699 87.099,23.976 89.127,23.226 91.155,23.314 93.183,22.849 95.211,22.561 97.239,21.955 99.268,21.888 101.296,21.611 103.324,22.232 105.352,22.528 107.38,23.376 109.408,23.505 111.437,24.358 113.465,24.594 115.493,24.125 117.521,24.003 119.549,23.508 121.577,23.17 123.606,22.598 125.634,22.616 127.662,22.698 129.69,23.153 131.718,23.703 133.746,24.03 135.775,24.041 137.803,24.437 139.831,24.526 141.859,24.245 143.887,24.115 145.915,23.963 147.944,23.736 149.972,23.431 152,23.208" fill="none" stroke="#111111" stroke-width="1.8" stroke-linecap="round" stroke-linejoin="round"/>
</svg>
