<svg xmlns="http://www.w3.org/2000/svg" width="160" height="48" viewBox="0 0 160 48" role="img" aria-label="Waveform 125 Cacophonous Buzz 3">
  <defs>
    <filter id="glow">
      <feGaussianBlur stdDeviation="1.5" result="coloredBlur"/>
      <feMerge>
        <feMergeNode in="coloredBlur"/>
        <feMergeNode in="SourceGraphic"/>
      </feMerge>
    </filter>
  </defs>
  <rect x="0" y="0" width="160" height="48" fill="#1f2025"/>
  <polyline points="8,25.902 10.028,25.088 12.056,23.643 14.085,22.71 16.113,21.806 18.141,21.34 20.169,20.455 22.197,19.86 24.225,22.495 26.254,23.337 28.282,23.56 30.31,25.458 32.338,26.258 34.366,26.334 36.394,26.332 38.423,24.285 40.451,23.231 42.479,21.615 44.507,20.517 46.535,19.155 48.563,19.712 50.592,21.862 52.62,21.865 54.648,22.813 56.676,24.749 58.704,25.881 60.732,27.449 62.761,25.446 64.789,25.189 66.817,22.828 68.845,23.261 70.873,20.848 72.901,20.788 74.93,20.8 76.958,22.233 78.986,22.766 81.014,24.266 83.042,24.083 85.07,26.321 87.099,25.797 89.127,25.252 91.155,24.11 93.183,23.174 95.211,23.19 97.239,21.881 99.268,20.744 101.296,21.384 103.324,22.88 105.352,22.656 107.38,23.498 109.408,25.405 111.437,25.361 113.465,25.223 115.493,26.067 117.521,24.351 119.549,22.892 121.577,22.02 123.606,21.942 125.634,22.038 127.662,21.854 129.69,21.707 131.718,22.073 133.746,24.358 135.775,24.939 137.803,24.733 139.831,25.148 141.859,24.699 143.887,23.393 145.915,24.174 147.944,22.76 149.972,23.115 152,22.215" fill="none" stroke="#1fdcf5" stroke-width="1.8" stroke-linecap="round" stroke-linejoin="round" filter="url(#glow)"/>
</svg>
