<svg xmlns="http://www.w3.org/2000/svg" width="160" height="48" viewBox="0 0 160 48" role="img" aria-label="Waveform 126 Silence">
  <defs>
    <filter id="glow">
      <feGaussianBlur stdDeviation="1.5" result="coloredBlur"/>
      <feMerge>
        <feMergeNode in="coloredBlur"/>
        <feMergeNode in="SourceGraphic"/>
      </feMerge>
    </filter>
  </defs>
  <rect x="0" y="0" width="160" height="48" fill="#1f2025"/>
  <polyline points="8,24 10.028,24 12.056,24 14.085,24 16.113,24 18.141,24 20.169,24 22.197,24 24.225,24 26.254,24 28.282,24 30.31,24 32.338,24 34.366,24 36.394,24 38.423,24 40.451,24 42.479,24 44.507,24 46.535,24 48.563,24 50.592,24 52.62,24 54.648,24 56.676,24 58.704,24 60.732,24 62.761,24 64.789,24 66.817,24 68.845,24 70.873,24 72.901,24 74.93,24 76.958,24 78.986,24 81.014,24 83.042,24 85.07,24 87.099,24 89.127,24 91.155,24 93.183,24 95.211,24 97.239,24 99.268,24 101.296,24 103.324,24 105.352,24 107.38,24 109.408,24 111.437,24 113.465,24 115.493,24 117.521,24 119.549,24 121.577,24 123.606,24 125.634,24 127.662,24 129.69,24 131.718,24 133.746,24 135.775,24 137.803,24 139.831,24 141.859,24 143.887,24 145.915,24 147.944,24 149.972,24 152,24" fill="none" stroke="#1fdcf5" stroke-width="1.8" stroke-linecap="round" stroke-linejoin="round" filter="url(#glow)"/>
</svg>
