<svg xmlns="http://www.w3.org/2000/svg" width="160" height="48" viewBox="0 0 160 48" role="img" aria-label="Waveform 127 White Noise">
  <defs>
    <filter id="glow">
      <feGaussianBlur stdDeviation="1.5" result="coloredBlur"/>
      <feMerge>
        <feMergeNode in="coloredBlur"/>
        <feMergeNode in="SourceGraphic"/>
      </feMerge>
    </filter>
  </defs>
  <rect x="0" y="0" width="160" height="48" fill="#1f2025"/>
  <polyline points="8,32.24 10.028,29.82 12.056,27.517 14.085,25.012 16.113,24.409 18.141,21.651 20.169,17.63 22.197,18.904 24.225,20.197 26.254,21.273 28.282,23.761 30.31,25.898 32.338,28.036 34.366,28.483 36.394,26.785 38.423,25.755 40.451,21.651 42.479,20.872 44.507,17.632 46.535,16.325 48.563,16.284 50.592,19.602 52.62,23.113 54.648,24.582 56.676,27.577 58.704,28.352 60.732,29.508 62.761,29.441 64.789,26.688 66.817,24.055 68.845,23.546 70.873,22.12 72.901,19.452 74.93,18.902 76.958,22.673 78.986,23.36 81.014,24.046 83.042,24.892 85.07,28.59 87.099,27.175 89.127,26.399 91.155,23.465 93.183,23.459 95.211,20.332 97.239,19.13 99.268,19.02 101.296,21.407 103.324,22.825 105.352,24.999 107.38,27.917 109.408,28.979 111.437,30.331 113.465,32.654 115.493,29.555 117.521,27.047 119.549,23.178 121.577,21.385 123.606,19.608 125.634,17.986 127.662,16.834 129.69,21.168 131.718,20.518 133.746,24.13 135.775,24.314 137.803,26.519 139.831,27.274 141.859,26.753 143.887,25.407 145.915,23.779 147.944,22.882 149.972,20.502 152,21.41" fill="none" stroke="#1fdcf5" stroke-width="1.8" stroke-linecap="round" stroke-linejoin="round" filter="url(#glow)"/>
</svg>
